<?xml version="1.0" standalone="no"?>
<!DOCTYPE svg PUBLIC "-//W3C//DTD SVG 20010904//EN"
 "http://www.w3.org/TR/2001/REC-SVG-20010904/DTD/svg10.dtd">
<svg version="1.0" xmlns="http://www.w3.org/2000/svg"
 width="1917.000000pt" height="938.000000pt" viewBox="0 0 1917.000000 938.000000"
 preserveAspectRatio="xMidYMid meet">

<g transform="translate(0.000000,938.000000) scale(0.100000,-0.100000)"
fill="#000000" stroke="none">
<path d="M0 4690 l0 -4690 9585 0 9585 0 0 4690 0 4690 -9585 0 -9585 0 0
-4690z m19125 4600 c18 -20 17 -20 -20 -20 -37 0 -38 0 -20 20 10 11 19 20 20
20 1 0 10 -9 20 -20z m-18585 -82 c82 -41 109 -134 64 -219 -13 -26 -67 -69
-85 -69 -4 0 -9 17 -11 39 -3 34 0 40 24 49 34 12 43 46 31 109 -7 35 -13 47
-24 43 -18 -6 -120 -6 -138 0 -11 4 -17 -8 -24 -43 -12 -64 -3 -95 34 -111 16
-7 26 -15 22 -19 -11 -12 -40 -8 -53 8 -23 28 -32 15 -10 -15 12 -16 30 -30
41 -30 10 0 19 -7 19 -15 0 -20 -8 -19 -48 5 -35 22 -71 87 -72 130 0 14 10
46 23 70 24 48 88 90 137 90 14 0 46 -10 70 -22z m17194 -94 c9 -8 16 -28 16
-44 0 -16 5 -32 10 -35 6 -3 10 -13 10 -21 0 -11 -16 -14 -70 -14 -54 0 -70 3
-70 14 0 8 5 18 10 21 6 3 10 19 10 35 0 33 23 60 50 60 10 0 26 -7 34 -16z
m-16774 -5 l-25 -10 29 -24 c34 -27 30 -55 -9 -55 -14 0 -25 4 -25 9 0 5 9 7
20 4 28 -7 26 20 -2 39 -27 18 -18 48 14 47 23 0 23 0 -2 -10z m320 -4 c0 -8
9 -15 19 -15 10 0 22 -7 25 -16 9 -24 7 -54 -4 -54 -5 0 -10 14 -10 31 0 38
-24 35 -28 -4 -6 -47 -22 -29 -22 23 0 28 5 50 10 50 6 0 10 -7 10 -15z m649
-23 c-14 -5 -11 -50 4 -55 7 -4 6 -6 -4 -6 -12 -1 -18 9 -21 33 -5 46 0 59 17
43 7 -7 9 -13 4 -15z m1819 1 c2 -16 -4 -26 -22 -35 -14 -6 -26 -17 -26 -25 0
-7 -4 -13 -10 -13 -5 0 -10 23 -10 51 l0 50 33 -3 c24 -2 33 -8 35 -25z m112
-23 c0 -27 -4 -50 -10 -50 -5 0 -10 23 -10 50 0 28 5 50 10 50 6 0 10 -22 10
-50z m40 0 c0 -27 -4 -50 -10 -50 -5 0 -10 23 -10 50 0 28 5 50 10 50 6 0 10
-22 10 -50z m780 0 c0 -38 -4 -50 -15 -50 -11 0 -15 12 -15 50 0 38 4 50 15
50 11 0 15 -12 15 -50z m555 10 l12 -35 12 38 c19 55 41 49 41 -13 0 -54 -19
-71 -21 -17 l-1 32 -10 -32 c-13 -40 -23 -41 -42 -5 l-15 27 -1 -27 c0 -16 -4
-28 -10 -28 -5 0 -10 23 -10 51 0 42 3 50 17 47 9 -2 22 -19 28 -38z m235 22
c0 -16 7 -18 47 -15 30 3 49 -1 55 -9 13 -22 9 -28 -18 -28 -15 0 -23 -4 -19
-11 4 -6 13 -8 21 -5 8 3 14 1 14 -4 0 -5 -29 -8 -65 -8 l-65 1 0 29 c0 37
-24 33 -28 -5 -5 -39 -22 -33 -22 8 0 31 3 35 25 35 16 0 25 6 25 15 0 8 7 15
15 15 8 0 15 -8 15 -18z m280 -16 c0 -30 2 -33 25 -28 14 2 22 8 20 13 -3 4
-12 6 -20 2 -8 -3 -15 0 -15 7 0 6 11 10 28 8 22 -2 28 -8 30 -35 l3 -33 -50
1 -51 2 0 48 c0 37 4 49 15 49 10 0 15 -10 15 -34z m440 24 c0 -5 -7 -10 -15
-10 -8 0 -15 -4 -15 -10 0 -5 7 -10 15 -10 8 0 15 -4 15 -10 0 -5 -7 -10 -15
-10 -23 0 -18 -17 7 -23 27 -7 40 10 27 35 -7 14 -6 18 6 18 8 0 15 -6 16 -12
0 -10 2 -10 6 0 2 6 11 12 19 12 11 0 12 -4 2 -19 -9 -15 -9 -23 1 -35 11 -13
11 -16 -3 -16 -9 0 -16 5 -16 12 0 9 -3 9 -12 0 -7 -7 -31 -12 -55 -12 l-43 0
0 50 c0 49 1 50 30 50 17 0 30 -4 30 -10z m190 -40 c0 -27 -4 -50 -10 -50 -5
0 -10 23 -10 50 0 28 5 50 10 50 6 0 10 -22 10 -50z m11650 19 c0 -12 7 -19
20 -19 11 0 20 -4 20 -10 0 -5 -9 -10 -20 -10 -13 0 -20 -7 -20 -20 0 -11 -4
-20 -10 -20 -5 0 -10 9 -10 20 0 13 -7 20 -19 20 -11 0 -23 5 -26 10 -4 6 5
10 19 10 21 0 26 5 26 26 0 14 4 23 10 19 6 -3 10 -15 10 -26z m-13619 14 c6
-82 6 -84 -10 -81 -9 2 -18 14 -21 28 -3 14 -12 26 -22 26 -22 2 -23 -5 -1
-21 9 -7 13 -17 9 -23 -9 -15 -43 -15 -52 0 -5 8 -2 9 9 5 10 -3 17 -2 17 3 0
6 -4 10 -10 10 -5 0 -10 9 -10 20 0 16 7 20 30 20 17 0 30 5 30 10 0 11 30 14
31 3z m1210 0 c6 -82 6 -84 -10 -81 -16 3 -31 52 -23 76 4 13 32 17 33 5z
m-4561 -23 c9 -18 8 -20 -15 -20 -31 0 -33 -17 -2 -23 19 -4 19 -4 -5 -6 -31
-1 -47 31 -28 54 17 21 37 19 50 -5z m70 -16 c0 -32 -2 -35 -25 -32 -32 4 -35
20 -5 34 13 7 18 14 11 18 -6 4 -15 4 -21 1 -5 -3 -10 -1 -10 4 0 6 11 11 25
11 22 0 25 -4 25 -36z m53 29 c-7 -2 -13 -18 -13 -34 0 -16 -4 -29 -10 -29 -5
0 -10 16 -10 35 0 30 3 35 23 34 12 0 16 -3 10 -6z m67 -2 c0 -5 -8 -8 -17 -7
-12 1 -18 -6 -18 -19 0 -13 6 -20 18 -19 9 1 17 -2 17 -7 0 -16 -39 -9 -49 8
-12 23 4 53 29 53 11 0 20 -4 20 -9z m191 -7 c17 -21 0 -49 -32 -49 -24 0 -36
23 -25 51 7 19 40 18 57 -2z m52 9 c-7 -2 -13 -18 -13 -34 0 -16 -4 -29 -10
-29 -5 0 -10 16 -10 35 0 30 3 35 23 34 12 0 16 -3 10 -6z m77 -26 c0 -35 -23
-77 -36 -64 -4 4 -2 7 4 7 7 0 12 17 12 45 0 25 5 45 10 45 6 0 10 -15 10 -33z
m30 2 c0 -39 22 -34 31 7 6 27 7 26 8 -9 1 -36 -1 -38 -26 -35 -23 2 -29 8
-31 36 -2 18 1 32 7 32 6 0 11 -14 11 -31z m158 -7 l-1 -37 -4 33 c-5 40 -26
38 -32 -4 l-4 -29 -6 29 c-8 38 -25 40 -29 4 -5 -40 -22 -34 -22 6 l0 35 50
-1 50 0 -2 -36z m87 3 c0 -23 -5 -31 -22 -33 -13 -2 -23 -10 -23 -18 0 -8 -4
-14 -10 -14 -5 0 -10 23 -10 51 l0 50 33 -3 c28 -3 32 -6 32 -33z m166 19 c17
-21 0 -49 -32 -49 -24 0 -36 23 -25 51 7 19 40 18 57 -2z m1769 -19 c0 -16 6
-25 15 -25 9 0 15 9 15 25 0 14 5 25 10 25 6 0 10 -16 10 -36 0 -34 -1 -35
-32 -32 -29 3 -33 7 -36 36 -2 18 1 32 7 32 6 0 11 -11 11 -25z m282 12 c5 -9
10 -9 20 1 6 6 25 12 40 12 27 0 28 -2 28 -50 0 -27 -4 -50 -10 -50 -5 0 -10
7 -10 15 0 9 -9 15 -24 15 -13 0 -26 7 -30 15 -3 8 -17 15 -31 15 -16 0 -24
-4 -20 -11 4 -6 13 -8 21 -5 8 3 14 1 14 -5 0 -6 -12 -9 -27 -7 -22 2 -29 9
-31 31 -4 37 -22 35 -22 -3 0 -20 -5 -30 -15 -30 -10 0 -15 10 -15 34 l0 35
53 -1 c28 0 55 -5 59 -11z m120 -12 c4 -35 22 -36 26 -2 5 40 22 33 22 -9 0
-34 -1 -35 -32 -32 -29 3 -33 7 -36 36 -4 37 15 44 20 7z m118 21 c0 -2 3 -11
6 -20 5 -12 0 -16 -21 -16 -16 0 -24 -4 -20 -11 4 -6 13 -8 21 -5 8 3 14 1 14
-5 0 -6 -12 -9 -27 -7 -47 5 -45 68 2 68 14 0 25 -2 25 -4z m180 -7 c0 -6 -7
-9 -15 -5 -8 3 -15 1 -15 -4 0 -6 7 -10 16 -10 24 0 12 -35 -14 -38 -12 -2
-22 1 -22 7 0 6 7 8 15 5 8 -4 15 -1 15 5 0 6 -7 11 -15 11 -15 0 -21 21 -8
33 11 11 43 8 43 -4z m260 0 c0 -6 -7 -9 -15 -5 -8 3 -15 1 -15 -4 0 -6 7 -10
16 -10 24 0 12 -35 -14 -38 -12 -2 -22 1 -22 7 0 6 7 8 15 5 8 -4 15 -1 15 5
0 6 -7 11 -15 11 -15 0 -21 21 -8 33 11 11 43 8 43 -4z m60 0 c0 -6 -7 -9 -15
-5 -8 3 -15 1 -15 -4 0 -6 7 -10 16 -10 24 0 12 -35 -14 -38 -12 -2 -22 1 -22
7 0 6 7 8 15 5 8 -4 15 -1 15 5 0 6 -7 11 -15 11 -15 0 -21 21 -8 33 11 11 43
8 43 -4z m30 -14 c0 -16 6 -25 15 -25 9 0 15 9 15 25 0 14 5 25 10 25 6 0 10
-16 10 -36 0 -34 -1 -35 -32 -32 -29 3 -33 7 -36 36 -2 18 1 32 7 32 6 0 11
-11 11 -25z m120 21 c0 -2 3 -11 6 -20 5 -12 0 -16 -21 -16 -16 0 -24 -4 -20
-11 4 -6 13 -8 21 -5 8 3 14 1 14 -5 0 -6 -12 -9 -27 -7 -47 5 -45 68 2 68 14
0 25 -2 25 -4z m70 -7 c0 -6 -7 -9 -15 -5 -20 7 -19 -4 2 -19 9 -7 13 -17 9
-23 -9 -15 -43 -15 -52 0 -5 8 -2 9 9 5 10 -3 17 -2 17 3 0 6 -4 10 -10 10 -5
0 -10 9 -10 20 0 15 7 20 25 20 14 0 25 -5 25 -11z m358 -27 c3 -32 2 -33 -30
-30 -38 4 -46 31 -10 36 12 2 20 7 17 12 -3 5 -12 7 -20 3 -8 -3 -15 0 -15 7
0 6 11 10 28 8 23 -2 28 -8 30 -36z m327 3 c0 -23 -5 -31 -22 -33 -13 -2 -23
-10 -23 -18 0 -8 -4 -14 -10 -14 -5 0 -10 23 -10 51 l0 50 33 -3 c28 -3 32 -6
32 -33z m185 25 c0 -5 -9 -10 -20 -10 -11 0 -20 -7 -20 -15 0 -8 9 -15 20 -15
11 0 20 -5 20 -11 0 -6 -12 -9 -27 -7 -28 3 -40 25 -29 54 6 16 56 20 56 4z
m68 -12 c2 -13 -3 -18 -18 -18 -12 0 -19 -4 -15 -10 3 -5 12 -7 20 -3 8 3 15
0 15 -7 0 -17 -51 -8 -63 12 -8 12 -7 21 3 33 17 20 54 16 58 -7z m387 -13 c0
-23 -5 -31 -22 -33 -13 -2 -23 -10 -23 -18 0 -8 -4 -14 -10 -14 -5 0 -10 23
-10 51 l0 50 33 -3 c28 -3 32 -6 32 -33z m122 19 c9 -24 -10 -49 -37 -49 -31
0 -48 28 -31 49 17 21 60 21 68 0z m125 3 c13 -21 9 -27 -18 -27 -14 0 -23 -4
-19 -10 3 -5 12 -7 20 -3 8 3 15 0 15 -7 0 -6 -11 -10 -27 -8 -22 2 -29 9 -31
31 -4 35 -26 30 -30 -6 -5 -39 -22 -33 -22 7 l0 35 53 -1 c28 0 55 -5 59 -11z
m12090 -9 l-22 -22 -22 22 -22 22 44 0 44 0 -22 -22z m-480 -10 l-22 -22 -22
22 -22 22 44 0 44 0 -22 -22z m-14891 -21 c-10 -9 -11 -8 -5 6 3 10 9 15 12
12 3 -3 0 -11 -7 -18z m-1261 3 c0 -5 -4 -10 -10 -10 -5 0 -10 5 -10 10 0 6 5
10 10 10 6 0 10 -4 10 -10z m70 0 c0 -5 -4 -10 -10 -10 -5 0 -10 5 -10 10 0 6
5 10 10 10 6 0 10 -4 10 -10z m15592 -52 c-9 -9 -15 -9 -24 0 -9 9 -7 12 12
12 19 0 21 -3 12 -12z m-17262 -518 c0 -66 -1 -70 -22 -69 -17 1 -19 2 -5 6 9
2 17 11 17 19 0 12 -11 14 -47 12 -34 -2 -47 -7 -45 -16 1 -8 -2 -11 -8 -7
-11 7 -14 108 -3 118 3 4 30 7 60 7 l53 0 0 -70z m387 -52 c-2 -24 -4 -7 -4
37 0 44 2 63 4 43 2 -21 2 -57 0 -80z m50 0 c-2 -24 -4 -7 -4 37 0 44 2 63 4
43 2 -21 2 -57 0 -80z m240 0 c-2 -24 -4 -7 -4 37 0 44 2 63 4 43 2 -21 2 -57
0 -80z m160 0 c-2 -24 -4 -7 -4 37 0 44 2 63 4 43 2 -21 2 -57 0 -80z m580 0
c-2 -24 -4 -7 -4 37 0 44 2 63 4 43 2 -21 2 -57 0 -80z m356 87 c-3 -9 -8 -14
-10 -11 -3 3 -2 9 2 15 9 16 15 13 8 -4z m104 -2 c3 -10 13 -34 21 -53 l14
-35 24 53 c35 76 54 70 54 -18 0 -40 -4 -70 -10 -70 -5 0 -10 23 -10 51 0 57
-13 57 -30 1 -19 -59 -27 -59 -54 -1 l-24 54 -1 -52 c-1 -29 -5 -53 -11 -53
-6 0 -10 30 -10 70 0 56 3 70 15 70 9 0 18 -8 22 -17z m273 7 c0 -5 -4 -10
-10 -10 -5 0 -10 5 -10 10 0 6 5 10 10 10 6 0 10 -4 10 -10z m170 -50 c0 -57
1 -60 25 -60 14 0 25 -4 25 -10 0 -5 -16 -10 -35 -10 l-35 0 0 70 c0 40 4 70
10 70 6 0 10 -27 10 -60z m100 56 c0 -11 -19 -15 -25 -6 -3 5 1 10 9 10 9 0
16 -2 16 -4z m205 -6 c4 -6 -7 -10 -24 -10 -41 0 -41 -24 -1 -45 39 -20 42
-62 5 -71 -14 -3 -33 -3 -42 2 -14 6 -11 9 15 12 41 4 42 26 2 47 -31 16 -39
42 -18 63 15 15 54 16 63 2z m225 0 c0 -5 -4 -10 -10 -10 -5 0 -10 5 -10 10 0
6 5 10 10 10 6 0 10 -4 10 -10z m250 -22 l0 -33 26 33 c14 17 30 32 36 32 6 0
-1 -16 -16 -35 l-26 -34 31 -36 c19 -21 26 -35 18 -35 -8 0 -26 14 -41 32
l-27 33 -1 -32 c0 -18 -4 -33 -10 -33 -6 0 -10 30 -10 70 0 40 4 70 10 70 6 0
10 -15 10 -32z m13245 12 c4 -13 15 -20 31 -20 27 0 33 -17 9 -26 -9 -4 -15
-19 -15 -35 0 -27 -2 -29 -20 -19 -14 8 -26 8 -40 0 -18 -10 -20 -8 -20 19 0
16 -6 31 -15 35 -24 9 -18 26 9 26 16 0 27 7 31 20 3 11 10 20 15 20 5 0 12
-9 15 -20z m-15117 -21 c15 -1 15 -2 0 -6 -13 -3 -18 -14 -18 -38 0 -22 6 -38
18 -45 15 -10 15 -10 -3 -8 -15 2 -21 12 -23 43 -2 22 -9 43 -15 47 -9 6 -9 8
1 8 6 0 13 8 13 18 1 16 2 16 6 0 2 -10 12 -19 21 -19z m1816 -2 c8 -6 7 -10
-1 -14 -7 -2 -13 -17 -13 -33 0 -16 6 -30 13 -33 6 -2 9 -8 5 -12 -16 -17 -38
5 -38 39 0 19 -5 36 -12 38 -7 3 -5 12 8 26 13 15 20 18 23 10 2 -7 9 -17 15
-21z m-2896 3 c15 -1 15 -2 0 -11 -22 -12 -23 -52 -2 -73 13 -14 13 -16 0 -16
-16 0 -24 19 -26 65 -3 42 0 63 7 48 2 -7 12 -13 21 -13z m14664 4 c-12 -8
-22 -24 -22 -34 0 -10 10 -26 22 -34 12 -9 18 -16 14 -16 -16 0 -46 32 -46 48
0 18 29 52 44 52 6 0 0 -7 -12 -16z m90 -1 c10 -9 18 -23 18 -31 0 -18 -29
-52 -44 -52 -6 0 0 7 12 16 12 8 22 24 22 34 0 10 -10 26 -22 34 -12 9 -18 16
-14 16 5 0 18 -7 28 -17z m90 -30 c2 -21 8 -38 13 -38 6 0 11 17 13 38 2 20 8
37 13 37 16 0 6 -72 -12 -83 -29 -18 -49 -1 -49 43 0 51 18 53 22 3z m419 7
c15 0 19 -7 18 -32 -1 -28 -2 -30 -7 -10 -4 13 -11 23 -17 23 -5 0 -13 -10
-17 -23 -4 -15 -6 -5 -6 27 0 28 2 42 5 33 2 -10 13 -18 24 -18z m469 -15 c0
-25 -4 -45 -10 -45 -5 0 -10 16 -10 35 0 19 -5 35 -11 35 -5 0 -7 5 -4 10 3 6
13 10 21 10 10 0 14 -12 14 -45z m660 35 c0 -5 -7 -7 -15 -4 -21 9 -19 -10 4
-30 11 -10 17 -24 14 -32 -6 -16 -53 -19 -53 -3 0 5 5 7 10 4 6 -3 15 -3 21 1
8 5 4 13 -11 24 -15 11 -21 23 -17 34 7 17 47 23 47 6z m466 -14 c9 -38 -4
-68 -29 -64 -23 3 -35 43 -23 74 9 24 45 17 52 -10z m1110 -3 c8 -32 -6 -58
-32 -58 -20 0 -31 41 -20 71 10 25 45 16 52 -13z m-17920 -18 c8 -43 20 -45
29 -5 10 45 21 44 35 -3 l13 -42 9 35 c5 19 14 40 20 45 7 7 9 7 5 0 -3 -5
-10 -29 -16 -52 -14 -52 -27 -55 -35 -8 -8 41 -21 38 -31 -5 -9 -43 -19 -37
-37 20 -9 28 -12 50 -8 50 5 0 12 -16 16 -35z m141 -42 c-2 -16 -4 -3 -4 27 0
30 2 43 4 28 2 -16 2 -40 0 -55z m211 65 c7 -7 12 -24 12 -38 0 -30 -16 -50
-41 -50 -23 0 -49 27 -49 50 0 39 52 64 78 38z m242 -7 c15 -29 13 -31 -25
-31 -24 0 -35 -5 -35 -14 0 -17 35 -30 51 -20 8 4 9 3 5 -4 -9 -15 -39 -15
-54 0 -15 15 -15 61 0 76 18 18 46 14 58 -7z m110 -7 c13 -32 13 -74 1 -74 -6
0 -11 19 -13 43 -2 33 -7 42 -20 41 -10 -1 -15 2 -12 7 11 18 35 9 44 -17z
m51 -27 c-4 -61 -11 -59 -11 3 0 29 3 50 7 46 4 -4 6 -26 4 -49z m113 47 c9
-3 16 -15 16 -25 0 -15 -7 -19 -31 -19 -24 0 -30 -4 -27 -17 2 -12 13 -18 30
-18 15 1 24 -3 22 -7 -16 -26 -74 7 -74 42 0 19 25 50 40 50 5 0 15 -3 24 -6z
m266 -13 c15 -29 13 -31 -25 -31 -24 0 -35 -5 -35 -14 0 -17 35 -30 51 -20 8
4 9 3 5 -4 -9 -15 -39 -15 -54 0 -7 7 -12 24 -12 38 0 48 49 69 70 31z m47
-58 c-2 -16 -4 -3 -4 27 0 30 2 43 4 28 2 -16 2 -40 0 -55z m151 65 c23 -23
13 -38 -23 -38 -43 0 -48 -24 -7 -38 22 -9 23 -11 7 -11 -28 -1 -45 17 -45 49
0 29 16 50 40 50 9 0 21 -5 28 -12z m72 4 c29 18 50 -6 49 -56 l-1 -41 -8 38
c-4 21 -12 43 -18 49 -18 18 -40 -8 -45 -50 -3 -26 -4 -21 -5 18 0 30 2 50 5
43 3 -9 9 -10 23 -1z m151 -19 c-12 -20 -14 -14 -5 12 4 9 9 14 11 11 3 -2 0
-13 -6 -23z m337 15 c21 -21 13 -38 -18 -38 -42 0 -40 -28 3 -32 l32 -4 -28
-8 c-34 -10 -57 7 -57 43 0 30 16 51 40 51 9 0 21 -5 28 -12z m62 -38 c0 -27
-4 -50 -10 -50 -5 0 -10 23 -10 50 0 28 5 50 10 50 6 0 10 -22 10 -50z m106
-5 c2 -48 2 -48 -5 -10 -5 31 -10 40 -26 40 -16 0 -21 -8 -23 -37 -5 -55 -22
-46 -22 11 l0 48 38 -1 37 -1 1 -50z m151 -22 c-2 -16 -4 -3 -4 27 0 30 2 43
4 28 2 -16 2 -40 0 -55z m101 65 c7 -7 12 -28 12 -49 0 -35 -1 -36 -37 -35
-50 1 -59 32 -14 49 38 14 40 27 5 27 -14 0 -23 4 -19 10 8 14 38 13 53 -2z
m217 2 c3 -6 -5 -10 -18 -10 -26 0 -40 -20 -31 -45 4 -8 17 -15 31 -15 13 0
21 -4 18 -10 -11 -18 -44 -10 -61 15 -15 23 -15 27 0 50 17 25 50 33 61 15z
m85 -1 c0 -5 -7 -9 -15 -9 -8 0 -17 -10 -19 -22 -3 -13 -7 -32 -9 -43 -3 -11
-5 3 -6 30 -1 47 1 50 24 51 14 1 25 -2 25 -7z m40 -39 c0 -27 -4 -50 -10 -50
-5 0 -10 23 -10 50 0 28 5 50 10 50 6 0 10 -22 10 -50z m50 39 c0 -8 4 -8 15
1 25 21 55 3 55 -34 0 -39 -21 -60 -50 -51 -17 5 -20 2 -20 -24 0 -17 -4 -31
-10 -31 -6 0 -10 32 -10 75 0 43 4 75 10 75 6 0 10 -5 10 -11z m338 -67 c20
-3 22 1 22 37 0 23 5 41 10 41 6 0 10 -22 10 -49 l0 -48 -37 1 -38 1 -1 50
c-2 48 -2 48 5 10 5 -31 11 -41 29 -43z m132 67 c0 -3 -9 -9 -20 -12 -15 -4
-20 -14 -20 -41 0 -20 -4 -36 -10 -36 -5 0 -10 22 -10 48 0 47 1 49 30 49 17
0 30 -4 30 -8z m70 1 c0 -5 -9 -10 -20 -10 -11 0 -20 -4 -20 -10 0 -5 4 -10 8
-10 5 0 17 -6 27 -14 16 -12 17 -16 6 -30 -15 -17 -61 -22 -61 -6 0 6 11 10
25 10 14 0 25 5 25 10 0 6 -4 10 -8 10 -5 0 -17 6 -27 14 -16 12 -17 16 -6 30
15 18 51 22 51 6z m11861 3 c4 -46 2 -72 -6 -70 -12 4 -23 47 -17 65 5 13 22
17 23 5z m1278 -21 c-12 -5 -12 -42 0 -42 5 0 11 7 15 15 3 8 13 15 23 16 16
0 16 2 -2 10 -18 8 -18 8 5 6 19 -1 26 -8 28 -29 3 -26 1 -27 -41 -26 -41 0
-45 3 -49 28 -6 39 0 52 17 37 7 -7 9 -13 4 -15z m-1721 -12 c-2 -6 -8 -6 -18
0 -13 9 -13 11 0 20 15 10 25 0 18 -20z m250 -12 c2 -16 -1 -28 -7 -28 -6 0
-11 12 -11 26 0 14 -4 23 -10 19 -5 -3 -10 -15 -10 -26 0 -10 -4 -19 -10 -19
-5 0 -10 14 -10 31 0 27 3 30 28 27 21 -2 28 -9 30 -30z m42 15 c0 20 16 23
23 5 4 -10 8 -9 16 2 9 13 11 12 11 -5 0 -11 -5 -27 -10 -35 -9 -13 -11 -13
-20 0 -9 13 -11 13 -19 0 -12 -18 -18 -13 -26 25 -6 29 -6 29 9 11 14 -17 16
-18 16 -3z m118 -16 c3 -26 1 -28 -24 -25 -35 4 -44 27 -13 35 22 6 22 7 3 15
-16 6 -15 7 6 5 19 -1 26 -8 28 -30z m92 22 c0 -5 -4 -8 -9 -4 -19 11 -24 -18
-6 -32 16 -11 16 -13 3 -13 -26 0 -43 27 -28 45 14 17 40 20 40 4z m1333 4
c-7 -2 -13 -16 -13 -29 0 -13 -4 -24 -10 -24 -5 0 -10 14 -10 30 0 25 4 30 23
29 12 0 16 -3 10 -6z m-1126 -20 c-16 -16 -18 -16 -34 0 -16 16 -15 17 17 17
32 0 33 -1 17 -17z m-14934 0 c-7 -2 -21 -2 -30 0 -10 3 -4 5 12 5 17 0 24 -2
18 -5z m520 0 c-7 -2 -21 -2 -30 0 -10 3 -4 5 12 5 17 0 24 -2 18 -5z m573
-40 c-8 -15 -15 -25 -16 -21 0 12 23 58 27 54 3 -2 -2 -17 -11 -33z m-1776 14
c0 -7 -9 -13 -20 -13 -11 0 -20 6 -20 13 0 7 9 13 20 13 11 0 20 -6 20 -13z
m8265 -438 c4 -5 17 -14 30 -19 18 -7 22 -16 22 -50 0 -29 -5 -43 -16 -47 -9
-3 -24 -13 -33 -21 -16 -13 -20 -13 -35 0 -10 8 -25 18 -34 21 -11 4 -16 18
-16 47 0 34 4 43 22 50 13 5 26 14 30 19 3 6 10 11 15 11 5 0 12 -5 15 -11z
m-7910 -26 c-11 -3 -27 -10 -35 -17 -13 -10 -13 -9 -1 7 7 9 23 16 35 16 20
-1 20 -2 1 -6z m172 -70 c-2 -16 -4 -3 -4 27 0 30 2 43 4 28 2 -16 2 -40 0
-55z m660 0 c-2 -16 -4 -3 -4 27 0 30 2 43 4 28 2 -16 2 -40 0 -55z m967 68
c3 -4 -6 -6 -19 -3 -14 2 -25 6 -25 8 0 8 39 4 44 -5z m113 -68 c-2 -16 -4 -3
-4 27 0 30 2 43 4 28 2 -16 2 -40 0 -55z m2247 68 c3 -4 -6 -6 -19 -3 -14 2
-25 6 -25 8 0 8 39 4 44 -5z m1189 -35 c22 18 22 18 5 -1 -17 -18 -17 -20 0
-39 17 -21 17 -21 -5 -3 -21 18 -21 18 -26 0 -3 -10 -4 7 -4 37 0 33 2 42 4
22 4 -34 5 -34 26 -16z m660 37 c-13 -2 -23 -9 -23 -15 0 -5 10 -19 23 -29
l22 -20 -27 17 c-40 24 -36 55 6 53 19 -2 19 -2 -1 -6z m1024 -70 c-2 -16 -4
-3 -4 27 0 30 2 43 4 28 2 -16 2 -40 0 -55z m316 43 c21 4 21 4 2 -4 -11 -5
-23 -22 -26 -38 -5 -21 -7 -13 -6 26 0 30 2 45 4 34 3 -16 10 -21 26 -18z
m757 24 c0 -6 -7 -10 -16 -8 -25 4 -28 -19 -4 -27 32 -10 23 -49 -12 -53 -16
-2 -28 2 -28 8 0 6 6 10 13 9 37 -5 40 2 13 24 -20 16 -27 29 -23 40 7 18 57
24 57 7z m210 0 c0 -5 -5 -10 -11 -10 -5 0 -7 5 -4 10 3 6 8 10 11 10 2 0 4
-4 4 -10z m-5047 -49 c2 -42 -10 -43 -13 -1 -3 37 -1 54 6 47 3 -3 7 -24 7
-46z m1947 39 c0 -5 -4 -10 -10 -10 -5 0 -10 5 -10 10 0 6 5 10 10 10 6 0 10
-4 10 -10z m2199 -18 c-12 -5 -11 -49 1 -55 6 -3 5 -4 -2 -3 -14 3 -27 52 -20
73 3 9 7 9 17 0 7 -7 9 -13 4 -15z m811 18 c0 -14 28 -12 33 3 8 22 19 -1 20
-42 1 -27 -2 -41 -10 -41 -8 0 -13 13 -13 30 0 21 -5 30 -16 30 -12 0 -15 -7
-12 -30 3 -19 0 -30 -8 -30 -12 0 -23 57 -16 79 5 14 22 15 22 1z m-8136 -19
c4 -5 -3 -7 -14 -4 -23 6 -26 13 -6 13 8 0 17 -4 20 -9z m156 5 c0 -2 -9 -6
-20 -9 -11 -3 -18 -1 -14 4 5 9 34 13 34 5z m647 -2 c-3 -3 -12 -4 -19 -1 -8
3 -5 6 6 6 11 1 17 -2 13 -5z m51 -1 c-10 -2 -18 -7 -18 -10 0 -3 8 -12 18
-20 15 -13 15 -13 -5 -3 -33 15 -28 41 6 39 13 -1 13 -2 -1 -6z m39 -30 c-3
-10 -5 -4 -5 12 0 17 2 24 5 18 2 -7 2 -21 0 -30z m53 4 c0 -29 -3 -33 -27
-34 -26 -2 -27 -1 -5 7 15 6 22 18 22 35 0 14 2 25 5 25 3 0 5 -15 5 -33z
m127 27 c-3 -3 -12 -4 -19 -1 -8 3 -5 6 6 6 11 1 17 -2 13 -5z m636 -15 c-6
-6 -19 -9 -29 -6 -16 4 -15 5 4 6 12 0 22 6 22 13 0 6 3 8 7 5 4 -4 2 -12 -4
-18z m59 -36 c15 4 18 3 10 -5 -20 -20 -42 -1 -40 34 l1 33 4 -33 c4 -29 8
-33 25 -29z m248 53 c0 -2 -9 -6 -20 -9 -11 -3 -18 -1 -14 4 5 9 34 13 34 5z
m73 -3 c3 -5 -5 -8 -18 -8 -13 0 -21 3 -18 8 2 4 10 7 18 7 8 0 16 -3 18 -7z
m69 -50 c15 4 18 3 10 -5 -20 -20 -42 -1 -40 34 l1 33 4 -33 c4 -29 8 -33 25
-29z m92 48 c4 -5 -3 -7 -14 -4 -11 3 -20 1 -20 -5 0 -6 10 -13 23 -15 19 -4
18 -4 -5 -6 -27 -1 -38 16 -21 32 9 10 31 9 37 -2z m54 2 c-10 -2 -18 -7 -18
-10 0 -3 8 -12 18 -20 15 -13 15 -13 -5 -3 -33 15 -28 41 6 39 13 -1 13 -2 -1
-6z m59 1 c-3 -3 -12 -4 -19 -1 -8 3 -5 6 6 6 11 1 17 -2 13 -5z m51 -1 c-22
-6 -23 -12 -1 -28 19 -14 9 -36 -15 -34 -15 1 -15 2 1 6 21 6 22 12 0 28 -19
14 -9 36 15 34 15 -1 15 -2 0 -6z m729 1 c-3 -3 -12 -4 -19 -1 -8 3 -5 6 6 6
11 1 17 -2 13 -5z m146 -1 c3 -5 -5 -8 -18 -8 -13 0 -21 3 -18 8 2 4 10 7 18
7 8 0 16 -3 18 -7z m44 -45 c-2 -13 -4 -5 -4 17 -1 22 1 32 4 23 2 -10 2 -28
0 -40z m38 42 c3 -6 -1 -7 -9 -4 -18 7 -21 14 -7 14 6 0 13 -4 16 -10z m62 4
c-3 -3 -12 -4 -19 -1 -8 3 -5 6 6 6 11 1 17 -2 13 -5z m636 -15 c-6 -6 -19 -9
-29 -6 -16 4 -15 5 4 6 12 0 22 6 22 13 0 6 3 8 7 5 4 -4 2 -12 -4 -18z m34
-31 c-2 -13 -4 -5 -4 17 -1 22 1 32 4 23 2 -10 2 -28 0 -40z m99 34 c1 -7 0
-8 -3 -2 -7 14 -43 13 -43 -2 0 -6 -3 -9 -6 -5 -3 3 -3 11 1 17 9 15 48 9 51
-8z m104 14 c0 -2 -9 -6 -20 -9 -11 -3 -18 -1 -14 4 5 9 34 13 34 5z m70 0 c0
-2 -9 -6 -20 -9 -11 -3 -18 -1 -14 4 5 9 34 13 34 5z m47 -2 c-3 -3 -12 -4
-19 -1 -8 3 -5 6 6 6 11 1 17 -2 13 -5z m51 -1 c-22 -6 -23 -12 -1 -28 19 -14
9 -36 -15 -34 -15 1 -15 2 1 6 21 6 22 12 0 28 -19 14 -9 36 15 34 15 -1 15
-2 0 -6z m829 -45 c-2 -13 -4 -5 -4 17 -1 22 1 32 4 23 2 -10 2 -28 0 -40z
m703 48 c0 -2 -9 -6 -20 -9 -11 -3 -18 -1 -14 4 5 9 34 13 34 5z m70 0 c0 -2
-9 -6 -20 -9 -11 -3 -18 -1 -14 4 5 9 34 13 34 5z m27 -33 c-3 -10 -5 -4 -5
12 0 17 2 24 5 18 2 -7 2 -21 0 -30z m53 4 c0 -29 -3 -33 -27 -34 -26 -2 -27
-1 -5 7 15 6 22 18 22 35 0 14 2 25 5 25 3 0 5 -15 5 -33z m27 -19 c-2 -13 -4
-5 -4 17 -1 22 1 32 4 23 2 -10 2 -28 0 -40z m50 0 c-2 -13 -4 -5 -4 17 -1 22
1 32 4 23 2 -10 2 -28 0 -40z m50 46 c-3 -3 -12 -4 -19 -1 -8 3 -5 6 6 6 11 1
17 -2 13 -5z m738 -4 c3 -6 -1 -7 -9 -4 -18 7 -21 14 -7 14 6 0 13 -4 16 -10z
m53 3 c-10 -2 -18 -7 -18 -10 0 -3 8 -12 18 -20 15 -13 15 -13 -5 -3 -33 15
-28 41 6 39 13 -1 13 -2 -1 -6z m115 0 c3 -5 -5 -8 -18 -8 -13 0 -21 3 -18 8
2 4 10 7 18 7 8 0 16 -3 18 -7z m194 1 c-3 -3 -12 -4 -19 -1 -8 3 -5 6 6 6 11
1 17 -2 13 -5z m711 -16 c3 -14 -3 -18 -23 -18 -16 0 -24 -4 -20 -11 4 -6 13
-8 21 -5 8 3 14 1 14 -5 0 -16 -42 -6 -53 13 -8 12 -7 21 3 33 17 20 54 16 58
-7z m132 -13 c0 -19 -4 -35 -10 -35 -5 0 -10 16 -10 35 0 19 5 35 10 35 6 0
10 -16 10 -35z m79 -2 c-1 -36 -2 -37 -8 -9 -8 38 -25 40 -29 4 -5 -40 -22
-34 -22 7 0 32 2 35 30 35 28 0 30 -2 29 -37z m91 -1 c0 -21 -5 -43 -12 -50
-15 -15 -45 -15 -54 0 -5 8 -2 9 10 5 10 -4 23 -4 29 0 7 4 2 9 -13 13 -47 11
-39 70 10 70 28 0 30 -2 30 -38z m60 27 c0 -5 -4 -7 -10 -4 -17 10 -11 -7 7
-20 9 -7 13 -17 9 -23 -9 -15 -43 -16 -51 -2 -3 6 1 7 9 4 21 -8 20 6 -1 21
-9 7 -13 17 -9 23 9 15 46 16 46 1z m-8503 -31 c-3 -8 -6 -5 -6 6 -1 11 2 17
5 13 3 -3 4 -12 1 -19z m101 -22 c12 -3 11 -4 -3 -3 -12 1 -20 10 -21 22 -1
14 0 15 3 3 2 -9 12 -19 21 -22z m112 34 c0 -5 -15 -9 -32 -9 l-33 1 30 8 c17
4 31 8 33 9 1 0 2 -3 2 -9z m860 -5 c0 -2 -13 -5 -30 -7 -19 -3 -30 0 -30 7 0
7 11 10 30 7 17 -2 30 -5 30 -7z m1000 5 c0 -5 -15 -9 -32 -9 l-33 1 30 8 c17
4 31 8 33 9 1 0 2 -3 2 -9z m1043 -8 c5 -8 6 -16 3 -19 -3 -4 -6 -1 -6 5 0 7
-11 12 -25 12 -14 0 -25 -5 -25 -12 0 -6 -2 -9 -5 -6 -3 3 -3 12 0 20 7 18 47
18 58 0z m1247 8 c0 -5 -15 -9 -32 -9 l-33 1 30 8 c17 4 31 8 33 9 1 0 2 -3 2
-9z m1700 0 c0 -5 -15 -9 -32 -9 l-33 1 30 8 c17 4 31 8 33 9 1 0 2 -3 2 -9z
m1267 -27 c-3 -10 -5 -4 -5 12 0 17 2 24 5 18 2 -7 2 -21 0 -30z m-3842 6 c0
-7 -8 -14 -18 -15 -12 -1 -13 -1 -2 3 17 5 20 19 5 26 -6 3 -5 4 2 3 7 -2 13
-9 13 -17z m-315 -12 c11 -5 9 -6 -4 -4 -11 1 -21 9 -23 17 -3 10 -2 11 4 4 4
-6 15 -14 23 -17z m1060 6 c16 4 20 3 13 -4 -15 -15 -45 -7 -50 11 -4 12 -3
13 5 1 6 -8 19 -12 32 -8z m910 -4 c0 -6 -4 -7 -10 -4 -5 3 -10 11 -10 16 0 6
5 7 10 4 6 -3 10 -11 10 -16z m52 -1 c-7 -7 -12 -8 -12 -2 0 14 12 26 19 19 2
-3 -1 -11 -7 -17z m1191 5 c-3 -7 -6 -13 -8 -13 -2 0 -5 6 -8 13 -3 8 1 14 8
14 7 0 11 -6 8 -14z m-6414 -9 c10 -9 -35 -3 -49 6 -11 8 -7 9 15 4 17 -4 32
-8 34 -10z m76 6 c-3 -5 -14 -10 -23 -9 -14 0 -13 2 3 9 27 11 27 11 20 0z
m146 -8 c-7 -2 -18 1 -23 6 -8 8 -4 9 13 5 13 -4 18 -8 10 -11z m1860 0 c-7
-2 -18 1 -23 6 -8 8 -4 9 13 5 13 -4 18 -8 10 -11z m82 6 c-2 -5 -10 -8 -18
-8 -8 0 -16 3 -18 8 -3 4 5 7 18 7 13 0 21 -3 18 -7z m153 -6 c-10 -2 -22 0
-28 6 -6 6 0 7 19 4 21 -5 23 -7 9 -10z m1047 6 c-2 -5 -10 -8 -18 -8 -8 0
-16 3 -18 8 -3 4 5 7 18 7 13 0 21 -3 18 -7z m1008 -6 c-7 -2 -18 1 -23 6 -8
8 -4 9 13 5 13 -4 18 -8 10 -11z m70 0 c-7 -2 -18 1 -23 6 -8 8 -4 9 13 5 13
-4 18 -8 10 -11z m1564 8 c-3 -5 -16 -10 -28 -9 -20 1 -20 2 3 9 14 4 26 8 28
9 2 1 0 -3 -3 -9z m66 -8 c-7 -2 -18 1 -23 6 -8 8 -4 9 13 5 13 -4 18 -8 10
-11z m70 0 c-7 -2 -18 1 -23 6 -8 8 -4 9 13 5 13 -4 18 -8 10 -11z m1122 6
c-2 -5 -10 -8 -18 -8 -8 0 -16 3 -18 8 -3 4 5 7 18 7 13 0 21 -3 18 -7z
m-6386 -4 c-3 -3 -12 -4 -19 -1 -8 3 -5 6 6 6 11 1 17 -2 13 -5z m50 0 c-3 -3
-12 -4 -19 -1 -8 3 -5 6 6 6 11 1 17 -2 13 -5z m156 -1 c-7 -2 -19 -2 -25 0
-7 3 -2 5 12 5 14 0 19 -2 13 -5z m64 1 c-3 -3 -12 -4 -19 -1 -8 3 -5 6 6 6
11 1 17 -2 13 -5z m1230 0 c-3 -3 -12 -4 -19 -1 -8 3 -5 6 6 6 11 1 17 -2 13
-5z m4770 0 c-3 -3 -12 -4 -19 -1 -8 3 -5 6 6 6 11 1 17 -2 13 -5z m310 0 c-3
-3 -12 -4 -19 -1 -8 3 -5 6 6 6 11 1 17 -2 13 -5z m-3152 -23 c-3 -6 -11 -11
-16 -11 -5 0 -4 6 3 14 14 16 24 13 13 -3z m2960 -1 c-3 -5 -16 -10 -28 -9
-20 1 -20 2 3 9 14 4 26 8 28 9 2 1 0 -3 -3 -9z m1435 -170 c0 -7 -183 -10
-530 -10 -347 0 -530 3 -530 10 0 7 183 10 530 10 347 0 530 -3 530 -10z
m-2660 -465 c0 -33 2 -35 25 -29 38 9 55 -11 55 -67 0 -63 -18 -64 -22 -1 -3
43 -5 47 -28 47 -23 0 -25 -4 -28 -47 -5 -84 -22 -52 -22 42 0 53 4 90 10 90
6 0 10 -16 10 -35z m340 1 c0 -32 1 -33 38 -32 l37 1 3 -57 c2 -36 -1 -58 -8
-58 -5 0 -10 22 -10 50 0 41 -3 50 -18 50 -28 0 -42 -21 -42 -62 0 -21 -4 -38
-10 -38 -6 0 -10 37 -10 90 0 53 4 90 10 90 6 0 10 -15 10 -34z m-562 -39 c8
-31 17 -57 21 -57 5 0 14 25 21 55 13 52 25 73 36 62 3 -2 13 -33 23 -68 l18
-64 11 40 c6 22 14 52 18 68 3 15 12 27 20 27 7 0 12 -6 9 -12 -2 -7 -13 -46
-25 -85 -12 -41 -26 -73 -34 -73 -7 0 -18 24 -25 53 -20 76 -23 77 -41 12 -10
-36 -22 -60 -30 -60 -9 0 -23 29 -37 75 -26 87 -27 93 -11 88 7 -3 19 -30 26
-61z m440 -19 c26 -55 -26 -106 -84 -79 -19 9 -24 18 -24 50 0 46 18 62 65 58
21 -1 34 -10 43 -29z m320 -29 l3 -57 -43 2 c-41 1 -43 3 -43 31 0 24 5 31 33
39 40 11 42 30 2 24 -16 -3 -30 -2 -30 2 0 14 16 21 45 18 29 -3 30 -5 33 -59z
m112 51 c0 -5 -11 -10 -24 -10 -36 0 -41 -17 -9 -32 38 -18 43 -55 9 -64 -14
-3 -34 -3 -43 2 -14 6 -11 9 15 12 40 4 41 17 2 37 -32 16 -38 33 -18 53 14
14 68 16 68 2z m178 -51 l3 -57 -43 2 c-41 1 -43 3 -43 31 0 24 5 31 33 39 40
11 42 30 2 24 -16 -3 -30 -2 -30 2 0 14 16 21 45 18 29 -3 30 -5 33 -59z m122
52 c0 -5 -12 -11 -26 -13 -35 -4 -53 -31 -38 -55 6 -10 23 -19 38 -21 34 -4
34 -22 -1 -22 -54 0 -80 52 -47 98 15 22 74 32 74 13z m110 0 c0 -5 -12 -11
-26 -13 -35 -4 -53 -31 -38 -55 6 -10 23 -19 38 -21 34 -4 34 -22 -1 -22 -54
0 -80 52 -47 98 15 22 74 32 74 13z m116 -16 c21 -32 11 -45 -36 -45 -32 0
-38 -3 -33 -16 4 -11 15 -15 40 -12 20 2 32 0 30 -6 -2 -6 -16 -12 -31 -14
-55 -7 -87 58 -49 100 23 26 59 23 79 -7z m104 15 c0 -5 -11 -10 -25 -10 -34
0 -32 -16 5 -35 32 -16 38 -33 18 -53 -14 -14 -68 -16 -68 -2 0 6 14 10 30 10
37 0 39 15 3 32 -31 15 -42 46 -21 59 18 12 58 11 58 -1z m105 0 c4 -6 -7 -10
-24 -10 -39 0 -40 -15 -1 -35 32 -17 40 -49 14 -59 -25 -9 -64 -7 -64 4 0 6
14 10 30 10 17 0 30 4 30 10 0 5 -13 16 -30 25 -32 16 -38 33 -18 53 15 15 54
16 63 2z m-4517 -32 c7 -7 12 -24 12 -38 0 -52 -61 -71 -82 -25 -23 51 32 101
70 63z m141 -26 c-14 -5 -11 -50 4 -55 7 -4 6 -6 -4 -6 -12 -1 -18 9 -21 33
-5 46 0 59 17 43 7 -7 9 -13 4 -15z m-48 -8 c16 -20 1 -48 -29 -52 -11 -2 -23
-11 -25 -20 -3 -9 -5 7 -6 36 -1 48 1 52 23 52 13 0 29 -7 37 -16z m76 -36
c-2 -13 -4 -5 -4 17 -1 22 1 32 4 23 2 -10 2 -28 0 -40z m88 17 c0 -25 -4 -30
-24 -30 -32 0 -49 28 -31 50 7 9 23 15 34 13 16 -2 21 -10 21 -33z m79 19 c9
-24 7 -54 -4 -54 -5 0 -10 14 -10 31 0 39 -22 34 -31 -7 -6 -27 -7 -27 -8 9
-1 33 2 37 23 37 13 0 27 -7 30 -16z m54 9 c-22 -6 -23 -12 -1 -28 9 -7 13
-17 9 -23 -8 -14 -46 -16 -46 -3 0 5 10 7 23 4 l22 -5 -24 20 c-27 22 -21 43
12 41 17 -1 18 -2 5 -6z m-608 -468 c0 -143 -4 -225 -10 -225 -6 0 -10 82 -10
225 0 143 4 225 10 225 6 0 10 -82 10 -225z m183 8 l15 -38 18 38 c10 20 21
37 26 37 4 0 7 -24 7 -52 -2 -49 -2 -50 -9 -18 l-7 35 -14 -32 c-7 -18 -16
-33 -20 -33 -4 0 -13 15 -20 33 l-14 32 -6 -35 c-6 -31 -7 -29 -8 18 -1 61 11
67 32 15z m137 -28 c0 -31 -3 -35 -25 -35 -31 0 -34 29 -5 37 11 3 20 10 20
15 0 6 -9 8 -20 5 -11 -3 -18 -1 -14 4 3 5 14 9 25 9 15 0 19 -7 19 -35z m84
19 c9 -24 7 -54 -4 -54 -5 0 -10 14 -10 31 0 38 -24 35 -28 -4 -5 -39 -22 -33
-22 8 0 32 3 35 29 35 17 0 31 -6 35 -16z m66 -19 c0 -31 -3 -35 -25 -35 -31
0 -34 29 -5 37 11 3 20 10 20 15 0 6 -9 8 -20 5 -11 -3 -18 -1 -14 4 3 5 14 9
25 9 15 0 19 -7 19 -35z m90 -3 c0 -45 -14 -62 -49 -61 -15 0 -19 3 -11 6 43
14 45 16 20 22 -47 13 -39 71 10 71 28 0 30 -2 30 -38z m70 18 c9 -18 8 -20
-15 -20 -31 0 -33 -17 -2 -23 19 -4 19 -4 -5 -6 -31 -1 -47 31 -28 54 17 21
37 19 50 -5z m110 -16 c0 -32 -2 -35 -25 -32 -32 4 -35 20 -5 34 13 7 18 14
11 18 -6 4 -15 4 -21 1 -5 -3 -10 -1 -10 4 0 6 11 11 25 11 22 0 25 -4 25 -36z
m70 27 c0 -5 -8 -8 -17 -7 -12 1 -18 -6 -18 -19 0 -13 6 -20 18 -19 9 1 17 -2
17 -7 0 -16 -39 -9 -49 8 -12 23 4 53 29 53 11 0 20 -4 20 -9z m70 0 c0 -5 -8
-7 -19 -4 -21 5 -34 -17 -21 -37 5 -8 15 -10 26 -6 14 5 16 4 8 -4 -30 -30
-70 13 -44 45 14 16 50 20 50 6z m60 5 c0 -2 3 -11 6 -19 4 -11 -2 -17 -23
-19 l-28 -4 25 -11 c24 -11 24 -12 3 -12 -28 -1 -45 27 -32 51 8 15 49 27 49
14z m48 -3 c-24 -6 -23 -19 3 -26 12 -3 19 -12 17 -19 -5 -16 -48 -24 -48 -9
0 6 7 8 15 5 8 -4 15 -2 15 4 0 5 -7 12 -15 16 -24 9 -18 36 8 35 16 -1 18 -2
5 -6z m60 0 c-24 -6 -23 -19 3 -26 12 -3 19 -12 17 -19 -5 -16 -48 -24 -48 -9
0 6 7 8 15 5 8 -4 15 -2 15 4 0 5 -7 12 -15 16 -24 9 -18 36 8 35 16 -1 18 -2
5 -6z m4864 -43 l33 -30 -33 -30 c-18 -16 -41 -30 -52 -30 -11 0 -34 14 -52
30 l-33 30 33 30 c18 17 41 30 52 30 11 0 34 -13 52 -30z m3118 15 c7 -8 9
-22 6 -31 -3 -8 1 -22 9 -30 8 -9 15 -21 14 -27 0 -7 -7 -2 -16 11 -8 12 -26
22 -38 22 -12 0 -30 -10 -38 -22 -9 -13 -16 -18 -16 -11 -1 6 6 18 14 27 8 8
12 22 9 30 -7 18 12 46 31 46 7 0 18 -7 25 -15z m52 -17 c0 -7 2 -17 2 -23 1
-5 7 -20 14 -32 15 -28 8 -29 -16 -5 -10 10 -16 24 -14 30 2 7 -2 19 -8 27
-10 12 -9 15 4 15 9 0 17 -6 18 -12z m-5788 -7 c4 -5 -3 -7 -14 -4 -23 6 -26
13 -6 13 8 0 17 -4 20 -9z m73 -38 c-3 -10 -5 -2 -5 17 0 19 2 27 5 18 2 -10
2 -26 0 -35z m51 40 c-21 -5 -24 -23 -5 -24 10 0 10 -2 0 -6 -7 -2 -13 -11
-13 -18 0 -7 6 -16 13 -18 7 -3 5 -6 -5 -6 -14 -1 -18 7 -18 39 0 35 3 40 23
39 16 -1 18 -2 5 -6z m137 -33 c0 -34 -3 -40 -20 -39 -11 0 -14 3 -7 6 6 2 12
17 12 33 0 16 -6 31 -12 33 -7 3 -4 6 7 6 17 1 20 -5 20 -39z m75 36 c0 -2 -9
-6 -20 -9 -11 -3 -18 -1 -14 4 5 9 34 13 34 5z m125 -6 c3 -6 -1 -7 -9 -4 -11
4 -16 0 -16 -11 0 -12 5 -15 17 -11 10 4 14 4 11 0 -4 -4 -3 -16 3 -28 9 -19
9 -19 -4 -3 -8 9 -17 17 -20 17 -3 0 -8 -8 -10 -17 -3 -10 -5 1 -6 25 -1 30 3
42 13 42 8 0 18 -4 21 -10z m68 3 c-7 -2 -19 -2 -25 0 -7 3 -2 5 12 5 14 0 19
-2 13 -5z m73 -11 c1 -7 0 -8 -3 -2 -2 5 -11 10 -19 10 -20 0 -17 -30 4 -31
15 -1 15 -2 0 -6 -9 -2 -19 -12 -21 -21 -3 -9 -5 2 -6 26 -1 39 1 43 21 40 12
-2 23 -9 24 -16z m59 8 c3 -6 -1 -7 -9 -4 -18 7 -21 14 -7 14 6 0 13 -4 16
-10z m52 3 c-12 -3 -16 -10 -12 -21 5 -13 3 -14 -6 -5 -14 14 -3 33 19 32 15
-1 14 -2 -1 -6z m76 0 c-7 -2 -19 -2 -25 0 -7 3 -2 5 12 5 14 0 19 -2 13 -5z
m70 0 c-7 -2 -14 -21 -15 -41 l-1 -37 -4 35 c-3 19 -10 38 -16 42 -7 4 1 7 18
7 17 0 24 -3 18 -6z m67 3 c0 -2 -9 -6 -20 -9 -11 -3 -18 -1 -14 4 5 9 34 13
34 5z m65 -21 c0 -12 -7 -20 -18 -21 -12 -1 -13 -1 -2 3 21 6 19 30 -2 37 -14
4 -14 4 2 3 13 -2 20 -10 20 -22z m2172 19 c-3 -3 -12 -4 -19 -1 -8 3 -5 6 6
6 11 1 17 -2 13 -5z m76 -1 c-7 -2 -19 -2 -25 0 -7 3 -2 5 12 5 14 0 19 -2 13
-5z m55 0 c-10 -2 -18 -9 -18 -15 0 -6 8 -17 18 -24 15 -12 15 -13 0 -8 -10 3
-18 -1 -21 -13 -3 -10 -5 1 -6 25 -1 38 1 42 22 41 16 -1 18 -2 5 -6z m75 0
c-7 -2 -19 -2 -25 0 -7 3 -2 5 12 5 14 0 19 -2 13 -5z m77 3 c0 -2 -9 -6 -20
-9 -11 -3 -18 -1 -14 4 5 9 34 13 34 5z m63 -3 c-7 -2 -21 -2 -30 0 -10 3 -4
5 12 5 17 0 24 -2 18 -5z m197 3 c0 -2 -9 -6 -20 -9 -11 -3 -18 -1 -14 4 5 9
34 13 34 5z m70 0 c0 -2 -9 -6 -20 -9 -11 -3 -18 -1 -14 4 5 9 34 13 34 5z
m48 -3 c-10 -2 -18 -9 -18 -14 0 -5 8 -10 18 -10 16 -1 16 -2 0 -6 -10 -2 -18
-11 -18 -18 0 -7 8 -16 18 -18 13 -4 11 -5 -5 -6 -20 -1 -23 4 -23 39 0 35 3
40 23 39 16 -1 18 -2 5 -6z m79 1 c-3 -3 -12 -4 -19 -1 -8 3 -5 6 6 6 11 1 17
-2 13 -5z m50 -1 c-12 -3 -16 -10 -12 -21 5 -13 3 -14 -6 -5 -14 14 -3 33 19
32 15 -1 14 -2 -1 -6z m-3330 -45 c-3 -7 -5 -2 -5 12 0 14 2 19 5 13 2 -7 2
-19 0 -25z m2553 -13 c-7 -8 -20 -15 -29 -14 -11 0 -9 3 7 9 13 6 22 19 23 32
1 18 2 19 6 5 3 -10 -1 -24 -7 -32z m-3175 25 c-3 -5 -14 -10 -23 -9 -14 0
-13 2 3 9 27 11 27 11 20 0z m528 3 c-7 -2 -19 -2 -25 0 -7 3 -2 5 12 5 14 0
19 -2 13 -5z m515 -29 c-3 -14 -5 -12 -10 9 -3 19 -2 25 4 19 6 -6 8 -18 6
-28z m2325 29 c-7 -2 -19 -2 -25 0 -7 3 -2 5 12 5 14 0 19 -2 13 -5z m64 -34
c11 0 13 -3 5 -6 -17 -7 -42 15 -41 36 0 11 3 9 9 -6 5 -13 17 -23 27 -24z
m330 0 c11 0 13 -3 5 -6 -17 -7 -42 15 -41 36 0 11 3 9 9 -6 5 -13 17 -23 27
-24z m133 31 c8 -5 11 -10 5 -10 -5 0 -17 5 -25 10 -8 5 -10 10 -5 10 6 0 17
-5 25 -10z m-3167 -31 c-6 -6 -19 -9 -29 -6 -15 4 -14 5 5 6 18 1 22 5 16 19
-5 14 -4 15 6 5 10 -10 10 -16 2 -24z m3240 0 c-6 -6 -19 -9 -29 -6 -15 4 -14
5 5 6 18 1 22 5 16 19 -5 14 -4 15 6 5 10 -10 10 -16 2 -24z m-323 12 c0 -4
-11 -6 -25 -3 -14 2 -25 6 -25 8 0 2 11 4 25 4 14 0 25 -4 25 -9z m-3589 -19
c-7 -2 -18 1 -23 6 -8 8 -4 9 13 5 13 -4 18 -8 10 -11z m270 0 c-7 -2 -18 1
-23 6 -8 8 -4 9 13 5 13 -4 18 -8 10 -11z m334 8 c-3 -5 -14 -10 -23 -9 -14 0
-13 2 3 9 27 11 27 11 20 0z m250 -8 c-3 -3 -11 0 -18 7 -9 10 -8 11 6 5 10
-3 15 -9 12 -12z m2786 0 c-7 -2 -18 1 -23 6 -8 8 -4 9 13 5 13 -4 18 -8 10
-11z m204 8 c-3 -5 -14 -10 -23 -9 -14 0 -13 2 3 9 27 11 27 11 20 0z m-3702
-7 c-7 -2 -19 -2 -25 0 -7 3 -2 5 12 5 14 0 19 -2 13 -5z m330 0 c-7 -2 -19
-2 -25 0 -7 3 -2 5 12 5 14 0 19 -2 13 -5z m260 0 c-7 -2 -19 -2 -25 0 -7 3
-2 5 12 5 14 0 19 -2 13 -5z m2450 0 c-7 -2 -19 -2 -25 0 -7 3 -2 5 12 5 14 0
19 -2 13 -5z m130 0 c-7 -2 -19 -2 -25 0 -7 3 -2 5 12 5 14 0 19 -2 13 -5z
m-3355 -200 c-14 -3 -18 -16 -20 -51 l-2 -47 -3 47 c-3 33 -9 48 -21 51 -9 3
1 5 23 5 22 0 32 -2 23 -5z m55 -25 c17 -2 22 -10 24 -38 1 -34 1 -34 -5 -5
-4 17 -14 30 -22 30 -8 0 -18 -13 -21 -30 -5 -22 -7 -16 -7 25 0 30 2 47 5 38
2 -9 14 -18 26 -20z m1172 -3 c16 0 20 -7 20 -30 0 -25 -4 -30 -27 -33 -28 -3
-28 -2 -27 50 1 31 4 45 7 33 4 -11 16 -20 27 -20z m52 -42 c-2 -16 -4 -3 -4
27 0 30 2 43 4 28 2 -16 2 -40 0 -55z m373 26 c0 -49 -1 -50 -27 -47 -24 3
-28 8 -28 33 0 23 5 31 23 33 12 2 22 10 22 18 0 8 2 14 5 14 3 0 5 -23 5 -51z
m295 16 c16 0 20 -7 20 -30 0 -25 -4 -30 -27 -33 -28 -3 -28 -2 -27 50 1 31 4
45 7 33 4 -11 16 -20 27 -20z m52 -42 c-2 -16 -4 -3 -4 27 0 30 2 43 4 28 2
-16 2 -40 0 -55z m1178 27 c0 -39 -3 -45 -22 -48 -32 -5 -51 37 -35 74 9 18
19 24 35 22 19 -3 22 -9 22 -48z m225 0 c0 -27 -4 -50 -10 -50 -5 0 -10 23
-10 50 0 28 5 50 10 50 6 0 10 -22 10 -50z m27 -27 c-2 -16 -4 -3 -4 27 0 30
2 43 4 28 2 -16 2 -40 0 -55z m113 62 c0 -8 9 -15 19 -15 24 0 37 -36 21 -55
-7 -8 -23 -15 -36 -15 -22 0 -24 4 -24 50 0 28 5 50 10 50 6 0 10 -7 10 -15z
m560 1 c0 -7 9 -16 20 -19 15 -4 20 -13 19 -39 l-1 -33 -7 29 c-9 41 -31 46
-31 7 0 -17 -4 -31 -10 -31 -5 0 -10 23 -10 50 0 28 5 50 10 50 6 0 10 -6 10
-14z m993 -18 c17 -2 23 -11 25 -35 2 -19 -1 -33 -7 -33 -6 0 -11 14 -11 31 0
39 -22 34 -31 -7 -5 -21 -7 -13 -7 26 0 30 2 47 5 38 2 -9 14 -18 26 -20z
m-4457 7 c9 -8 11 -15 5 -15 -15 0 -14 -47 2 -54 6 -3 3 -5 -8 -3 -20 2 -36
47 -27 75 5 16 10 15 28 -3z m1523 -13 c-14 -5 -11 -50 4 -55 7 -4 6 -6 -4 -6
-12 -1 -18 9 -21 33 -5 46 0 59 17 43 7 -7 9 -13 4 -15z m1670 0 c-14 -5 -11
-50 4 -55 7 -4 6 -6 -4 -6 -12 -1 -18 9 -21 33 -5 46 0 59 17 43 7 -7 9 -13 4
-15z m1037 13 c9 -8 11 -15 5 -15 -15 0 -14 -47 2 -54 6 -3 3 -5 -8 -3 -20 2
-36 47 -27 75 5 16 10 15 28 -3z m165 8 c5 -50 2 -82 -6 -80 -11 4 -23 56 -17
75 4 13 22 17 23 5z m-4924 -65 c-2 -13 -4 -5 -4 17 -1 22 1 32 4 23 2 -10 2
-28 0 -40z m61 45 c-22 -6 -23 -12 -1 -28 9 -7 13 -17 9 -23 -9 -14 -46 -16
-46 -2 0 5 7 7 15 4 20 -8 19 6 -2 21 -20 15 -9 35 20 34 17 -1 18 -2 5 -6z
m95 0 c-7 -2 -13 -18 -13 -34 0 -16 -4 -29 -10 -29 -5 0 -10 16 -10 35 0 30 3
35 23 34 12 0 16 -3 10 -6z m67 3 c0 -2 3 -11 6 -19 4 -11 -2 -17 -23 -19
l-28 -4 25 -11 c24 -11 24 -12 3 -12 -28 -1 -45 27 -32 51 8 15 49 27 49 14z
m85 -16 c7 -23 -10 -50 -31 -50 -8 0 -14 -7 -14 -15 0 -8 -4 -15 -10 -15 -5 0
-10 23 -10 50 0 49 1 50 29 50 21 0 32 -6 36 -20z m80 -15 c0 -27 -3 -30 -30
-30 -21 0 -31 5 -33 18 -6 33 6 49 35 45 24 -3 28 -8 28 -33z m53 28 c-22 -6
-23 -12 -1 -28 9 -7 13 -17 9 -23 -8 -14 -46 -16 -46 -3 0 5 10 7 23 4 l22 -5
-24 20 c-27 22 -21 43 12 41 17 -1 18 -2 5 -6z m39 -45 c-2 -13 -4 -5 -4 17
-1 22 1 32 4 23 2 -10 2 -28 0 -40z m128 17 c0 -25 -4 -30 -24 -30 -32 0 -49
28 -31 50 7 9 23 15 34 13 16 -2 21 -10 21 -33z m90 8 l7 -28 10 28 c5 15 14
27 18 27 5 0 0 -22 -12 -50 -13 -32 -27 -50 -37 -49 -10 0 -12 2 -3 6 16 6 15
45 -2 69 -17 22 -32 12 -39 -26 -3 -18 -5 -15 -6 13 -1 35 1 37 28 37 23 0 30
-6 36 -27z m105 -8 c0 -19 -4 -35 -10 -35 -5 0 -10 16 -10 35 0 19 5 35 10 35
6 0 10 -16 10 -35z m48 28 c-22 -6 -23 -19 -3 -27 22 -8 18 -36 -4 -36 -11 0
-22 4 -25 9 -4 5 3 7 14 4 23 -6 27 12 5 21 -24 9 -18 36 8 35 16 -1 18 -2 5
-6z m127 -28 c0 -23 -5 -31 -22 -33 -12 -2 -24 -11 -26 -20 -3 -9 -5 6 -6 34
-1 49 0 51 27 50 23 -1 27 -5 27 -31z m53 -23 c8 -2 12 7 12 27 0 17 5 31 10
31 6 0 10 -16 10 -36 0 -33 -2 -35 -27 -32 -24 3 -28 8 -30 38 -1 33 -1 33 5
6 4 -16 13 -31 20 -34z m182 23 c0 -19 -4 -35 -10 -35 -5 0 -10 16 -10 35 0
19 5 35 10 35 6 0 10 -16 10 -35z m70 26 c0 -5 -8 -8 -17 -7 -12 1 -18 -6 -18
-19 0 -13 6 -20 18 -19 9 1 17 -2 17 -7 0 -16 -39 -9 -49 8 -12 23 4 53 29 53
11 0 20 -4 20 -9z m100 -26 c0 -31 -3 -35 -25 -35 -31 0 -34 29 -5 37 11 3 20
10 20 15 0 6 -9 8 -20 5 -11 -3 -18 -1 -14 4 3 5 14 9 25 9 15 0 19 -7 19 -35z
m77 -5 c1 -33 1 -33 -5 -6 -10 41 -32 46 -32 7 0 -17 -4 -31 -10 -31 -5 0 -10
16 -10 36 0 33 2 35 28 32 23 -3 27 -8 29 -38z m158 13 l7 -28 10 28 c5 15 14
27 18 27 11 0 -15 -63 -27 -67 -5 -2 -14 12 -20 32 -6 19 -8 35 -3 35 4 0 11
-12 15 -27z m62 -25 c-2 -13 -4 -5 -4 17 -1 22 1 32 4 23 2 -10 2 -28 0 -40z
m61 45 c-22 -6 -23 -12 -1 -28 9 -7 13 -17 9 -23 -9 -14 -46 -16 -46 -2 0 5 7
7 15 4 20 -8 19 6 -2 21 -20 15 -9 35 20 34 17 -1 18 -2 5 -6z m42 -28 c0 -19
-4 -35 -10 -35 -5 0 -10 16 -10 35 0 19 5 35 10 35 6 0 10 -16 10 -35z m188
13 c3 -14 -3 -18 -24 -18 -30 0 -23 -14 11 -23 12 -3 8 -5 -10 -4 -31 2 -43
23 -31 53 8 21 50 14 54 -8z m163 6 c17 -21 0 -49 -32 -49 -24 0 -36 23 -25
51 7 19 40 18 57 -2z m1049 7 c0 -5 -9 -7 -20 -4 -16 4 -20 0 -20 -22 0 -22 4
-26 20 -22 11 3 20 1 20 -5 0 -15 -42 -5 -53 14 -8 12 -7 21 2 32 14 17 51 22
51 7z m71 -7 c17 -21 0 -49 -32 -49 -24 0 -36 23 -25 51 7 19 40 18 57 -2z
m139 -19 c0 -31 -3 -35 -25 -35 -31 0 -34 29 -5 37 11 3 20 10 20 15 0 6 -9 8
-20 5 -11 -3 -18 -1 -14 4 3 5 14 9 25 9 15 0 19 -7 19 -35z m165 0 c0 -27 -3
-30 -30 -30 -21 0 -31 5 -33 18 -6 33 6 49 35 45 24 -3 28 -8 28 -33z m53 23
c-9 -7 -19 -24 -21 -38 -3 -18 -5 -14 -6 13 -1 32 2 37 21 37 19 0 20 -1 6
-12z m70 -25 c3 -31 1 -33 -27 -33 -36 0 -44 28 -11 37 11 3 20 10 20 15 0 6
-7 8 -15 4 -8 -3 -15 -1 -15 5 0 6 10 9 23 7 17 -2 23 -11 25 -35z m127 2 c0
-27 -3 -30 -30 -30 -21 0 -31 5 -33 18 -6 33 6 49 35 45 24 -3 28 -8 28 -33z
m103 28 c-22 -5 -23 -12 -1 -28 9 -7 13 -17 9 -23 -9 -14 -46 -16 -46 -2 0 5
7 7 15 4 21 -8 19 2 -6 27 -23 23 -35 17 -42 -21 -3 -19 -5 -16 -6 12 l-1 36
48 0 c26 -1 39 -3 30 -5z m192 -28 c0 -31 -3 -35 -25 -35 -31 0 -34 29 -5 37
11 3 20 10 20 15 0 6 -9 8 -20 5 -11 -3 -18 -1 -14 4 3 5 14 9 25 9 15 0 19
-7 19 -35z m35 8 l7 -28 10 28 c5 15 14 27 18 27 11 0 -15 -63 -27 -67 -5 -2
-14 12 -20 32 -6 19 -8 35 -3 35 4 0 11 -12 15 -27z m105 23 c0 -2 3 -11 6
-19 4 -11 -2 -17 -23 -19 l-28 -4 25 -11 c24 -11 24 -12 3 -12 -28 -1 -45 27
-32 51 8 15 49 27 49 14z m110 -31 c0 -31 -3 -35 -25 -35 -31 0 -34 29 -5 37
11 3 20 10 20 15 0 6 -9 8 -20 5 -11 -3 -18 -1 -14 4 3 5 14 9 25 9 15 0 19
-7 19 -35z m70 26 c0 -5 -8 -8 -17 -7 -12 1 -18 -6 -18 -19 0 -13 6 -20 18
-19 9 1 17 -3 17 -8 0 -5 -10 -8 -22 -6 -39 5 -37 68 2 68 11 0 20 -4 20 -9z
m70 0 c0 -5 -9 -7 -20 -4 -16 4 -20 0 -20 -22 0 -22 4 -26 20 -22 11 3 20 1
20 -5 0 -15 -42 -5 -53 14 -8 12 -7 21 2 32 14 17 51 22 51 7z m68 -13 c3 -14
-3 -18 -24 -18 -30 0 -23 -14 11 -23 12 -3 8 -5 -10 -4 -31 2 -43 23 -31 53 8
21 50 14 54 -8z m50 15 c-22 -6 -23 -12 -1 -28 9 -7 13 -17 9 -23 -9 -14 -46
-16 -46 -2 0 5 7 7 15 4 20 -8 19 6 -2 21 -20 15 -9 35 20 34 17 -1 18 -2 5
-6z m60 0 c-22 -6 -23 -12 -1 -28 9 -7 13 -17 9 -23 -9 -14 -46 -16 -46 -2 0
5 7 7 15 4 20 -8 19 6 -2 21 -20 15 -9 35 20 34 17 -1 18 -2 5 -6z m171 -10
c12 -23 -4 -53 -29 -53 -25 0 -41 29 -29 52 12 23 45 23 58 1z m198 -35 c-2
-13 -4 -5 -4 17 -1 22 1 32 4 23 2 -10 2 -28 0 -40z m51 45 c-22 -6 -23 -19
-3 -27 22 -8 18 -36 -4 -36 -11 0 -22 4 -25 9 -4 5 3 7 14 4 23 -6 27 12 5 21
-24 9 -18 36 8 35 16 -1 18 -2 5 -6z m-8308 -82 c0 -5 -9 -7 -20 -4 -27 7 -26
-14 2 -36 27 -23 18 -51 -17 -51 -14 0 -25 4 -25 9 0 4 11 6 25 3 17 -3 25 0
25 10 0 8 -11 20 -25 26 -27 12 -33 37 -12 45 21 9 47 8 47 -2z m528 -18 c-3
-30 18 -44 25 -16 2 10 2 4 0 -14 -2 -17 1 -33 8 -35 6 -2 -10 -4 -36 -6 -49
-2 -68 15 -45 43 6 8 9 19 5 25 -9 15 3 30 26 30 16 0 20 -6 17 -27z m329 -50
c-2 -16 -4 -3 -4 27 0 30 2 43 4 28 2 -16 2 -40 0 -55z m-517 57 c0 -5 7 -10
15 -10 8 0 21 -12 28 -26 l14 -27 7 27 c3 14 11 26 16 26 5 0 2 -17 -7 -37
-22 -49 -33 -63 -47 -62 -7 0 -6 2 2 6 15 6 16 37 2 64 -16 30 -33 23 -28 -11
3 -19 1 -29 -6 -27 -12 4 -25 55 -18 75 5 14 22 16 22 2z m-270 -14 c0 -2 3
-11 6 -19 4 -11 -2 -17 -23 -19 l-28 -4 25 -12 25 -12 -25 3 c-40 4 -41 67 0
67 11 0 20 -2 20 -4z m53 -6 c-13 -5 -23 -16 -23 -25 0 -9 10 -20 23 -25 22
-10 22 -10 -3 -7 -43 4 -34 68 9 66 11 0 9 -3 -6 -9z m63 -50 c9 0 14 11 14
30 0 17 5 30 10 30 6 0 10 -16 10 -36 0 -33 -2 -35 -27 -32 -24 2 -28 8 -30
36 -3 32 -3 32 3 2 3 -17 12 -30 20 -30z m82 48 c-9 -7 -19 -24 -21 -38 -3
-18 -5 -14 -6 13 -1 32 2 37 21 37 19 0 20 -1 6 -12z m29 -40 c-2 -13 -4 -5
-4 17 -1 22 1 32 4 23 2 -10 2 -28 0 -40z m377 36 c14 -37 7 -54 -24 -54 -35
0 -43 29 -10 37 25 7 26 20 3 26 -14 4 -13 5 3 6 12 0 25 -6 28 -15z m80 0 c9
-24 7 -54 -4 -54 -5 0 -10 14 -10 31 0 39 -22 34 -31 -7 -6 -27 -7 -27 -8 9
-1 33 2 37 23 37 13 0 27 -7 30 -16z m70 0 c14 -37 7 -54 -24 -54 -35 0 -43
29 -10 37 25 7 26 20 3 26 -14 4 -13 5 3 6 12 0 25 -6 28 -15z m69 -10 l14
-27 7 27 c3 14 11 26 16 26 5 0 2 -17 -7 -37 -22 -49 -33 -63 -47 -63 -6 0 -5
4 3 9 13 9 12 36 -4 74 -11 27 3 20 18 -9z m85 19 c-22 -6 -23 -12 -1 -28 9
-7 13 -17 9 -23 -9 -14 -33 -16 -40 -3 -4 5 3 7 14 4 23 -6 27 12 5 21 -24 9
-18 36 8 35 16 -1 18 -2 5 -6z m39 -45 c-2 -13 -4 -5 -4 17 -1 22 1 32 4 23 2
-10 2 -28 0 -40z m51 45 c-22 -6 -23 -19 -3 -27 24 -9 18 -36 -7 -35 -17 1
-19 2 -5 6 21 6 22 19 2 27 -24 9 -18 36 8 35 16 -1 18 -2 5 -6z m5930 -75 c7
-7 12 -24 12 -38 0 -31 -17 -50 -45 -50 -28 0 -45 19 -45 50 0 31 17 50 45 50
12 0 26 -5 33 -12z m119 -65 c-2 -16 -4 -3 -4 27 0 30 2 43 4 28 2 -16 2 -40
0 -55z m1048 42 c16 0 20 -7 20 -30 0 -25 -4 -30 -27 -33 -28 -3 -28 -2 -27
50 1 31 4 45 7 33 4 -11 16 -20 27 -20z m515 21 c0 -7 9 -16 20 -19 15 -4 20
-13 19 -39 l-1 -33 -7 29 c-9 41 -31 46 -31 7 0 -17 -4 -31 -10 -31 -5 0 -10
23 -10 50 0 28 5 50 10 50 6 0 10 -6 10 -14z m-2049 -3 c5 -50 2 -82 -6 -80
-11 4 -23 56 -17 75 4 13 22 17 23 5z m1388 -21 c-14 -5 -11 -50 4 -55 7 -4 6
-6 -4 -6 -12 -1 -18 9 -21 33 -5 46 0 59 17 43 7 -7 9 -13 4 -15z m290 0 c-14
-5 -11 -50 4 -55 7 -4 6 -6 -4 -6 -12 -1 -18 9 -21 33 -5 46 0 59 17 43 7 -7
9 -13 4 -15z m160 0 c-14 -5 -11 -50 4 -55 7 -4 6 -6 -4 -6 -12 -1 -18 9 -21
33 -5 46 0 59 17 43 7 -7 9 -13 4 -15z m170 0 c-14 -5 -11 -50 4 -55 7 -4 6
-6 -4 -6 -12 -1 -18 9 -21 33 -5 46 0 59 17 43 7 -7 9 -13 4 -15z m-5531 -30
c3 -31 2 -33 -24 -30 -34 4 -44 27 -15 35 12 3 21 10 21 15 0 6 -7 8 -15 4 -8
-3 -15 -1 -15 5 0 6 10 9 23 7 17 -2 23 -11 25 -36z m80 1 c2 -19 -1 -33 -7
-33 -6 0 -11 14 -11 31 0 39 -22 34 -31 -7 -6 -27 -7 -26 -8 9 -1 36 1 38 27
35 22 -2 28 -8 30 -35z m32 11 c0 -22 17 -17 25 9 3 12 9 17 11 10 7 -16 -28
-86 -46 -91 -13 -5 -13 -3 -1 11 10 13 11 24 2 48 -13 39 -14 42 -1 34 6 -3
10 -13 10 -21z m115 -9 c0 -27 -3 -30 -30 -30 -21 0 -31 5 -33 18 -6 33 6 49
35 45 24 -3 28 -8 28 -33z m83 -2 c2 -19 -1 -33 -7 -33 -6 0 -11 14 -11 31 0
39 -22 34 -31 -7 -6 -27 -7 -26 -8 9 -1 36 1 38 27 35 22 -2 28 -8 30 -35z
m72 17 c9 -18 8 -20 -15 -20 -31 0 -33 -17 -2 -23 19 -4 19 -4 -5 -6 -31 -1
-47 31 -28 54 17 21 37 19 50 -5z m2768 8 c-9 -7 -19 -24 -21 -38 -3 -18 -5
-14 -6 13 -1 32 2 37 21 37 19 0 20 -1 6 -12z m72 8 c0 -2 3 -11 6 -19 4 -11
-2 -17 -23 -19 l-28 -4 25 -11 c24 -11 24 -12 3 -12 -28 -1 -45 27 -32 51 8
15 49 27 49 14z m85 -16 c7 -23 -10 -50 -31 -50 -8 0 -14 -7 -14 -15 0 -8 -4
-15 -10 -15 -5 0 -10 23 -10 50 0 49 1 50 29 50 21 0 32 -6 36 -20z m80 -15
c0 -27 -3 -30 -30 -30 -21 0 -31 5 -33 18 -6 33 6 49 35 45 24 -3 28 -8 28
-33z m53 28 c-22 -6 -23 -12 -1 -28 9 -7 13 -17 9 -23 -8 -14 -46 -16 -46 -3
0 5 10 7 23 4 l22 -5 -24 20 c-27 22 -21 43 12 41 17 -1 18 -2 5 -6z m39 -45
c-2 -13 -4 -5 -4 17 -1 22 1 32 4 23 2 -10 2 -28 0 -40z m128 17 c0 -25 -4
-30 -24 -30 -32 0 -49 28 -31 50 7 9 23 15 34 13 16 -2 21 -10 21 -33z m82 15
c7 -26 19 -25 28 3 3 12 9 17 11 10 7 -15 -28 -85 -44 -91 -11 -3 -11 0 -2 14
8 14 9 27 1 47 -14 35 -34 31 -42 -9 -6 -27 -7 -27 -8 9 -1 33 1 37 25 37 17
0 28 -6 31 -20z m290 -20 c1 -34 1 -34 -5 -5 -4 17 -14 30 -22 30 -8 0 -18
-13 -21 -30 -6 -29 -7 -28 -8 8 -1 36 1 38 27 35 23 -3 27 -8 29 -38z m71 13
l10 -28 7 28 c4 15 11 27 16 27 17 0 -28 -95 -47 -98 -18 -4 -18 -3 -1 10 17
12 17 16 2 51 -8 20 -11 37 -6 37 5 0 14 -12 19 -27z m107 0 l7 -28 10 28 c5
15 14 27 18 27 5 0 0 -22 -12 -50 -13 -31 -27 -50 -37 -50 -13 0 -13 2 -2 9
13 9 12 36 -4 74 -4 9 -3 17 3 17 5 0 13 -12 17 -27z m110 -8 c0 -25 -4 -30
-24 -30 -32 0 -49 28 -31 50 7 9 23 15 34 13 16 -2 21 -10 21 -33z m53 -23 c8
-2 12 7 12 27 0 17 5 31 10 31 6 0 10 -16 10 -36 0 -33 -2 -35 -27 -32 -24 3
-28 8 -30 38 -1 33 -1 33 5 6 4 -16 13 -31 20 -34z m142 49 c0 -5 -9 -7 -20
-4 -16 4 -20 0 -20 -22 0 -22 4 -26 20 -22 11 3 20 1 20 -5 0 -15 -42 -5 -53
14 -8 12 -7 21 2 32 14 17 51 22 51 7z m60 -26 c0 -31 -3 -35 -25 -35 -31 0
-34 29 -5 37 11 3 20 10 20 15 0 6 -9 8 -20 5 -11 -3 -18 -1 -14 4 3 5 14 9
25 9 15 0 19 -7 19 -35z m77 -5 c1 -33 1 -33 -5 -6 -10 41 -32 46 -32 7 0 -17
-4 -31 -10 -31 -5 0 -10 16 -10 36 0 33 2 35 28 32 23 -3 27 -8 29 -38z m113
31 c0 -5 -8 -8 -17 -7 -12 1 -18 -6 -18 -19 0 -13 6 -20 18 -19 9 1 17 -2 17
-7 0 -16 -39 -9 -49 8 -12 23 4 53 29 53 11 0 20 -4 20 -9z m75 -26 c0 -27 -3
-30 -30 -30 -21 0 -31 5 -33 18 -6 33 6 49 35 45 24 -3 28 -8 28 -33z m83 -2
c2 -19 -1 -33 -7 -33 -6 0 -11 14 -11 31 0 39 -22 34 -31 -7 -6 -27 -7 -26 -8
9 -1 36 1 38 27 35 22 -2 28 -8 30 -35z m95 30 c-7 -2 -13 -18 -13 -34 0 -16
-4 -29 -10 -29 -5 0 -10 16 -10 35 0 30 3 35 23 34 12 0 16 -3 10 -6z m37 -28
c0 -19 -4 -35 -10 -35 -5 0 -10 16 -10 35 0 19 5 35 10 35 6 0 10 -16 10 -35z
m128 -23 c8 -2 12 7 12 27 0 17 5 31 10 31 6 0 10 -16 10 -36 0 -33 -2 -35
-27 -32 -24 3 -28 8 -30 38 -1 33 -1 33 5 6 4 -16 13 -31 20 -34z m150 36 c3
-14 -3 -18 -24 -18 -30 0 -23 -14 11 -23 12 -3 8 -5 -10 -4 -31 2 -43 23 -31
53 8 21 50 14 54 -8z m167 -13 c0 -27 -3 -30 -30 -30 -21 0 -31 5 -33 18 -6
33 6 49 35 45 24 -3 28 -8 28 -33z m205 0 c0 -19 -4 -35 -10 -35 -5 0 -10 16
-10 35 0 19 5 35 10 35 6 0 10 -16 10 -35z m48 28 c-22 -6 -23 -12 -1 -28 9
-7 13 -17 9 -23 -9 -14 -46 -16 -46 -2 0 5 7 7 15 4 20 -8 19 6 -2 21 -20 15
-9 35 20 34 17 -1 18 -2 5 -6z m-1938 -53 c0 -5 -4 -10 -10 -10 -5 0 -10 5
-10 10 0 6 5 10 10 10 6 0 10 -4 10 -10z m-239 -137 c5 -50 2 -82 -6 -80 -11
4 -23 56 -17 75 4 13 22 17 23 5z m-373 -25 c-9 -7 -19 -24 -21 -38 -3 -18 -5
-14 -6 13 -1 32 2 37 21 37 19 0 20 -1 6 -12z m72 8 c0 -2 3 -11 6 -19 4 -11
-2 -17 -23 -19 l-28 -4 25 -11 c24 -11 24 -12 3 -12 -28 -1 -45 27 -32 51 8
15 49 27 49 14z m85 -16 c7 -23 -10 -50 -31 -50 -8 0 -14 -7 -14 -15 0 -8 -4
-15 -10 -15 -5 0 -10 23 -10 50 0 49 1 50 29 50 21 0 32 -6 36 -20z m80 -15
c0 -27 -3 -30 -30 -30 -21 0 -31 5 -33 18 -6 33 6 49 35 45 24 -3 28 -8 28
-33z m53 28 c-22 -6 -23 -12 -1 -28 9 -7 13 -17 9 -23 -8 -14 -46 -16 -46 -3
0 5 10 7 23 4 l22 -5 -24 20 c-27 22 -21 43 12 41 17 -1 18 -2 5 -6z m39 -45
c-2 -13 -4 -5 -4 17 -1 22 1 32 4 23 2 -10 2 -28 0 -40z m128 17 c0 -25 -4
-30 -24 -30 -32 0 -49 28 -31 50 7 9 23 15 34 13 16 -2 21 -10 21 -33z m82 15
c7 -26 19 -25 28 3 3 12 9 17 11 10 7 -15 -28 -85 -44 -91 -11 -3 -11 0 -2 14
8 14 9 27 1 47 -14 35 -34 31 -42 -9 -6 -27 -7 -27 -8 9 -1 33 1 37 25 37 17
0 28 -6 31 -20z m73 -40 c0 -5 -4 -10 -10 -10 -5 0 -10 5 -10 10 0 6 5 10 10
10 6 0 10 -4 10 -10z m-3780 -54 c0 -6 -4 -5 -9 3 -7 11 -11 4 -14 -25 -3 -32
-4 -29 -5 16 -1 50 0 53 13 36 8 -11 15 -25 15 -30z m68 -8 l-1 -53 -7 45 c-4
25 -8 39 -8 31 -1 -8 -4 -12 -7 -9 -8 7 5 38 16 38 5 0 8 -24 7 -52z m70 -16
c3 -29 1 -32 -22 -32 -31 0 -36 29 -6 37 25 7 26 20 3 27 -14 4 -14 4 2 3 15
-2 21 -11 23 -35z m78 -3 c2 -31 1 -31 -3 -4 -3 16 -10 34 -16 38 -8 6 -7 7 3
4 9 -2 16 -17 16 -38z m72 3 c3 -29 1 -32 -22 -32 -31 0 -36 29 -6 37 25 7 26
20 3 27 -14 4 -14 4 2 3 15 -2 21 -11 23 -35z m50 27 c-10 -5 -18 -16 -18 -24
0 -8 8 -19 18 -24 15 -9 16 -10 0 -11 -9 0 -20 9 -23 20 -7 22 10 50 29 50 6
0 3 -5 -6 -11z m110 -12 c3 -14 -3 -17 -30 -16 -30 2 -31 2 -5 6 15 2 27 9 27
15 0 6 -9 8 -20 5 -11 -3 -17 -1 -14 4 9 15 38 6 42 -14z m-3539 -19 c-2 -13
0 -28 4 -35 12 -19 -4 -43 -29 -43 -22 0 -24 4 -24 50 0 47 2 50 26 50 21 0
25 -4 23 -22z m324 -10 c17 -2 22 -10 24 -38 1 -34 1 -34 -5 -5 -4 17 -14 30
-22 30 -8 0 -18 -13 -21 -30 -5 -22 -7 -16 -7 25 0 30 2 47 5 38 2 -9 14 -18
26 -20z m-270 -6 c-6 -4 -13 -21 -16 -37 -4 -27 -4 -27 -6 8 -1 29 3 37 17 37
11 0 13 -3 5 -8z m75 -30 c3 -31 2 -33 -24 -30 -34 4 -44 27 -15 35 12 3 21
10 21 15 0 6 -7 8 -15 4 -8 -3 -15 -1 -15 5 0 6 10 9 23 7 17 -2 23 -11 25
-36z m76 22 c9 -24 7 -54 -4 -54 -5 0 -10 14 -10 31 0 39 -22 34 -31 -7 -6
-27 -7 -27 -8 9 -1 33 2 37 23 37 13 0 27 -7 30 -16z m76 6 c0 -5 -7 -7 -16
-3 -19 7 -35 -14 -27 -34 4 -9 14 -13 26 -9 14 3 17 2 9 -6 -25 -25 -65 19
-42 47 14 17 50 20 50 5z m140 6 c0 -2 3 -11 6 -20 5 -12 0 -16 -20 -16 -32 0
-35 -20 -3 -21 19 -1 20 -2 3 -6 -27 -7 -49 23 -35 48 8 16 49 28 49 15z m46
-3 c-19 -5 -18 -6 4 -23 13 -9 20 -22 16 -29 -9 -13 -46 -15 -46 -1 0 5 7 7
15 4 20 -8 19 6 -2 21 -19 14 -9 36 15 34 14 -1 13 -2 -2 -6z m3060 -11 c-10
-2 -22 0 -28 6 -6 6 0 7 19 4 21 -5 23 -7 9 -10z m-73 -23 c-6 -6 -19 -9 -29
-6 -16 4 -15 5 4 6 12 0 22 6 22 13 0 6 3 8 7 5 4 -4 2 -12 -4 -18z m-3468
-426 c9 45 21 48 30 7 9 -39 21 -38 29 2 3 17 9 29 12 26 8 -8 -17 -98 -27
-98 -5 0 -12 14 -15 30 -4 17 -10 30 -14 30 -4 0 -10 -13 -13 -30 -9 -43 -23
-37 -36 14 -15 62 -13 68 8 21 l19 -40 7 38z m175 22 c0 -8 9 -15 19 -15 26 0
34 -15 27 -46 -5 -19 -13 -24 -36 -24 -29 0 -30 1 -30 50 0 28 5 50 10 50 6 0
10 -7 10 -15z m100 -15 c10 0 21 -7 24 -16 9 -24 7 -54 -4 -54 -5 0 -10 14
-10 31 0 39 -22 34 -31 -7 -5 -21 -7 -13 -7 26 0 30 2 47 5 38 2 -10 13 -18
23 -18z m230 -20 c5 0 12 5 15 10 3 6 11 10 18 10 6 0 2 -6 -8 -14 -24 -17 -9
-41 29 -44 28 -2 35 12 11 22 -24 9 -18 36 8 35 16 -1 18 -2 5 -6 -22 -6 -23
-12 -1 -28 9 -7 13 -17 9 -23 -8 -14 -55 -13 -74 2 -10 7 -16 5 -23 -5 -6 -9
-8 5 -7 41 0 30 3 43 5 28 2 -16 8 -28 13 -28z m-370 16 c0 -2 3 -11 6 -19 4
-11 -2 -17 -23 -19 l-28 -4 25 -12 25 -12 -25 3 c-40 4 -41 67 0 67 11 0 20
-2 20 -4z m245 -31 c0 -25 -4 -30 -24 -30 -32 0 -49 28 -31 50 7 9 23 15 34
13 16 -2 21 -10 21 -33z m80 0 c0 -35 -31 -47 -51 -20 -18 25 0 57 29 53 17
-2 22 -10 22 -33z m2515 -302 c12 -32 26 -61 29 -65 4 -4 19 21 35 57 40 92
56 87 56 -20 0 -50 -4 -85 -10 -85 -6 0 -10 28 -11 63 l-1 62 -29 -60 c-16
-33 -32 -61 -37 -63 -4 -1 -18 26 -32 60 l-25 63 -3 -62 c-4 -94 -22 -76 -22
22 0 104 15 112 50 28z m240 -12 c5 -11 10 -37 10 -59 l0 -39 -41 1 c-71 2
-82 59 -15 72 42 7 37 28 -5 22 -16 -3 -29 -2 -29 2 0 27 65 27 80 1z m138
-43 c2 -36 -1 -58 -8 -58 -5 0 -10 22 -10 50 0 41 -3 50 -18 50 -28 0 -42 -21
-42 -62 0 -21 -4 -38 -10 -38 -6 0 -10 26 -10 58 l0 59 48 -1 47 -1 3 -57z
m120 1 l3 -57 -43 2 c-41 1 -43 3 -43 31 0 24 5 31 33 39 40 11 42 30 2 24
-16 -3 -30 -2 -30 2 0 14 16 21 45 18 29 -3 30 -5 33 -59z m142 -15 c0 -84
-14 -107 -63 -102 -17 2 -32 8 -34 14 -2 7 8 9 28 6 20 -3 34 0 40 9 16 25 10
36 -19 31 -35 -5 -62 19 -62 55 0 40 27 63 71 61 l39 -1 0 -73z m130 57 c20
-39 13 -51 -31 -51 -28 0 -39 -4 -36 -12 2 -7 18 -13 35 -13 41 0 36 -19 -6
-23 -39 -4 -67 32 -56 72 11 46 74 63 94 27z m178 7 c7 -7 12 -33 12 -59 l0
-47 -41 2 c-56 1 -75 28 -40 57 13 10 32 19 42 19 10 0 19 5 19 11 0 8 -12 10
-35 6 -19 -3 -35 -2 -35 3 0 20 60 26 78 8z m132 -1 c0 -7 -13 -12 -32 -12
-31 0 -33 -2 -33 -35 0 -33 2 -35 33 -35 17 0 31 -4 29 -10 -5 -15 -43 -18
-66 -5 -26 13 -29 71 -5 94 19 19 74 21 74 3z m110 0 c0 -7 -13 -12 -32 -12
-31 0 -33 -2 -33 -35 0 -33 2 -35 33 -35 17 0 31 -4 29 -10 -5 -15 -43 -18
-66 -5 -26 13 -29 71 -5 94 19 19 74 21 74 3z m108 1 c7 -7 12 -22 12 -35 0
-20 -5 -23 -41 -23 -28 0 -39 -4 -36 -12 2 -7 20 -13 40 -13 44 0 44 -19 0
-23 -37 -4 -63 19 -63 55 0 50 57 82 88 51z m112 2 c0 -5 -11 -10 -25 -10 -32
0 -32 -17 -1 -32 30 -13 40 -36 25 -54 -13 -16 -65 -19 -74 -4 -4 6 7 10 24
10 36 0 41 21 9 35 -27 12 -36 44 -16 56 18 12 58 11 58 -1z m100 0 c0 -5 -11
-10 -25 -10 -34 0 -32 -16 5 -35 32 -16 38 -33 18 -53 -14 -14 -68 -16 -68 -2
0 6 14 10 30 10 37 0 39 15 3 32 -31 15 -42 46 -21 59 18 12 58 11 58 -1z
m-4486 -121 c10 -17 16 -33 13 -36 -3 -2 -11 6 -19 19 -12 22 -13 22 -19 -17
-6 -39 -6 -39 -8 13 0 28 3 52 7 52 4 0 16 -14 26 -31z m46 -20 c0 -36 -4 -49
-12 -46 -7 2 -13 9 -12 15 1 7 2 28 3 47 2 55 21 41 21 -16z m210 41 c-13 -9
-13 -11 0 -20 10 -6 11 -10 3 -10 -8 0 -14 -14 -14 -32 l-2 -33 -6 35 c-8 38
2 70 22 70 8 0 6 -4 -3 -10z m-81 -28 c-14 -5 -11 -50 4 -55 7 -4 6 -6 -4 -6
-12 -1 -18 9 -21 33 -5 46 0 59 17 43 7 -7 9 -13 4 -15z m292 21 c5 -50 2 -82
-6 -80 -11 4 -23 56 -17 75 4 13 22 17 23 5z m-342 -32 c13 -24 -8 -55 -35
-49 -20 3 -30 29 -20 54 8 20 43 17 55 -5z m78 -33 c-2 -13 -4 -5 -4 17 -1 22
1 32 4 23 2 -10 2 -28 0 -40z m80 0 c-2 -13 -4 -5 -4 17 -1 22 1 32 4 23 2
-10 2 -28 0 -40z m73 43 c0 -5 -8 -8 -17 -7 -12 1 -18 -6 -18 -19 0 -13 6 -20
18 -19 9 1 17 -3 17 -8 0 -5 -10 -8 -22 -6 -39 5 -37 68 2 68 11 0 20 -4 20
-9z m68 -29 c3 -31 2 -33 -24 -30 -34 4 -44 27 -15 35 12 3 21 10 21 15 0 6
-7 8 -15 4 -8 -3 -15 -1 -15 5 0 6 10 9 23 7 17 -2 23 -11 25 -36z m79 -14
c-2 -13 -4 -5 -4 17 -1 22 1 32 4 23 2 -10 2 -28 0 -40z m78 17 c0 -35 -31
-47 -51 -20 -18 25 0 57 29 53 17 -2 22 -10 22 -33z m82 -5 c1 -34 1 -34 -5
-5 -4 17 -14 30 -22 30 -8 0 -18 -13 -21 -30 -6 -29 -7 -28 -8 8 -1 36 1 38
27 35 23 -3 27 -8 29 -38z m51 33 c-22 -6 -23 -19 -3 -27 24 -9 18 -36 -7 -35
-17 1 -19 2 -5 6 21 6 22 19 2 27 -24 9 -18 36 8 35 16 -1 18 -2 5 -6z m-741
-500 c-2 -16 -4 -3 -4 27 0 30 2 43 4 28 2 -16 2 -40 0 -55z m132 39 c-14 -5
-11 -50 4 -55 7 -4 6 -6 -4 -6 -12 -1 -18 9 -21 33 -5 46 0 59 17 43 7 -7 9
-13 4 -15z m320 0 c-14 -5 -11 -50 4 -55 7 -4 6 -6 -4 -6 -12 -1 -18 9 -21 33
-5 46 0 59 17 43 7 -7 9 -13 4 -15z m-371 -29 c-1 -37 -1 -37 -5 -5 -6 42 -33
44 -33 2 0 -16 -4 -30 -10 -30 -5 0 -10 16 -10 35 0 32 2 35 30 35 28 0 30 -2
28 -37z m122 33 c0 -2 3 -11 6 -19 4 -11 -2 -17 -23 -19 l-28 -4 25 -12 25
-12 -25 3 c-40 4 -41 67 0 67 11 0 20 -2 20 -4z m90 -27 c0 -46 -16 -69 -48
-68 -15 0 -20 3 -12 6 43 14 45 16 20 22 -47 13 -39 71 10 71 27 0 30 -3 30
-31z m43 23 c-6 -4 -13 -21 -16 -37 -4 -27 -4 -27 -6 8 -1 29 3 37 17 37 11 0
13 -3 5 -8z m71 -8 c14 -37 7 -54 -24 -54 -35 0 -43 29 -10 37 25 7 26 20 3
26 -14 4 -13 5 3 6 12 0 25 -6 28 -15z m86 -19 c0 -19 -4 -35 -10 -35 -5 0
-10 16 -10 35 0 19 5 35 10 35 6 0 10 -16 10 -35z m75 0 c0 -25 -4 -30 -24
-30 -32 0 -49 28 -31 50 7 9 23 15 34 13 16 -2 21 -10 21 -33z m82 -5 c1 -34
1 -34 -5 -5 -4 17 -14 30 -22 30 -8 0 -18 -13 -21 -30 -6 -29 -7 -28 -8 8 -1
36 1 38 27 35 23 -3 27 -8 29 -38z m51 33 c-22 -6 -23 -12 -1 -28 9 -7 13 -17
9 -23 -9 -14 -33 -16 -40 -3 -4 5 3 7 14 4 23 -6 27 12 5 21 -24 9 -18 36 8
35 16 -1 18 -2 5 -6z m6806 -227 c36 -15 76 -64 76 -93 -1 -12 -7 -6 -20 18
-24 46 -60 69 -107 69 -68 0 -122 -52 -123 -118 0 -66 52 -122 115 -122 14 0
25 -4 25 -10 0 -30 -110 15 -136 55 -24 37 -23 112 1 149 19 29 84 65 118 66
10 0 33 -6 51 -14z m-23 -46 c18 0 28 -47 17 -82 -9 -31 -13 -33 -43 -30 -24
3 -39 -2 -55 -18 -12 -12 -24 -19 -27 -17 -2 3 5 15 16 26 17 17 19 26 11 46
-18 46 16 91 58 79 8 -2 18 -4 23 -4z m-7427 -166 c9 -8 16 -23 16 -31 0 -25
-30 -53 -57 -53 -21 0 -23 4 -23 50 0 46 2 50 24 50 14 0 32 -7 40 -16z m193
-61 c-2 -16 -4 -3 -4 27 0 30 2 43 4 28 2 -16 2 -40 0 -55z m233 27 c5 0 12 5
15 10 3 6 11 10 18 10 6 0 2 -6 -8 -14 -19 -14 -19 -15 -1 -35 20 -22 9 -30
-12 -9 -10 10 -15 10 -22 -2 -7 -10 -9 2 -8 40 0 30 3 43 5 28 2 -16 8 -28 13
-28z m-342 -2 c3 -14 -3 -18 -24 -18 -30 0 -23 -14 11 -23 12 -3 8 -5 -10 -4
-31 2 -43 23 -31 53 8 21 50 14 54 -8z m77 -13 c0 -23 -5 -31 -22 -33 -12 -2
-24 -11 -26 -20 -3 -9 -5 6 -6 34 -1 49 0 51 27 50 23 -1 27 -5 27 -31z m120
15 c8 -27 -12 -52 -39 -48 -21 3 -32 28 -22 54 8 22 54 18 61 -6z m45 -20 c4
0 10 10 13 22 4 12 9 19 12 16 10 -9 -32 -98 -46 -98 -8 0 -8 4 1 15 9 11 9
22 1 46 -14 40 -13 51 1 22 6 -13 14 -23 18 -23z m200 36 c0 -2 3 -11 6 -19 4
-11 -2 -17 -23 -19 l-28 -4 25 -12 25 -12 -25 3 c-40 4 -41 67 0 67 11 0 20
-2 20 -4z m59 -22 c7 16 14 27 17 24 8 -9 -35 -98 -47 -98 -8 0 -8 4 1 15 10
12 10 21 1 41 -6 14 -11 30 -10 37 0 7 7 -1 14 -18 l13 -30 11 29z m57 19
c-19 -5 -18 -6 4 -23 13 -9 20 -22 16 -29 -9 -13 -46 -15 -46 -1 0 5 7 7 15 4
20 -8 19 6 -2 21 -19 14 -9 36 15 34 14 -1 13 -2 -2 -6z m6568 -169 c9 -8 16
-19 16 -24 0 -11 -29 -40 -40 -40 -11 0 -40 29 -40 40 0 11 29 40 40 40 5 0
16 -7 24 -16z m210 0 c9 -8 16 -19 16 -24 0 -11 -29 -40 -40 -40 -11 0 -40 29
-40 40 0 11 29 40 40 40 5 0 16 -7 24 -16z m210 0 c9 -8 16 -19 16 -24 0 -11
-29 -40 -40 -40 -11 0 -40 29 -40 40 0 11 29 40 40 40 5 0 16 -7 24 -16z
m-7640 -297 c18 -48 21 -71 5 -44 -13 22 -45 22 -53 1 -4 -9 -9 -15 -11 -12
-7 7 25 98 35 98 4 0 15 -19 24 -43z m117 26 c0 -5 1 -25 2 -46 2 -41 -15 -45
-23 -6 -6 27 -44 39 -53 16 -8 -22 9 -41 29 -33 15 6 16 4 7 -5 -14 -14 -41
-5 -49 16 -9 21 14 45 42 45 13 0 24 5 24 10 0 11 20 14 21 3z m36 -65 c-2
-13 -4 -5 -4 17 -1 22 1 32 4 23 2 -10 2 -28 0 -40z m88 32 c8 -27 -12 -52
-39 -48 -21 3 -32 28 -22 54 8 22 54 18 61 -6z m73 -17 c-1 -37 -1 -37 -5 -5
-6 42 -33 44 -33 2 0 -16 -4 -30 -10 -30 -5 0 -10 16 -10 35 0 32 2 35 30 35
28 0 30 -2 28 -37z m48 30 c-19 -5 -18 -6 4 -23 13 -9 20 -22 16 -29 -9 -13
-46 -15 -46 -1 0 5 7 7 15 4 20 -8 19 6 -2 21 -19 14 -9 36 15 34 14 -1 13 -2
-2 -6z m5624 -132 c0 -26 3 -29 33 -27 31 1 32 0 35 -46 2 -29 -1 -48 -7 -48
-6 0 -11 11 -11 24 0 34 -10 56 -25 56 -15 0 -25 -22 -25 -56 0 -13 -4 -24
-10 -24 -6 0 -10 32 -10 75 0 43 4 75 10 75 6 0 10 -13 10 -29z m711 6 c-13
-13 -26 -3 -16 12 3 6 11 8 17 5 6 -4 6 -10 -1 -17z m270 0 c-13 -13 -26 -3
-16 12 3 6 11 8 17 5 6 -4 6 -10 -1 -17z m299 -50 l0 -74 -40 -1 c-45 -2 -66
22 -56 64 6 24 45 42 65 29 7 -4 11 5 11 24 0 17 5 31 10 31 6 0 10 -31 10
-73z m700 -2 c0 -43 -4 -75 -10 -75 -6 0 -10 32 -10 75 0 43 4 75 10 75 6 0
10 -32 10 -75z m50 0 c0 -43 -4 -75 -10 -75 -6 0 -10 32 -10 75 0 43 4 75 10
75 6 0 10 -32 10 -75z m160 46 c0 -24 3 -28 20 -24 28 7 50 -14 50 -47 0 -36
-16 -48 -62 -48 l-38 0 0 74 c0 59 3 74 15 74 10 0 15 -10 15 -29z m-2570 -13
l12 -33 16 33 c8 17 22 32 29 32 10 0 6 -14 -12 -50 -14 -27 -25 -58 -25 -70
0 -11 -4 -20 -10 -20 -5 0 -10 11 -10 25 0 14 -9 43 -20 65 -24 47 -24 50 -6
50 8 0 19 -15 26 -32z m910 12 c0 -11 -4 -20 -10 -20 -5 0 -10 9 -10 20 0 11
5 20 10 20 6 0 10 -9 10 -20z m60 -5 c0 -8 7 -15 15 -15 8 0 15 -4 15 -10 0
-5 -7 -10 -15 -10 -9 0 -15 -9 -15 -25 0 -14 7 -28 15 -31 23 -9 18 -26 -7
-22 -18 2 -24 11 -26 38 -2 19 -9 39 -15 43 -9 6 -9 10 1 14 6 2 12 11 12 19
0 8 5 14 10 14 6 0 10 -7 10 -15z m450 0 c0 -8 7 -15 15 -15 8 0 15 -4 15 -10
0 -5 -7 -10 -15 -10 -9 0 -15 -9 -15 -25 0 -14 7 -28 15 -31 23 -9 18 -26 -7
-22 -18 2 -24 11 -26 38 -2 19 -9 39 -15 43 -9 6 -9 10 1 14 6 2 12 11 12 19
0 8 5 14 10 14 6 0 10 -7 10 -15z m1586 -15 c8 0 14 -4 14 -10 0 -5 -7 -10
-15 -10 -9 0 -15 -9 -15 -25 0 -14 7 -28 15 -31 23 -9 18 -26 -7 -22 -18 2
-24 11 -26 38 -2 19 -8 38 -14 41 -6 4 -3 15 8 28 15 18 20 19 22 6 2 -8 10
-15 18 -15z m604 16 c0 -8 6 -17 13 -20 10 -5 10 -7 0 -12 -15 -7 -18 -64 -3
-64 6 0 10 -4 10 -10 0 -5 -9 -10 -20 -10 -19 0 -21 4 -35 74 -5 22 11 56 25
56 6 0 10 -6 10 -14z m-3462 -28 c7 -7 12 -24 12 -38 0 -14 -5 -31 -12 -38
-28 -28 -88 -2 -88 38 0 40 60 66 88 38z m64 -25 c2 -27 8 -39 21 -41 14 -3
17 4 17 37 0 30 4 41 15 41 11 0 15 -12 15 -49 l0 -50 -42 2 -43 2 -3 48 c-4
55 15 65 20 10z m336 -15 l3 -46 -38 1 c-31 2 -39 6 -41 25 -3 18 2 23 27 28
17 4 31 11 31 16 0 6 -11 8 -25 6 -17 -4 -25 -1 -25 9 0 10 10 13 33 11 31 -3
32 -5 35 -50z m57 11 l12 -34 12 38 c7 20 19 37 26 37 11 0 9 -11 -7 -50 -11
-27 -26 -50 -33 -50 -11 0 -45 71 -45 94 0 20 25 -4 35 -35z m155 21 c15 -27
5 -40 -31 -40 -19 0 -28 -4 -23 -11 3 -6 17 -9 30 -6 26 5 33 -10 9 -19 -28
-11 -64 5 -71 32 -13 51 62 89 86 44z m108 -32 c2 -29 -1 -48 -7 -48 -6 0 -11
18 -11 41 0 33 -3 40 -17 37 -13 -2 -19 -14 -21 -41 -2 -24 -8 -37 -18 -37
-10 0 -14 13 -14 49 l0 50 43 -2 42 -2 3 -47z m222 2 c0 -27 -4 -50 -10 -50
-5 0 -10 23 -10 50 0 28 5 50 10 50 6 0 10 -22 10 -50z m118 -2 c4 -56 -15
-66 -20 -10 -2 25 -8 37 -18 37 -10 0 -16 -12 -18 -37 -2 -25 -8 -38 -18 -38
-10 0 -14 13 -14 49 l0 50 43 -2 42 -2 3 -47z m57 11 l12 -34 12 38 c7 20 19
37 26 37 11 0 9 -11 -7 -50 -11 -27 -26 -50 -33 -50 -11 0 -45 71 -45 94 0 20
25 -4 35 -35z m95 -9 c0 -27 -4 -50 -10 -50 -5 0 -10 23 -10 50 0 28 5 50 10
50 6 0 10 -22 10 -50z m178 38 c7 -7 12 -20 12 -30 0 -14 -8 -18 -36 -18 -21
0 -33 -4 -29 -10 3 -5 17 -10 31 -10 13 0 24 -4 24 -10 0 -14 -54 -12 -68 2
-7 7 -12 24 -12 38 0 31 17 50 45 50 12 0 26 -5 33 -12z m280 -40 l3 -46 -38
1 c-31 2 -39 6 -41 25 -3 18 2 23 27 28 17 4 31 11 31 16 0 6 -11 8 -25 6 -17
-4 -25 -1 -25 9 0 10 10 13 33 11 31 -3 32 -5 35 -50z m114 39 c11 -18 10 -87
-2 -87 -5 0 -10 11 -10 24 0 34 -10 56 -25 56 -15 0 -25 -22 -25 -56 0 -13 -4
-24 -10 -24 -5 0 -10 22 -10 48 l0 48 37 1 c21 1 41 -4 45 -10z m63 -28 l12
-34 12 38 c14 41 37 52 27 13 -12 -49 -46 -117 -61 -122 -25 -10 -31 5 -9 20
18 14 18 16 2 64 -21 59 -22 65 -6 60 6 -2 17 -20 23 -39z m202 26 c2 -6 -9
-11 -24 -10 -23 0 -28 -4 -28 -25 0 -21 5 -25 28 -25 15 1 26 -4 24 -10 -5
-15 -46 -18 -63 -5 -17 15 -18 62 -2 78 15 15 60 12 65 -3z m101 3 c7 -7 12
-24 12 -38 0 -14 -5 -31 -12 -38 -28 -28 -88 -2 -88 38 0 40 60 66 88 38z
m220 -40 l3 -46 -38 1 c-31 2 -39 6 -41 25 -3 18 2 23 27 28 17 4 28 11 25 16
-4 6 -17 8 -30 5 -13 -2 -24 -1 -24 3 0 14 15 21 45 18 28 -3 30 -6 33 -50z
m230 40 c7 -7 12 -24 12 -38 0 -14 -5 -31 -12 -38 -28 -28 -88 -2 -88 38 0 40
60 66 88 38z m92 2 c0 -5 -7 -10 -15 -14 -9 -3 -15 -19 -15 -41 0 -24 -4 -35
-15 -35 -11 0 -15 12 -15 49 0 49 1 50 30 49 17 -1 30 -4 30 -8z m88 -2 c7 -7
12 -29 12 -49 l0 -38 -42 2 c-55 3 -66 32 -19 50 37 14 41 31 6 25 -24 -5 -32
2 -18 15 11 11 48 8 61 -5z m190 0 c7 -7 12 -24 12 -38 0 -33 -17 -50 -50 -50
-33 0 -50 17 -50 50 0 33 17 50 50 50 14 0 31 -5 38 -12z m92 2 c0 -5 -7 -10
-15 -14 -9 -3 -15 -19 -15 -41 0 -24 -4 -35 -15 -35 -11 0 -15 12 -15 49 0 49
1 50 30 49 17 -1 30 -4 30 -8z m80 0 c0 -5 -9 -10 -20 -10 -11 0 -20 -4 -20
-10 0 -5 6 -10 14 -10 7 0 19 -7 26 -15 10 -12 10 -18 0 -30 -14 -17 -56 -20
-65 -5 -4 6 5 10 19 10 14 0 26 5 26 10 0 6 -6 10 -14 10 -7 0 -19 7 -26 15
-10 12 -10 18 0 30 14 17 60 21 60 5z m105 -20 c4 -16 10 -30 15 -30 5 0 11
14 15 30 4 17 13 30 21 30 18 0 19 5 -14 -76 -22 -52 -34 -70 -50 -72 -12 -2
-22 1 -22 7 0 6 6 11 14 11 24 0 26 28 6 76 -24 55 -24 54 -6 54 8 0 17 -13
21 -30z m153 18 c7 -7 12 -20 12 -30 0 -14 -8 -18 -36 -18 -23 0 -33 -4 -28
-11 3 -6 17 -9 31 -6 15 3 22 0 20 -7 -5 -16 -46 -20 -63 -6 -17 15 -19 61 -2
78 7 7 21 12 33 12 12 0 26 -5 33 -12z m-9175 -265 c-13 -2 -23 -11 -23 -19 0
-8 10 -15 23 -15 l22 -2 -22 -4 c-14 -3 -23 -12 -23 -23 0 -11 9 -20 23 -23
19 -4 18 -4 -5 -6 -27 -1 -28 1 -28 49 0 48 1 50 28 49 23 -2 24 -2 5 -6z
m718 -10 c5 -50 2 -82 -6 -80 -11 4 -23 56 -17 75 4 13 22 17 23 5z m-627 -29
c9 -24 7 -54 -4 -54 -5 0 -10 14 -10 31 0 39 -22 34 -31 -7 -6 -27 -7 -27 -8
9 -1 33 2 37 23 37 13 0 27 -7 30 -16z m55 -10 c7 16 14 27 16 24 6 -6 -17
-68 -26 -68 -8 0 -29 47 -28 63 0 7 7 -1 14 -18 l13 -30 11 29z m51 -9 c0 -19
-4 -35 -10 -35 -5 0 -10 16 -10 35 0 19 5 35 10 35 6 0 10 -16 10 -35z m43 27
c-6 -4 -13 -21 -16 -37 -4 -27 -4 -27 -6 8 -1 29 3 37 17 37 11 0 13 -3 5 -8z
m82 -27 c0 -25 -4 -30 -24 -30 -32 0 -49 28 -31 50 7 9 23 15 34 13 16 -2 21
-10 21 -33z m82 -5 c1 -34 1 -34 -5 -5 -4 17 -14 30 -22 30 -8 0 -18 -13 -21
-30 -6 -29 -7 -28 -8 8 -1 36 1 38 27 35 23 -3 27 -8 29 -38z m111 1 l-1 -36
-4 33 c-5 40 -26 38 -34 -4 l-6 -29 -4 28 c-5 38 -22 39 -30 2 -7 -29 -7 -29
-8 7 l-1 36 45 0 45 -1 -2 -36z m82 35 c0 -2 3 -11 6 -20 5 -12 0 -16 -20 -16
-32 0 -35 -20 -3 -21 19 -1 20 -2 3 -6 -27 -7 -49 23 -35 48 8 16 49 28 49 15z
m77 -36 c1 -34 1 -34 -5 -5 -4 17 -14 30 -22 30 -8 0 -18 -13 -21 -30 -6 -29
-7 -28 -8 8 -1 36 1 38 27 35 23 -3 27 -8 29 -38z m101 33 c-22 -6 -23 -12 -1
-28 9 -7 13 -17 9 -23 -9 -14 -33 -16 -40 -3 -4 5 3 7 14 4 23 -6 27 12 5 21
-24 9 -18 36 8 35 16 -1 18 -2 5 -6z m7025 -190 c-204 -2 -542 -2 -750 0 -208
1 -40 2 372 2 413 0 583 -1 378 -2z m-1176 -205 c-2 -29 -3 -6 -3 52 0 58 1
81 3 53 2 -29 2 -77 0 -105z m1600 0 c-2 -29 -3 -6 -3 52 0 58 1 81 3 53 2
-29 2 -77 0 -105z m-1407 52 c0 -38 -4 -50 -15 -50 -11 0 -15 12 -15 50 0 38
4 50 15 50 11 0 15 -12 15 -50z m190 40 c0 -5 -7 -10 -16 -10 -8 0 -12 5 -9
10 3 6 10 10 16 10 5 0 9 -4 9 -10z m460 -40 c0 -27 -4 -50 -10 -50 -5 0 -10
23 -10 50 0 28 5 50 10 50 6 0 10 -22 10 -50z m40 16 c0 -31 2 -33 28 -27 25
5 25 6 5 9 -13 2 -23 8 -23 13 0 14 58 11 63 -3 3 -7 6 -1 6 15 1 28 31 40 31
12 0 -8 8 -15 18 -15 10 0 23 -5 30 -12 9 -9 12 -9 12 0 0 19 58 14 69 -5 10
-17 10 -17 11 0 0 16 8 18 62 16 41 -2 63 1 66 9 5 15 29 15 34 0 2 -6 22 -12
44 -12 37 -1 39 -3 39 -31 0 -30 -1 -30 -57 -32 -56 -2 -58 -1 -59 25 l-2 27
-4 -27 c-4 -24 -9 -28 -39 -28 -27 0 -34 4 -34 20 0 14 7 20 23 21 21 1 21 1
-3 8 -32 10 -40 5 -40 -25 0 -15 -6 -24 -15 -24 -8 0 -15 8 -15 18 -1 16 -1
16 -11 0 -11 -20 -69 -25 -69 -7 0 8 -4 8 -14 0 -8 -7 -47 -11 -100 -10 l-86
1 0 49 c0 37 4 49 15 49 10 0 15 -10 15 -34z m-458 13 c2 -7 22 -12 43 -13 37
-1 40 -3 43 -33 l3 -32 -55 0 c-52 1 -56 3 -56 24 0 13 -4 27 -10 30 -6 4 -10
-7 -10 -24 0 -42 -20 -40 -21 2 l0 32 -16 -32 c-19 -38 -40 -42 -53 -10 l-9
22 0 -22 c-1 -32 -31 -30 -31 2 0 14 -4 25 -10 25 -5 0 -10 -11 -10 -25 0 -16
-6 -25 -15 -25 -10 0 -15 11 -15 35 l0 35 51 -1 c41 -2 52 -6 58 -22 8 -20 8
-20 13 1 5 17 14 22 42 22 20 0 36 5 36 10 0 14 17 13 22 -1z m196 -46 c3 -32
2 -33 -32 -33 -42 0 -50 25 -13 40 17 7 18 9 5 9 -10 1 -18 6 -18 12 0 6 12 9
28 7 22 -2 28 -8 30 -35z m188 26 c3 -6 3 -21 0 -34 -6 -22 -11 -24 -70 -24
-68 0 -83 11 -71 50 5 15 17 18 70 18 36 0 67 -5 71 -10z m626 -1 c-7 -7 -12
-22 -12 -35 0 -14 -6 -23 -15 -23 -10 0 -15 11 -15 35 0 31 3 35 27 35 21 0
24 -3 15 -12z m-8042 -97 c0 -5 -9 -7 -20 -4 -27 7 -26 -14 2 -36 27 -23 18
-51 -17 -51 -14 0 -25 4 -25 9 0 4 11 6 25 3 17 -3 25 0 25 10 0 8 -11 20 -25
26 -27 12 -33 37 -12 45 21 9 47 8 47 -2z m301 -8 c5 -50 2 -82 -6 -80 -11 4
-23 56 -17 75 4 13 22 17 23 5z m-231 -17 c0 -2 3 -11 6 -19 4 -11 -2 -17 -23
-19 l-28 -4 25 -12 25 -12 -25 3 c-40 4 -41 67 0 67 11 0 20 -2 20 -4z m53 -6
c-13 -5 -23 -16 -23 -25 0 -9 10 -20 23 -25 22 -10 22 -10 -3 -7 -43 4 -34 68
9 66 11 0 9 -3 -6 -9z m65 -2 c-9 -7 -19 -24 -21 -38 -3 -18 -5 -14 -6 13 -1
32 2 37 21 37 19 0 20 -1 6 -12z m70 -11 c3 -13 -3 -17 -24 -17 -30 0 -23 -15
11 -23 15 -4 14 -5 -7 -6 -31 -1 -47 31 -27 55 16 19 43 14 47 -9z m100 16
c-22 -6 -23 -12 -1 -28 9 -7 13 -17 9 -23 -9 -14 -33 -16 -40 -3 -4 5 3 7 14
4 23 -6 27 12 5 21 -24 9 -18 36 8 35 16 -1 18 -2 5 -6z m7425 -40 c-204 -2
-542 -2 -750 0 -208 1 -40 2 372 2 413 0 583 -1 378 -2z m-7778 -408 c0 -11
-10 -24 -22 -30 -12 -5 -24 -19 -26 -30 -2 -11 -5 4 -6 33 -1 53 -1 53 27 50
19 -2 27 -9 27 -23z m63 -43 c3 -31 1 -33 -23 -30 -32 4 -35 19 -5 34 13 7 18
14 11 18 -6 4 -15 4 -21 1 -5 -3 -10 -1 -10 5 0 6 10 10 23 8 17 -2 23 -11 25
-36z m80 -9 c-3 -45 -5 -48 -33 -50 -16 -1 -23 0 -15 3 8 3 22 8 30 11 11 4 8
8 -10 12 -44 12 -39 71 5 71 25 0 26 -2 23 -47z m80 25 c3 -14 -3 -18 -24 -18
-30 0 -23 -14 11 -23 12 -3 8 -5 -10 -4 -31 2 -43 23 -31 53 8 21 50 14 54 -8z
m50 15 c-22 -6 -23 -12 -1 -28 9 -7 13 -17 9 -23 -8 -14 -46 -16 -46 -3 0 5
10 7 23 4 l22 -5 -24 20 c-27 22 -21 43 12 41 17 -1 18 -2 5 -6z m-297 -461
l16 -37 18 38 c10 20 22 37 27 37 4 0 7 -24 7 -52 -2 -51 -2 -52 -8 -14 l-6
39 -19 -39 -19 -39 -18 40 -18 39 -4 -39 c-3 -36 -4 -34 -5 13 -1 28 1 52 6
52 4 0 14 -17 23 -38z m239 -13 l0 -50 -32 3 c-29 3 -33 6 -33 33 0 23 5 31
23 33 12 2 22 10 22 18 0 8 5 14 10 14 6 0 10 -23 10 -51z m231 34 c5 -50 2
-82 -6 -80 -11 4 -23 56 -17 75 4 13 22 17 23 5z m424 -13 c7 0 15 6 18 13 8
22 19 -1 20 -42 2 -45 -16 -51 -21 -8 -4 34 -32 36 -32 3 0 -13 6 -27 13 -29
7 -4 6 -6 -4 -6 -12 -1 -18 9 -21 33 -4 37 2 70 10 49 2 -7 10 -13 17 -13z
m-746 -19 c13 -24 -8 -55 -35 -49 -20 3 -30 29 -20 54 8 20 43 17 55 -5z m159
-4 c3 -13 -3 -17 -24 -17 -30 0 -23 -15 11 -23 15 -4 14 -5 -7 -6 -31 -1 -47
31 -27 55 16 19 43 14 47 -9z m50 11 c-9 -7 -19 -24 -21 -38 -3 -18 -5 -14 -6
13 -1 32 2 37 21 37 19 0 20 -1 6 -12z m70 -26 c3 -31 1 -33 -23 -30 -32 4
-35 19 -5 34 13 7 18 14 11 18 -6 4 -15 4 -21 1 -5 -3 -10 -1 -10 5 0 6 10 10
23 8 17 -2 23 -11 25 -36z m79 -14 c-2 -13 -4 -5 -4 17 -1 22 1 32 4 23 2 -10
2 -28 0 -40z m82 33 c13 -24 -8 -55 -35 -49 -20 3 -30 29 -20 54 8 20 43 17
55 -5z m79 -18 c-1 -37 -1 -37 -5 -5 -6 42 -33 44 -33 2 0 -16 -4 -30 -10 -30
-5 0 -10 16 -10 35 0 32 2 35 30 35 28 0 30 -2 28 -37z m90 30 c-22 -6 -23
-19 -3 -27 24 -9 18 -36 -7 -35 -17 1 -19 2 -5 6 21 6 22 19 2 27 -24 9 -18
36 8 35 16 -1 18 -2 5 -6z m82 3 c0 -2 3 -11 6 -20 5 -12 0 -16 -20 -16 -32 0
-35 -20 -3 -21 19 -1 20 -2 3 -6 -27 -7 -49 23 -35 48 8 16 49 28 49 15z m127
-48 c-2 -13 -4 -5 -4 17 -1 22 1 32 4 23 2 -10 2 -28 0 -40z m80 12 c1 -34 1
-34 -5 -5 -4 17 -14 30 -22 30 -8 0 -18 -13 -21 -30 -6 -29 -7 -28 -8 8 -1 36
1 38 27 35 23 -3 27 -8 29 -38z m81 -7 c-3 -45 -5 -48 -33 -50 -16 -1 -23 0
-15 3 8 3 22 8 30 11 11 4 8 8 -10 12 -44 12 -39 71 5 71 25 0 26 -2 23 -47z
m48 40 c-19 -5 -18 -6 4 -23 13 -9 20 -22 16 -29 -9 -13 -46 -15 -46 -1 0 5 7
7 15 4 20 -8 19 6 -2 21 -19 14 -9 36 15 34 14 -1 13 -2 -2 -6z m-1473 -1110
c3 -5 -8 -8 -23 -8 -15 0 -26 3 -23 8 2 4 13 7 23 7 10 0 21 -3 23 -7z m114
-18 c1 -15 0 -15 -3 -3 -3 9 -13 19 -22 22 -12 3 -12 4 3 3 12 -1 21 -10 22
-22z m63 21 c0 -2 -9 -6 -20 -9 -11 -3 -18 -1 -14 4 5 9 34 13 34 5z m67 -21
c1 -15 0 -15 -3 -3 -3 9 -13 19 -22 22 -12 3 -12 4 3 3 12 -1 21 -10 22 -22z
m168 18 c-11 -3 -27 -10 -35 -17 -13 -10 -13 -9 -1 7 7 9 23 16 35 16 20 -1
20 -2 1 -6z m143 -34 l27 -2 -27 -4 c-18 -3 -28 -12 -31 -26 -2 -12 -4 1 -4
28 0 28 2 40 4 28 3 -17 12 -23 31 -24z m960 34 c-10 -2 -26 -2 -35 0 -10 3
-2 5 17 5 19 0 27 -2 18 -5z m810 -21 c3 -17 -2 -25 -17 -29 -11 -3 -22 -12
-24 -22 -3 -9 -5 6 -6 32 -1 45 1 48 22 45 14 -2 23 -11 25 -26z m849 22 c-3
-3 -12 -4 -19 -1 -8 3 -5 6 6 6 11 1 17 -2 13 -5z m923 2 c0 -2 -9 -6 -20 -9
-11 -3 -18 -1 -14 4 5 9 34 13 34 5z m831 -13 c12 -16 12 -17 -1 -7 -8 7 -24
14 -35 17 -19 4 -19 5 1 6 12 0 28 -7 35 -16z m2336 11 c-3 -3 -12 -4 -19 -1
-8 3 -5 6 6 6 11 1 17 -2 13 -5z m438 -1 c-11 -3 -27 -10 -35 -17 -13 -10 -13
-9 -1 7 7 9 23 16 35 16 20 -1 20 -2 1 -6z m143 -34 l27 -2 -27 -4 c-18 -3
-28 -12 -31 -26 -2 -12 -4 1 -4 28 0 28 2 40 4 28 3 -17 12 -23 31 -24z m789
35 c-3 -3 -12 -4 -19 -1 -8 3 -5 6 6 6 11 1 17 -2 13 -5z m941 -19 c-3 -3 -9
2 -12 12 -6 14 -5 15 5 6 7 -7 10 -15 7 -18z m69 19 c-3 -3 -12 -4 -19 -1 -8
3 -5 6 6 6 11 1 17 -2 13 -5z m681 -1 c-10 -2 -26 -2 -35 0 -10 3 -2 5 17 5
19 0 27 -2 18 -5z m980 0 c-10 -2 -18 -11 -18 -20 0 -10 6 -13 18 -9 16 6 16
5 0 -8 -10 -7 -18 -18 -18 -25 0 -18 28 -13 34 7 4 13 4 13 3 -3 -1 -12 -11
-21 -25 -23 -20 -3 -22 1 -22 42 0 41 2 46 23 45 16 -1 18 -2 5 -6z m49 -60
c-2 -16 -4 -5 -4 22 0 28 2 40 4 28 2 -13 2 -35 0 -50z m771 42 c-3 -3 -9 2
-12 12 -6 14 -5 15 5 6 7 -7 10 -15 7 -18z m-8644 -29 c1 -20 -2 -36 -5 -36
-8 0 -17 52 -11 69 7 20 14 5 16 -33z m650 0 c1 -19 -2 -32 -5 -28 -12 12 -15
81 -3 69 3 -3 7 -22 8 -41z m3310 0 c1 -19 -2 -32 -5 -28 -12 12 -15 81 -3 69
3 -3 7 -22 8 -41z m160 0 c1 -20 -2 -36 -5 -36 -8 0 -17 52 -11 69 7 20 14 5
16 -33z m4790 0 c1 -20 -2 -36 -5 -36 -8 0 -17 52 -11 69 7 20 14 5 16 -33z
m-12207 -3 c-3 -10 -5 -4 -5 12 0 17 2 24 5 18 2 -7 2 -21 0 -30z m3001 -12
c-2 -9 -11 -16 -21 -17 -12 -1 -13 -1 -2 3 21 6 19 22 -7 44 l-23 20 28 -17
c16 -9 27 -24 25 -33z m-2731 -8 c-3 -10 -5 -2 -5 17 0 19 2 27 5 18 2 -10 2
-26 0 -35z m263 43 c0 -2 -9 -6 -20 -9 -11 -3 -18 -1 -14 4 5 9 34 13 34 5z
m154 -4 c2 -4 -4 -8 -14 -8 -10 0 -16 4 -14 8 3 4 9 8 14 8 5 0 11 -4 14 -8z
m66 4 c0 -2 -9 -6 -20 -9 -11 -3 -18 -1 -14 4 5 9 34 13 34 5z m627 -2 c-3 -3
-12 -4 -19 -1 -8 3 -5 6 6 6 11 1 17 -2 13 -5z m30 -41 c-3 -10 -5 -2 -5 17 0
19 2 27 5 18 2 -10 2 -26 0 -35z m79 11 l2 -29 -5 28 c-3 20 -9 27 -19 23 -9
-3 -12 -2 -9 5 12 18 30 3 31 -27z m79 27 c-18 -7 -18 -8 -1 -18 21 -12 13
-33 -12 -32 -15 0 -15 1 1 8 17 6 17 8 3 20 -18 15 -12 31 12 30 14 0 13 -2
-3 -8z m602 -38 c-3 -10 -5 -2 -5 17 0 19 2 27 5 18 2 -10 2 -26 0 -35z m40 0
c-3 -10 -5 -2 -5 17 0 19 2 27 5 18 2 -10 2 -26 0 -35z m110 41 c-3 -3 -12 -4
-19 -1 -8 3 -5 6 6 6 11 1 17 -2 13 -5z m73 2 c0 -2 -9 -6 -20 -9 -11 -3 -18
-1 -14 4 5 9 34 13 34 5z m655 -5 c-19 -8 -18 -9 5 -13 25 -5 25 -5 -2 -7 -27
-1 -35 8 -21 22 3 4 13 7 22 6 12 0 10 -3 -4 -8z m72 3 c-3 -3 -12 -4 -19 -1
-8 3 -5 6 6 6 11 1 17 -2 13 -5z m140 -41 c-3 -10 -5 -2 -5 17 0 19 2 27 5 18
2 -10 2 -26 0 -35z m653 21 c0 -2 -9 0 -20 6 -11 6 -20 13 -20 16 0 2 9 0 20
-6 11 -6 20 -13 20 -16z m97 10 c2 -6 -6 -14 -19 -17 -21 -6 -22 -5 -5 8 18
13 18 13 0 19 -16 4 -16 5 1 3 11 -1 21 -7 23 -13z m50 10 c-3 -3 -12 -4 -19
-1 -8 3 -5 6 6 6 11 1 17 -2 13 -5z m37 -47 c7 -6 6 -7 -4 -4 -8 2 -16 16 -17
33 -1 25 0 26 4 4 3 -14 10 -29 17 -33z m23 6 c-3 -10 -5 -2 -5 17 0 19 2 27
5 18 2 -10 2 -26 0 -35z m50 41 c-3 -3 -12 -4 -19 -1 -8 3 -5 6 6 6 11 1 17
-2 13 -5z m646 -1 c3 -5 -5 -8 -18 -8 -13 0 -21 3 -18 8 2 4 10 7 18 7 8 0 16
-3 18 -7z m67 3 c0 -2 -9 -6 -20 -9 -11 -3 -18 -1 -14 4 5 9 34 13 34 5z m35
-5 c-18 -7 -18 -8 -1 -18 21 -12 13 -33 -12 -32 -15 0 -15 1 1 8 17 6 17 8 3
20 -18 15 -12 31 12 30 14 0 13 -2 -3 -8z m2112 -13 c-3 -8 -6 -5 -6 6 -1 11
2 17 5 13 3 -3 4 -12 1 -19z m116 15 c3 -5 -5 -8 -18 -8 -13 0 -21 3 -18 8 2
4 10 7 18 7 8 0 16 -3 18 -7z m34 -40 c-3 -10 -5 -2 -5 17 0 19 2 27 5 18 2
-10 2 -26 0 -35z m40 11 c1 -25 0 -26 -4 -4 -3 14 -10 29 -17 33 -7 6 -6 7 4
4 8 -2 16 -16 17 -33z m101 3 c3 -23 0 -27 -20 -26 -17 1 -18 3 -5 6 20 5 23
23 5 23 -9 0 -9 3 1 9 11 7 10 10 -5 14 -17 5 -17 6 1 4 14 -2 21 -11 23 -30z
m62 29 c0 -2 -9 -6 -20 -9 -11 -3 -18 -1 -14 4 5 9 34 13 34 5z m177 -43 c-3
-10 -5 -2 -5 17 0 19 2 27 5 18 2 -10 2 -26 0 -35z m50 41 c-3 -3 -12 -4 -19
-1 -8 3 -5 6 6 6 11 1 17 -2 13 -5z m213 2 c0 -2 -9 -6 -20 -9 -11 -3 -18 -1
-14 4 5 9 34 13 34 5z m767 -2 c-3 -3 -12 -4 -19 -1 -8 3 -5 6 6 6 11 1 17 -2
13 -5z m30 -41 c-3 -10 -5 -2 -5 17 0 19 2 27 5 18 2 -10 2 -26 0 -35z m30 0
c-3 -10 -5 -2 -5 17 0 19 2 27 5 18 2 -10 2 -26 0 -35z m97 38 c4 -5 -3 -7
-14 -4 -23 6 -26 13 -6 13 8 0 17 -4 20 -9z m1413 -38 c-3 -10 -5 -2 -5 17 0
19 2 27 5 18 2 -10 2 -26 0 -35z m70 31 c2 -6 -6 -14 -19 -17 -21 -6 -22 -5
-5 8 18 13 18 13 0 19 -16 4 -16 5 1 3 11 -1 21 -7 23 -13z m60 -31 c-3 -10
-5 -2 -5 17 0 19 2 27 5 18 2 -10 2 -26 0 -35z m40 11 c1 -25 0 -26 -4 -4 -3
14 -10 29 -17 33 -7 6 -6 7 4 4 8 -2 16 -16 17 -33z m30 -11 c-3 -10 -5 -2 -5
17 0 19 2 27 5 18 2 -10 2 -26 0 -35z m30 0 c-3 -10 -5 -2 -5 17 0 19 2 27 5
18 2 -10 2 -26 0 -35z m97 38 c4 -5 -3 -7 -14 -4 -23 6 -26 13 -6 13 8 0 17
-4 20 -9z m743 3 c-3 -3 -12 -4 -19 -1 -8 3 -5 6 6 6 11 1 17 -2 13 -5z m67
-3 c4 -5 -3 -7 -14 -4 -23 6 -26 13 -6 13 8 0 17 -4 20 -9z m726 5 c0 -2 -9
-6 -20 -9 -11 -3 -18 -1 -14 4 5 9 34 13 34 5z m67 -2 c-3 -3 -12 -4 -19 -1
-8 3 -5 6 6 6 11 1 17 -2 13 -5z m-3632 -14 c-3 -5 -14 -10 -23 -9 -14 0 -13
2 3 9 27 11 27 11 20 0z m950 -38 c-3 -3 -5 0 -5 6 0 7 -11 12 -25 12 -14 0
-25 4 -25 9 0 5 9 7 20 4 13 -3 20 0 21 8 0 8 5 3 10 -10 5 -13 7 -26 4 -29z
m60 38 c-3 -5 -14 -10 -23 -9 -14 0 -13 2 3 9 27 11 27 11 20 0z m2490 -38
c-3 -3 -5 0 -5 6 0 7 -11 12 -25 12 -14 0 -25 4 -25 9 0 5 9 7 20 4 13 -3 20
0 21 8 0 8 5 3 10 -10 5 -13 7 -26 4 -29z m-10582 31 c-7 -2 -19 -2 -25 0 -7
3 -2 5 12 5 14 0 19 -2 13 -5z m956 -15 c-1 -17 -2 -19 -6 -5 -2 9 -11 17 -19
17 -17 0 -19 -16 -1 -23 9 -4 9 -6 0 -6 -15 -1 -26 16 -18 29 3 6 15 10 26 10
13 0 19 -6 18 -22z m779 -12 c12 -3 12 -4 -3 -3 -11 1 -20 9 -21 17 0 8 1 10
3 3 2 -6 12 -14 21 -17z m5470 0 c12 -3 12 -4 -3 -3 -11 1 -20 9 -21 17 0 8 1
10 3 3 2 -6 12 -14 21 -17z m109 2 c-3 -7 -5 -2 -5 12 0 14 2 19 5 13 2 -7 2
-19 0 -25z m1740 0 c-3 -7 -5 -2 -5 12 0 14 2 19 5 13 2 -7 2 -19 0 -25z
m-5687 7 c-7 -8 -22 -14 -34 -14 -20 1 -20 2 -1 6 11 3 24 9 30 14 15 14 19
10 5 -6z m-4927 -7 c-2 -5 -13 -8 -23 -8 -10 0 -21 3 -23 8 -3 4 8 7 23 7 15
0 26 -3 23 -7z m162 -6 c-3 -3 -11 0 -18 7 -9 10 -8 11 6 5 10 -3 15 -9 12
-12z m480 8 c-3 -5 -14 -10 -23 -9 -14 0 -13 2 3 9 27 11 27 11 20 0z m286 -8
c-7 -2 -18 1 -23 6 -8 8 -4 9 13 5 13 -4 18 -8 10 -11z m630 0 c-7 -2 -18 1
-23 6 -8 8 -4 9 13 5 13 -4 18 -8 10 -11z m1010 0 c-7 -2 -18 1 -23 6 -8 8 -4
9 13 5 13 -4 18 -8 10 -11z m670 0 c-7 -2 -18 1 -23 6 -8 8 -4 9 13 5 13 -4
18 -8 10 -11z m114 0 c-3 -3 -11 0 -18 7 -9 10 -8 11 6 5 10 -3 15 -9 12 -12z
m178 3 c-3 -9 -8 -14 -10 -11 -3 3 -2 9 2 15 9 16 15 13 8 -4z m662 5 c-3 -5
-14 -10 -23 -9 -14 0 -13 2 3 9 27 11 27 11 20 0z m808 -2 c-2 -5 -10 -8 -18
-8 -8 0 -16 3 -18 8 -3 4 5 7 18 7 13 0 21 -3 18 -7z m58 -6 c-7 -2 -18 1 -23
6 -8 8 -4 9 13 5 13 -4 18 -8 10 -11z m2190 0 c-7 -2 -18 1 -23 6 -8 8 -4 9
13 5 13 -4 18 -8 10 -11z m82 6 c-2 -5 -10 -8 -18 -8 -8 0 -16 3 -18 8 -3 4 5
7 18 7 13 0 21 -3 18 -7z m228 -6 c-7 -2 -18 1 -23 6 -8 8 -4 9 13 5 13 -4 18
-8 10 -11z m374 8 c-3 -5 -14 -10 -23 -9 -14 0 -13 2 3 9 27 11 27 11 20 0z
m1000 0 c-3 -5 -14 -10 -23 -9 -14 0 -13 2 3 9 27 11 27 11 20 0z m1480 0 c-3
-5 -14 -10 -23 -9 -14 0 -13 2 3 9 27 11 27 11 20 0z m260 0 c-3 -5 -14 -10
-23 -9 -14 0 -13 2 3 9 27 11 27 11 20 0z m810 0 c-3 -5 -14 -10 -23 -9 -14 0
-13 2 3 9 27 11 27 11 20 0z m716 -8 c-7 -2 -18 1 -23 6 -8 8 -4 9 13 5 13 -4
18 -8 10 -11z m134 0 c-3 -3 -11 0 -18 7 -9 10 -8 11 6 5 10 -3 15 -9 12 -12z
m-12222 1 c-7 -2 -19 -2 -25 0 -7 3 -2 5 12 5 14 0 19 -2 13 -5z m130 0 c-7
-2 -19 -2 -25 0 -7 3 -2 5 12 5 14 0 19 -2 13 -5z m174 1 c-3 -3 -12 -4 -19
-1 -8 3 -5 6 6 6 11 1 17 -2 13 -5z m3670 0 c-3 -3 -12 -4 -19 -1 -8 3 -5 6 6
6 11 1 17 -2 13 -5z m270 0 c-3 -3 -12 -4 -19 -1 -8 3 -5 6 6 6 11 1 17 -2 13
-5z m3350 0 c-3 -3 -12 -4 -19 -1 -8 3 -5 6 6 6 11 1 17 -2 13 -5z m3706 -1
c-7 -2 -19 -2 -25 0 -7 3 -2 5 12 5 14 0 19 -2 13 -5z m860 0 c-7 -2 -19 -2
-25 0 -7 3 -2 5 12 5 14 0 19 -2 13 -5z m-3338 -23 c-3 -5 -14 -10 -23 -9 -14
0 -13 2 3 9 27 11 27 11 20 0z m1740 0 c-3 -5 -14 -10 -23 -9 -14 0 -13 2 3 9
27 11 27 11 20 0z m810 0 c-3 -5 -14 -10 -23 -9 -14 0 -13 2 3 9 27 11 27 11
20 0z m4315 -243 c0 -2 -8 -11 -18 -21 -18 -15 -20 -15 -37 4 -18 20 -18 20
18 20 21 0 37 -2 37 -3z"/>
<path d="M17670 9084 c0 -14 -5 -34 -10 -45 -10 -18 -7 -19 40 -19 47 0 50 1
40 19 -5 11 -10 31 -10 45 0 22 -4 26 -30 26 -26 0 -30 -4 -30 -26z"/>
<path d="M3700 9074 c0 -9 5 -14 12 -12 18 6 21 28 4 28 -9 0 -16 -7 -16 -16z"/>
<path d="M5491 9056 c-9 -10 -8 -16 4 -26 13 -11 15 -8 15 14 0 30 -3 32 -19
12z"/>
<path d="M5535 9060 c-3 -5 1 -10 10 -10 9 0 13 5 10 10 -3 6 -8 10 -10 10 -2
0 -7 -4 -10 -10z"/>
<path d="M1020 9070 c0 -5 7 -10 15 -10 8 0 15 5 15 10 0 6 -7 10 -15 10 -8 0
-15 -4 -15 -10z"/>
<path d="M1090 9040 c0 -5 4 -10 9 -10 6 0 13 5 16 10 3 6 -1 10 -9 10 -9 0
-16 -4 -16 -10z"/>
<path d="M1394 9065 c-7 -18 3 -35 22 -35 8 0 14 10 14 25 0 27 -27 35 -36 10z"/>
<path d="M1807 9074 c-15 -15 -7 -45 11 -42 9 2 17 12 17 22 0 20 -16 31 -28
20z"/>
<path d="M1964 9065 c-7 -18 3 -35 22 -35 8 0 14 10 14 25 0 27 -27 35 -36 10z"/>
<path d="M4025 9060 c-3 -5 1 -10 10 -10 9 0 13 5 10 10 -3 6 -8 10 -10 10 -2
0 -7 -4 -10 -10z"/>
<path d="M4100 9044 c0 -9 5 -14 12 -12 18 6 21 28 4 28 -9 0 -16 -7 -16 -16z"/>
<path d="M4265 9060 c-3 -5 1 -10 10 -10 9 0 13 5 10 10 -3 6 -8 10 -10 10 -2
0 -7 -4 -10 -10z"/>
<path d="M4915 9060 c-3 -5 1 -10 10 -10 9 0 13 5 10 10 -3 6 -8 10 -10 10 -2
0 -7 -4 -10 -10z"/>
<path d="M5662 9044 c4 -21 22 -23 26 -1 2 10 -3 17 -13 17 -10 0 -15 -6 -13
-16z"/>
<path d="M6302 9044 c4 -21 22 -23 26 -1 2 10 -3 17 -13 17 -10 0 -15 -6 -13
-16z"/>
<path d="M6417 9054 c-9 -10 2 -24 19 -24 8 0 14 7 14 15 0 15 -21 21 -33 9z"/>
<path d="M6555 9060 c-3 -5 1 -10 10 -10 9 0 13 5 10 10 -3 6 -8 10 -10 10 -2
0 -7 -4 -10 -10z"/>
<path d="M347 8513 c-4 -3 -7 -21 -7 -40 0 -33 0 -33 50 -33 l50 0 0 40 0 40
-43 0 c-24 0 -47 -3 -50 -7z"/>
<path d="M16766 8475 c-3 -8 -13 -15 -23 -15 -13 0 -14 -3 -5 -12 7 -7 12 -19
12 -28 0 -12 9 -17 30 -17 21 0 30 5 30 17 0 9 5 21 12 28 9 9 8 12 -5 12 -10
0 -20 7 -23 15 -4 8 -10 15 -14 15 -4 0 -10 -7 -14 -15z"/>
<path d="M17420 8434 c0 -21 4 -33 10 -29 6 3 10 19 10 36 0 16 -4 29 -10 29
-5 0 -10 -16 -10 -36z"/>
<path d="M18525 8452 c-7 -23 4 -54 16 -46 12 7 12 51 0 59 -5 3 -12 -3 -16
-13z"/>
<path d="M942 8448 c-28 -28 -1 -75 38 -63 14 4 20 15 20 35 0 36 -33 53 -58
28z"/>
<path d="M1187 8453 c-15 -14 -6 -23 24 -23 27 0 30 2 19 15 -13 16 -32 19
-43 8z"/>
<path d="M1477 8454 c-14 -14 -6 -24 19 -24 16 0 24 5 22 13 -5 14 -31 21 -41
11z"/>
<path d="M1727 8453 c-15 -14 -6 -23 24 -23 27 0 30 2 19 15 -13 16 -32 19
-43 8z"/>
<path d="M1933 8453 c-24 -9 -13 -23 18 -23 27 0 30 2 19 15 -13 16 -17 17
-37 8z"/>
<path d="M2485 8440 c-4 -6 5 -10 19 -10 14 0 26 5 26 10 0 6 -9 10 -19 10
-11 0 -23 -4 -26 -10z"/>
<path d="M2923 8413 c-20 -8 -15 -23 7 -23 11 0 20 7 20 15 0 15 -6 17 -27 8z"/>
<path d="M3354 8435 c-9 -23 3 -45 25 -45 20 0 37 32 26 50 -9 15 -45 12 -51
-5z"/>
<path d="M17060 8409 c0 -5 5 -7 10 -4 6 3 10 8 10 11 0 2 -4 4 -10 4 -5 0
-10 -5 -10 -11z"/>
<path d="M15680 8409 c0 -5 5 -7 10 -4 6 3 10 8 10 11 0 2 -4 4 -10 4 -5 0
-10 -5 -10 -11z"/>
<path d="M8635 7940 c-3 -5 -14 -10 -23 -10 -14 0 -17 -9 -17 -40 0 -30 4 -40
15 -40 9 0 21 -5 28 -12 9 -9 15 -9 24 0 7 7 19 12 28 12 11 0 15 10 15 40 0
31 -3 40 -17 40 -9 0 -20 5 -23 10 -3 6 -10 10 -15 10 -5 0 -12 -4 -15 -10z
m40 -50 c0 -18 -6 -26 -23 -28 -24 -4 -38 18 -28 44 3 9 15 14 28 12 17 -2 23
-10 23 -28z"/>
<path d="M8640 7890 c0 -5 5 -10 10 -10 6 0 10 5 10 10 0 6 -4 10 -10 10 -5 0
-10 -4 -10 -10z"/>
<path d="M8895 7890 c-3 -5 1 -10 10 -10 9 0 13 5 10 10 -3 6 -8 10 -10 10 -2
0 -7 -4 -10 -10z"/>
<path d="M9194 7886 c-4 -10 -2 -22 4 -28 8 -8 13 -7 18 6 4 10 2 22 -4 28 -8
8 -13 7 -18 -6z"/>
<path d="M6944 7126 c-3 -8 -4 -25 -2 -38 2 -18 9 -23 33 -23 28 0 30 3 30 35
0 31 -3 35 -28 38 -17 2 -29 -2 -33 -12z"/>
<path d="M7287 7093 c-16 -15 -6 -34 15 -31 29 4 38 38 10 38 -10 0 -22 -3
-25 -7z"/>
<path d="M7577 7093 c-16 -15 -6 -34 15 -31 29 4 38 38 10 38 -10 0 -22 -3
-25 -7z"/>
<path d="M7920 7125 c-11 -13 -7 -15 23 -15 28 0 35 3 31 15 -4 8 -14 15 -24
15 -10 0 -23 -7 -30 -15z"/>
<path d="M3620 7101 c-15 -29 4 -63 33 -59 18 2 22 10 22 38 0 28 -4 36 -22
38 -14 2 -26 -4 -33 -17z"/>
<path d="M3724 7075 c-7 -18 3 -35 22 -35 8 0 14 10 14 25 0 27 -27 35 -36 10z"/>
<path d="M3887 7077 c-3 -8 -2 -20 3 -27 11 -18 42 -4 38 17 -4 22 -34 29 -41
10z"/>
<path d="M3740 6590 c0 -5 7 -10 15 -10 8 0 15 5 15 10 0 6 -7 10 -15 10 -8 0
-15 -4 -15 -10z"/>
<path d="M3890 6590 c0 -5 7 -10 15 -10 8 0 15 5 15 10 0 6 -7 10 -15 10 -8 0
-15 -4 -15 -10z"/>
<path d="M3968 6618 c-7 -19 2 -38 18 -38 8 0 14 10 14 25 0 26 -24 35 -32 13z"/>
<path d="M4050 6620 c0 -5 7 -10 15 -10 8 0 15 5 15 10 0 6 -7 10 -15 10 -8 0
-15 -4 -15 -10z"/>
<path d="M4160 6590 c0 -5 4 -10 9 -10 6 0 13 5 16 10 3 6 -1 10 -9 10 -9 0
-16 -4 -16 -10z"/>
<path d="M4365 6620 c-3 -5 1 -10 9 -10 9 0 16 5 16 10 0 6 -4 10 -9 10 -6 0
-13 -4 -16 -10z"/>
<path d="M9283 6585 l-28 -25 28 -25 c15 -14 32 -25 37 -25 5 0 22 11 37 25
l28 25 -28 25 c-15 14 -32 25 -37 25 -5 0 -22 -11 -37 -25z m53 -16 c10 -17
-13 -36 -27 -22 -12 12 -4 33 11 33 5 0 12 -5 16 -11z"/>
<path d="M12447 6594 c-9 -10 2 -24 19 -24 8 0 14 7 14 15 0 15 -21 21 -33 9z"/>
<path d="M7973 6264 c-8 -21 13 -42 28 -27 13 13 5 43 -11 43 -6 0 -13 -7 -17
-16z"/>
<path d="M8373 6264 c-8 -21 13 -42 28 -27 13 13 5 43 -11 43 -6 0 -13 -7 -17
-16z"/>
<path d="M8693 6264 c-8 -21 13 -42 28 -27 13 13 5 43 -11 43 -6 0 -13 -7 -17
-16z"/>
<path d="M9905 6290 c-8 -25 3 -62 16 -55 5 4 9 19 9 35 0 35 -16 48 -25 20z"/>
<path d="M10310 6255 c0 -16 6 -25 15 -25 9 0 15 9 15 25 0 16 -6 25 -15 25
-9 0 -15 -9 -15 -25z"/>
<path d="M7065 6270 c-3 -5 1 -10 9 -10 9 0 16 5 16 10 0 6 -4 10 -9 10 -6 0
-13 -4 -16 -10z"/>
<path d="M7140 6255 c0 -16 6 -25 15 -25 9 0 15 9 15 25 0 16 -6 25 -15 25 -9
0 -15 -9 -15 -25z"/>
<path d="M7218 6268 c-7 -19 2 -38 17 -38 18 0 26 15 19 34 -7 19 -30 21 -36
4z"/>
<path d="M7440 6255 c0 -20 4 -26 18 -23 9 2 17 12 17 23 0 11 -8 21 -17 23
-14 3 -18 -3 -18 -23z"/>
<path d="M7813 6264 c-8 -21 13 -42 28 -27 13 13 5 43 -11 43 -6 0 -13 -7 -17
-16z"/>
<path d="M8220 6240 c0 -5 7 -10 15 -10 8 0 15 5 15 10 0 6 -7 10 -15 10 -8 0
-15 -4 -15 -10z"/>
<path d="M8805 6270 c-3 -5 3 -10 15 -10 12 0 18 5 15 10 -3 6 -10 10 -15 10
-5 0 -12 -4 -15 -10z"/>
<path d="M8964 6265 c-7 -18 3 -35 22 -35 8 0 14 10 14 25 0 27 -27 35 -36 10z"/>
<path d="M10084 6265 c-7 -18 3 -35 22 -35 8 0 14 10 14 25 0 27 -27 35 -36
10z"/>
<path d="M10230 6240 c0 -5 7 -10 15 -10 8 0 15 5 15 10 0 6 -7 10 -15 10 -8
0 -15 -4 -15 -10z"/>
<path d="M10388 6268 c-7 -19 2 -38 17 -38 18 0 26 15 19 34 -7 19 -30 21 -36
4z"/>
<path d="M10515 6240 c-3 -5 1 -10 9 -10 9 0 16 5 16 10 0 6 -4 10 -9 10 -6 0
-13 -4 -16 -10z"/>
<path d="M10638 6268 c-7 -19 2 -38 17 -38 18 0 26 15 19 34 -7 19 -30 21 -36
4z"/>
<path d="M10940 6240 c0 -5 7 -10 15 -10 8 0 15 5 15 10 0 6 -7 10 -15 10 -8
0 -15 -4 -15 -10z"/>
<path d="M11085 6270 c-3 -5 1 -10 9 -10 9 0 16 5 16 10 0 6 -4 10 -9 10 -6 0
-13 -4 -16 -10z"/>
<path d="M11190 6240 c0 -5 7 -10 15 -10 8 0 15 5 15 10 0 6 -7 10 -15 10 -8
0 -15 -4 -15 -10z"/>
<path d="M11395 6270 c-3 -5 3 -10 15 -10 12 0 18 5 15 10 -3 6 -10 10 -15 10
-5 0 -12 -4 -15 -10z"/>
<path d="M11673 6264 c-8 -21 13 -42 28 -27 13 13 5 43 -11 43 -6 0 -13 -7
-17 -16z"/>
<path d="M4155 6191 c-6 -11 9 -23 19 -14 9 9 7 23 -3 23 -6 0 -12 -4 -16 -9z"/>
<path d="M4145 6150 c-4 -7 -3 -16 3 -22 14 -14 45 -2 40 15 -6 16 -34 21 -43
7z"/>
<path d="M3695 6160 c-3 -5 3 -10 15 -10 12 0 18 5 15 10 -3 6 -10 10 -15 10
-5 0 -12 -4 -15 -10z"/>
<path d="M4290 6130 c0 -5 7 -10 15 -10 8 0 15 5 15 10 0 6 -7 10 -15 10 -8 0
-15 -4 -15 -10z"/>
<path d="M4440 6130 c0 -5 7 -10 15 -10 8 0 15 5 15 10 0 6 -7 10 -15 10 -8 0
-15 -4 -15 -10z"/>
<path d="M10600 6081 c-13 -26 4 -64 27 -59 25 5 40 35 27 56 -16 25 -41 26
-54 3z"/>
<path d="M11803 6054 c-8 -21 13 -42 28 -27 13 13 5 43 -11 43 -6 0 -13 -7
-17 -16z"/>
<path d="M6730 6030 c0 -5 5 -10 10 -10 6 0 10 5 10 10 0 6 -4 10 -10 10 -5 0
-10 -4 -10 -10z"/>
<path d="M6948 6058 c-7 -19 2 -38 17 -38 18 0 26 15 19 34 -7 19 -30 21 -36
4z"/>
<path d="M7110 6060 c0 -5 7 -10 15 -10 8 0 15 5 15 10 0 6 -7 10 -15 10 -8 0
-15 -4 -15 -10z"/>
<path d="M9955 6060 c-3 -5 1 -10 9 -10 9 0 16 5 16 10 0 6 -4 10 -9 10 -6 0
-13 -4 -16 -10z"/>
<path d="M10030 6045 c0 -16 6 -25 15 -25 9 0 15 9 15 25 0 16 -6 25 -15 25
-9 0 -15 -9 -15 -25z"/>
<path d="M10108 6058 c-7 -19 2 -38 17 -38 18 0 26 15 19 34 -7 19 -30 21 -36
4z"/>
<path d="M10330 6045 c0 -20 4 -26 18 -23 9 2 17 12 17 23 0 11 -8 21 -17 23
-14 3 -18 -3 -18 -23z"/>
<path d="M10990 6045 c0 -20 4 -26 18 -23 9 2 17 12 17 23 0 11 -8 21 -17 23
-14 3 -18 -3 -18 -23z"/>
<path d="M11250 6030 c0 -5 7 -10 15 -10 8 0 15 5 15 10 0 6 -7 10 -15 10 -8
0 -15 -4 -15 -10z"/>
<path d="M11508 6058 c-7 -19 2 -38 17 -38 18 0 26 15 19 34 -7 19 -30 21 -36
4z"/>
<path d="M12010 6060 c0 -5 7 -10 16 -10 8 0 12 5 9 10 -3 6 -10 10 -16 10 -5
0 -9 -4 -9 -10z"/>
<path d="M12168 6058 c-7 -19 2 -38 17 -38 18 0 26 15 19 34 -7 19 -30 21 -36
4z"/>
<path d="M9955 5850 c-3 -5 1 -10 9 -10 9 0 16 5 16 10 0 6 -4 10 -9 10 -6 0
-13 -4 -16 -10z"/>
<path d="M10030 5835 c0 -16 6 -25 15 -25 9 0 15 9 15 25 0 16 -6 25 -15 25
-9 0 -15 -9 -15 -25z"/>
<path d="M10108 5848 c-7 -19 2 -38 17 -38 18 0 26 15 19 34 -7 19 -30 21 -36
4z"/>
<path d="M10330 5835 c0 -20 4 -26 18 -23 9 2 17 12 17 23 0 11 -8 21 -17 23
-14 3 -18 -3 -18 -23z"/>
<path d="M6850 5720 c0 -5 7 -10 15 -10 8 0 15 5 15 10 0 6 -7 10 -15 10 -8 0
-15 -4 -15 -10z"/>
<path d="M7000 5720 c0 -5 7 -10 15 -10 8 0 15 5 15 10 0 6 -7 10 -15 10 -8 0
-15 -4 -15 -10z"/>
<path d="M3620 5725 c0 -8 7 -15 15 -15 8 0 15 7 15 15 0 8 -7 15 -15 15 -8 0
-15 -7 -15 -15z"/>
<path d="M3620 5680 c0 -23 25 -27 33 -6 7 16 -1 26 -20 26 -7 0 -13 -9 -13
-20z"/>
<path d="M3745 5670 c-3 -5 1 -10 9 -10 9 0 16 5 16 10 0 6 -4 10 -9 10 -6 0
-13 -4 -16 -10z"/>
<path d="M4040 5700 c0 -5 7 -10 15 -10 8 0 15 5 15 10 0 6 -7 10 -15 10 -8 0
-15 -4 -15 -10z"/>
<path d="M3827 5244 c-15 -15 -7 -45 11 -42 9 2 17 12 17 22 0 20 -16 31 -28
20z"/>
<path d="M3745 5240 c-3 -5 3 -10 15 -10 12 0 18 5 15 10 -3 6 -10 10 -15 10
-5 0 -12 -4 -15 -10z"/>
<path d="M3977 5237 c-3 -8 -2 -20 3 -27 11 -18 42 -4 38 17 -4 22 -34 29 -41
10z"/>
<path d="M4063 5234 c-8 -21 13 -42 28 -27 13 13 5 43 -11 43 -6 0 -13 -7 -17
-16z"/>
<path d="M6795 4860 c-3 -5 -3 -14 0 -20 10 -17 34 -11 45 10 9 17 8 20 -14
20 -14 0 -28 -4 -31 -10z"/>
<path d="M7057 4863 c-16 -15 -6 -34 15 -31 29 4 38 38 10 38 -10 0 -22 -3
-25 -7z"/>
<path d="M7181 4896 c-8 -10 -11 -26 -7 -42 5 -20 12 -25 34 -22 24 3 27 7 27
38 0 28 -4 36 -21 38 -11 2 -26 -4 -33 -12z"/>
<path d="M7327 4904 c-15 -15 -6 -24 24 -24 20 0 29 4 27 13 -5 14 -40 21 -51
11z"/>
<path d="M7506 4855 c-6 -18 16 -30 39 -21 8 3 15 12 15 21 0 20 -46 20 -54 0z"/>
<path d="M7856 4895 c-4 -11 2 -15 24 -15 20 0 30 5 30 15 0 9 -9 15 -24 15
-13 0 -26 -7 -30 -15z"/>
<path d="M3724 4775 c-7 -18 3 -35 22 -35 8 0 14 10 14 25 0 27 -27 35 -36 10z"/>
<path d="M4025 4750 c-3 -5 1 -10 9 -10 9 0 16 5 16 10 0 6 -4 10 -9 10 -6 0
-13 -4 -16 -10z"/>
<path d="M4183 4774 c-8 -21 13 -42 28 -27 13 13 5 43 -11 43 -6 0 -13 -7 -17
-16z"/>
<path d="M3785 4320 c-3 -5 3 -10 15 -10 12 0 18 5 15 10 -3 6 -10 10 -15 10
-5 0 -12 -4 -15 -10z"/>
<path d="M3854 4315 c-7 -18 3 -35 22 -35 8 0 14 10 14 25 0 27 -27 35 -36 10z"/>
<path d="M3980 4290 c0 -5 7 -10 15 -10 8 0 15 5 15 10 0 6 -7 10 -15 10 -8 0
-15 -4 -15 -10z"/>
<path d="M4137 4317 c-3 -8 -2 -20 3 -27 11 -18 42 -4 38 17 -4 22 -34 29 -41
10z"/>
<path d="M11040 4035 c-26 -32 13 -81 48 -59 34 22 22 74 -18 74 -10 0 -23 -7
-30 -15z"/>
<path d="M3620 3860 c0 -37 2 -41 23 -38 18 2 22 9 22 38 0 29 -4 36 -22 38
-21 3 -23 -1 -23 -38z"/>
<path d="M3715 3860 c-3 -5 3 -10 15 -10 12 0 18 5 15 10 -3 6 -10 10 -15 10
-5 0 -12 -4 -15 -10z"/>
<path d="M3793 3854 c-7 -18 11 -39 26 -30 17 11 13 46 -4 46 -9 0 -18 -7 -22
-16z"/>
<path d="M3904 3855 c-7 -18 3 -35 21 -35 18 0 26 15 19 34 -8 20 -33 21 -40
1z"/>
<path d="M4165 3860 c-3 -5 3 -10 15 -10 12 0 18 5 15 10 -3 6 -10 10 -15 10
-5 0 -12 -4 -15 -10z"/>
<path d="M10840 3680 c0 -13 7 -20 20 -20 13 0 20 7 20 20 0 13 -7 20 -20 20
-13 0 -20 -7 -20 -20z"/>
<path d="M11050 3680 c0 -13 7 -20 20 -20 13 0 20 7 20 20 0 13 -7 20 -20 20
-13 0 -20 -7 -20 -20z"/>
<path d="M11260 3680 c0 -13 7 -20 20 -20 13 0 20 7 20 20 0 13 -7 20 -20 20
-13 0 -20 -7 -20 -20z"/>
<path d="M3630 3405 c0 -8 5 -15 10 -15 6 0 10 7 10 15 0 8 -4 15 -10 15 -5 0
-10 -7 -10 -15z"/>
<path d="M3854 3395 c-7 -18 3 -35 21 -35 18 0 26 15 19 34 -8 20 -33 21 -40
1z"/>
<path d="M10864 3226 c-9 -24 4 -48 23 -44 12 2 18 12 18 28 0 29 -32 41 -41
16z"/>
<path d="M11844 3226 c-9 -24 4 -48 23 -44 12 2 18 12 18 28 0 29 -32 41 -41
16z"/>
<path d="M9364 3226 c-9 -24 4 -48 23 -44 12 2 18 12 18 28 0 29 -32 41 -41
16z"/>
<path d="M9760 3190 c0 -5 6 -10 14 -10 8 0 18 5 21 10 3 6 -3 10 -14 10 -12
0 -21 -4 -21 -10z"/>
<path d="M9970 3230 c0 -5 9 -10 20 -10 11 0 20 5 20 10 0 6 -9 10 -20 10 -11
0 -20 -4 -20 -10z"/>
<path d="M10755 3230 c-4 -6 5 -10 20 -10 15 0 24 4 20 10 -3 6 -12 10 -20 10
-8 0 -17 -4 -20 -10z"/>
<path d="M11030 3190 c0 -5 6 -10 14 -10 8 0 18 5 21 10 3 6 -3 10 -14 10 -12
0 -21 -4 -21 -10z"/>
<path d="M11514 3226 c-9 -24 4 -48 23 -44 12 2 18 12 18 28 0 29 -32 41 -41
16z"/>
<path d="M11730 3190 c0 -5 6 -10 14 -10 8 0 18 5 21 10 3 6 -3 10 -14 10 -12
0 -21 -4 -21 -10z"/>
<path d="M11964 3226 c-9 -24 4 -48 23 -44 12 2 18 12 18 28 0 29 -32 41 -41
16z"/>
<path d="M12150 3190 c0 -5 7 -10 15 -10 8 0 15 5 15 10 0 6 -7 10 -15 10 -8
0 -15 -4 -15 -10z"/>
<path d="M12325 3220 c-8 -25 1 -40 25 -40 10 0 22 5 25 10 11 17 -6 50 -25
50 -10 0 -21 -9 -25 -20z"/>
<path d="M12765 3230 c-3 -5 3 -10 14 -10 12 0 21 5 21 10 0 6 -6 10 -14 10
-8 0 -18 -4 -21 -10z"/>
<path d="M3917 2937 c-3 -8 -2 -20 3 -27 11 -18 42 -4 38 17 -4 22 -34 29 -41
10z"/>
<path d="M4200 2940 c0 -5 7 -10 15 -10 8 0 15 5 15 10 0 6 -7 10 -15 10 -8 0
-15 -4 -15 -10z"/>
<path d="M11260 2595 c0 -8 5 -15 10 -15 6 0 10 7 10 15 0 8 -4 15 -10 15 -5
0 -10 -7 -10 -15z"/>
<path d="M11340 2595 c0 -9 5 -15 11 -13 6 2 11 8 11 13 0 5 -5 11 -11 13 -6
2 -11 -4 -11 -13z"/>
<path d="M11561 2594 c0 -11 3 -14 6 -6 3 7 2 16 -1 19 -3 4 -6 -2 -5 -13z"/>
<path d="M11600 2595 c0 -9 5 -15 11 -13 6 2 11 8 11 13 0 5 -5 11 -11 13 -6
2 -11 -4 -11 -13z"/>
<path d="M10690 2595 c0 -8 5 -15 10 -15 6 0 10 7 10 15 0 8 -4 15 -10 15 -5
0 -10 -7 -10 -15z"/>
<path d="M10960 2595 c0 -8 9 -15 20 -15 11 0 20 7 20 15 0 8 -9 15 -20 15
-11 0 -20 -7 -20 -15z"/>
<path d="M11027 2604 c-8 -8 1 -24 14 -24 5 0 9 7 9 15 0 15 -12 20 -23 9z"/>
<path d="M3695 2480 c-3 -5 3 -10 15 -10 12 0 18 5 15 10 -3 6 -10 10 -15 10
-5 0 -12 -4 -15 -10z"/>
<path d="M3880 2480 c0 -5 7 -10 15 -10 8 0 15 5 15 10 0 6 -7 10 -15 10 -8 0
-15 -4 -15 -10z"/>
<path d="M3620 2040 c0 -23 25 -27 33 -6 7 16 -1 26 -20 26 -7 0 -13 -9 -13
-20z"/>
<path d="M3690 1990 c0 -5 4 -10 9 -10 6 0 13 5 16 10 3 6 -1 10 -9 10 -9 0
-16 -4 -16 -10z"/>
<path d="M3763 2014 c-8 -21 13 -42 28 -27 13 13 5 43 -11 43 -6 0 -13 -7 -17
-16z"/>
<path d="M3845 2020 c-3 -5 3 -10 15 -10 12 0 18 5 15 10 -3 6 -10 10 -15 10
-5 0 -12 -4 -15 -10z"/>
<path d="M3824 1555 c-7 -18 3 -35 22 -35 8 0 14 10 14 25 0 27 -27 35 -36 10z"/>
<path d="M3744 1555 c-7 -18 3 -35 22 -35 8 0 14 10 14 25 0 27 -27 35 -36 10z"/>
<path d="M3910 1560 c0 -5 7 -10 15 -10 8 0 15 5 15 10 0 6 -7 10 -15 10 -8 0
-15 -4 -15 -10z"/>
<path d="M4030 1530 c0 -5 4 -10 9 -10 6 0 13 5 16 10 3 6 -1 10 -9 10 -9 0
-16 -4 -16 -10z"/>
<path d="M4184 1555 c-7 -18 3 -35 22 -35 8 0 14 10 14 25 0 27 -27 35 -36 10z"/>
<path d="M4440 1560 c0 -5 7 -10 15 -10 8 0 15 5 15 10 0 6 -7 10 -15 10 -8 0
-15 -4 -15 -10z"/>
<path d="M4723 1554 c-8 -21 13 -42 28 -27 13 13 5 43 -11 43 -6 0 -13 -7 -17
-16z"/>
<path d="M5630 440 c0 -11 7 -20 15 -20 8 0 15 9 15 20 0 11 -7 20 -15 20 -8
0 -15 -9 -15 -20z"/>
</g>
</svg>
