<?xml version="1.0" standalone="no"?>
<!DOCTYPE svg PUBLIC "-//W3C//DTD SVG 20010904//EN"
 "http://www.w3.org/TR/2001/REC-SVG-20010904/DTD/svg10.dtd">
<svg version="1.0" xmlns="http://www.w3.org/2000/svg"
 width="1919.000000pt" height="936.000000pt" viewBox="0 0 1919.000000 936.000000"
 preserveAspectRatio="xMidYMid meet">

<g transform="translate(0.000000,936.000000) scale(0.100000,-0.100000)"
fill="#000000" stroke="none">
<path d="M0 4680 l0 -4680 9595 0 9595 0 0 1733 c0 952 -3 3058 -7 4680 l-6
2947 -9589 0 -9588 0 0 -4680z m19115 4610 c18 -20 17 -20 -20 -20 -37 0 -38
0 -20 20 10 11 19 20 20 20 1 0 10 -9 20 -20z m-18567 -87 c68 -51 89 -130 53
-200 -19 -39 -67 -83 -89 -83 -5 0 -12 17 -14 39 -3 34 0 40 24 50 34 15 42
39 33 99 l-6 47 -89 0 -89 0 -6 -47 c-9 -62 -1 -83 36 -98 27 -12 29 -14 15
-28 -14 -14 -18 -14 -41 8 -26 25 -34 17 -11 -12 7 -10 23 -18 35 -18 14 0 21
-6 21 -20 0 -31 -28 -24 -70 18 -80 80 -57 212 45 258 40 19 120 12 153 -13z
m17176 -89 c9 -8 16 -28 16 -44 0 -16 5 -32 10 -35 6 -3 10 -13 10 -21 0 -11
-16 -14 -70 -14 -54 0 -70 3 -70 14 0 8 5 18 10 21 6 3 10 19 10 35 0 33 23
60 50 60 10 0 26 -7 34 -16z m-16774 -5 l-25 -10 29 -24 c34 -27 30 -55 -9
-55 -14 0 -25 4 -25 9 0 5 9 7 20 4 28 -7 26 20 -2 39 -27 18 -18 48 14 47 23
0 23 0 -2 -10z m320 -4 c0 -8 9 -15 19 -15 10 0 22 -7 25 -16 9 -24 7 -54 -4
-54 -5 0 -10 14 -10 31 0 38 -24 35 -28 -4 -6 -47 -22 -29 -22 23 0 28 5 50
10 50 6 0 10 -7 10 -15z m649 -23 c-14 -5 -11 -50 4 -55 7 -4 6 -6 -4 -6 -12
-1 -18 9 -21 33 -5 46 0 59 17 43 7 -7 9 -13 4 -15z m1819 1 c2 -16 -4 -26
-22 -35 -14 -6 -26 -17 -26 -25 0 -7 -4 -13 -10 -13 -5 0 -10 23 -10 51 l0 50
33 -3 c24 -2 33 -8 35 -25z m112 -23 c0 -27 -4 -50 -10 -50 -5 0 -10 23 -10
50 0 28 5 50 10 50 6 0 10 -22 10 -50z m40 0 c0 -27 -4 -50 -10 -50 -5 0 -10
23 -10 50 0 28 5 50 10 50 6 0 10 -22 10 -50z m780 0 c0 -38 -4 -50 -15 -50
-11 0 -15 12 -15 50 0 38 4 50 15 50 11 0 15 -12 15 -50z m555 10 l12 -35 12
38 c19 55 41 49 41 -13 0 -54 -19 -71 -21 -17 l-1 32 -10 -32 c-13 -40 -23
-41 -42 -5 l-15 27 -1 -27 c0 -16 -4 -28 -10 -28 -5 0 -10 23 -10 51 0 42 3
50 17 47 9 -2 22 -19 28 -38z m235 22 c0 -16 7 -18 47 -15 30 3 49 -1 55 -9
13 -22 9 -28 -18 -28 -15 0 -23 -4 -19 -11 4 -6 13 -8 21 -5 8 3 14 1 14 -4 0
-5 -29 -8 -65 -8 l-65 1 0 29 c0 37 -24 33 -28 -5 -5 -39 -22 -33 -22 8 0 31
3 35 25 35 16 0 25 6 25 15 0 8 7 15 15 15 8 0 15 -8 15 -18z m280 -16 c0 -30
2 -33 25 -28 14 2 22 8 20 13 -3 4 -12 6 -20 2 -8 -3 -15 0 -15 7 0 6 11 10
28 8 22 -2 28 -8 30 -35 l3 -33 -50 1 -51 2 0 48 c0 37 4 49 15 49 10 0 15
-10 15 -34z m440 24 c0 -5 -7 -10 -15 -10 -8 0 -15 -4 -15 -10 0 -5 7 -10 15
-10 8 0 15 -4 15 -10 0 -5 -7 -10 -15 -10 -23 0 -18 -17 7 -23 27 -7 40 10 27
35 -7 14 -6 18 6 18 8 0 15 -6 16 -12 0 -10 2 -10 6 0 2 6 11 12 19 12 11 0
12 -4 2 -19 -9 -15 -9 -23 1 -35 11 -13 11 -16 -3 -16 -9 0 -16 5 -16 12 0 9
-3 9 -12 0 -7 -7 -31 -12 -55 -12 l-43 0 0 50 c0 49 1 50 30 50 17 0 30 -4 30
-10z m190 -40 c0 -27 -4 -50 -10 -50 -5 0 -10 23 -10 50 0 28 5 50 10 50 6 0
10 -22 10 -50z m11650 19 c0 -12 7 -19 20 -19 11 0 20 -4 20 -10 0 -5 -9 -10
-20 -10 -13 0 -20 -7 -20 -20 0 -11 -4 -20 -10 -20 -5 0 -10 9 -10 20 0 13 -7
20 -19 20 -11 0 -23 5 -26 10 -4 6 5 10 19 10 21 0 26 5 26 26 0 14 4 23 10
19 6 -3 10 -15 10 -26z m-13619 14 c6 -82 6 -84 -10 -81 -9 2 -18 14 -21 28
-3 14 -12 26 -22 26 -22 2 -23 -5 -1 -21 9 -7 13 -17 9 -23 -9 -15 -43 -15
-52 0 -5 8 -2 9 9 5 10 -3 17 -2 17 3 0 6 -4 10 -10 10 -5 0 -10 9 -10 20 0
16 7 20 30 20 17 0 30 5 30 10 0 11 30 14 31 3z m1210 0 c6 -82 6 -84 -10 -81
-16 3 -31 52 -23 76 4 13 32 17 33 5z m-4561 -23 c9 -18 8 -20 -15 -20 -31 0
-33 -17 -2 -23 19 -4 19 -4 -5 -6 -31 -1 -47 31 -28 54 17 21 37 19 50 -5z
m70 -16 c0 -32 -2 -35 -25 -32 -32 4 -35 20 -5 34 13 7 18 14 11 18 -6 4 -15
4 -21 1 -5 -3 -10 -1 -10 4 0 6 11 11 25 11 22 0 25 -4 25 -36z m53 29 c-7 -2
-13 -18 -13 -34 0 -16 -4 -29 -10 -29 -5 0 -10 16 -10 35 0 30 3 35 23 34 12
0 16 -3 10 -6z m67 -2 c0 -5 -8 -8 -17 -7 -12 1 -18 -6 -18 -19 0 -13 6 -20
18 -19 9 1 17 -2 17 -7 0 -16 -39 -9 -49 8 -12 23 4 53 29 53 11 0 20 -4 20
-9z m191 -7 c17 -21 0 -49 -32 -49 -24 0 -36 23 -25 51 7 19 40 18 57 -2z m52
9 c-7 -2 -13 -18 -13 -34 0 -16 -4 -29 -10 -29 -5 0 -10 16 -10 35 0 30 3 35
23 34 12 0 16 -3 10 -6z m77 -26 c0 -35 -23 -77 -36 -64 -4 4 -2 7 4 7 7 0 12
17 12 45 0 25 5 45 10 45 6 0 10 -15 10 -33z m30 2 c0 -39 22 -34 31 7 6 27 7
26 8 -9 1 -36 -1 -38 -26 -35 -23 2 -29 8 -31 36 -2 18 1 32 7 32 6 0 11 -14
11 -31z m158 -7 l-1 -37 -4 33 c-5 40 -26 38 -32 -4 l-4 -29 -6 29 c-8 38 -25
40 -29 4 -5 -40 -22 -34 -22 6 l0 35 50 -1 50 0 -2 -36z m87 3 c0 -23 -5 -31
-22 -33 -13 -2 -23 -10 -23 -18 0 -8 -4 -14 -10 -14 -5 0 -10 23 -10 51 l0 50
33 -3 c28 -3 32 -6 32 -33z m166 19 c17 -21 0 -49 -32 -49 -24 0 -36 23 -25
51 7 19 40 18 57 -2z m1769 -19 c0 -16 6 -25 15 -25 9 0 15 9 15 25 0 14 5 25
10 25 6 0 10 -16 10 -36 0 -34 -1 -35 -32 -32 -29 3 -33 7 -36 36 -2 18 1 32
7 32 6 0 11 -11 11 -25z m282 12 c5 -9 10 -9 20 1 6 6 25 12 40 12 27 0 28 -2
28 -50 0 -27 -4 -50 -10 -50 -5 0 -10 7 -10 15 0 9 -9 15 -24 15 -13 0 -26 7
-30 15 -3 8 -17 15 -31 15 -16 0 -24 -4 -20 -11 4 -6 13 -8 21 -5 8 3 14 1 14
-5 0 -6 -12 -9 -27 -7 -22 2 -29 9 -31 31 -4 37 -22 35 -22 -3 0 -20 -5 -30
-15 -30 -10 0 -15 10 -15 34 l0 35 53 -1 c28 0 55 -5 59 -11z m120 -12 c4 -35
22 -36 26 -2 5 40 22 33 22 -9 0 -34 -1 -35 -32 -32 -29 3 -33 7 -36 36 -4 37
15 44 20 7z m118 21 c0 -2 3 -11 6 -20 5 -12 0 -16 -21 -16 -16 0 -24 -4 -20
-11 4 -6 13 -8 21 -5 8 3 14 1 14 -5 0 -6 -12 -9 -27 -7 -47 5 -45 68 2 68 14
0 25 -2 25 -4z m180 -7 c0 -6 -7 -9 -15 -5 -8 3 -15 1 -15 -4 0 -6 7 -10 16
-10 24 0 12 -35 -14 -38 -12 -2 -22 1 -22 7 0 6 7 8 15 5 8 -4 15 -1 15 5 0 6
-7 11 -15 11 -15 0 -21 21 -8 33 11 11 43 8 43 -4z m260 0 c0 -6 -7 -9 -15 -5
-8 3 -15 1 -15 -4 0 -6 7 -10 16 -10 24 0 12 -35 -14 -38 -12 -2 -22 1 -22 7
0 6 7 8 15 5 8 -4 15 -1 15 5 0 6 -7 11 -15 11 -15 0 -21 21 -8 33 11 11 43 8
43 -4z m60 0 c0 -6 -7 -9 -15 -5 -8 3 -15 1 -15 -4 0 -6 7 -10 16 -10 24 0 12
-35 -14 -38 -12 -2 -22 1 -22 7 0 6 7 8 15 5 8 -4 15 -1 15 5 0 6 -7 11 -15
11 -15 0 -21 21 -8 33 11 11 43 8 43 -4z m30 -14 c0 -16 6 -25 15 -25 9 0 15
9 15 25 0 14 5 25 10 25 6 0 10 -16 10 -36 0 -34 -1 -35 -32 -32 -29 3 -33 7
-36 36 -2 18 1 32 7 32 6 0 11 -11 11 -25z m120 21 c0 -2 3 -11 6 -20 5 -12 0
-16 -21 -16 -16 0 -24 -4 -20 -11 4 -6 13 -8 21 -5 8 3 14 1 14 -5 0 -6 -12
-9 -27 -7 -47 5 -45 68 2 68 14 0 25 -2 25 -4z m70 -7 c0 -6 -7 -9 -15 -5 -20
7 -19 -4 2 -19 9 -7 13 -17 9 -23 -9 -15 -43 -15 -52 0 -5 8 -2 9 9 5 10 -3
17 -2 17 3 0 6 -4 10 -10 10 -5 0 -10 9 -10 20 0 15 7 20 25 20 14 0 25 -5 25
-11z m358 -27 c3 -32 2 -33 -30 -30 -38 4 -46 31 -10 36 12 2 20 7 17 12 -3 5
-12 7 -20 3 -8 -3 -15 0 -15 7 0 6 11 10 28 8 23 -2 28 -8 30 -36z m327 3 c0
-23 -5 -31 -22 -33 -13 -2 -23 -10 -23 -18 0 -8 -4 -14 -10 -14 -5 0 -10 23
-10 51 l0 50 33 -3 c28 -3 32 -6 32 -33z m185 25 c0 -5 -9 -10 -20 -10 -11 0
-20 -7 -20 -15 0 -8 9 -15 20 -15 11 0 20 -5 20 -11 0 -6 -12 -9 -27 -7 -28 3
-40 25 -29 54 6 16 56 20 56 4z m68 -12 c2 -13 -3 -18 -18 -18 -12 0 -19 -4
-15 -10 3 -5 12 -7 20 -3 8 3 15 0 15 -7 0 -17 -51 -8 -63 12 -8 12 -7 21 3
33 17 20 54 16 58 -7z m387 -13 c0 -23 -5 -31 -22 -33 -13 -2 -23 -10 -23 -18
0 -8 -4 -14 -10 -14 -5 0 -10 23 -10 51 l0 50 33 -3 c28 -3 32 -6 32 -33z
m122 19 c9 -24 -10 -49 -37 -49 -31 0 -48 28 -31 49 17 21 60 21 68 0z m125 3
c13 -21 9 -27 -18 -27 -14 0 -23 -4 -19 -10 3 -5 12 -7 20 -3 8 3 15 0 15 -7
0 -6 -11 -10 -27 -8 -22 2 -29 9 -31 31 -4 35 -26 30 -30 -6 -5 -39 -22 -33
-22 7 l0 35 53 -1 c28 0 55 -5 59 -11z m12090 -9 l-22 -22 -22 22 -22 22 44 0
44 0 -22 -22z m-480 -10 l-22 -22 -22 22 -22 22 44 0 44 0 -22 -22z m-14891
-21 c-10 -9 -11 -8 -5 6 3 10 9 15 12 12 3 -3 0 -11 -7 -18z m-1261 3 c0 -5
-4 -10 -10 -10 -5 0 -10 5 -10 10 0 6 5 10 10 10 6 0 10 -4 10 -10z m70 0 c0
-5 -4 -10 -10 -10 -5 0 -10 5 -10 10 0 6 5 10 10 10 6 0 10 -4 10 -10z m15592
-52 c-9 -9 -15 -9 -24 0 -9 9 -7 12 12 12 19 0 21 -3 12 -12z m-17424 -485
c-14 -3 -18 -16 -20 -51 l-2 -47 -3 47 c-3 33 -9 48 -21 51 -9 3 1 5 23 5 22
0 32 -2 23 -5z m330 -20 c2 -13 -2 -23 -8 -23 -6 0 -4 -11 6 -27 l16 -28 -20
23 c-25 27 -32 28 -32 2 0 -11 -4 -20 -10 -20 -5 0 -10 23 -10 51 0 49 1 50
28 47 19 -2 28 -9 30 -25z m362 -43 c4 -3 2 -11 -6 -18 -8 -7 -14 -8 -14 -2 0
5 -9 10 -20 10 -11 0 -20 4 -20 8 0 12 29 48 30 37 0 -6 -5 -16 -12 -23 -9 -9
-8 -12 6 -12 15 0 17 5 13 29 -3 16 -3 32 1 36 4 4 8 -8 10 -26 2 -19 7 -36
12 -39z m60 63 c-27 -10 -30 -28 -7 -33 15 -4 22 -13 22 -30 0 -20 -5 -25 -25
-25 -21 0 -26 5 -28 33 -4 37 12 62 37 61 13 0 14 -2 1 -6z m111 -23 c16 0 19
-7 17 -37 -1 -37 -1 -37 -5 -5 -3 18 -10 32 -18 32 -8 0 -15 -14 -18 -32 -2
-19 -4 -9 -4 22 0 30 1 47 4 38 2 -10 13 -18 24 -18z m243 -5 c10 0 24 -7 29
-17 14 -22 -7 -48 -39 -48 -22 0 -24 4 -23 53 1 31 4 44 7 32 4 -11 16 -20 26
-20z m446 -14 c0 -46 -1 -48 -27 -47 -24 1 -28 5 -28 31 0 23 5 31 23 33 12 2
22 10 22 18 0 8 2 14 5 14 3 0 5 -22 5 -49z m80 0 c0 -46 -1 -48 -27 -47 -24
1 -28 5 -28 31 0 23 5 31 23 33 12 2 22 10 22 18 0 8 2 14 5 14 3 0 5 -22 5
-49z m160 0 c0 -46 -1 -48 -27 -47 -24 1 -28 5 -28 31 0 23 5 31 23 33 12 2
22 10 22 18 0 8 2 14 5 14 3 0 5 -22 5 -49z m497 -28 c-2 -16 -4 -3 -4 27 0
30 2 43 4 28 2 -16 2 -40 0 -55z m30 0 c-2 -16 -4 -3 -4 27 0 30 2 43 4 28 2
-16 2 -40 0 -55z m132 44 c24 6 35 -11 27 -43 -5 -17 -13 -24 -31 -24 -24 0
-25 3 -24 53 1 28 4 42 6 31 3 -15 10 -20 22 -17z m746 -2 c16 0 20 -7 22 -35
1 -34 1 -34 -5 -5 -4 17 -14 30 -22 30 -8 0 -18 -13 -21 -30 -5 -22 -7 -16 -7
25 0 31 3 46 6 35 4 -11 16 -20 27 -20z m-476 -3 c-12 -5 -11 -49 1 -55 6 -3
5 -4 -2 -3 -14 3 -27 52 -20 73 3 9 7 9 17 0 7 -7 9 -13 4 -15z m420 0 c-14
-5 -11 -50 4 -55 7 -4 6 -6 -4 -6 -12 -1 -18 9 -21 33 -5 46 0 59 17 43 7 -7
9 -13 4 -15z m614 -21 c1 -23 -1 -41 -5 -41 -5 0 -8 14 -8 30 0 17 -5 30 -10
30 -6 0 -5 6 2 14 17 19 20 15 21 -33z m14680 25 l22 19 -19 -22 c-19 -23 -19
-23 0 -45 l19 -23 -22 19 c-23 19 -23 19 -45 0 l-23 -19 19 23 c19 22 19 22 0
45 l-19 22 23 -19 c22 -19 22 -19 45 0z m-18364 -15 c13 -24 -8 -55 -35 -49
-20 3 -30 29 -20 54 8 20 43 17 55 -5z m54 11 c-6 -4 -13 -21 -16 -37 -4 -27
-4 -27 -6 8 -1 29 3 37 17 37 11 0 13 -3 5 -8z m45 -4 c-9 -7 -19 -24 -21 -38
-3 -18 -5 -14 -6 13 -1 32 2 37 21 37 19 0 20 -1 6 -12z m81 -7 c13 -24 -8
-55 -35 -49 -20 3 -30 29 -20 54 8 20 43 17 55 -5z m160 0 c13 -24 -8 -55 -35
-49 -20 3 -30 29 -20 54 8 20 43 17 55 -5z m47 12 c-19 -5 -18 -6 4 -23 13 -9
20 -22 16 -29 -8 -13 -46 -15 -46 -2 0 5 10 7 23 4 l22 -5 -24 20 c-25 20 -21
43 7 41 14 -1 13 -2 -2 -6z m60 0 c-19 -5 -18 -6 4 -23 13 -9 20 -22 16 -29
-8 -13 -46 -15 -46 -2 0 5 10 7 23 4 l22 -5 -24 20 c-25 20 -21 43 7 41 14 -1
13 -2 -2 -6z m99 -14 c14 -43 -45 -66 -61 -24 -8 19 13 45 37 45 10 0 21 -10
24 -21z m339 5 c3 -9 6 -25 6 -35 0 -16 -6 -20 -27 -17 -33 4 -43 27 -14 35
26 7 27 20 4 26 -14 4 -13 5 3 6 12 0 25 -6 28 -15z m42 9 c-19 -5 -18 -6 4
-23 13 -9 20 -22 16 -29 -8 -13 -46 -15 -46 -2 0 5 10 7 23 4 l22 -5 -24 20
c-25 20 -21 43 7 41 14 -1 13 -2 -2 -6z m212 -16 c3 -13 -3 -17 -24 -17 -30 0
-23 -15 11 -23 15 -4 14 -5 -7 -6 -31 -1 -47 31 -27 55 16 19 43 14 47 -9z
m72 19 c0 -2 3 -11 6 -20 5 -12 0 -16 -20 -16 -32 0 -34 -17 -3 -23 19 -5 19
-5 -3 -4 -41 3 -41 67 0 67 11 0 20 -2 20 -4z m77 -36 c1 -34 1 -34 -5 -5 -4
17 -14 30 -22 30 -8 0 -18 -13 -21 -30 -7 -30 -7 -30 -8 6 -1 33 1 36 27 35
24 -1 27 -5 29 -36z m111 2 c3 -29 1 -32 -22 -32 -31 0 -36 29 -6 37 11 3 20
10 20 15 0 6 -9 8 -20 5 -11 -3 -17 -1 -14 4 13 21 39 3 42 -29z m240 15 c3
-13 -3 -17 -24 -17 -30 0 -23 -15 11 -23 15 -4 14 -5 -7 -6 -31 -1 -47 31 -27
55 16 19 43 14 47 -9z m190 -15 c3 -29 1 -32 -22 -32 -31 0 -36 29 -6 37 11 3
20 10 20 15 0 6 -9 8 -20 5 -11 -3 -17 -1 -14 4 13 21 39 3 42 -29z m50 31
c-22 -6 -23 -19 -3 -27 24 -9 18 -36 -7 -35 -17 1 -19 2 -5 6 21 6 22 12 0 28
-19 14 -9 36 15 34 15 -1 15 -2 0 -6z m120 -31 c3 -29 1 -32 -22 -32 -31 0
-36 29 -6 37 11 3 20 10 20 15 0 6 -9 8 -20 5 -11 -3 -17 -1 -14 4 13 21 39 3
42 -29z m97 31 c-34 -9 -42 -46 -12 -56 7 -2 6 -3 -2 -3 -8 1 -19 8 -24 18
-14 21 7 48 37 47 20 -1 20 -2 1 -6z m84 -12 c13 -24 -8 -55 -35 -49 -20 3
-30 29 -20 54 8 20 43 17 55 -5z m141 -16 c0 -31 -3 -35 -25 -35 -31 0 -34 29
-5 37 11 3 20 10 20 15 0 6 -9 8 -20 5 -11 -3 -18 -1 -14 4 3 5 14 9 25 9 15
0 19 -7 19 -35z m165 0 c0 -25 -4 -30 -24 -30 -32 0 -49 28 -31 50 7 9 23 15
34 13 16 -2 21 -10 21 -33z m48 27 c-6 -4 -13 -21 -16 -37 -4 -27 -4 -27 -6 8
-1 29 3 37 17 37 11 0 13 -3 5 -8z m75 -30 c3 -31 2 -33 -25 -30 -35 4 -37 30
-3 38 17 4 21 8 12 14 -6 4 -16 4 -22 1 -5 -3 -10 -1 -10 5 0 6 10 10 23 8 17
-2 23 -11 25 -36z m127 17 c14 -43 -45 -66 -61 -24 -8 19 13 45 37 45 10 0 21
-10 24 -21z m48 13 c-6 -4 -13 -21 -16 -37 -4 -27 -4 -27 -6 8 -1 29 3 37 17
37 11 0 13 -3 5 -8z m122 -13 c14 -43 -45 -66 -61 -24 -8 19 13 45 37 45 10 0
21 -10 24 -21z m79 5 c9 -24 7 -54 -4 -54 -5 0 -10 14 -10 31 0 39 -22 34 -31
-7 -6 -27 -7 -27 -8 9 -1 33 2 37 23 37 13 0 27 -7 30 -16z m236 12 c0 -2 3
-11 6 -19 4 -11 -2 -17 -23 -19 l-28 -4 25 -12 25 -12 -25 3 c-40 4 -41 67 0
67 11 0 20 -2 20 -4z m88 -8 c-9 -7 -19 -24 -21 -38 -3 -18 -5 -14 -6 13 -1
32 2 37 21 37 19 0 20 -1 6 -12z m72 8 c0 -2 3 -11 6 -19 4 -11 -2 -17 -23
-19 l-28 -4 25 -12 25 -12 -25 3 c-40 4 -41 67 0 67 11 0 20 -2 20 -4z m85 -7
c12 -19 -4 -59 -24 -59 -11 0 -22 -8 -24 -17 -3 -10 -5 5 -6 32 -1 47 1 51 24
53 13 1 27 -3 30 -9z m80 -24 c0 -25 -4 -30 -24 -30 -32 0 -49 28 -31 50 7 9
23 15 34 13 16 -2 21 -10 21 -33z m53 28 c-22 -6 -23 -12 -1 -28 19 -14 9 -36
-15 -34 -15 1 -15 2 1 6 21 6 22 19 2 27 -24 9 -18 36 8 35 16 -1 18 -2 5 -6z
m39 -45 c-2 -13 -4 -5 -4 17 -1 22 1 32 4 23 2 -10 2 -28 0 -40z m128 17 c0
-25 -4 -30 -25 -30 -16 0 -26 6 -28 18 -6 30 6 49 30 45 18 -2 23 -9 23 -33z
m89 8 l14 -28 7 28 c4 15 11 27 16 27 5 0 1 -17 -8 -37 -22 -48 -33 -63 -46
-63 -6 0 -3 6 6 13 15 10 16 16 5 45 -15 40 -40 39 -49 -3 -6 -29 -7 -29 -8 8
-1 33 2 37 24 37 16 0 29 -9 39 -27z m66 -33 c0 -5 -4 -10 -10 -10 -5 0 -10 5
-10 10 0 6 5 10 10 10 6 0 10 -4 10 -10z m-3830 -570 c0 -66 -1 -70 -22 -69
-17 1 -19 2 -5 6 9 2 17 11 17 19 0 12 -11 14 -47 12 -34 -2 -47 -7 -45 -16 1
-8 -2 -11 -8 -7 -11 7 -14 108 -3 118 3 4 30 7 60 7 l53 0 0 -70z m387 -52
c-2 -24 -4 -7 -4 37 0 44 2 63 4 43 2 -21 2 -57 0 -80z m50 0 c-2 -24 -4 -7
-4 37 0 44 2 63 4 43 2 -21 2 -57 0 -80z m240 0 c-2 -24 -4 -7 -4 37 0 44 2
63 4 43 2 -21 2 -57 0 -80z m160 0 c-2 -24 -4 -7 -4 37 0 44 2 63 4 43 2 -21
2 -57 0 -80z m580 0 c-2 -24 -4 -7 -4 37 0 44 2 63 4 43 2 -21 2 -57 0 -80z
m356 87 c-3 -9 -8 -14 -10 -11 -3 3 -2 9 2 15 9 16 15 13 8 -4z m104 -2 c3
-10 13 -34 21 -53 l14 -35 24 53 c35 76 54 70 54 -18 0 -40 -4 -70 -10 -70 -5
0 -10 23 -10 51 0 57 -13 57 -30 1 -19 -59 -27 -59 -54 -1 l-24 54 -1 -52 c-1
-29 -5 -53 -11 -53 -6 0 -10 30 -10 70 0 56 3 70 15 70 9 0 18 -8 22 -17z
m273 7 c0 -5 -4 -10 -10 -10 -5 0 -10 5 -10 10 0 6 5 10 10 10 6 0 10 -4 10
-10z m170 -50 c0 -57 1 -60 25 -60 14 0 25 -4 25 -10 0 -5 -16 -10 -35 -10
l-35 0 0 70 c0 40 4 70 10 70 6 0 10 -27 10 -60z m100 56 c0 -11 -19 -15 -25
-6 -3 5 1 10 9 10 9 0 16 -2 16 -4z m205 -6 c4 -6 -7 -10 -24 -10 -41 0 -41
-24 -1 -45 39 -20 42 -62 5 -71 -14 -3 -33 -3 -42 2 -14 6 -11 9 15 12 41 4
42 26 2 47 -31 16 -39 42 -18 63 15 15 54 16 63 2z m225 0 c0 -5 -4 -10 -10
-10 -5 0 -10 5 -10 10 0 6 5 10 10 10 6 0 10 -4 10 -10z m250 -22 l0 -33 26
33 c14 17 30 32 36 32 6 0 -1 -16 -16 -35 l-26 -34 31 -36 c19 -21 26 -35 18
-35 -8 0 -26 14 -41 32 l-27 33 -1 -32 c0 -18 -4 -33 -10 -33 -6 0 -10 30 -10
70 0 40 4 70 10 70 6 0 10 -15 10 -32z m13245 12 c4 -13 15 -20 31 -20 27 0
33 -17 9 -26 -9 -4 -15 -19 -15 -35 0 -27 -2 -29 -20 -19 -14 8 -26 8 -40 0
-18 -10 -20 -8 -20 19 0 16 -6 31 -15 35 -24 9 -18 26 9 26 16 0 27 7 31 20 3
11 10 20 15 20 5 0 12 -9 15 -20z m-15117 -21 c15 -1 15 -2 0 -6 -13 -3 -18
-14 -18 -38 0 -22 6 -38 18 -45 15 -10 15 -10 -3 -8 -15 2 -21 12 -23 43 -2
22 -9 43 -15 47 -9 6 -9 8 1 8 6 0 13 8 13 18 1 16 2 16 6 0 2 -10 12 -19 21
-19z m1816 -2 c8 -6 7 -10 -1 -14 -7 -2 -13 -17 -13 -33 0 -16 6 -30 13 -33 6
-2 9 -8 5 -12 -16 -17 -38 5 -38 39 0 19 -5 36 -12 38 -7 3 -5 12 8 26 13 15
20 18 23 10 2 -7 9 -17 15 -21z m-2896 3 c15 -1 15 -2 0 -11 -22 -12 -23 -52
-2 -73 13 -14 13 -16 0 -16 -16 0 -24 19 -26 65 -3 42 0 63 7 48 2 -7 12 -13
21 -13z m14664 4 c-12 -8 -22 -24 -22 -34 0 -10 10 -26 22 -34 12 -9 18 -16
14 -16 -16 0 -46 32 -46 48 0 18 29 52 44 52 6 0 0 -7 -12 -16z m90 -1 c10 -9
18 -23 18 -31 0 -18 -29 -52 -44 -52 -6 0 0 7 12 16 12 8 22 24 22 34 0 10
-10 26 -22 34 -12 9 -18 16 -14 16 5 0 18 -7 28 -17z m90 -30 c2 -21 8 -38 13
-38 6 0 11 17 13 38 2 20 8 37 13 37 16 0 6 -72 -12 -83 -29 -18 -49 -1 -49
43 0 51 18 53 22 3z m419 7 c15 0 19 -7 18 -32 -1 -28 -2 -30 -7 -10 -4 13
-11 23 -17 23 -5 0 -13 -10 -17 -23 -4 -15 -6 -5 -6 27 0 28 2 42 5 33 2 -10
13 -18 24 -18z m469 -15 c0 -25 -4 -45 -10 -45 -5 0 -10 16 -10 35 0 19 -5 35
-11 35 -5 0 -7 5 -4 10 3 6 13 10 21 10 10 0 14 -12 14 -45z m660 35 c0 -5 -7
-7 -15 -4 -21 9 -19 -10 4 -30 11 -10 17 -24 14 -32 -6 -16 -53 -19 -53 -3 0
5 5 7 10 4 6 -3 15 -3 21 1 8 5 4 13 -11 24 -15 11 -21 23 -17 34 7 17 47 23
47 6z m466 -14 c9 -38 -4 -68 -29 -64 -23 3 -35 43 -23 74 9 24 45 17 52 -10z
m1110 -3 c8 -32 -6 -58 -32 -58 -20 0 -31 41 -20 71 10 25 45 16 52 -13z
m-17920 -18 c8 -43 20 -45 29 -5 10 45 21 44 35 -3 l13 -42 9 35 c5 19 14 40
20 45 7 7 9 7 5 0 -3 -5 -10 -29 -16 -52 -14 -52 -27 -55 -35 -8 -8 41 -21 38
-31 -5 -9 -43 -19 -37 -37 20 -9 28 -12 50 -8 50 5 0 12 -16 16 -35z m141 -42
c-2 -16 -4 -3 -4 27 0 30 2 43 4 28 2 -16 2 -40 0 -55z m211 65 c7 -7 12 -24
12 -38 0 -30 -16 -50 -41 -50 -23 0 -49 27 -49 50 0 39 52 64 78 38z m242 -7
c15 -29 13 -31 -25 -31 -24 0 -35 -5 -35 -14 0 -17 35 -30 51 -20 8 4 9 3 5
-4 -9 -15 -39 -15 -54 0 -15 15 -15 61 0 76 18 18 46 14 58 -7z m110 -7 c13
-32 13 -74 1 -74 -6 0 -11 19 -13 43 -2 33 -7 42 -20 41 -10 -1 -15 2 -12 7
11 18 35 9 44 -17z m51 -27 c-4 -61 -11 -59 -11 3 0 29 3 50 7 46 4 -4 6 -26
4 -49z m113 47 c9 -3 16 -15 16 -25 0 -15 -7 -19 -31 -19 -24 0 -30 -4 -27
-17 2 -12 13 -18 30 -18 15 1 24 -3 22 -7 -16 -26 -74 7 -74 42 0 19 25 50 40
50 5 0 15 -3 24 -6z m266 -13 c15 -29 13 -31 -25 -31 -24 0 -35 -5 -35 -14 0
-17 35 -30 51 -20 8 4 9 3 5 -4 -9 -15 -39 -15 -54 0 -7 7 -12 24 -12 38 0 48
49 69 70 31z m47 -58 c-2 -16 -4 -3 -4 27 0 30 2 43 4 28 2 -16 2 -40 0 -55z
m151 65 c23 -23 13 -38 -23 -38 -43 0 -48 -24 -7 -38 22 -9 23 -11 7 -11 -28
-1 -45 17 -45 49 0 29 16 50 40 50 9 0 21 -5 28 -12z m72 4 c29 18 50 -6 49
-56 l-1 -41 -8 38 c-4 21 -12 43 -18 49 -18 18 -40 -8 -45 -50 -3 -26 -4 -21
-5 18 0 30 2 50 5 43 3 -9 9 -10 23 -1z m151 -19 c-12 -20 -14 -14 -5 12 4 9
9 14 11 11 3 -2 0 -13 -6 -23z m337 15 c21 -21 13 -38 -18 -38 -42 0 -40 -28
3 -32 l32 -4 -28 -8 c-34 -10 -57 7 -57 43 0 30 16 51 40 51 9 0 21 -5 28 -12z
m62 -38 c0 -27 -4 -50 -10 -50 -5 0 -10 23 -10 50 0 28 5 50 10 50 6 0 10 -22
10 -50z m106 -5 c2 -48 2 -48 -5 -10 -5 31 -10 40 -26 40 -16 0 -21 -8 -23
-37 -5 -55 -22 -46 -22 11 l0 48 38 -1 37 -1 1 -50z m151 -22 c-2 -16 -4 -3
-4 27 0 30 2 43 4 28 2 -16 2 -40 0 -55z m101 65 c7 -7 12 -28 12 -49 0 -35
-1 -36 -37 -35 -50 1 -59 32 -14 49 38 14 40 27 5 27 -14 0 -23 4 -19 10 8 14
38 13 53 -2z m217 2 c3 -6 -5 -10 -18 -10 -26 0 -40 -20 -31 -45 4 -8 17 -15
31 -15 13 0 21 -4 18 -10 -11 -18 -44 -10 -61 15 -15 23 -15 27 0 50 17 25 50
33 61 15z m85 -1 c0 -5 -7 -9 -15 -9 -8 0 -17 -10 -19 -22 -3 -13 -7 -32 -9
-43 -3 -11 -5 3 -6 30 -1 47 1 50 24 51 14 1 25 -2 25 -7z m40 -39 c0 -27 -4
-50 -10 -50 -5 0 -10 23 -10 50 0 28 5 50 10 50 6 0 10 -22 10 -50z m50 39 c0
-8 4 -8 15 1 25 21 55 3 55 -34 0 -39 -21 -60 -50 -51 -17 5 -20 2 -20 -24 0
-17 -4 -31 -10 -31 -6 0 -10 32 -10 75 0 43 4 75 10 75 6 0 10 -5 10 -11z
m338 -67 c20 -3 22 1 22 37 0 23 5 41 10 41 6 0 10 -22 10 -49 l0 -48 -37 1
-38 1 -1 50 c-2 48 -2 48 5 10 5 -31 11 -41 29 -43z m132 67 c0 -3 -9 -9 -20
-12 -15 -4 -20 -14 -20 -41 0 -20 -4 -36 -10 -36 -5 0 -10 22 -10 48 0 47 1
49 30 49 17 0 30 -4 30 -8z m70 1 c0 -5 -9 -10 -20 -10 -11 0 -20 -4 -20 -10
0 -5 4 -10 8 -10 5 0 17 -6 27 -14 16 -12 17 -16 6 -30 -15 -17 -61 -22 -61
-6 0 6 11 10 25 10 14 0 25 5 25 10 0 6 -4 10 -8 10 -5 0 -17 6 -27 14 -16 12
-17 16 -6 30 15 18 51 22 51 6z m11861 3 c4 -46 2 -72 -6 -70 -12 4 -23 47
-17 65 5 13 22 17 23 5z m1278 -21 c-12 -5 -12 -42 0 -42 5 0 11 7 15 15 3 8
13 15 23 16 16 0 16 2 -2 10 -18 8 -18 8 5 6 19 -1 26 -8 28 -29 3 -26 1 -27
-41 -26 -41 0 -45 3 -49 28 -6 39 0 52 17 37 7 -7 9 -13 4 -15z m-1721 -12
c-2 -6 -8 -6 -18 0 -13 9 -13 11 0 20 15 10 25 0 18 -20z m250 -12 c2 -16 -1
-28 -7 -28 -6 0 -11 12 -11 26 0 14 -4 23 -10 19 -5 -3 -10 -15 -10 -26 0 -10
-4 -19 -10 -19 -5 0 -10 14 -10 31 0 27 3 30 28 27 21 -2 28 -9 30 -30z m42
15 c0 20 16 23 23 5 4 -10 8 -9 16 2 9 13 11 12 11 -5 0 -11 -5 -27 -10 -35
-9 -13 -11 -13 -20 0 -9 13 -11 13 -19 0 -12 -18 -18 -13 -26 25 -6 29 -6 29
9 11 14 -17 16 -18 16 -3z m118 -16 c3 -26 1 -28 -24 -25 -35 4 -44 27 -13 35
22 6 22 7 3 15 -16 6 -15 7 6 5 19 -1 26 -8 28 -30z m92 22 c0 -5 -4 -8 -9 -4
-19 11 -24 -18 -6 -32 16 -11 16 -13 3 -13 -26 0 -43 27 -28 45 14 17 40 20
40 4z m1333 4 c-7 -2 -13 -16 -13 -29 0 -13 -4 -24 -10 -24 -5 0 -10 14 -10
30 0 25 4 30 23 29 12 0 16 -3 10 -6z m-1126 -20 c-16 -16 -18 -16 -34 0 -16
16 -15 17 17 17 32 0 33 -1 17 -17z m-14934 0 c-7 -2 -21 -2 -30 0 -10 3 -4 5
12 5 17 0 24 -2 18 -5z m520 0 c-7 -2 -21 -2 -30 0 -10 3 -4 5 12 5 17 0 24
-2 18 -5z m573 -40 c-8 -15 -15 -25 -16 -21 0 12 23 58 27 54 3 -2 -2 -17 -11
-33z m-1776 14 c0 -7 -9 -13 -20 -13 -11 0 -20 6 -20 13 0 7 9 13 20 13 11 0
20 -6 20 -13z m8265 -438 c4 -5 17 -14 30 -19 18 -7 22 -16 22 -50 0 -29 -5
-43 -16 -47 -9 -3 -24 -13 -33 -21 -16 -13 -20 -13 -35 0 -10 8 -25 18 -34 21
-11 4 -16 18 -16 47 0 34 4 43 22 50 13 5 26 14 30 19 3 6 10 11 15 11 5 0 12
-5 15 -11z m-7910 -26 c-11 -3 -27 -10 -35 -17 -13 -10 -13 -9 -1 7 7 9 23 16
35 16 20 -1 20 -2 1 -6z m172 -70 c-2 -16 -4 -3 -4 27 0 30 2 43 4 28 2 -16 2
-40 0 -55z m660 0 c-2 -16 -4 -3 -4 27 0 30 2 43 4 28 2 -16 2 -40 0 -55z
m967 68 c3 -4 -6 -6 -19 -3 -14 2 -25 6 -25 8 0 8 39 4 44 -5z m113 -68 c-2
-16 -4 -3 -4 27 0 30 2 43 4 28 2 -16 2 -40 0 -55z m2247 68 c3 -4 -6 -6 -19
-3 -14 2 -25 6 -25 8 0 8 39 4 44 -5z m1189 -35 c22 18 22 18 5 -1 -17 -18
-17 -20 0 -39 17 -21 17 -21 -5 -3 -21 18 -21 18 -26 0 -3 -10 -4 7 -4 37 0
33 2 42 4 22 4 -34 5 -34 26 -16z m660 37 c-13 -2 -23 -9 -23 -15 0 -5 10 -19
23 -29 l22 -20 -27 17 c-40 24 -36 55 6 53 19 -2 19 -2 -1 -6z m1024 -70 c-2
-16 -4 -3 -4 27 0 30 2 43 4 28 2 -16 2 -40 0 -55z m316 43 c21 4 21 4 2 -4
-11 -5 -23 -22 -26 -38 -5 -21 -7 -13 -6 26 0 30 2 45 4 34 3 -16 10 -21 26
-18z m757 24 c0 -6 -7 -10 -16 -8 -25 4 -28 -19 -4 -27 32 -10 23 -49 -12 -53
-16 -2 -28 2 -28 8 0 6 6 10 13 9 37 -5 40 2 13 24 -20 16 -27 29 -23 40 7 18
57 24 57 7z m210 0 c0 -5 -5 -10 -11 -10 -5 0 -7 5 -4 10 3 6 8 10 11 10 2 0
4 -4 4 -10z m-5047 -49 c2 -42 -10 -43 -13 -1 -3 37 -1 54 6 47 3 -3 7 -24 7
-46z m1947 39 c0 -5 -4 -10 -10 -10 -5 0 -10 5 -10 10 0 6 5 10 10 10 6 0 10
-4 10 -10z m2199 -18 c-12 -5 -11 -49 1 -55 6 -3 5 -4 -2 -3 -14 3 -27 52 -20
73 3 9 7 9 17 0 7 -7 9 -13 4 -15z m811 18 c0 -14 28 -12 33 3 8 22 19 -1 20
-42 1 -27 -2 -41 -10 -41 -8 0 -13 13 -13 30 0 21 -5 30 -16 30 -12 0 -15 -7
-12 -30 3 -19 0 -30 -8 -30 -12 0 -23 57 -16 79 5 14 22 15 22 1z m-8136 -19
c4 -5 -3 -7 -14 -4 -23 6 -26 13 -6 13 8 0 17 -4 20 -9z m156 5 c0 -2 -9 -6
-20 -9 -11 -3 -18 -1 -14 4 5 9 34 13 34 5z m647 -2 c-3 -3 -12 -4 -19 -1 -8
3 -5 6 6 6 11 1 17 -2 13 -5z m51 -1 c-10 -2 -18 -7 -18 -10 0 -3 8 -12 18
-20 15 -13 15 -13 -5 -3 -33 15 -28 41 6 39 13 -1 13 -2 -1 -6z m39 -30 c-3
-10 -5 -4 -5 12 0 17 2 24 5 18 2 -7 2 -21 0 -30z m53 4 c0 -29 -3 -33 -27
-34 -26 -2 -27 -1 -5 7 15 6 22 18 22 35 0 14 2 25 5 25 3 0 5 -15 5 -33z
m127 27 c-3 -3 -12 -4 -19 -1 -8 3 -5 6 6 6 11 1 17 -2 13 -5z m636 -15 c-6
-6 -19 -9 -29 -6 -16 4 -15 5 4 6 12 0 22 6 22 13 0 6 3 8 7 5 4 -4 2 -12 -4
-18z m59 -36 c15 4 18 3 10 -5 -20 -20 -42 -1 -40 34 l1 33 4 -33 c4 -29 8
-33 25 -29z m248 53 c0 -2 -9 -6 -20 -9 -11 -3 -18 -1 -14 4 5 9 34 13 34 5z
m73 -3 c3 -5 -5 -8 -18 -8 -13 0 -21 3 -18 8 2 4 10 7 18 7 8 0 16 -3 18 -7z
m69 -50 c15 4 18 3 10 -5 -20 -20 -42 -1 -40 34 l1 33 4 -33 c4 -29 8 -33 25
-29z m92 48 c4 -5 -3 -7 -14 -4 -11 3 -20 1 -20 -5 0 -6 10 -13 23 -15 19 -4
18 -4 -5 -6 -27 -1 -38 16 -21 32 9 10 31 9 37 -2z m54 2 c-10 -2 -18 -7 -18
-10 0 -3 8 -12 18 -20 15 -13 15 -13 -5 -3 -33 15 -28 41 6 39 13 -1 13 -2 -1
-6z m59 1 c-3 -3 -12 -4 -19 -1 -8 3 -5 6 6 6 11 1 17 -2 13 -5z m51 -1 c-22
-6 -23 -12 -1 -28 19 -14 9 -36 -15 -34 -15 1 -15 2 1 6 21 6 22 12 0 28 -19
14 -9 36 15 34 15 -1 15 -2 0 -6z m729 1 c-3 -3 -12 -4 -19 -1 -8 3 -5 6 6 6
11 1 17 -2 13 -5z m146 -1 c3 -5 -5 -8 -18 -8 -13 0 -21 3 -18 8 2 4 10 7 18
7 8 0 16 -3 18 -7z m44 -45 c-2 -13 -4 -5 -4 17 -1 22 1 32 4 23 2 -10 2 -28
0 -40z m38 42 c3 -6 -1 -7 -9 -4 -18 7 -21 14 -7 14 6 0 13 -4 16 -10z m62 4
c-3 -3 -12 -4 -19 -1 -8 3 -5 6 6 6 11 1 17 -2 13 -5z m636 -15 c-6 -6 -19 -9
-29 -6 -16 4 -15 5 4 6 12 0 22 6 22 13 0 6 3 8 7 5 4 -4 2 -12 -4 -18z m34
-31 c-2 -13 -4 -5 -4 17 -1 22 1 32 4 23 2 -10 2 -28 0 -40z m99 34 c1 -7 0
-8 -3 -2 -7 14 -43 13 -43 -2 0 -6 -3 -9 -6 -5 -3 3 -3 11 1 17 9 15 48 9 51
-8z m104 14 c0 -2 -9 -6 -20 -9 -11 -3 -18 -1 -14 4 5 9 34 13 34 5z m70 0 c0
-2 -9 -6 -20 -9 -11 -3 -18 -1 -14 4 5 9 34 13 34 5z m47 -2 c-3 -3 -12 -4
-19 -1 -8 3 -5 6 6 6 11 1 17 -2 13 -5z m51 -1 c-22 -6 -23 -12 -1 -28 19 -14
9 -36 -15 -34 -15 1 -15 2 1 6 21 6 22 12 0 28 -19 14 -9 36 15 34 15 -1 15
-2 0 -6z m829 -45 c-2 -13 -4 -5 -4 17 -1 22 1 32 4 23 2 -10 2 -28 0 -40z
m703 48 c0 -2 -9 -6 -20 -9 -11 -3 -18 -1 -14 4 5 9 34 13 34 5z m70 0 c0 -2
-9 -6 -20 -9 -11 -3 -18 -1 -14 4 5 9 34 13 34 5z m27 -33 c-3 -10 -5 -4 -5
12 0 17 2 24 5 18 2 -7 2 -21 0 -30z m53 4 c0 -29 -3 -33 -27 -34 -26 -2 -27
-1 -5 7 15 6 22 18 22 35 0 14 2 25 5 25 3 0 5 -15 5 -33z m27 -19 c-2 -13 -4
-5 -4 17 -1 22 1 32 4 23 2 -10 2 -28 0 -40z m50 0 c-2 -13 -4 -5 -4 17 -1 22
1 32 4 23 2 -10 2 -28 0 -40z m50 46 c-3 -3 -12 -4 -19 -1 -8 3 -5 6 6 6 11 1
17 -2 13 -5z m738 -4 c3 -6 -1 -7 -9 -4 -18 7 -21 14 -7 14 6 0 13 -4 16 -10z
m53 3 c-10 -2 -18 -7 -18 -10 0 -3 8 -12 18 -20 15 -13 15 -13 -5 -3 -33 15
-28 41 6 39 13 -1 13 -2 -1 -6z m115 0 c3 -5 -5 -8 -18 -8 -13 0 -21 3 -18 8
2 4 10 7 18 7 8 0 16 -3 18 -7z m194 1 c-3 -3 -12 -4 -19 -1 -8 3 -5 6 6 6 11
1 17 -2 13 -5z m711 -16 c3 -14 -3 -18 -23 -18 -16 0 -24 -4 -20 -11 4 -6 13
-8 21 -5 8 3 14 1 14 -5 0 -16 -42 -6 -53 13 -8 12 -7 21 3 33 17 20 54 16 58
-7z m132 -13 c0 -19 -4 -35 -10 -35 -5 0 -10 16 -10 35 0 19 5 35 10 35 6 0
10 -16 10 -35z m79 -2 c-1 -36 -2 -37 -8 -9 -8 38 -25 40 -29 4 -5 -40 -22
-34 -22 7 0 32 2 35 30 35 28 0 30 -2 29 -37z m91 -1 c0 -21 -5 -43 -12 -50
-15 -15 -45 -15 -54 0 -5 8 -2 9 10 5 10 -4 23 -4 29 0 7 4 2 9 -13 13 -47 11
-39 70 10 70 28 0 30 -2 30 -38z m60 27 c0 -5 -4 -7 -10 -4 -17 10 -11 -7 7
-20 9 -7 13 -17 9 -23 -9 -15 -43 -16 -51 -2 -3 6 1 7 9 4 21 -8 20 6 -1 21
-9 7 -13 17 -9 23 9 15 46 16 46 1z m-8503 -31 c-3 -8 -6 -5 -6 6 -1 11 2 17
5 13 3 -3 4 -12 1 -19z m101 -22 c12 -3 11 -4 -3 -3 -12 1 -20 10 -21 22 -1
14 0 15 3 3 2 -9 12 -19 21 -22z m112 34 c0 -5 -15 -9 -32 -9 l-33 1 30 8 c17
4 31 8 33 9 1 0 2 -3 2 -9z m860 -5 c0 -2 -13 -5 -30 -7 -19 -3 -30 0 -30 7 0
7 11 10 30 7 17 -2 30 -5 30 -7z m1000 5 c0 -5 -15 -9 -32 -9 l-33 1 30 8 c17
4 31 8 33 9 1 0 2 -3 2 -9z m1043 -8 c5 -8 6 -16 3 -19 -3 -4 -6 -1 -6 5 0 7
-11 12 -25 12 -14 0 -25 -5 -25 -12 0 -6 -2 -9 -5 -6 -3 3 -3 12 0 20 7 18 47
18 58 0z m1247 8 c0 -5 -15 -9 -32 -9 l-33 1 30 8 c17 4 31 8 33 9 1 0 2 -3 2
-9z m1700 0 c0 -5 -15 -9 -32 -9 l-33 1 30 8 c17 4 31 8 33 9 1 0 2 -3 2 -9z
m1267 -27 c-3 -10 -5 -4 -5 12 0 17 2 24 5 18 2 -7 2 -21 0 -30z m-3842 6 c0
-7 -8 -14 -18 -15 -12 -1 -13 -1 -2 3 17 5 20 19 5 26 -6 3 -5 4 2 3 7 -2 13
-9 13 -17z m-315 -12 c11 -5 9 -6 -4 -4 -11 1 -21 9 -23 17 -3 10 -2 11 4 4 4
-6 15 -14 23 -17z m1060 6 c16 4 20 3 13 -4 -15 -15 -45 -7 -50 11 -4 12 -3
13 5 1 6 -8 19 -12 32 -8z m910 -4 c0 -6 -4 -7 -10 -4 -5 3 -10 11 -10 16 0 6
5 7 10 4 6 -3 10 -11 10 -16z m52 -1 c-7 -7 -12 -8 -12 -2 0 14 12 26 19 19 2
-3 -1 -11 -7 -17z m1191 5 c-3 -7 -6 -13 -8 -13 -2 0 -5 6 -8 13 -3 8 1 14 8
14 7 0 11 -6 8 -14z m-6414 -9 c10 -9 -35 -3 -49 6 -11 8 -7 9 15 4 17 -4 32
-8 34 -10z m76 6 c-3 -5 -14 -10 -23 -9 -14 0 -13 2 3 9 27 11 27 11 20 0z
m146 -8 c-7 -2 -18 1 -23 6 -8 8 -4 9 13 5 13 -4 18 -8 10 -11z m1860 0 c-7
-2 -18 1 -23 6 -8 8 -4 9 13 5 13 -4 18 -8 10 -11z m82 6 c-2 -5 -10 -8 -18
-8 -8 0 -16 3 -18 8 -3 4 5 7 18 7 13 0 21 -3 18 -7z m153 -6 c-10 -2 -22 0
-28 6 -6 6 0 7 19 4 21 -5 23 -7 9 -10z m1047 6 c-2 -5 -10 -8 -18 -8 -8 0
-16 3 -18 8 -3 4 5 7 18 7 13 0 21 -3 18 -7z m1008 -6 c-7 -2 -18 1 -23 6 -8
8 -4 9 13 5 13 -4 18 -8 10 -11z m70 0 c-7 -2 -18 1 -23 6 -8 8 -4 9 13 5 13
-4 18 -8 10 -11z m1564 8 c-3 -5 -16 -10 -28 -9 -20 1 -20 2 3 9 14 4 26 8 28
9 2 1 0 -3 -3 -9z m66 -8 c-7 -2 -18 1 -23 6 -8 8 -4 9 13 5 13 -4 18 -8 10
-11z m70 0 c-7 -2 -18 1 -23 6 -8 8 -4 9 13 5 13 -4 18 -8 10 -11z m1122 6
c-2 -5 -10 -8 -18 -8 -8 0 -16 3 -18 8 -3 4 5 7 18 7 13 0 21 -3 18 -7z
m-6386 -4 c-3 -3 -12 -4 -19 -1 -8 3 -5 6 6 6 11 1 17 -2 13 -5z m50 0 c-3 -3
-12 -4 -19 -1 -8 3 -5 6 6 6 11 1 17 -2 13 -5z m156 -1 c-7 -2 -19 -2 -25 0
-7 3 -2 5 12 5 14 0 19 -2 13 -5z m64 1 c-3 -3 -12 -4 -19 -1 -8 3 -5 6 6 6
11 1 17 -2 13 -5z m1230 0 c-3 -3 -12 -4 -19 -1 -8 3 -5 6 6 6 11 1 17 -2 13
-5z m4770 0 c-3 -3 -12 -4 -19 -1 -8 3 -5 6 6 6 11 1 17 -2 13 -5z m310 0 c-3
-3 -12 -4 -19 -1 -8 3 -5 6 6 6 11 1 17 -2 13 -5z m-3152 -23 c-3 -6 -11 -11
-16 -11 -5 0 -4 6 3 14 14 16 24 13 13 -3z m2960 -1 c-3 -5 -16 -10 -28 -9
-20 1 -20 2 3 9 14 4 26 8 28 9 2 1 0 -3 -3 -9z m1435 -170 c0 -7 -183 -10
-530 -10 -347 0 -530 3 -530 10 0 7 183 10 530 10 347 0 530 -3 530 -10z
m-2660 -465 c0 -33 2 -35 25 -29 38 9 55 -11 55 -67 0 -63 -18 -64 -22 -1 -3
43 -5 47 -28 47 -23 0 -25 -4 -28 -47 -5 -84 -22 -52 -22 42 0 53 4 90 10 90
6 0 10 -16 10 -35z m340 1 c0 -32 1 -33 38 -32 l37 1 3 -57 c2 -36 -1 -58 -8
-58 -5 0 -10 22 -10 50 0 41 -3 50 -18 50 -28 0 -42 -21 -42 -62 0 -21 -4 -38
-10 -38 -6 0 -10 37 -10 90 0 53 4 90 10 90 6 0 10 -15 10 -34z m-562 -39 c8
-31 17 -57 21 -57 5 0 14 25 21 55 13 52 25 73 36 62 3 -2 13 -33 23 -68 l18
-64 11 40 c6 22 14 52 18 68 3 15 12 27 20 27 7 0 12 -6 9 -12 -2 -7 -13 -46
-25 -85 -12 -41 -26 -73 -34 -73 -7 0 -18 24 -25 53 -20 76 -23 77 -41 12 -10
-36 -22 -60 -30 -60 -9 0 -23 29 -37 75 -26 87 -27 93 -11 88 7 -3 19 -30 26
-61z m440 -19 c26 -55 -26 -106 -84 -79 -19 9 -24 18 -24 50 0 46 18 62 65 58
21 -1 34 -10 43 -29z m320 -29 l3 -57 -43 2 c-41 1 -43 3 -43 31 0 24 5 31 33
39 40 11 42 30 2 24 -16 -3 -30 -2 -30 2 0 14 16 21 45 18 29 -3 30 -5 33 -59z
m112 51 c0 -5 -11 -10 -24 -10 -36 0 -41 -17 -9 -32 38 -18 43 -55 9 -64 -14
-3 -34 -3 -43 2 -14 6 -11 9 15 12 40 4 41 17 2 37 -32 16 -38 33 -18 53 14
14 68 16 68 2z m178 -51 l3 -57 -43 2 c-41 1 -43 3 -43 31 0 24 5 31 33 39 40
11 42 30 2 24 -16 -3 -30 -2 -30 2 0 14 16 21 45 18 29 -3 30 -5 33 -59z m122
52 c0 -5 -12 -11 -26 -13 -35 -4 -53 -31 -38 -55 6 -10 23 -19 38 -21 34 -4
34 -22 -1 -22 -54 0 -80 52 -47 98 15 22 74 32 74 13z m110 0 c0 -5 -12 -11
-26 -13 -35 -4 -53 -31 -38 -55 6 -10 23 -19 38 -21 34 -4 34 -22 -1 -22 -54
0 -80 52 -47 98 15 22 74 32 74 13z m116 -16 c21 -32 11 -45 -36 -45 -32 0
-38 -3 -33 -16 4 -11 15 -15 40 -12 20 2 32 0 30 -6 -2 -6 -16 -12 -31 -14
-55 -7 -87 58 -49 100 23 26 59 23 79 -7z m104 15 c0 -5 -11 -10 -25 -10 -34
0 -32 -16 5 -35 32 -16 38 -33 18 -53 -14 -14 -68 -16 -68 -2 0 6 14 10 30 10
37 0 39 15 3 32 -31 15 -42 46 -21 59 18 12 58 11 58 -1z m105 0 c4 -6 -7 -10
-24 -10 -39 0 -40 -15 -1 -35 32 -17 40 -49 14 -59 -25 -9 -64 -7 -64 4 0 6
14 10 30 10 17 0 30 4 30 10 0 5 -13 16 -30 25 -32 16 -38 33 -18 53 15 15 54
16 63 2z m-4517 -32 c7 -7 12 -24 12 -38 0 -52 -61 -71 -82 -25 -23 51 32 101
70 63z m141 -26 c-14 -5 -11 -50 4 -55 7 -4 6 -6 -4 -6 -12 -1 -18 9 -21 33
-5 46 0 59 17 43 7 -7 9 -13 4 -15z m-48 -8 c16 -20 1 -48 -29 -52 -11 -2 -23
-11 -25 -20 -3 -9 -5 7 -6 36 -1 48 1 52 23 52 13 0 29 -7 37 -16z m76 -36
c-2 -13 -4 -5 -4 17 -1 22 1 32 4 23 2 -10 2 -28 0 -40z m88 17 c0 -25 -4 -30
-24 -30 -32 0 -49 28 -31 50 7 9 23 15 34 13 16 -2 21 -10 21 -33z m79 19 c9
-24 7 -54 -4 -54 -5 0 -10 14 -10 31 0 39 -22 34 -31 -7 -6 -27 -7 -27 -8 9
-1 33 2 37 23 37 13 0 27 -7 30 -16z m54 9 c-22 -6 -23 -12 -1 -28 9 -7 13
-17 9 -23 -8 -14 -46 -16 -46 -3 0 5 10 7 23 4 l22 -5 -24 20 c-27 22 -21 43
12 41 17 -1 18 -2 5 -6z m-608 -468 c0 -143 -4 -225 -10 -225 -6 0 -10 82 -10
225 0 143 4 225 10 225 6 0 10 -82 10 -225z m183 8 l15 -38 18 38 c10 20 21
37 26 37 4 0 7 -24 7 -52 -2 -49 -2 -50 -9 -18 l-7 35 -14 -32 c-7 -18 -16
-33 -20 -33 -4 0 -13 15 -20 33 l-14 32 -6 -35 c-6 -31 -7 -29 -8 18 -1 61 11
67 32 15z m137 -28 c0 -31 -3 -35 -25 -35 -31 0 -34 29 -5 37 11 3 20 10 20
15 0 6 -9 8 -20 5 -11 -3 -18 -1 -14 4 3 5 14 9 25 9 15 0 19 -7 19 -35z m84
19 c9 -24 7 -54 -4 -54 -5 0 -10 14 -10 31 0 38 -24 35 -28 -4 -5 -39 -22 -33
-22 8 0 32 3 35 29 35 17 0 31 -6 35 -16z m66 -19 c0 -31 -3 -35 -25 -35 -31
0 -34 29 -5 37 11 3 20 10 20 15 0 6 -9 8 -20 5 -11 -3 -18 -1 -14 4 3 5 14 9
25 9 15 0 19 -7 19 -35z m90 -3 c0 -45 -14 -62 -49 -61 -15 0 -19 3 -11 6 43
14 45 16 20 22 -47 13 -39 71 10 71 28 0 30 -2 30 -38z m70 18 c9 -18 8 -20
-15 -20 -31 0 -33 -17 -2 -23 19 -4 19 -4 -5 -6 -31 -1 -47 31 -28 54 17 21
37 19 50 -5z m110 -16 c0 -32 -2 -35 -25 -32 -32 4 -35 20 -5 34 13 7 18 14
11 18 -6 4 -15 4 -21 1 -5 -3 -10 -1 -10 4 0 6 11 11 25 11 22 0 25 -4 25 -36z
m70 27 c0 -5 -8 -8 -17 -7 -12 1 -18 -6 -18 -19 0 -13 6 -20 18 -19 9 1 17 -2
17 -7 0 -16 -39 -9 -49 8 -12 23 4 53 29 53 11 0 20 -4 20 -9z m70 0 c0 -5 -8
-7 -19 -4 -21 5 -34 -17 -21 -37 5 -8 15 -10 26 -6 14 5 16 4 8 -4 -30 -30
-70 13 -44 45 14 16 50 20 50 6z m60 5 c0 -2 3 -11 6 -19 4 -11 -2 -17 -23
-19 l-28 -4 25 -11 c24 -11 24 -12 3 -12 -28 -1 -45 27 -32 51 8 15 49 27 49
14z m48 -3 c-24 -6 -23 -19 3 -26 12 -3 19 -12 17 -19 -5 -16 -48 -24 -48 -9
0 6 7 8 15 5 8 -4 15 -2 15 4 0 5 -7 12 -15 16 -24 9 -18 36 8 35 16 -1 18 -2
5 -6z m60 0 c-24 -6 -23 -19 3 -26 12 -3 19 -12 17 -19 -5 -16 -48 -24 -48 -9
0 6 7 8 15 5 8 -4 15 -2 15 4 0 5 -7 12 -15 16 -24 9 -18 36 8 35 16 -1 18 -2
5 -6z m4864 -43 l33 -30 -33 -30 c-18 -16 -41 -30 -52 -30 -11 0 -34 14 -52
30 l-33 30 33 30 c18 17 41 30 52 30 11 0 34 -13 52 -30z m3118 15 c7 -8 9
-22 6 -31 -3 -8 1 -22 9 -30 8 -9 15 -21 14 -27 0 -7 -7 -2 -16 11 -8 12 -26
22 -38 22 -12 0 -30 -10 -38 -22 -9 -13 -16 -18 -16 -11 -1 6 6 18 14 27 8 8
12 22 9 30 -7 18 12 46 31 46 7 0 18 -7 25 -15z m52 -17 c0 -7 2 -17 2 -23 1
-5 7 -20 14 -32 15 -28 8 -29 -16 -5 -10 10 -16 24 -14 30 2 7 -2 19 -8 27
-10 12 -9 15 4 15 9 0 17 -6 18 -12z m-5788 -7 c4 -5 -3 -7 -14 -4 -23 6 -26
13 -6 13 8 0 17 -4 20 -9z m73 -38 c-3 -10 -5 -2 -5 17 0 19 2 27 5 18 2 -10
2 -26 0 -35z m51 40 c-21 -5 -24 -23 -5 -24 10 0 10 -2 0 -6 -7 -2 -13 -11
-13 -18 0 -7 6 -16 13 -18 7 -3 5 -6 -5 -6 -14 -1 -18 7 -18 39 0 35 3 40 23
39 16 -1 18 -2 5 -6z m137 -33 c0 -34 -3 -40 -20 -39 -11 0 -14 3 -7 6 6 2 12
17 12 33 0 16 -6 31 -12 33 -7 3 -4 6 7 6 17 1 20 -5 20 -39z m75 36 c0 -2 -9
-6 -20 -9 -11 -3 -18 -1 -14 4 5 9 34 13 34 5z m125 -6 c3 -6 -1 -7 -9 -4 -11
4 -16 0 -16 -11 0 -12 5 -15 17 -11 10 4 14 4 11 0 -4 -4 -3 -16 3 -28 9 -19
9 -19 -4 -3 -8 9 -17 17 -20 17 -3 0 -8 -8 -10 -17 -3 -10 -5 1 -6 25 -1 30 3
42 13 42 8 0 18 -4 21 -10z m68 3 c-7 -2 -19 -2 -25 0 -7 3 -2 5 12 5 14 0 19
-2 13 -5z m73 -11 c1 -7 0 -8 -3 -2 -2 5 -11 10 -19 10 -20 0 -17 -30 4 -31
15 -1 15 -2 0 -6 -9 -2 -19 -12 -21 -21 -3 -9 -5 2 -6 26 -1 39 1 43 21 40 12
-2 23 -9 24 -16z m59 8 c3 -6 -1 -7 -9 -4 -18 7 -21 14 -7 14 6 0 13 -4 16
-10z m52 3 c-12 -3 -16 -10 -12 -21 5 -13 3 -14 -6 -5 -14 14 -3 33 19 32 15
-1 14 -2 -1 -6z m76 0 c-7 -2 -19 -2 -25 0 -7 3 -2 5 12 5 14 0 19 -2 13 -5z
m70 0 c-7 -2 -14 -21 -15 -41 l-1 -37 -4 35 c-3 19 -10 38 -16 42 -7 4 1 7 18
7 17 0 24 -3 18 -6z m67 3 c0 -2 -9 -6 -20 -9 -11 -3 -18 -1 -14 4 5 9 34 13
34 5z m65 -21 c0 -12 -7 -20 -18 -21 -12 -1 -13 -1 -2 3 21 6 19 30 -2 37 -14
4 -14 4 2 3 13 -2 20 -10 20 -22z m2172 19 c-3 -3 -12 -4 -19 -1 -8 3 -5 6 6
6 11 1 17 -2 13 -5z m76 -1 c-7 -2 -19 -2 -25 0 -7 3 -2 5 12 5 14 0 19 -2 13
-5z m55 0 c-10 -2 -18 -9 -18 -15 0 -6 8 -17 18 -24 15 -12 15 -13 0 -8 -10 3
-18 -1 -21 -13 -3 -10 -5 1 -6 25 -1 38 1 42 22 41 16 -1 18 -2 5 -6z m75 0
c-7 -2 -19 -2 -25 0 -7 3 -2 5 12 5 14 0 19 -2 13 -5z m77 3 c0 -2 -9 -6 -20
-9 -11 -3 -18 -1 -14 4 5 9 34 13 34 5z m63 -3 c-7 -2 -21 -2 -30 0 -10 3 -4
5 12 5 17 0 24 -2 18 -5z m197 3 c0 -2 -9 -6 -20 -9 -11 -3 -18 -1 -14 4 5 9
34 13 34 5z m70 0 c0 -2 -9 -6 -20 -9 -11 -3 -18 -1 -14 4 5 9 34 13 34 5z
m48 -3 c-10 -2 -18 -9 -18 -14 0 -5 8 -10 18 -10 16 -1 16 -2 0 -6 -10 -2 -18
-11 -18 -18 0 -7 8 -16 18 -18 13 -4 11 -5 -5 -6 -20 -1 -23 4 -23 39 0 35 3
40 23 39 16 -1 18 -2 5 -6z m79 1 c-3 -3 -12 -4 -19 -1 -8 3 -5 6 6 6 11 1 17
-2 13 -5z m50 -1 c-12 -3 -16 -10 -12 -21 5 -13 3 -14 -6 -5 -14 14 -3 33 19
32 15 -1 14 -2 -1 -6z m-3330 -45 c-3 -7 -5 -2 -5 12 0 14 2 19 5 13 2 -7 2
-19 0 -25z m2553 -13 c-7 -8 -20 -15 -29 -14 -11 0 -9 3 7 9 13 6 22 19 23 32
1 18 2 19 6 5 3 -10 -1 -24 -7 -32z m-3175 25 c-3 -5 -14 -10 -23 -9 -14 0
-13 2 3 9 27 11 27 11 20 0z m528 3 c-7 -2 -19 -2 -25 0 -7 3 -2 5 12 5 14 0
19 -2 13 -5z m515 -29 c-3 -14 -5 -12 -10 9 -3 19 -2 25 4 19 6 -6 8 -18 6
-28z m2325 29 c-7 -2 -19 -2 -25 0 -7 3 -2 5 12 5 14 0 19 -2 13 -5z m64 -34
c11 0 13 -3 5 -6 -17 -7 -42 15 -41 36 0 11 3 9 9 -6 5 -13 17 -23 27 -24z
m330 0 c11 0 13 -3 5 -6 -17 -7 -42 15 -41 36 0 11 3 9 9 -6 5 -13 17 -23 27
-24z m133 31 c8 -5 11 -10 5 -10 -5 0 -17 5 -25 10 -8 5 -10 10 -5 10 6 0 17
-5 25 -10z m-3167 -31 c-6 -6 -19 -9 -29 -6 -15 4 -14 5 5 6 18 1 22 5 16 19
-5 14 -4 15 6 5 10 -10 10 -16 2 -24z m3240 0 c-6 -6 -19 -9 -29 -6 -15 4 -14
5 5 6 18 1 22 5 16 19 -5 14 -4 15 6 5 10 -10 10 -16 2 -24z m-323 12 c0 -4
-11 -6 -25 -3 -14 2 -25 6 -25 8 0 2 11 4 25 4 14 0 25 -4 25 -9z m-3589 -19
c-7 -2 -18 1 -23 6 -8 8 -4 9 13 5 13 -4 18 -8 10 -11z m270 0 c-7 -2 -18 1
-23 6 -8 8 -4 9 13 5 13 -4 18 -8 10 -11z m334 8 c-3 -5 -14 -10 -23 -9 -14 0
-13 2 3 9 27 11 27 11 20 0z m250 -8 c-3 -3 -11 0 -18 7 -9 10 -8 11 6 5 10
-3 15 -9 12 -12z m2786 0 c-7 -2 -18 1 -23 6 -8 8 -4 9 13 5 13 -4 18 -8 10
-11z m204 8 c-3 -5 -14 -10 -23 -9 -14 0 -13 2 3 9 27 11 27 11 20 0z m-3702
-7 c-7 -2 -19 -2 -25 0 -7 3 -2 5 12 5 14 0 19 -2 13 -5z m330 0 c-7 -2 -19
-2 -25 0 -7 3 -2 5 12 5 14 0 19 -2 13 -5z m260 0 c-7 -2 -19 -2 -25 0 -7 3
-2 5 12 5 14 0 19 -2 13 -5z m2450 0 c-7 -2 -19 -2 -25 0 -7 3 -2 5 12 5 14 0
19 -2 13 -5z m130 0 c-7 -2 -19 -2 -25 0 -7 3 -2 5 12 5 14 0 19 -2 13 -5z
m-3355 -200 c-14 -3 -18 -16 -20 -51 l-2 -47 -3 47 c-3 33 -9 48 -21 51 -9 3
1 5 23 5 22 0 32 -2 23 -5z m55 -25 c17 -2 22 -10 24 -38 1 -34 1 -34 -5 -5
-4 17 -14 30 -22 30 -8 0 -18 -13 -21 -30 -5 -22 -7 -16 -7 25 0 30 2 47 5 38
2 -9 14 -18 26 -20z m1172 -3 c16 0 20 -7 20 -30 0 -25 -4 -30 -27 -33 -28 -3
-28 -2 -27 50 1 31 4 45 7 33 4 -11 16 -20 27 -20z m52 -42 c-2 -16 -4 -3 -4
27 0 30 2 43 4 28 2 -16 2 -40 0 -55z m373 26 c0 -49 -1 -50 -27 -47 -24 3
-28 8 -28 33 0 23 5 31 23 33 12 2 22 10 22 18 0 8 2 14 5 14 3 0 5 -23 5 -51z
m295 16 c16 0 20 -7 20 -30 0 -25 -4 -30 -27 -33 -28 -3 -28 -2 -27 50 1 31 4
45 7 33 4 -11 16 -20 27 -20z m52 -42 c-2 -16 -4 -3 -4 27 0 30 2 43 4 28 2
-16 2 -40 0 -55z m1153 27 c0 -27 -4 -50 -10 -50 -5 0 -10 16 -10 35 0 21 -5
35 -12 35 -11 1 18 30 29 30 2 0 3 -22 3 -50z m80 35 c0 -8 9 -15 19 -15 10 0
22 -7 25 -16 9 -24 7 -54 -4 -54 -5 0 -10 14 -10 31 0 38 -24 35 -28 -4 -6
-47 -22 -29 -22 23 0 28 5 50 10 50 6 0 10 -7 10 -15z m913 -17 c17 -2 22 -10
24 -38 1 -34 1 -34 -5 -5 -4 17 -14 30 -22 30 -8 0 -18 -13 -21 -30 -5 -22 -7
-16 -7 25 0 30 2 47 5 38 2 -9 14 -18 26 -20z m-3507 7 c9 -8 11 -15 5 -15
-15 0 -14 -47 2 -54 6 -3 3 -5 -8 -3 -20 2 -36 47 -27 75 5 16 10 15 28 -3z
m1523 -13 c-14 -5 -11 -50 4 -55 7 -4 6 -6 -4 -6 -12 -1 -18 9 -21 33 -5 46 0
59 17 43 7 -7 9 -13 4 -15z m1760 0 c-14 -5 -11 -50 4 -55 7 -4 6 -6 -4 -6
-12 -1 -18 9 -21 33 -5 46 0 59 17 43 7 -7 9 -13 4 -15z m167 13 c9 -8 11 -15
5 -15 -15 0 -14 -47 2 -54 6 -3 3 -5 -8 -3 -20 2 -36 47 -27 75 5 16 10 15 28
-3z m635 8 c5 -50 2 -82 -6 -80 -11 4 -23 56 -17 75 4 13 22 17 23 5z m327
-40 l-1 -48 -4 43 c-3 27 -8 40 -15 36 -7 -4 -8 -2 -4 4 15 25 26 10 24 -35z
m-4941 -25 c-2 -13 -4 -5 -4 17 -1 22 1 32 4 23 2 -10 2 -28 0 -40z m61 45
c-22 -6 -23 -12 -1 -28 9 -7 13 -17 9 -23 -9 -14 -46 -16 -46 -2 0 5 7 7 15 4
20 -8 19 6 -2 21 -20 15 -9 35 20 34 17 -1 18 -2 5 -6z m95 0 c-7 -2 -13 -18
-13 -34 0 -16 -4 -29 -10 -29 -5 0 -10 16 -10 35 0 30 3 35 23 34 12 0 16 -3
10 -6z m67 3 c0 -2 3 -11 6 -19 4 -11 -2 -17 -23 -19 l-28 -4 25 -11 c24 -11
24 -12 3 -12 -28 -1 -45 27 -32 51 8 15 49 27 49 14z m85 -16 c7 -23 -10 -50
-31 -50 -8 0 -14 -7 -14 -15 0 -8 -4 -15 -10 -15 -5 0 -10 23 -10 50 0 49 1
50 29 50 21 0 32 -6 36 -20z m80 -15 c0 -27 -3 -30 -30 -30 -21 0 -31 5 -33
18 -6 33 6 49 35 45 24 -3 28 -8 28 -33z m53 28 c-22 -6 -23 -12 -1 -28 9 -7
13 -17 9 -23 -8 -14 -46 -16 -46 -3 0 5 10 7 23 4 l22 -5 -24 20 c-27 22 -21
43 12 41 17 -1 18 -2 5 -6z m39 -45 c-2 -13 -4 -5 -4 17 -1 22 1 32 4 23 2
-10 2 -28 0 -40z m128 17 c0 -25 -4 -30 -24 -30 -32 0 -49 28 -31 50 7 9 23
15 34 13 16 -2 21 -10 21 -33z m90 8 l7 -28 10 28 c5 15 14 27 18 27 5 0 0
-22 -12 -50 -13 -32 -27 -50 -37 -49 -10 0 -12 2 -3 6 16 6 15 45 -2 69 -17
22 -32 12 -39 -26 -3 -18 -5 -15 -6 13 -1 35 1 37 28 37 23 0 30 -6 36 -27z
m105 -8 c0 -19 -4 -35 -10 -35 -5 0 -10 16 -10 35 0 19 5 35 10 35 6 0 10 -16
10 -35z m48 28 c-22 -6 -23 -19 -3 -27 22 -8 18 -36 -4 -36 -11 0 -22 4 -25 9
-4 5 3 7 14 4 23 -6 27 12 5 21 -24 9 -18 36 8 35 16 -1 18 -2 5 -6z m127 -28
c0 -23 -5 -31 -22 -33 -12 -2 -24 -11 -26 -20 -3 -9 -5 6 -6 34 -1 49 0 51 27
50 23 -1 27 -5 27 -31z m53 -23 c8 -2 12 7 12 27 0 17 5 31 10 31 6 0 10 -16
10 -36 0 -33 -2 -35 -27 -32 -24 3 -28 8 -30 38 -1 33 -1 33 5 6 4 -16 13 -31
20 -34z m182 23 c0 -19 -4 -35 -10 -35 -5 0 -10 16 -10 35 0 19 5 35 10 35 6
0 10 -16 10 -35z m70 26 c0 -5 -8 -8 -17 -7 -12 1 -18 -6 -18 -19 0 -13 6 -20
18 -19 9 1 17 -2 17 -7 0 -16 -39 -9 -49 8 -12 23 4 53 29 53 11 0 20 -4 20
-9z m100 -26 c0 -31 -3 -35 -25 -35 -31 0 -34 29 -5 37 11 3 20 10 20 15 0 6
-9 8 -20 5 -11 -3 -18 -1 -14 4 3 5 14 9 25 9 15 0 19 -7 19 -35z m77 -5 c1
-33 1 -33 -5 -6 -10 41 -32 46 -32 7 0 -17 -4 -31 -10 -31 -5 0 -10 16 -10 36
0 33 2 35 28 32 23 -3 27 -8 29 -38z m158 13 l7 -28 10 28 c5 15 14 27 18 27
11 0 -15 -63 -27 -67 -5 -2 -14 12 -20 32 -6 19 -8 35 -3 35 4 0 11 -12 15
-27z m62 -25 c-2 -13 -4 -5 -4 17 -1 22 1 32 4 23 2 -10 2 -28 0 -40z m61 45
c-22 -6 -23 -12 -1 -28 9 -7 13 -17 9 -23 -9 -14 -46 -16 -46 -2 0 5 7 7 15 4
20 -8 19 6 -2 21 -20 15 -9 35 20 34 17 -1 18 -2 5 -6z m42 -28 c0 -19 -4 -35
-10 -35 -5 0 -10 16 -10 35 0 19 5 35 10 35 6 0 10 -16 10 -35z m188 13 c3
-14 -3 -18 -24 -18 -30 0 -23 -14 11 -23 12 -3 8 -5 -10 -4 -31 2 -43 23 -31
53 8 21 50 14 54 -8z m163 6 c17 -21 0 -49 -32 -49 -24 0 -36 23 -25 51 7 19
40 18 57 -2z m1107 -21 c3 -31 1 -33 -27 -33 -36 0 -44 28 -11 37 11 3 20 10
20 15 0 6 -7 8 -15 4 -8 -3 -15 -1 -15 5 0 6 10 9 23 7 17 -2 23 -11 25 -35z
m50 30 c-22 -6 -23 -12 -1 -28 9 -7 13 -17 9 -23 -9 -14 -46 -16 -46 -2 0 5 7
7 15 4 20 -8 19 6 -2 21 -20 15 -9 35 20 34 17 -1 18 -2 5 -6z m120 -30 c3
-31 1 -33 -27 -33 -36 0 -44 28 -11 37 11 3 20 10 20 15 0 6 -7 8 -15 4 -8 -3
-15 -1 -15 5 0 6 10 9 23 7 17 -2 23 -11 25 -35z m57 30 c-37 -10 -41 -47 -7
-57 10 -2 6 -4 -8 -3 -46 4 -33 68 14 66 20 -1 20 -2 1 -6z m75 -2 c0 -5 -8
-8 -17 -7 -12 1 -18 -6 -18 -19 0 -13 6 -20 18 -19 9 1 17 -2 17 -7 0 -16 -39
-9 -49 8 -12 23 4 53 29 53 11 0 20 -4 20 -9z m68 -13 c3 -14 -3 -18 -24 -18
-30 0 -23 -14 11 -23 12 -3 8 -5 -10 -4 -31 2 -43 23 -31 53 8 21 50 14 54 -8z
m50 15 c-22 -6 -23 -12 -1 -28 9 -7 13 -17 9 -23 -8 -14 -46 -16 -46 -3 0 5
10 7 23 4 l22 -5 -24 20 c-27 22 -21 43 12 41 17 -1 18 -2 5 -6z m60 0 c-22
-6 -23 -12 -1 -28 9 -7 13 -17 9 -23 -8 -14 -46 -16 -46 -3 0 5 10 7 23 4 l22
-5 -24 20 c-27 22 -21 43 12 41 17 -1 18 -2 5 -6z m173 -9 c17 -21 0 -49 -32
-49 -24 0 -36 23 -25 51 7 19 40 18 57 -2z m196 -36 c-2 -13 -4 -5 -4 17 -1
22 1 32 4 23 2 -10 2 -28 0 -40z m51 45 c-24 -6 -23 -19 3 -26 12 -3 19 -12
17 -19 -5 -16 -48 -24 -48 -9 0 6 7 8 15 5 8 -4 15 -2 15 4 0 5 -7 12 -15 16
-24 9 -18 36 8 35 16 -1 18 -2 5 -6z m100 -5 c-9 -7 -19 -24 -21 -38 -3 -18
-5 -14 -6 13 -1 32 2 37 21 37 19 0 20 -1 6 -12z m72 8 c0 -2 3 -11 6 -19 4
-11 -2 -17 -23 -19 l-28 -4 25 -11 c24 -11 24 -12 3 -12 -28 -1 -45 27 -32 51
8 15 49 27 49 14z m85 -16 c7 -23 -10 -50 -31 -50 -8 0 -14 -7 -14 -15 0 -8
-4 -15 -10 -15 -5 0 -10 23 -10 50 0 49 1 50 29 50 21 0 32 -6 36 -20z m80
-15 c0 -27 -3 -30 -30 -30 -21 0 -31 5 -33 18 -6 33 6 49 35 45 24 -3 28 -8
28 -33z m53 28 c-22 -6 -23 -12 -1 -28 9 -7 13 -17 9 -23 -8 -14 -46 -16 -46
-3 0 5 10 7 23 4 l22 -5 -24 20 c-27 22 -21 43 12 41 17 -1 18 -2 5 -6z m39
-45 c-2 -13 -4 -5 -4 17 -1 22 1 32 4 23 2 -10 2 -28 0 -40z m128 17 c0 -25
-4 -30 -24 -30 -32 0 -49 28 -31 50 7 9 23 15 34 13 16 -2 21 -10 21 -33z m82
15 c7 -26 19 -25 28 3 3 12 9 17 11 10 7 -15 -28 -85 -44 -91 -11 -3 -11 0 -2
14 8 14 9 27 1 47 -14 35 -34 31 -42 -9 -6 -27 -7 -27 -8 9 -1 33 1 37 25 37
17 0 28 -6 31 -20z m250 -32 c-2 -13 -4 -5 -4 17 -1 22 1 32 4 23 2 -10 2 -28
0 -40z m79 17 c1 -30 1 -30 -3 -2 -6 38 -36 32 -44 -8 -7 -30 -7 -30 -8 6 -1
33 1 36 27 35 23 -1 27 -5 28 -31z m101 -17 c-2 -13 -4 -5 -4 17 -1 22 1 32 4
23 2 -10 2 -28 0 -40z m50 46 c-3 -3 -12 -4 -19 -1 -8 3 -5 6 6 6 11 1 17 -2
13 -5z m71 -32 c3 -29 1 -32 -25 -31 -23 2 -24 2 -5 6 12 2 22 9 22 15 0 6 -9
8 -20 5 -11 -3 -18 -1 -14 4 3 5 12 9 20 9 20 0 18 17 -3 24 -14 4 -14 4 2 3
15 -2 21 -11 23 -35z m49 32 c-3 -3 -12 -4 -19 -1 -8 3 -5 6 6 6 11 1 17 -2
13 -5z m30 -46 c-2 -13 -4 -5 -4 17 -1 22 1 32 4 23 2 -10 2 -28 0 -40z m79
34 c1 -7 0 -8 -3 -2 -2 5 -13 10 -24 10 -14 0 -19 -7 -19 -26 0 -23 3 -26 26
-21 16 3 22 1 16 -5 -26 -26 -62 11 -48 48 7 18 48 15 52 -4z m80 -23 c2 -31
1 -31 -3 -4 -3 16 -10 34 -16 38 -8 6 -7 7 3 4 9 -2 16 -17 16 -38z m-412 -15
c3 -8 2 -12 -4 -9 -6 3 -10 10 -10 16 0 14 7 11 14 -7z m-304 -4 c0 -5 -4 -10
-10 -10 -5 0 -10 5 -10 10 0 6 5 10 10 10 6 0 10 -4 10 -10z m760 0 c0 -5 -4
-10 -10 -10 -5 0 -10 5 -10 10 0 6 5 10 10 10 6 0 10 -4 10 -10z m-8830 -29
c0 -5 -9 -7 -20 -4 -27 7 -26 -14 2 -36 27 -23 18 -51 -17 -51 -14 0 -25 4
-25 9 0 4 11 6 25 3 17 -3 25 0 25 10 0 8 -11 20 -25 26 -27 12 -33 37 -12 45
21 9 47 8 47 -2z m528 -18 c-3 -30 18 -44 25 -16 2 10 2 4 0 -14 -2 -17 1 -33
8 -35 6 -2 -10 -4 -36 -6 -49 -2 -68 15 -45 43 6 8 9 19 5 25 -9 15 3 30 26
30 16 0 20 -6 17 -27z m329 -50 c-2 -16 -4 -3 -4 27 0 30 2 43 4 28 2 -16 2
-40 0 -55z m-517 57 c0 -5 7 -10 15 -10 8 0 21 -12 28 -26 l14 -27 7 27 c3 14
11 26 16 26 5 0 2 -17 -7 -37 -22 -49 -33 -63 -47 -62 -7 0 -6 2 2 6 15 6 16
37 2 64 -16 30 -33 23 -28 -11 3 -19 1 -29 -6 -27 -12 4 -25 55 -18 75 5 14
22 16 22 2z m-270 -14 c0 -2 3 -11 6 -19 4 -11 -2 -17 -23 -19 l-28 -4 25 -12
25 -12 -25 3 c-40 4 -41 67 0 67 11 0 20 -2 20 -4z m53 -6 c-13 -5 -23 -16
-23 -25 0 -9 10 -20 23 -25 22 -10 22 -10 -3 -7 -43 4 -34 68 9 66 11 0 9 -3
-6 -9z m63 -50 c9 0 14 11 14 30 0 17 5 30 10 30 6 0 10 -16 10 -36 0 -33 -2
-35 -27 -32 -24 2 -28 8 -30 36 -3 32 -3 32 3 2 3 -17 12 -30 20 -30z m82 48
c-9 -7 -19 -24 -21 -38 -3 -18 -5 -14 -6 13 -1 32 2 37 21 37 19 0 20 -1 6
-12z m29 -40 c-2 -13 -4 -5 -4 17 -1 22 1 32 4 23 2 -10 2 -28 0 -40z m377 36
c14 -37 7 -54 -24 -54 -35 0 -43 29 -10 37 25 7 26 20 3 26 -14 4 -13 5 3 6
12 0 25 -6 28 -15z m80 0 c9 -24 7 -54 -4 -54 -5 0 -10 14 -10 31 0 39 -22 34
-31 -7 -6 -27 -7 -27 -8 9 -1 33 2 37 23 37 13 0 27 -7 30 -16z m70 0 c14 -37
7 -54 -24 -54 -35 0 -43 29 -10 37 25 7 26 20 3 26 -14 4 -13 5 3 6 12 0 25
-6 28 -15z m69 -10 l14 -27 7 27 c3 14 11 26 16 26 5 0 2 -17 -7 -37 -22 -49
-33 -63 -47 -63 -6 0 -5 4 3 9 13 9 12 36 -4 74 -11 27 3 20 18 -9z m85 19
c-22 -6 -23 -12 -1 -28 9 -7 13 -17 9 -23 -9 -14 -33 -16 -40 -3 -4 5 3 7 14
4 23 -6 27 12 5 21 -24 9 -18 36 8 35 16 -1 18 -2 5 -6z m39 -45 c-2 -13 -4
-5 -4 17 -1 22 1 32 4 23 2 -10 2 -28 0 -40z m51 45 c-22 -6 -23 -19 -3 -27
24 -9 18 -36 -7 -35 -17 1 -19 2 -5 6 21 6 22 19 2 27 -24 9 -18 36 8 35 16
-1 18 -2 5 -6z m2040 -131 c3 -31 2 -33 -24 -30 -34 4 -44 27 -15 35 12 3 21
10 21 15 0 6 -7 8 -15 4 -8 -3 -15 -1 -15 5 0 6 10 9 23 7 17 -2 23 -11 25
-36z m80 1 c2 -19 -1 -33 -7 -33 -6 0 -11 14 -11 31 0 39 -22 34 -31 -7 -6
-27 -7 -26 -8 9 -1 36 1 38 27 35 22 -2 28 -8 30 -35z m32 11 c0 -22 17 -17
25 9 3 12 9 17 11 10 7 -16 -28 -86 -46 -91 -13 -5 -13 -3 -1 11 10 13 11 24
2 48 -13 39 -14 42 -1 34 6 -3 10 -13 10 -21z m115 -9 c0 -27 -3 -30 -30 -30
-21 0 -31 5 -33 18 -6 33 6 49 35 45 24 -3 28 -8 28 -33z m83 -2 c2 -19 -1
-33 -7 -33 -6 0 -11 14 -11 31 0 39 -22 34 -31 -7 -6 -27 -7 -26 -8 9 -1 36 1
38 27 35 22 -2 28 -8 30 -35z m72 17 c9 -18 8 -20 -15 -20 -31 0 -33 -17 -2
-23 19 -4 19 -4 -5 -6 -31 -1 -47 31 -28 54 17 21 37 19 50 -5z m-400 -304 c0
-6 -4 -5 -9 3 -7 11 -11 4 -14 -25 -3 -32 -4 -29 -5 16 -1 50 0 53 13 36 8
-11 15 -25 15 -30z m68 -8 l-1 -53 -7 45 c-4 25 -8 39 -8 31 -1 -8 -4 -12 -7
-9 -8 7 5 38 16 38 5 0 8 -24 7 -52z m70 -16 c3 -29 1 -32 -22 -32 -31 0 -36
29 -6 37 25 7 26 20 3 27 -14 4 -14 4 2 3 15 -2 21 -11 23 -35z m78 -3 c2 -31
1 -31 -3 -4 -3 16 -10 34 -16 38 -8 6 -7 7 3 4 9 -2 16 -17 16 -38z m72 3 c3
-29 1 -32 -22 -32 -31 0 -36 29 -6 37 25 7 26 20 3 27 -14 4 -14 4 2 3 15 -2
21 -11 23 -35z m50 27 c-10 -5 -18 -16 -18 -24 0 -8 8 -19 18 -24 15 -9 16
-10 0 -11 -9 0 -20 9 -23 20 -7 22 10 50 29 50 6 0 3 -5 -6 -11z m110 -12 c3
-14 -3 -17 -30 -16 -30 2 -31 2 -5 6 15 2 27 9 27 15 0 6 -9 8 -20 5 -11 -3
-17 -1 -14 4 9 15 38 6 42 -14z m-3539 -19 c-2 -13 0 -28 4 -35 12 -19 -4 -43
-29 -43 -22 0 -24 4 -24 50 0 47 2 50 26 50 21 0 25 -4 23 -22z m324 -10 c17
-2 22 -10 24 -38 1 -34 1 -34 -5 -5 -4 17 -14 30 -22 30 -8 0 -18 -13 -21 -30
-5 -22 -7 -16 -7 25 0 30 2 47 5 38 2 -9 14 -18 26 -20z m-270 -6 c-6 -4 -13
-21 -16 -37 -4 -27 -4 -27 -6 8 -1 29 3 37 17 37 11 0 13 -3 5 -8z m75 -30 c3
-31 2 -33 -24 -30 -34 4 -44 27 -15 35 12 3 21 10 21 15 0 6 -7 8 -15 4 -8 -3
-15 -1 -15 5 0 6 10 9 23 7 17 -2 23 -11 25 -36z m76 22 c9 -24 7 -54 -4 -54
-5 0 -10 14 -10 31 0 39 -22 34 -31 -7 -6 -27 -7 -27 -8 9 -1 33 2 37 23 37
13 0 27 -7 30 -16z m76 6 c0 -5 -7 -7 -16 -3 -19 7 -35 -14 -27 -34 4 -9 14
-13 26 -9 14 3 17 2 9 -6 -25 -25 -65 19 -42 47 14 17 50 20 50 5z m140 6 c0
-2 3 -11 6 -20 5 -12 0 -16 -20 -16 -32 0 -35 -20 -3 -21 19 -1 20 -2 3 -6
-27 -7 -49 23 -35 48 8 16 49 28 49 15z m46 -3 c-19 -5 -18 -6 4 -23 13 -9 20
-22 16 -29 -9 -13 -46 -15 -46 -1 0 5 7 7 15 4 20 -8 19 6 -2 21 -19 14 -9 36
15 34 14 -1 13 -2 -2 -6z m3060 -11 c-10 -2 -22 0 -28 6 -6 6 0 7 19 4 21 -5
23 -7 9 -10z m-73 -23 c-6 -6 -19 -9 -29 -6 -16 4 -15 5 4 6 12 0 22 6 22 13
0 6 3 8 7 5 4 -4 2 -12 -4 -18z m-3468 -426 c9 45 21 48 30 7 9 -39 21 -38 29
2 3 17 9 29 12 26 8 -8 -17 -98 -27 -98 -5 0 -12 14 -15 30 -4 17 -10 30 -14
30 -4 0 -10 -13 -13 -30 -9 -43 -23 -37 -36 14 -15 62 -13 68 8 21 l19 -40 7
38z m175 22 c0 -8 9 -15 19 -15 26 0 34 -15 27 -46 -5 -19 -13 -24 -36 -24
-29 0 -30 1 -30 50 0 28 5 50 10 50 6 0 10 -7 10 -15z m100 -15 c10 0 21 -7
24 -16 9 -24 7 -54 -4 -54 -5 0 -10 14 -10 31 0 39 -22 34 -31 -7 -5 -21 -7
-13 -7 26 0 30 2 47 5 38 2 -10 13 -18 23 -18z m230 -20 c5 0 12 5 15 10 3 6
11 10 18 10 6 0 2 -6 -8 -14 -24 -17 -9 -41 29 -44 28 -2 35 12 11 22 -24 9
-18 36 8 35 16 -1 18 -2 5 -6 -22 -6 -23 -12 -1 -28 9 -7 13 -17 9 -23 -8 -14
-55 -13 -74 2 -10 7 -16 5 -23 -5 -6 -9 -8 5 -7 41 0 30 3 43 5 28 2 -16 8
-28 13 -28z m-370 16 c0 -2 3 -11 6 -19 4 -11 -2 -17 -23 -19 l-28 -4 25 -12
25 -12 -25 3 c-40 4 -41 67 0 67 11 0 20 -2 20 -4z m245 -31 c0 -25 -4 -30
-24 -30 -32 0 -49 28 -31 50 7 9 23 15 34 13 16 -2 21 -10 21 -33z m80 0 c0
-35 -31 -47 -51 -20 -18 25 0 57 29 53 17 -2 22 -10 22 -33z m11118 -142
c-172 -2 -454 -2 -625 0 -172 1 -32 2 312 2 344 0 484 -1 313 -2z m-986 -175
c-2 -24 -4 -5 -4 42 0 47 2 66 4 43 2 -24 2 -62 0 -85z m1350 0 c-2 -24 -4 -5
-4 42 0 47 2 66 4 43 2 -24 2 -62 0 -85z m-1197 37 c0 -25 -4 -45 -10 -45 -5
0 -10 20 -10 45 0 25 5 45 10 45 6 0 10 -20 10 -45z m165 35 c3 -5 -1 -10 -9
-10 -9 0 -16 5 -16 10 0 6 4 10 9 10 6 0 13 -4 16 -10z m426 -22 c1 -18 3 -25
6 -15 5 20 49 24 56 5 3 -7 6 -1 6 15 1 28 31 40 31 12 0 -17 5 -18 125 -16
50 1 92 6 93 12 4 11 32 12 33 2 0 -5 1 -22 2 -40 l2 -31 -50 1 c-46 2 -50 4
-48 25 2 13 -1 21 -7 17 -6 -3 -10 -14 -10 -24 0 -17 -14 -19 -209 -19 -219 0
-230 2 -215 43 5 12 20 15 65 13 51 -3 59 -1 59 14 0 13 8 18 30 18 27 0 30
-3 31 -32z m-8361 -35 c12 -32 26 -61 29 -65 4 -4 19 21 35 57 40 92 56 87 56
-20 0 -50 -4 -85 -10 -85 -6 0 -10 28 -11 63 l-1 62 -29 -60 c-16 -33 -32 -61
-37 -63 -4 -1 -18 26 -32 60 l-25 63 -3 -62 c-4 -94 -22 -76 -22 22 0 104 15
112 50 28z m7970 48 c0 -6 17 -11 37 -13 41 -3 59 -27 21 -29 -17 -1 -18 -3
-5 -6 33 -9 16 -23 -28 -23 -42 0 -45 2 -46 28 l-2 27 -4 -27 c-5 -34 -33 -38
-34 -5 l0 22 -9 -22 c-10 -24 -39 -32 -41 -10 0 10 -2 10 -6 0 -8 -22 -33 -14
-34 10 l-2 22 -4 -22 c-7 -35 -33 -29 -33 7 0 29 2 30 45 30 29 0 45 -4 46
-12 0 -10 2 -10 6 0 2 6 20 12 39 12 19 0 34 5 34 10 0 6 5 10 10 10 6 0 10
-4 10 -9z m168 -43 c3 -25 0 -28 -27 -28 -28 0 -31 3 -31 31 0 27 3 30 28 27
21 -2 28 -9 30 -30z m693 19 c-6 -6 -11 -19 -11 -28 0 -22 -88 -26 -97 -4 -12
32 4 44 63 44 42 0 54 -3 45 -12z m-8591 -36 c5 -11 10 -37 10 -59 l0 -39 -41
1 c-71 2 -82 59 -15 72 42 7 37 28 -5 22 -16 -3 -29 -2 -29 2 0 27 65 27 80 1z
m138 -43 c2 -36 -1 -58 -8 -58 -5 0 -10 22 -10 50 0 41 -3 50 -18 50 -28 0
-42 -21 -42 -62 0 -21 -4 -38 -10 -38 -6 0 -10 26 -10 58 l0 59 48 -1 47 -1 3
-57z m120 1 l3 -57 -43 2 c-41 1 -43 3 -43 31 0 24 5 31 33 39 40 11 42 30 2
24 -16 -3 -30 -2 -30 2 0 14 16 21 45 18 29 -3 30 -5 33 -59z m142 -15 c0 -84
-14 -107 -63 -102 -17 2 -32 8 -34 14 -2 7 8 9 28 6 20 -3 34 0 40 9 16 25 10
36 -19 31 -35 -5 -62 19 -62 55 0 40 27 63 71 61 l39 -1 0 -73z m130 57 c20
-39 13 -51 -31 -51 -28 0 -39 -4 -36 -12 2 -7 18 -13 35 -13 41 0 36 -19 -6
-23 -39 -4 -67 32 -56 72 11 46 74 63 94 27z m178 7 c7 -7 12 -33 12 -59 l0
-47 -41 2 c-56 1 -75 28 -40 57 13 10 32 19 42 19 10 0 19 5 19 11 0 8 -12 10
-35 6 -19 -3 -35 -2 -35 3 0 20 60 26 78 8z m132 -1 c0 -7 -13 -12 -32 -12
-31 0 -33 -2 -33 -35 0 -33 2 -35 33 -35 17 0 31 -4 29 -10 -5 -15 -43 -18
-66 -5 -26 13 -29 71 -5 94 19 19 74 21 74 3z m110 0 c0 -7 -13 -12 -32 -12
-31 0 -33 -2 -33 -35 0 -33 2 -35 33 -35 17 0 31 -4 29 -10 -5 -15 -43 -18
-66 -5 -26 13 -29 71 -5 94 19 19 74 21 74 3z m108 1 c7 -7 12 -22 12 -35 0
-20 -5 -23 -41 -23 -28 0 -39 -4 -36 -12 2 -7 20 -13 40 -13 44 0 44 -19 0
-23 -37 -4 -63 19 -63 55 0 50 57 82 88 51z m112 2 c0 -5 -11 -10 -25 -10 -32
0 -32 -17 -1 -32 30 -13 40 -36 25 -54 -13 -16 -65 -19 -74 -4 -4 6 7 10 24
10 36 0 41 21 9 35 -27 12 -36 44 -16 56 18 12 58 11 58 -1z m100 0 c0 -5 -11
-10 -25 -10 -34 0 -32 -16 5 -35 32 -16 38 -33 18 -53 -14 -14 -68 -16 -68 -2
0 6 14 10 30 10 37 0 39 15 3 32 -31 15 -42 46 -21 59 18 12 58 11 58 -1z
m-4486 -121 c10 -17 16 -33 13 -36 -3 -2 -11 6 -19 19 -12 22 -13 22 -19 -17
-6 -39 -6 -39 -8 13 0 28 3 52 7 52 4 0 16 -14 26 -31z m46 -20 c0 -36 -4 -49
-12 -46 -7 2 -13 9 -12 15 1 7 2 28 3 47 2 55 21 41 21 -16z m210 41 c-13 -9
-13 -11 0 -20 10 -6 11 -10 3 -10 -8 0 -14 -14 -14 -32 l-2 -33 -6 35 c-8 38
2 70 22 70 8 0 6 -4 -3 -10z m-81 -28 c-14 -5 -11 -50 4 -55 7 -4 6 -6 -4 -6
-12 -1 -18 9 -21 33 -5 46 0 59 17 43 7 -7 9 -13 4 -15z m292 21 c5 -50 2 -82
-6 -80 -11 4 -23 56 -17 75 4 13 22 17 23 5z m11112 0 c-172 -2 -454 -2 -625
0 -172 1 -32 2 312 2 344 0 484 -1 313 -2z m-11454 -32 c13 -24 -8 -55 -35
-49 -20 3 -30 29 -20 54 8 20 43 17 55 -5z m78 -33 c-2 -13 -4 -5 -4 17 -1 22
1 32 4 23 2 -10 2 -28 0 -40z m80 0 c-2 -13 -4 -5 -4 17 -1 22 1 32 4 23 2
-10 2 -28 0 -40z m73 43 c0 -5 -8 -8 -17 -7 -12 1 -18 -6 -18 -19 0 -13 6 -20
18 -19 9 1 17 -3 17 -8 0 -5 -10 -8 -22 -6 -39 5 -37 68 2 68 11 0 20 -4 20
-9z m68 -29 c3 -31 2 -33 -24 -30 -34 4 -44 27 -15 35 12 3 21 10 21 15 0 6
-7 8 -15 4 -8 -3 -15 -1 -15 5 0 6 10 9 23 7 17 -2 23 -11 25 -36z m79 -14
c-2 -13 -4 -5 -4 17 -1 22 1 32 4 23 2 -10 2 -28 0 -40z m78 17 c0 -35 -31
-47 -51 -20 -18 25 0 57 29 53 17 -2 22 -10 22 -33z m82 -5 c1 -34 1 -34 -5
-5 -4 17 -14 30 -22 30 -8 0 -18 -13 -21 -30 -6 -29 -7 -28 -8 8 -1 36 1 38
27 35 23 -3 27 -8 29 -38z m51 33 c-22 -6 -23 -19 -3 -27 24 -9 18 -36 -7 -35
-17 1 -19 2 -5 6 21 6 22 19 2 27 -24 9 -18 36 8 35 16 -1 18 -2 5 -6z m-741
-500 c-2 -16 -4 -3 -4 27 0 30 2 43 4 28 2 -16 2 -40 0 -55z m3196 70 c-13 -2
-35 -2 -50 0 -16 2 -5 4 22 4 28 0 40 -2 28 -4z m-3064 -31 c-14 -5 -11 -50 4
-55 7 -4 6 -6 -4 -6 -12 -1 -18 9 -21 33 -5 46 0 59 17 43 7 -7 9 -13 4 -15z
m320 0 c-14 -5 -11 -50 4 -55 7 -4 6 -6 -4 -6 -12 -1 -18 9 -21 33 -5 46 0 59
17 43 7 -7 9 -13 4 -15z m2658 -49 c-2 -16 -4 -5 -4 22 0 28 2 40 4 28 2 -13
2 -35 0 -50z m120 0 c-2 -16 -4 -5 -4 22 0 28 2 40 4 28 2 -13 2 -35 0 -50z
m-3149 20 c-1 -37 -1 -37 -5 -5 -6 42 -33 44 -33 2 0 -16 -4 -30 -10 -30 -5 0
-10 16 -10 35 0 32 2 35 30 35 28 0 30 -2 28 -37z m122 33 c0 -2 3 -11 6 -19
4 -11 -2 -17 -23 -19 l-28 -4 25 -12 25 -12 -25 3 c-40 4 -41 67 0 67 11 0 20
-2 20 -4z m90 -27 c0 -46 -16 -69 -48 -68 -15 0 -20 3 -12 6 43 14 45 16 20
22 -47 13 -39 71 10 71 27 0 30 -3 30 -31z m43 23 c-6 -4 -13 -21 -16 -37 -4
-27 -4 -27 -6 8 -1 29 3 37 17 37 11 0 13 -3 5 -8z m71 -8 c14 -37 7 -54 -24
-54 -35 0 -43 29 -10 37 25 7 26 20 3 26 -14 4 -13 5 3 6 12 0 25 -6 28 -15z
m86 -19 c0 -19 -4 -35 -10 -35 -5 0 -10 16 -10 35 0 19 5 35 10 35 6 0 10 -16
10 -35z m75 0 c0 -25 -4 -30 -24 -30 -32 0 -49 28 -31 50 7 9 23 15 34 13 16
-2 21 -10 21 -33z m82 -5 c1 -34 1 -34 -5 -5 -4 17 -14 30 -22 30 -8 0 -18
-13 -21 -30 -6 -29 -7 -28 -8 8 -1 36 1 38 27 35 23 -3 27 -8 29 -38z m51 33
c-22 -6 -23 -12 -1 -28 9 -7 13 -17 9 -23 -9 -14 -33 -16 -40 -3 -4 5 3 7 14
4 23 -6 27 12 5 21 -24 9 -18 36 8 35 16 -1 18 -2 5 -6z m2735 0 c-29 -6 -29
-20 -1 -42 26 -22 18 -51 -14 -50 l-23 0 23 9 c27 12 28 17 0 39 -27 22 -18
52 14 50 l23 -2 -22 -4z m124 -70 c-2 -16 -4 -3 -4 27 0 30 2 43 4 28 2 -16 2
-40 0 -55z m340 0 c-2 -16 -4 -3 -4 27 0 30 2 43 4 28 2 -16 2 -40 0 -55z m30
0 c-2 -16 -4 -3 -4 27 0 30 2 43 4 28 2 -16 2 -40 0 -55z m7361 70 c-14 -3
-18 -16 -20 -51 l-1 -47 -4 45 c-3 24 -10 48 -16 52 -7 4 4 7 23 7 19 -1 27
-3 18 -6z m-7536 -31 c-15 -5 -16 -48 -2 -55 6 -3 5 -4 -2 -3 -12 2 -30 61
-21 70 3 3 12 2 21 -2 10 -4 12 -7 4 -10z m-234 -4 c18 -18 14 -26 -15 -30
l-28 -4 25 -11 c26 -12 14 -18 -14 -7 -25 10 -13 64 14 64 3 0 11 -5 18 -12z
m120 -10 c2 -12 -5 -18 -25 -20 l-28 -4 25 -12 c17 -8 19 -11 6 -9 -28 3 -43
32 -26 52 16 19 44 16 48 -7z m50 11 c-10 -5 -18 -16 -18 -24 0 -8 8 -19 18
-24 19 -12 12 -14 -12 -5 -19 7 -21 50 -3 57 22 9 32 7 15 -4z m176 -5 c10
-25 7 -56 -4 -49 -6 4 -8 11 -5 16 4 5 -2 9 -12 10 -16 0 -16 1 2 8 19 8 19 8
0 19 -17 9 -17 11 -4 12 9 0 20 -7 23 -16z m7561 6 c3 -6 -1 -7 -9 -4 -18 7
-21 14 -7 14 6 0 13 -4 16 -10z m75 6 c0 -2 -9 -6 -20 -9 -11 -3 -18 -1 -14 4
5 9 34 13 34 5z m10 -26 c0 -5 -15 -9 -32 -9 l-33 1 30 8 c17 4 31 8 33 9 1 0
2 -3 2 -9z m107 -7 c-16 -16 -18 -16 -34 0 -16 16 -15 17 17 17 32 0 33 -1 17
-17z m-7782 -32 c-6 -5 -25 10 -25 20 0 5 6 4 14 -3 8 -7 12 -15 11 -17z
m7499 4 c-4 -8 -8 -15 -10 -15 -2 0 -4 7 -4 15 0 8 4 15 10 15 5 0 7 -7 4 -15z
m89 3 c-2 -5 -10 -8 -18 -8 -8 0 -16 3 -18 8 -3 4 5 7 18 7 13 0 21 -3 18 -7z
m68 -6 c-7 -2 -18 1 -23 6 -8 8 -4 9 13 5 13 -4 18 -8 10 -11z m-8298 1 c-13
-2 -35 -2 -50 0 -16 2 -5 4 22 4 28 0 40 -2 28 -4z m-3139 -349 c9 -8 16 -23
16 -31 0 -25 -30 -53 -57 -53 -21 0 -23 4 -23 50 0 46 2 50 24 50 14 0 32 -7
40 -16z m193 -61 c-2 -16 -4 -3 -4 27 0 30 2 43 4 28 2 -16 2 -40 0 -55z m233
27 c5 0 12 5 15 10 3 6 11 10 18 10 6 0 2 -6 -8 -14 -19 -14 -19 -15 -1 -35
20 -22 9 -30 -12 -9 -10 10 -15 10 -22 -2 -7 -10 -9 2 -8 40 0 30 3 43 5 28 2
-16 8 -28 13 -28z m-342 -2 c3 -14 -3 -18 -24 -18 -30 0 -23 -14 11 -23 12 -3
8 -5 -10 -4 -31 2 -43 23 -31 53 8 21 50 14 54 -8z m77 -13 c0 -23 -5 -31 -22
-33 -12 -2 -24 -11 -26 -20 -3 -9 -5 6 -6 34 -1 49 0 51 27 50 23 -1 27 -5 27
-31z m120 15 c8 -27 -12 -52 -39 -48 -21 3 -32 28 -22 54 8 22 54 18 61 -6z
m45 -20 c4 0 10 10 13 22 4 12 9 19 12 16 10 -9 -32 -98 -46 -98 -8 0 -8 4 1
15 9 11 9 22 1 46 -14 40 -13 51 1 22 6 -13 14 -23 18 -23z m200 36 c0 -2 3
-11 6 -19 4 -11 -2 -17 -23 -19 l-28 -4 25 -12 25 -12 -25 3 c-40 4 -41 67 0
67 11 0 20 -2 20 -4z m59 -22 c7 16 14 27 17 24 8 -9 -35 -98 -47 -98 -8 0 -8
4 1 15 10 12 10 21 1 41 -6 14 -11 30 -10 37 0 7 7 -1 14 -18 l13 -30 11 29z
m57 19 c-19 -5 -18 -6 4 -23 13 -9 20 -22 16 -29 -9 -13 -46 -15 -46 -1 0 5 7
7 15 4 20 -8 19 6 -2 21 -19 14 -9 36 15 34 14 -1 13 -2 -2 -6z m-652 -466
c18 -48 21 -71 5 -44 -13 22 -45 22 -53 1 -4 -9 -9 -15 -11 -12 -7 7 25 98 35
98 4 0 15 -19 24 -43z m117 26 c0 -5 1 -25 2 -46 2 -41 -15 -45 -23 -6 -6 27
-44 39 -53 16 -8 -22 9 -41 29 -33 15 6 16 4 7 -5 -14 -14 -41 -5 -49 16 -9
21 14 45 42 45 13 0 24 5 24 10 0 11 20 14 21 3z m36 -65 c-2 -13 -4 -5 -4 17
-1 22 1 32 4 23 2 -10 2 -28 0 -40z m88 32 c8 -27 -12 -52 -39 -48 -21 3 -32
28 -22 54 8 22 54 18 61 -6z m73 -17 c-1 -37 -1 -37 -5 -5 -6 42 -33 44 -33 2
0 -16 -4 -30 -10 -30 -5 0 -10 16 -10 35 0 32 2 35 30 35 28 0 30 -2 28 -37z
m48 30 c-19 -5 -18 -6 4 -23 13 -9 20 -22 16 -29 -9 -13 -46 -15 -46 -1 0 5 7
7 15 4 20 -8 19 6 -2 21 -19 14 -9 36 15 34 14 -1 13 -2 -2 -6z m3207 -257
c103 -43 128 -177 48 -257 -65 -65 -157 -65 -222 0 -124 123 13 325 174 257z
m274 -83 c-2 -16 -4 -3 -4 27 0 30 2 43 4 28 2 -16 2 -40 0 -55z m868 42 c16
0 20 -7 20 -30 0 -26 -4 -30 -27 -31 -27 -1 -28 1 -27 50 1 31 4 43 7 31 4
-11 16 -20 27 -20z m-452 -24 c1 -23 -1 -41 -5 -41 -5 0 -8 14 -8 30 0 17 -5
30 -10 30 -6 0 -5 6 2 14 17 19 20 15 21 -33z m-335 7 c2 -12 -5 -18 -25 -20
l-28 -4 25 -12 c17 -8 19 -11 6 -9 -28 3 -43 32 -26 52 16 19 44 16 48 -7z
m74 9 c11 -17 10 -57 -2 -57 -5 0 -10 14 -10 31 0 39 -22 34 -31 -7 -7 -28 -7
-28 -8 6 -1 30 3 36 21 37 12 1 26 -3 30 -10z m40 -27 c-6 -41 -12 -38 -12 6
0 19 4 33 8 30 5 -3 7 -19 4 -36z m45 -1 c1 -24 0 -26 -4 -9 -3 14 -10 31 -16
39 -10 11 -9 13 3 9 9 -3 16 -18 17 -39z m70 1 c1 -19 -1 -27 -3 -17 -3 9 -12
17 -20 17 -17 0 -19 -16 -1 -23 7 -3 5 -6 -5 -6 -25 -1 -23 30 2 36 25 7 26
20 3 27 -14 4 -14 4 2 3 15 -2 20 -10 22 -37z m40 -12 c-2 -13 -4 -5 -4 17 -1
22 1 32 4 23 2 -10 2 -28 0 -40z m180 39 c-9 -7 -18 -23 -20 -37 -3 -19 -5
-17 -6 10 -1 30 3 36 20 37 19 2 19 0 6 -10z m78 -22 c0 -25 -4 -30 -25 -30
-16 0 -26 6 -28 18 -6 30 6 49 30 45 18 -2 23 -9 23 -33z m53 28 c-22 -6 -24
-23 -2 -23 23 0 13 -34 -11 -37 -16 -1 -16 -1 -2 3 21 7 22 13 0 29 -19 14 -9
36 15 34 15 -1 15 -2 0 -6z m62 -3 c-13 -8 -12 -11 4 -23 23 -17 13 -37 -17
-36 -17 1 -18 2 -4 6 21 6 22 12 0 28 -19 14 -10 35 15 35 15 0 15 -2 2 -10z
m88 -12 c2 -12 -5 -18 -25 -20 l-28 -4 25 -12 c17 -8 19 -11 6 -9 -28 3 -43
32 -26 52 16 19 44 16 48 -7z m132 -33 c8 0 18 13 21 30 7 30 7 30 8 -6 1 -33
-1 -36 -26 -35 -25 1 -28 5 -30 36 -1 34 -1 34 5 5 4 -17 14 -30 22 -30z m67
3 c-2 -13 -4 -5 -4 17 -1 22 1 32 4 23 2 -10 2 -28 0 -40z m59 36 c-21 -20
-20 -30 2 -44 10 -7 11 -10 3 -7 -25 6 -36 33 -22 51 8 9 18 16 23 16 5 0 2
-7 -6 -16z m44 -15 c0 -42 -17 -69 -43 -68 l-22 0 23 9 c18 8 22 17 22 50 0
22 5 40 10 40 6 0 10 -14 10 -31z m-1807 -16 c-13 -2 -35 -2 -50 0 -16 2 -5 4
22 4 28 0 40 -2 28 -4z m8554 -7 c4 -7 15 -16 23 -19 8 -3 -11 -6 -42 -6 -57
-1 -58 -1 -41 19 20 23 48 26 60 6z m-3097 -16 c0 -16 -7 -20 -30 -20 -18 0
-30 5 -30 13 0 20 10 27 37 27 16 0 23 -6 23 -20z m-5543 -57 c-2 -16 -4 -5
-4 22 0 28 2 40 4 28 2 -13 2 -35 0 -50z m120 0 c-2 -16 -4 -5 -4 22 0 28 2
40 4 28 2 -13 2 -35 0 -50z m4560 51 c-3 -3 -12 -4 -19 -1 -8 3 -5 6 6 6 11 1
17 -2 13 -5z m833 -104 l49 0 4 55 4 55 -1 -57 -1 -58 -55 0 -55 0 -1 58 -1
57 4 -55 4 -55 49 0z m-4252 93 c-10 -2 -26 -2 -35 0 -10 3 -2 5 17 5 19 0 27
-2 18 -5z m3519 -60 c-3 -10 -5 -2 -5 17 0 19 2 27 5 18 2 -10 2 -26 0 -35z
m267 38 c4 -5 -3 -7 -14 -4 -23 6 -26 13 -6 13 8 0 17 -4 20 -9z m103 -38 c-3
-10 -5 -2 -5 17 0 19 2 27 5 18 2 -10 2 -26 0 -35z m170 41 c-3 -3 -12 -4 -19
-1 -8 3 -5 6 6 6 11 1 17 -2 13 -5z m60 -11 c2 -6 -8 -13 -22 -15 -14 -3 -25
-1 -25 3 0 5 10 9 23 9 18 0 19 2 7 11 -12 9 -12 10 -1 7 8 -3 16 -9 18 -15z
m-692 -3 c-3 -5 -14 -10 -23 -9 -14 0 -13 2 3 9 27 11 27 11 20 0z m58 -7 c-7
-2 -19 -2 -25 0 -7 3 -2 5 12 5 14 0 19 -2 13 -5z m74 -25 c-3 -7 -5 -2 -5 12
0 14 2 19 5 13 2 -7 2 -19 0 -25z m370 0 c-3 -7 -5 -2 -5 12 0 14 2 19 5 13 2
-7 2 -19 0 -25z m-8274 15 c-13 -2 -23 -11 -23 -19 0 -8 10 -15 23 -15 l22 -2
-22 -4 c-14 -3 -23 -12 -23 -23 0 -11 9 -20 23 -23 19 -4 18 -4 -5 -6 -27 -1
-28 1 -28 49 0 48 1 50 28 49 23 -2 24 -2 5 -6z m718 -10 c5 -50 2 -82 -6 -80
-11 4 -23 56 -17 75 4 13 22 17 23 5z m7414 -3 c-3 -5 -14 -10 -23 -9 -14 0
-13 2 3 9 27 11 27 11 20 0z m3565 -30 c21 0 30 6 33 20 4 17 4 16 3 -2 -1
-19 -7 -23 -36 -23 -28 0 -35 4 -36 20 -1 15 0 16 3 3 3 -12 14 -18 33 -18z
m-3863 24 c-3 -3 -12 -4 -19 -1 -8 3 -5 6 6 6 11 1 17 -2 13 -5z m120 0 c-3
-3 -12 -4 -19 -1 -8 3 -5 6 6 6 11 1 17 -2 13 -5z m506 -1 c-7 -2 -19 -2 -25
0 -7 3 -2 5 12 5 14 0 19 -2 13 -5z m-8369 -19 c9 -24 7 -54 -4 -54 -5 0 -10
14 -10 31 0 39 -22 34 -31 -7 -6 -27 -7 -27 -8 9 -1 33 2 37 23 37 13 0 27 -7
30 -16z m55 -10 c7 16 14 27 16 24 6 -6 -17 -68 -26 -68 -8 0 -29 47 -28 63 0
7 7 -1 14 -18 l13 -30 11 29z m51 -9 c0 -19 -4 -35 -10 -35 -5 0 -10 16 -10
35 0 19 5 35 10 35 6 0 10 -16 10 -35z m43 27 c-6 -4 -13 -21 -16 -37 -4 -27
-4 -27 -6 8 -1 29 3 37 17 37 11 0 13 -3 5 -8z m82 -27 c0 -25 -4 -30 -24 -30
-32 0 -49 28 -31 50 7 9 23 15 34 13 16 -2 21 -10 21 -33z m82 -5 c1 -34 1
-34 -5 -5 -4 17 -14 30 -22 30 -8 0 -18 -13 -21 -30 -6 -29 -7 -28 -8 8 -1 36
1 38 27 35 23 -3 27 -8 29 -38z m111 1 l-1 -36 -4 33 c-5 40 -26 38 -34 -4
l-6 -29 -4 28 c-5 38 -22 39 -30 2 -7 -29 -7 -29 -8 7 l-1 36 45 0 45 -1 -2
-36z m82 35 c0 -2 3 -11 6 -20 5 -12 0 -16 -20 -16 -32 0 -35 -20 -3 -21 19
-1 20 -2 3 -6 -27 -7 -49 23 -35 48 8 16 49 28 49 15z m77 -36 c1 -34 1 -34
-5 -5 -4 17 -14 30 -22 30 -8 0 -18 -13 -21 -30 -6 -29 -7 -28 -8 8 -1 36 1
38 27 35 23 -3 27 -8 29 -38z m101 33 c-22 -6 -23 -12 -1 -28 9 -7 13 -17 9
-23 -9 -14 -33 -16 -40 -3 -4 5 3 7 14 4 23 -6 27 12 5 21 -24 9 -18 36 8 35
16 -1 18 -2 5 -6z m2395 0 c-13 -2 -35 -2 -50 0 -16 2 -5 4 22 4 28 0 40 -2
28 -4z m1215 -10 c-10 -2 -26 -2 -35 0 -10 3 -2 5 17 5 19 0 27 -2 18 -5z
m269 1 c-3 -3 -12 -4 -19 -1 -8 3 -5 6 6 6 11 1 17 -2 13 -5z m3478 -4 c-3 -5
-14 -10 -23 -9 -14 0 -13 2 3 9 27 11 27 11 20 0z m-3095 -25 c0 -1 -8 -5 -18
-7 -11 -3 -19 0 -19 7 0 7 8 10 19 7 10 -2 18 -6 18 -7z m-982 -12 c2 -7 -4
-13 -15 -13 -14 0 -15 2 -4 9 11 7 10 10 -5 14 -18 6 -18 6 0 4 11 -1 21 -8
24 -14z m29 -30 c-3 -10 -5 -2 -5 17 0 19 2 27 5 18 2 -10 2 -26 0 -35z m70 0
c-3 -10 -5 -2 -5 17 0 19 2 27 5 18 2 -10 2 -26 0 -35z m30 0 c-3 -10 -5 -2
-5 17 0 19 2 27 5 18 2 -10 2 -26 0 -35z m256 40 c3 -5 -5 -8 -18 -8 -13 0
-21 3 -18 8 2 4 10 7 18 7 8 0 16 -3 18 -7z m34 -40 c-3 -10 -5 -2 -5 17 0 19
2 27 5 18 2 -10 2 -26 0 -35z m305 38 c-10 -6 -10 -10 2 -21 19 -15 12 -30
-12 -29 -15 0 -15 1 1 8 17 6 17 8 3 20 -17 14 -13 31 7 31 8 0 8 -3 -1 -9z
m50 0 c-10 -6 -10 -10 2 -21 19 -15 12 -30 -12 -29 -15 0 -15 1 1 8 17 6 17 8
3 20 -17 14 -13 31 7 31 8 0 8 -3 -1 -9z m425 3 c-3 -3 -12 -4 -19 -1 -8 3 -5
6 6 6 11 1 17 -2 13 -5z m80 -61 c-2 -16 -4 -5 -4 22 0 28 2 40 4 28 2 -13 2
-35 0 -50z m38 57 c3 -6 -1 -7 -9 -4 -18 7 -21 14 -7 14 6 0 13 -4 16 -10z
m68 3 c3 -5 -5 -8 -18 -8 -13 0 -21 3 -18 8 2 4 10 7 18 7 8 0 16 -3 18 -7z
m34 -40 c-3 -10 -5 -2 -5 17 0 19 2 27 5 18 2 -10 2 -26 0 -35z m40 11 c1 -25
0 -26 -4 -4 -3 14 -10 29 -17 33 -7 6 -6 7 4 4 8 -2 16 -16 17 -33z m98 27
c-19 -8 -18 -9 5 -13 25 -5 25 -5 -2 -7 -27 -1 -35 8 -21 22 3 4 13 7 22 6 12
0 10 -3 -4 -8z m-958 -7 c-3 -3 -12 -4 -19 -1 -8 3 -5 6 6 6 11 1 17 -2 13 -5z
m288 -3 c-3 -5 5 -12 17 -14 20 -4 19 -4 -4 -6 -27 -1 -35 8 -21 22 9 10 15 8
8 -2z m-1035 -13 c0 -5 -11 -8 -25 -8 -14 0 -25 3 -25 8 0 4 11 7 25 7 14 0
25 -3 25 -7z m317 -20 c-3 -7 -5 -2 -5 12 0 14 2 19 5 13 2 -7 2 -19 0 -25z
m1026 25 c-7 -2 -19 -2 -25 0 -7 3 -2 5 12 5 14 0 19 -2 13 -5z m-1198 -23
c-3 -5 -14 -10 -23 -9 -14 0 -13 2 3 9 27 11 27 11 20 0z m388 -2 c-2 -5 -10
-8 -18 -8 -8 0 -16 3 -18 8 -3 4 5 7 18 7 13 0 21 -3 18 -7z m582 -6 c-3 -3
-11 0 -18 7 -9 10 -8 11 6 5 10 -3 15 -9 12 -12z m226 0 c-7 -2 -18 1 -23 6
-8 8 -4 9 13 5 13 -4 18 -8 10 -11z m124 8 c-3 -5 -12 -10 -18 -10 -7 0 -6 4
3 10 19 12 23 12 15 0z m68 -2 c-2 -5 -10 -8 -18 -8 -8 0 -16 3 -18 8 -3 4 5
7 18 7 13 0 21 -3 18 -7z m178 -6 c-7 -2 -18 1 -23 6 -8 8 -4 9 13 5 13 -4 18
-8 10 -11z m-1344 2 c-3 -3 -12 -4 -19 -1 -8 3 -5 6 6 6 11 1 17 -2 13 -5z
m310 0 c-3 -3 -12 -4 -19 -1 -8 3 -5 6 6 6 11 1 17 -2 13 -5z m140 0 c-3 -3
-12 -4 -19 -1 -8 3 -5 6 6 6 11 1 17 -2 13 -5z m170 0 c-3 -3 -12 -4 -19 -1
-8 3 -5 6 6 6 11 1 17 -2 13 -5z m220 0 c-3 -3 -12 -4 -19 -1 -8 3 -5 6 6 6
11 1 17 -2 13 -5z m190 0 c-3 -3 -12 -4 -19 -1 -8 3 -5 6 6 6 11 1 17 -2 13
-5z m260 0 c-3 -3 -12 -4 -19 -1 -8 3 -5 6 6 6 11 1 17 -2 13 -5z m-1282 -24
c-3 -5 -14 -10 -23 -9 -14 0 -13 2 3 9 27 11 27 11 20 0z m-4265 -319 c0 -5
-9 -7 -20 -4 -27 7 -26 -14 2 -36 27 -23 18 -51 -17 -51 -14 0 -25 4 -25 9 0
4 11 6 25 3 17 -3 25 0 25 10 0 8 -11 20 -25 26 -27 12 -33 37 -12 45 21 9 47
8 47 -2z m301 -8 c5 -50 2 -82 -6 -80 -11 4 -23 56 -17 75 4 13 22 17 23 5z
m-231 -17 c0 -2 3 -11 6 -19 4 -11 -2 -17 -23 -19 l-28 -4 25 -12 25 -12 -25
3 c-40 4 -41 67 0 67 11 0 20 -2 20 -4z m53 -6 c-13 -5 -23 -16 -23 -25 0 -9
10 -20 23 -25 22 -10 22 -10 -3 -7 -43 4 -34 68 9 66 11 0 9 -3 -6 -9z m65 -2
c-9 -7 -19 -24 -21 -38 -3 -18 -5 -14 -6 13 -1 32 2 37 21 37 19 0 20 -1 6
-12z m70 -11 c3 -13 -3 -17 -24 -17 -30 0 -23 -15 11 -23 15 -4 14 -5 -7 -6
-31 -1 -47 31 -27 55 16 19 43 14 47 -9z m100 16 c-22 -6 -23 -12 -1 -28 9 -7
13 -17 9 -23 -9 -14 -33 -16 -40 -3 -4 5 3 7 14 4 23 -6 27 12 5 21 -24 9 -18
36 8 35 16 -1 18 -2 5 -6z m-353 -448 c0 -11 -10 -24 -22 -30 -12 -5 -24 -19
-26 -30 -2 -11 -5 4 -6 33 -1 53 -1 53 27 50 19 -2 27 -9 27 -23z m63 -43 c3
-31 1 -33 -23 -30 -32 4 -35 19 -5 34 13 7 18 14 11 18 -6 4 -15 4 -21 1 -5
-3 -10 -1 -10 5 0 6 10 10 23 8 17 -2 23 -11 25 -36z m80 -9 c-3 -45 -5 -48
-33 -50 -16 -1 -23 0 -15 3 8 3 22 8 30 11 11 4 8 8 -10 12 -44 12 -39 71 5
71 25 0 26 -2 23 -47z m80 25 c3 -14 -3 -18 -24 -18 -30 0 -23 -14 11 -23 12
-3 8 -5 -10 -4 -31 2 -43 23 -31 53 8 21 50 14 54 -8z m50 15 c-22 -6 -23 -12
-1 -28 9 -7 13 -17 9 -23 -8 -14 -46 -16 -46 -3 0 5 10 7 23 4 l22 -5 -24 20
c-27 22 -21 43 12 41 17 -1 18 -2 5 -6z m-297 -461 l16 -37 18 38 c10 20 22
37 27 37 4 0 7 -24 7 -52 -2 -51 -2 -52 -8 -14 l-6 39 -19 -39 -19 -39 -18 40
-18 39 -4 -39 c-3 -36 -4 -34 -5 13 -1 28 1 52 6 52 4 0 14 -17 23 -38z m239
-13 l0 -50 -32 3 c-29 3 -33 6 -33 33 0 23 5 31 23 33 12 2 22 10 22 18 0 8 5
14 10 14 6 0 10 -23 10 -51z m231 34 c5 -50 2 -82 -6 -80 -11 4 -23 56 -17 75
4 13 22 17 23 5z m424 -13 c7 0 15 6 18 13 8 22 19 -1 20 -42 2 -45 -16 -51
-21 -8 -4 34 -32 36 -32 3 0 -13 6 -27 13 -29 7 -4 6 -6 -4 -6 -12 -1 -18 9
-21 33 -4 37 2 70 10 49 2 -7 10 -13 17 -13z m-746 -19 c13 -24 -8 -55 -35
-49 -20 3 -30 29 -20 54 8 20 43 17 55 -5z m159 -4 c3 -13 -3 -17 -24 -17 -30
0 -23 -15 11 -23 15 -4 14 -5 -7 -6 -31 -1 -47 31 -27 55 16 19 43 14 47 -9z
m50 11 c-9 -7 -19 -24 -21 -38 -3 -18 -5 -14 -6 13 -1 32 2 37 21 37 19 0 20
-1 6 -12z m70 -26 c3 -31 1 -33 -23 -30 -32 4 -35 19 -5 34 13 7 18 14 11 18
-6 4 -15 4 -21 1 -5 -3 -10 -1 -10 5 0 6 10 10 23 8 17 -2 23 -11 25 -36z m79
-14 c-2 -13 -4 -5 -4 17 -1 22 1 32 4 23 2 -10 2 -28 0 -40z m82 33 c13 -24
-8 -55 -35 -49 -20 3 -30 29 -20 54 8 20 43 17 55 -5z m79 -18 c-1 -37 -1 -37
-5 -5 -6 42 -33 44 -33 2 0 -16 -4 -30 -10 -30 -5 0 -10 16 -10 35 0 32 2 35
30 35 28 0 30 -2 28 -37z m90 30 c-22 -6 -23 -19 -3 -27 24 -9 18 -36 -7 -35
-17 1 -19 2 -5 6 21 6 22 19 2 27 -24 9 -18 36 8 35 16 -1 18 -2 5 -6z m82 3
c0 -2 3 -11 6 -20 5 -12 0 -16 -20 -16 -32 0 -35 -20 -3 -21 19 -1 20 -2 3 -6
-27 -7 -49 23 -35 48 8 16 49 28 49 15z m127 -48 c-2 -13 -4 -5 -4 17 -1 22 1
32 4 23 2 -10 2 -28 0 -40z m80 12 c1 -34 1 -34 -5 -5 -4 17 -14 30 -22 30 -8
0 -18 -13 -21 -30 -6 -29 -7 -28 -8 8 -1 36 1 38 27 35 23 -3 27 -8 29 -38z
m81 -7 c-3 -45 -5 -48 -33 -50 -16 -1 -23 0 -15 3 8 3 22 8 30 11 11 4 8 8
-10 12 -44 12 -39 71 5 71 25 0 26 -2 23 -47z m48 40 c-19 -5 -18 -6 4 -23 13
-9 20 -22 16 -29 -9 -13 -46 -15 -46 -1 0 5 7 7 15 4 20 -8 19 6 -2 21 -19 14
-9 36 15 34 14 -1 13 -2 -2 -6z m14324 -836 c0 -2 -8 -11 -18 -21 -18 -15 -20
-15 -37 4 -18 20 -18 20 18 20 21 0 37 -2 37 -3z"/>
<path d="M17660 9084 c0 -14 -5 -34 -10 -45 -10 -18 -7 -19 40 -19 47 0 50 1
40 19 -5 11 -10 31 -10 45 0 22 -4 26 -30 26 -26 0 -30 -4 -30 -26z"/>
<path d="M3690 9074 c0 -9 5 -14 12 -12 18 6 21 28 4 28 -9 0 -16 -7 -16 -16z"/>
<path d="M5481 9056 c-9 -10 -8 -16 4 -26 13 -11 15 -8 15 14 0 30 -3 32 -19
12z"/>
<path d="M5525 9060 c-3 -5 1 -10 10 -10 9 0 13 5 10 10 -3 6 -8 10 -10 10 -2
0 -7 -4 -10 -10z"/>
<path d="M1010 9070 c0 -5 7 -10 15 -10 8 0 15 5 15 10 0 6 -7 10 -15 10 -8 0
-15 -4 -15 -10z"/>
<path d="M1080 9040 c0 -5 4 -10 9 -10 6 0 13 5 16 10 3 6 -1 10 -9 10 -9 0
-16 -4 -16 -10z"/>
<path d="M1384 9065 c-7 -18 3 -35 22 -35 8 0 14 10 14 25 0 27 -27 35 -36 10z"/>
<path d="M1797 9074 c-15 -15 -7 -45 11 -42 9 2 17 12 17 22 0 20 -16 31 -28
20z"/>
<path d="M1954 9065 c-7 -18 3 -35 22 -35 8 0 14 10 14 25 0 27 -27 35 -36 10z"/>
<path d="M4015 9060 c-3 -5 1 -10 10 -10 9 0 13 5 10 10 -3 6 -8 10 -10 10 -2
0 -7 -4 -10 -10z"/>
<path d="M4090 9044 c0 -9 5 -14 12 -12 18 6 21 28 4 28 -9 0 -16 -7 -16 -16z"/>
<path d="M4255 9060 c-3 -5 1 -10 10 -10 9 0 13 5 10 10 -3 6 -8 10 -10 10 -2
0 -7 -4 -10 -10z"/>
<path d="M4905 9060 c-3 -5 1 -10 10 -10 9 0 13 5 10 10 -3 6 -8 10 -10 10 -2
0 -7 -4 -10 -10z"/>
<path d="M5652 9044 c4 -21 22 -23 26 -1 2 10 -3 17 -13 17 -10 0 -15 -6 -13
-16z"/>
<path d="M6292 9044 c4 -21 22 -23 26 -1 2 10 -3 17 -13 17 -10 0 -15 -6 -13
-16z"/>
<path d="M6407 9054 c-9 -10 2 -24 19 -24 8 0 14 7 14 15 0 15 -21 21 -33 9z"/>
<path d="M6545 9060 c-3 -5 1 -10 10 -10 9 0 13 5 10 10 -3 6 -8 10 -10 10 -2
0 -7 -4 -10 -10z"/>
<path d="M570 8469 c0 -24 23 -21 28 4 2 10 -3 17 -12 17 -10 0 -16 -9 -16
-21z"/>
<path d="M1004 8439 c-10 -17 13 -36 27 -22 12 12 4 33 -11 33 -5 0 -12 -5
-16 -11z"/>
<path d="M1364 8445 c-7 -18 3 -35 21 -35 15 0 24 19 18 38 -6 17 -32 15 -39
-3z"/>
<path d="M1780 8435 c0 -20 4 -26 18 -23 9 2 17 12 17 23 0 11 -8 21 -17 23
-14 3 -18 -3 -18 -23z"/>
<path d="M1863 8444 c-8 -21 13 -42 28 -27 13 13 5 43 -11 43 -6 0 -13 -7 -17
-16z"/>
<path d="M2020 8435 c0 -20 4 -26 18 -23 9 2 17 12 17 23 0 11 -8 21 -17 23
-14 3 -18 -3 -18 -23z"/>
<path d="M2717 8454 c-15 -15 -7 -45 11 -42 9 2 17 12 17 22 0 20 -16 31 -28
20z"/>
<path d="M304 8445 c-7 -18 3 -35 22 -35 8 0 14 10 14 25 0 27 -27 35 -36 10z"/>
<path d="M484 8445 c-7 -18 3 -35 22 -35 8 0 14 10 14 25 0 27 -27 35 -36 10z"/>
<path d="M644 8445 c-7 -18 3 -35 22 -35 8 0 14 10 14 25 0 27 -27 35 -36 10z"/>
<path d="M844 8445 c-4 -9 -2 -21 4 -27 15 -15 44 -1 40 19 -4 23 -36 29 -44
8z"/>
<path d="M1190 8420 c0 -5 7 -10 15 -10 8 0 15 5 15 10 0 6 -7 10 -15 10 -8 0
-15 -4 -15 -10z"/>
<path d="M1445 8450 c-3 -5 3 -10 14 -10 12 0 21 5 21 10 0 6 -6 10 -14 10 -8
0 -18 -4 -21 -10z"/>
<path d="M1520 8450 c0 -5 9 -10 21 -10 11 0 17 5 14 10 -3 6 -13 10 -21 10
-8 0 -14 -4 -14 -10z"/>
<path d="M1710 8420 c0 -5 7 -10 15 -10 8 0 15 5 15 10 0 6 -7 10 -15 10 -8 0
-15 -4 -15 -10z"/>
<path d="M1945 8450 c-3 -5 3 -10 14 -10 12 0 21 5 21 10 0 6 -6 10 -14 10 -8
0 -18 -4 -21 -10z"/>
<path d="M2140 8420 c0 -5 7 -10 15 -10 8 0 15 5 15 10 0 6 -7 10 -15 10 -8 0
-15 -4 -15 -10z"/>
<path d="M2310 8420 c0 -5 7 -10 15 -10 8 0 15 5 15 10 0 6 -7 10 -15 10 -8 0
-15 -4 -15 -10z"/>
<path d="M2484 8445 c-7 -18 3 -35 22 -35 8 0 14 10 14 25 0 27 -27 35 -36 10z"/>
<path d="M2630 8420 c0 -5 7 -10 15 -10 8 0 15 5 15 10 0 6 -7 10 -15 10 -8 0
-15 -4 -15 -10z"/>
<path d="M2787 8447 c-3 -8 -2 -20 3 -27 11 -18 42 -4 38 17 -4 22 -34 29 -41
10z"/>
<path d="M2915 8420 c-3 -5 1 -10 9 -10 8 0 18 5 21 10 3 6 -1 10 -9 10 -8 0
-18 -4 -21 -10z"/>
<path d="M3034 8445 c-4 -9 -2 -21 4 -27 15 -15 44 -1 40 19 -4 23 -36 29 -44
8z"/>
<path d="M3204 8445 c-4 -9 -2 -21 4 -27 15 -15 44 -1 40 19 -4 23 -36 29 -44
8z"/>
<path d="M3535 8450 c-3 -5 3 -10 15 -10 12 0 18 5 15 10 -3 6 -10 10 -15 10
-5 0 -12 -4 -15 -10z"/>
<path d="M3695 8450 c-3 -5 3 -10 15 -10 12 0 18 5 15 10 -3 6 -10 10 -15 10
-5 0 -12 -4 -15 -10z"/>
<path d="M3777 8454 c-15 -15 -7 -45 11 -42 9 2 17 12 17 22 0 20 -16 31 -28
20z"/>
<path d="M3847 8447 c-3 -8 -2 -20 3 -27 11 -18 42 -4 38 17 -4 22 -34 29 -41
10z"/>
<path d="M4074 8445 c-7 -18 3 -35 22 -35 8 0 14 10 14 25 0 27 -27 35 -36 10z"/>
<path d="M337 7893 c-4 -3 -7 -21 -7 -40 0 -33 0 -33 50 -33 l50 0 0 40 0 40
-43 0 c-24 0 -47 -3 -50 -7z"/>
<path d="M16756 7855 c-3 -8 -13 -15 -23 -15 -13 0 -14 -3 -5 -12 7 -7 12 -19
12 -28 0 -12 9 -17 30 -17 21 0 30 5 30 17 0 9 5 21 12 28 9 9 8 12 -5 12 -10
0 -20 7 -23 15 -4 8 -10 15 -14 15 -4 0 -10 -7 -14 -15z"/>
<path d="M17410 7814 c0 -21 4 -33 10 -29 6 3 10 19 10 36 0 16 -4 29 -10 29
-5 0 -10 -16 -10 -36z"/>
<path d="M18515 7832 c-7 -23 4 -54 16 -46 12 7 12 51 0 59 -5 3 -12 -3 -16
-13z"/>
<path d="M932 7828 c-28 -28 -1 -75 38 -63 14 4 20 15 20 35 0 36 -33 53 -58
28z"/>
<path d="M1177 7833 c-15 -14 -6 -23 24 -23 27 0 30 2 19 15 -13 16 -32 19
-43 8z"/>
<path d="M1467 7834 c-14 -14 -6 -24 19 -24 16 0 24 5 22 13 -5 14 -31 21 -41
11z"/>
<path d="M1717 7833 c-15 -14 -6 -23 24 -23 27 0 30 2 19 15 -13 16 -32 19
-43 8z"/>
<path d="M1923 7833 c-24 -9 -13 -23 18 -23 27 0 30 2 19 15 -13 16 -17 17
-37 8z"/>
<path d="M2475 7820 c-4 -6 5 -10 19 -10 14 0 26 5 26 10 0 6 -9 10 -19 10
-11 0 -23 -4 -26 -10z"/>
<path d="M2913 7793 c-20 -8 -15 -23 7 -23 11 0 20 7 20 15 0 15 -6 17 -27 8z"/>
<path d="M3344 7815 c-9 -23 3 -45 25 -45 20 0 37 32 26 50 -9 15 -45 12 -51
-5z"/>
<path d="M17050 7789 c0 -5 5 -7 10 -4 6 3 10 8 10 11 0 2 -4 4 -10 4 -5 0
-10 -5 -10 -11z"/>
<path d="M15670 7789 c0 -5 5 -7 10 -4 6 3 10 8 10 11 0 2 -4 4 -10 4 -5 0
-10 -5 -10 -11z"/>
<path d="M8625 7320 c-3 -5 -14 -10 -23 -10 -14 0 -17 -9 -17 -40 0 -30 4 -40
15 -40 9 0 21 -5 28 -12 9 -9 15 -9 24 0 7 7 19 12 28 12 11 0 15 10 15 40 0
31 -3 40 -17 40 -9 0 -20 5 -23 10 -3 6 -10 10 -15 10 -5 0 -12 -4 -15 -10z
m40 -50 c0 -18 -6 -26 -23 -28 -24 -4 -38 18 -28 44 3 9 15 14 28 12 17 -2 23
-10 23 -28z"/>
<path d="M8630 7270 c0 -5 5 -10 10 -10 6 0 10 5 10 10 0 6 -4 10 -10 10 -5 0
-10 -4 -10 -10z"/>
<path d="M8885 7270 c-3 -5 1 -10 10 -10 9 0 13 5 10 10 -3 6 -8 10 -10 10 -2
0 -7 -4 -10 -10z"/>
<path d="M9184 7266 c-4 -10 -2 -22 4 -28 8 -8 13 -7 18 6 4 10 2 22 -4 28 -8
8 -13 7 -18 -6z"/>
<path d="M6934 6506 c-3 -8 -4 -25 -2 -38 2 -18 9 -23 33 -23 28 0 30 3 30 35
0 31 -3 35 -28 38 -17 2 -29 -2 -33 -12z"/>
<path d="M7277 6473 c-16 -15 -6 -34 15 -31 29 4 38 38 10 38 -10 0 -22 -3
-25 -7z"/>
<path d="M7567 6473 c-16 -15 -6 -34 15 -31 29 4 38 38 10 38 -10 0 -22 -3
-25 -7z"/>
<path d="M7910 6505 c-11 -13 -7 -15 23 -15 28 0 35 3 31 15 -4 8 -14 15 -24
15 -10 0 -23 -7 -30 -15z"/>
<path d="M3610 6481 c-15 -29 4 -63 33 -59 18 2 22 10 22 38 0 28 -4 36 -22
38 -14 2 -26 -4 -33 -17z"/>
<path d="M3714 6455 c-7 -18 3 -35 22 -35 8 0 14 10 14 25 0 27 -27 35 -36 10z"/>
<path d="M3877 6457 c-3 -8 -2 -20 3 -27 11 -18 42 -4 38 17 -4 22 -34 29 -41
10z"/>
<path d="M3730 5970 c0 -5 7 -10 15 -10 8 0 15 5 15 10 0 6 -7 10 -15 10 -8 0
-15 -4 -15 -10z"/>
<path d="M3880 5970 c0 -5 7 -10 15 -10 8 0 15 5 15 10 0 6 -7 10 -15 10 -8 0
-15 -4 -15 -10z"/>
<path d="M3958 5998 c-7 -19 2 -38 18 -38 8 0 14 10 14 25 0 26 -24 35 -32 13z"/>
<path d="M4040 6000 c0 -5 7 -10 15 -10 8 0 15 5 15 10 0 6 -7 10 -15 10 -8 0
-15 -4 -15 -10z"/>
<path d="M4150 5970 c0 -5 4 -10 9 -10 6 0 13 5 16 10 3 6 -1 10 -9 10 -9 0
-16 -4 -16 -10z"/>
<path d="M4355 6000 c-3 -5 1 -10 9 -10 9 0 16 5 16 10 0 6 -4 10 -9 10 -6 0
-13 -4 -16 -10z"/>
<path d="M9273 5965 l-28 -25 28 -25 c15 -14 32 -25 37 -25 5 0 22 11 37 25
l28 25 -28 25 c-15 14 -32 25 -37 25 -5 0 -22 -11 -37 -25z m53 -16 c10 -17
-13 -36 -27 -22 -12 12 -4 33 11 33 5 0 12 -5 16 -11z"/>
<path d="M12437 5974 c-9 -10 2 -24 19 -24 8 0 14 7 14 15 0 15 -21 21 -33 9z"/>
<path d="M7963 5644 c-8 -21 13 -42 28 -27 13 13 5 43 -11 43 -6 0 -13 -7 -17
-16z"/>
<path d="M8363 5644 c-8 -21 13 -42 28 -27 13 13 5 43 -11 43 -6 0 -13 -7 -17
-16z"/>
<path d="M8683 5644 c-8 -21 13 -42 28 -27 13 13 5 43 -11 43 -6 0 -13 -7 -17
-16z"/>
<path d="M7055 5650 c-3 -5 1 -10 9 -10 9 0 16 5 16 10 0 6 -4 10 -9 10 -6 0
-13 -4 -16 -10z"/>
<path d="M7130 5635 c0 -16 6 -25 15 -25 9 0 15 9 15 25 0 16 -6 25 -15 25 -9
0 -15 -9 -15 -25z"/>
<path d="M7208 5648 c-7 -19 2 -38 17 -38 18 0 26 15 19 34 -7 19 -30 21 -36
4z"/>
<path d="M7430 5635 c0 -20 4 -26 18 -23 9 2 17 12 17 23 0 11 -8 21 -17 23
-14 3 -18 -3 -18 -23z"/>
<path d="M7803 5644 c-8 -21 13 -42 28 -27 13 13 5 43 -11 43 -6 0 -13 -7 -17
-16z"/>
<path d="M8210 5620 c0 -5 7 -10 15 -10 8 0 15 5 15 10 0 6 -7 10 -15 10 -8 0
-15 -4 -15 -10z"/>
<path d="M8795 5650 c-3 -5 3 -10 15 -10 12 0 18 5 15 10 -3 6 -10 10 -15 10
-5 0 -12 -4 -15 -10z"/>
<path d="M8954 5645 c-7 -18 3 -35 22 -35 8 0 14 10 14 25 0 27 -27 35 -36 10z"/>
<path d="M10065 5620 c-3 -5 1 -10 9 -10 9 0 16 5 16 10 0 6 -4 10 -9 10 -6 0
-13 -4 -16 -10z"/>
<path d="M10235 5620 c-3 -5 1 -10 9 -10 9 0 16 5 16 10 0 6 -4 10 -9 10 -6 0
-13 -4 -16 -10z"/>
<path d="M10440 5650 c0 -5 7 -10 16 -10 8 0 12 5 9 10 -3 6 -10 10 -16 10 -5
0 -9 -4 -9 -10z"/>
<path d="M10714 5645 c-7 -18 3 -35 22 -35 8 0 14 10 14 25 0 27 -27 35 -36
10z"/>
<path d="M11145 5650 c-3 -5 1 -10 9 -10 9 0 16 5 16 10 0 6 -4 10 -9 10 -6 0
-13 -4 -16 -10z"/>
<path d="M11220 5635 c0 -16 6 -25 15 -25 9 0 15 9 15 25 0 16 -6 25 -15 25
-9 0 -15 -9 -15 -25z"/>
<path d="M11298 5648 c-7 -19 2 -38 17 -38 18 0 26 15 19 34 -7 19 -30 21 -36
4z"/>
<path d="M11520 5635 c0 -20 4 -26 18 -23 9 2 17 12 17 23 0 11 -8 21 -17 23
-14 3 -18 -3 -18 -23z"/>
<path d="M4145 5571 c-6 -11 9 -23 19 -14 9 9 7 23 -3 23 -6 0 -12 -4 -16 -9z"/>
<path d="M4135 5530 c-4 -7 -3 -16 3 -22 14 -14 45 -2 40 15 -6 16 -34 21 -43
7z"/>
<path d="M3685 5540 c-3 -5 3 -10 15 -10 12 0 18 5 15 10 -3 6 -10 10 -15 10
-5 0 -12 -4 -15 -10z"/>
<path d="M4280 5510 c0 -5 7 -10 15 -10 8 0 15 5 15 10 0 6 -7 10 -15 10 -8 0
-15 -4 -15 -10z"/>
<path d="M4430 5510 c0 -5 7 -10 15 -10 8 0 15 5 15 10 0 6 -7 10 -15 10 -8 0
-15 -4 -15 -10z"/>
<path d="M6720 5410 c0 -5 5 -10 10 -10 6 0 10 5 10 10 0 6 -4 10 -10 10 -5 0
-10 -4 -10 -10z"/>
<path d="M6938 5438 c-7 -19 2 -38 17 -38 18 0 26 15 19 34 -7 19 -30 21 -36
4z"/>
<path d="M7100 5440 c0 -5 7 -10 15 -10 8 0 15 5 15 10 0 6 -7 10 -15 10 -8 0
-15 -4 -15 -10z"/>
<path d="M6840 5100 c0 -5 7 -10 15 -10 8 0 15 5 15 10 0 6 -7 10 -15 10 -8 0
-15 -4 -15 -10z"/>
<path d="M6990 5100 c0 -5 7 -10 15 -10 8 0 15 5 15 10 0 6 -7 10 -15 10 -8 0
-15 -4 -15 -10z"/>
<path d="M3610 5105 c0 -8 7 -15 15 -15 8 0 15 7 15 15 0 8 -7 15 -15 15 -8 0
-15 -7 -15 -15z"/>
<path d="M3610 5060 c0 -23 25 -27 33 -6 7 16 -1 26 -20 26 -7 0 -13 -9 -13
-20z"/>
<path d="M3735 5050 c-3 -5 1 -10 9 -10 9 0 16 5 16 10 0 6 -4 10 -9 10 -6 0
-13 -4 -16 -10z"/>
<path d="M4030 5080 c0 -5 7 -10 15 -10 8 0 15 5 15 10 0 6 -7 10 -15 10 -8 0
-15 -4 -15 -10z"/>
<path d="M3817 4624 c-15 -15 -7 -45 11 -42 9 2 17 12 17 22 0 20 -16 31 -28
20z"/>
<path d="M3735 4620 c-3 -5 3 -10 15 -10 12 0 18 5 15 10 -3 6 -10 10 -15 10
-5 0 -12 -4 -15 -10z"/>
<path d="M3967 4617 c-3 -8 -2 -20 3 -27 11 -18 42 -4 38 17 -4 22 -34 29 -41
10z"/>
<path d="M4053 4614 c-8 -21 13 -42 28 -27 13 13 5 43 -11 43 -6 0 -13 -7 -17
-16z"/>
<path d="M14810 4310 c0 -5 7 -10 16 -10 8 0 12 5 9 10 -3 6 -10 10 -16 10 -5
0 -9 -4 -9 -10z"/>
<path d="M14860 4310 c0 -5 7 -10 15 -10 8 0 15 5 15 10 0 6 -7 10 -15 10 -8
0 -15 -4 -15 -10z"/>
<path d="M15130 4310 c0 -5 7 -10 15 -10 8 0 15 5 15 10 0 6 -7 10 -15 10 -8
0 -15 -4 -15 -10z"/>
<path d="M14582 4310 c0 -14 2 -19 5 -12 2 6 2 18 0 25 -3 6 -5 1 -5 -13z"/>
<path d="M15360 4310 c0 -5 5 -10 10 -10 6 0 10 5 10 10 0 6 -4 10 -10 10 -5
0 -10 -4 -10 -10z"/>
<path d="M6785 4240 c-3 -5 -3 -14 0 -20 10 -17 34 -11 45 10 9 17 8 20 -14
20 -14 0 -28 -4 -31 -10z"/>
<path d="M7047 4243 c-16 -15 -6 -34 15 -31 29 4 38 38 10 38 -10 0 -22 -3
-25 -7z"/>
<path d="M7171 4276 c-8 -10 -11 -26 -7 -42 5 -20 12 -25 34 -22 24 3 27 7 27
38 0 28 -4 36 -21 38 -11 2 -26 -4 -33 -12z"/>
<path d="M7317 4284 c-15 -15 -6 -24 24 -24 20 0 29 4 27 13 -5 14 -40 21 -51
11z"/>
<path d="M7496 4235 c-6 -18 16 -30 39 -21 8 3 15 12 15 21 0 20 -46 20 -54 0z"/>
<path d="M7846 4275 c-4 -11 2 -15 24 -15 20 0 30 5 30 15 0 9 -9 15 -24 15
-13 0 -26 -7 -30 -15z"/>
<path d="M3714 4155 c-7 -18 3 -35 22 -35 8 0 14 10 14 25 0 27 -27 35 -36 10z"/>
<path d="M4015 4130 c-3 -5 1 -10 9 -10 9 0 16 5 16 10 0 6 -4 10 -9 10 -6 0
-13 -4 -16 -10z"/>
<path d="M4173 4154 c-8 -21 13 -42 28 -27 13 13 5 43 -11 43 -6 0 -13 -7 -17
-16z"/>
<path d="M3775 3700 c-3 -5 3 -10 15 -10 12 0 18 5 15 10 -3 6 -10 10 -15 10
-5 0 -12 -4 -15 -10z"/>
<path d="M3844 3695 c-7 -18 3 -35 22 -35 8 0 14 10 14 25 0 27 -27 35 -36 10z"/>
<path d="M3970 3670 c0 -5 7 -10 15 -10 8 0 15 5 15 10 0 6 -7 10 -15 10 -8 0
-15 -4 -15 -10z"/>
<path d="M4127 3697 c-3 -8 -2 -20 3 -27 11 -18 42 -4 38 17 -4 22 -34 29 -41
10z"/>
<path d="M7095 3670 c-3 -5 3 -10 15 -10 12 0 18 5 15 10 -3 6 -10 10 -15 10
-5 0 -12 -4 -15 -10z"/>
<path d="M7205 3670 c-3 -5 3 -10 14 -10 12 0 21 5 21 10 0 6 -6 10 -14 10 -8
0 -18 -4 -21 -10z"/>
<path d="M3610 3240 c0 -37 2 -41 23 -38 18 2 22 9 22 38 0 29 -4 36 -22 38
-21 3 -23 -1 -23 -38z"/>
<path d="M3705 3240 c-3 -5 3 -10 15 -10 12 0 18 5 15 10 -3 6 -10 10 -15 10
-5 0 -12 -4 -15 -10z"/>
<path d="M3783 3234 c-7 -18 11 -39 26 -30 17 11 13 46 -4 46 -9 0 -18 -7 -22
-16z"/>
<path d="M3894 3235 c-7 -18 3 -35 21 -35 18 0 26 15 19 34 -8 20 -33 21 -40
1z"/>
<path d="M4155 3240 c-3 -5 3 -10 15 -10 12 0 18 5 15 10 -3 6 -10 10 -15 10
-5 0 -12 -4 -15 -10z"/>
<path d="M3620 2785 c0 -8 5 -15 10 -15 6 0 10 7 10 15 0 8 -4 15 -10 15 -5 0
-10 -7 -10 -15z"/>
<path d="M3844 2775 c-7 -18 3 -35 21 -35 18 0 26 15 19 34 -8 20 -33 21 -40
1z"/>
<path d="M8343 2474 c-8 -21 13 -42 28 -27 13 13 5 43 -11 43 -6 0 -13 -7 -17
-16z"/>
<path d="M7535 2480 c-3 -5 3 -10 15 -10 12 0 18 5 15 10 -3 6 -10 10 -15 10
-5 0 -12 -4 -15 -10z"/>
<path d="M8063 2474 c-8 -21 13 -42 28 -27 13 13 5 43 -11 43 -6 0 -13 -7 -17
-16z"/>
<path d="M8265 2480 c-3 -5 3 -10 15 -10 12 0 18 5 15 10 -3 6 -10 10 -15 10
-5 0 -12 -4 -15 -10z"/>
<path d="M15310 2440 c0 -5 9 -10 20 -10 11 0 20 5 20 10 0 6 -9 10 -20 10
-11 0 -20 -4 -20 -10z"/>
<path d="M12210 2430 c0 -5 9 -10 20 -10 11 0 20 5 20 10 0 6 -9 10 -20 10
-11 0 -20 -4 -20 -10z"/>
<path d="M3907 2317 c-3 -8 -2 -20 3 -27 11 -18 42 -4 38 17 -4 22 -34 29 -41
10z"/>
<path d="M4190 2320 c0 -5 7 -10 15 -10 8 0 15 5 15 10 0 6 -7 10 -15 10 -8 0
-15 -4 -15 -10z"/>
<path d="M3685 1860 c-3 -5 3 -10 15 -10 12 0 18 5 15 10 -3 6 -10 10 -15 10
-5 0 -12 -4 -15 -10z"/>
<path d="M3870 1860 c0 -5 7 -10 15 -10 8 0 15 5 15 10 0 6 -7 10 -15 10 -8 0
-15 -4 -15 -10z"/>
<path d="M3610 1420 c0 -23 25 -27 33 -6 7 16 -1 26 -20 26 -7 0 -13 -9 -13
-20z"/>
<path d="M3680 1370 c0 -5 4 -10 9 -10 6 0 13 5 16 10 3 6 -1 10 -9 10 -9 0
-16 -4 -16 -10z"/>
<path d="M3753 1394 c-8 -21 13 -42 28 -27 13 13 5 43 -11 43 -6 0 -13 -7 -17
-16z"/>
<path d="M3835 1400 c-3 -5 3 -10 15 -10 12 0 18 5 15 10 -3 6 -10 10 -15 10
-5 0 -12 -4 -15 -10z"/>
<path d="M3814 935 c-7 -18 3 -35 22 -35 8 0 14 10 14 25 0 27 -27 35 -36 10z"/>
<path d="M3734 935 c-7 -18 3 -35 22 -35 8 0 14 10 14 25 0 27 -27 35 -36 10z"/>
<path d="M3900 940 c0 -5 7 -10 15 -10 8 0 15 5 15 10 0 6 -7 10 -15 10 -8 0
-15 -4 -15 -10z"/>
<path d="M4020 910 c0 -5 4 -10 9 -10 6 0 13 5 16 10 3 6 -1 10 -9 10 -9 0
-16 -4 -16 -10z"/>
<path d="M4174 935 c-7 -18 3 -35 22 -35 8 0 14 10 14 25 0 27 -27 35 -36 10z"/>
<path d="M4430 940 c0 -5 7 -10 15 -10 8 0 15 5 15 10 0 6 -7 10 -15 10 -8 0
-15 -4 -15 -10z"/>
<path d="M4713 934 c-8 -21 13 -42 28 -27 13 13 5 43 -11 43 -6 0 -13 -7 -17
-16z"/>
</g>
</svg>
