<?xml version="1.0" standalone="no"?>
<!DOCTYPE svg PUBLIC "-//W3C//DTD SVG 20010904//EN"
 "http://www.w3.org/TR/2001/REC-SVG-20010904/DTD/svg10.dtd">
<svg version="1.0" xmlns="http://www.w3.org/2000/svg"
 width="1024.000000pt" height="1258.000000pt" viewBox="0 0 1024.000000 1258.000000"
 preserveAspectRatio="xMidYMid meet">

<g transform="translate(0.000000,1258.000000) scale(0.100000,-0.100000)"
fill="#000000" stroke="none">
<path d="M2247 12473 c-4 -3 -7 -69 -7 -145 l0 -138 -1064 0 c-699 0 -1067 -3
-1071 -10 -4 -7 357 -10 1074 -10 l1081 0 0 155 c0 85 -1 155 -3 155 -2 0 -7
-3 -10 -7z"/>
<path d="M182 12330 c12 -33 27 -60 33 -60 6 0 21 27 33 60 25 70 12 82 -14
13 l-18 -47 -19 47 c-28 68 -40 58 -15 -13z"/>
<path d="M453 12330 c-1 -37 2 -55 6 -42 l6 24 19 -21 c11 -12 24 -21 30 -21
6 0 1 10 -12 22 l-22 22 22 23 c12 13 17 23 11 23 -6 0 -16 -7 -23 -15 -19
-23 -28 -18 -33 18 -2 17 -4 3 -4 -33z"/>
<path d="M655 12380 c3 -5 8 -10 11 -10 2 0 4 5 4 10 0 6 -5 10 -11 10 -5 0
-7 -4 -4 -10z"/>
<path d="M685 12380 c3 -5 8 -10 11 -10 2 0 4 5 4 10 0 6 -5 10 -11 10 -5 0
-7 -4 -4 -10z"/>
<path d="M847 12370 c-9 -11 -13 -20 -7 -20 5 0 11 -19 13 -42 l4 -43 1 43 c2
34 6 42 21 42 16 0 20 -8 23 -37 3 -32 7 -38 28 -40 14 -1 18 0 8 3 -13 4 -18
16 -18 40 0 25 4 34 18 35 13 0 14 2 2 6 -8 4 -20 13 -27 22 -11 14 -12 14
-13 -1 0 -12 -8 -18 -22 -18 -22 1 -23 1 -4 15 15 11 16 15 5 15 -8 0 -22 -9
-32 -20z"/>
<path d="M1121 12334 c-20 -54 -20 -88 0 -51 13 22 48 22 66 0 13 -16 14 -15
8 11 -10 44 -33 96 -43 96 -5 0 -19 -25 -31 -56z m45 -21 c-2 -3 -11 -3 -19
-1 -11 2 -12 9 -5 28 l10 25 9 -24 c5 -13 7 -26 5 -28z"/>
<path d="M1420 12330 c0 -33 4 -60 10 -60 6 0 10 27 10 60 0 33 -4 60 -10 60
-6 0 -10 -27 -10 -60z"/>
<path d="M1470 12379 c0 -5 5 -7 10 -4 6 3 10 8 10 11 0 2 -4 4 -10 4 -5 0
-10 -5 -10 -11z"/>
<path d="M1510 12330 c0 -33 4 -60 10 -60 6 0 10 10 10 22 l0 21 23 -21 c33
-31 46 -28 16 4 l-24 25 25 19 c30 23 14 27 -18 4 -21 -15 -22 -14 -22 15 0
17 -4 31 -10 31 -6 0 -10 -27 -10 -60z"/>
<path d="M1703 12376 c-6 -10 -9 -26 -7 -35 12 -66 15 -71 37 -71 20 1 20 2 5
11 -11 6 -18 22 -18 39 0 19 6 30 18 33 15 4 15 5 0 6 -9 0 -18 9 -20 19 -3
16 -5 16 -15 -2z"/>
<path d="M293 12353 c-19 -7 -16 -70 3 -77 23 -9 54 -7 54 3 0 5 -8 7 -18 4
-10 -2 -24 3 -31 11 -12 14 -9 16 23 16 37 0 47 15 24 38 -12 12 -33 14 -55 5z
m45 -21 c2 -7 -7 -12 -23 -12 -24 0 -26 2 -15 15 14 17 31 16 38 -3z"/>
<path d="M380 12315 c0 -25 5 -45 10 -45 6 0 10 16 10 35 0 22 6 38 18 44 14
9 13 10 -10 11 -26 0 -28 -3 -28 -45z"/>
<path d="M540 12316 c0 -55 17 -62 22 -8 4 52 31 50 39 -3 l7 -40 -2 45 c-1
43 -2 45 -33 48 -33 3 -33 3 -33 -42z"/>
<path d="M642 12318 c3 -42 4 -43 41 -45 l37 -1 0 44 c0 54 -18 59 -22 7 -2
-27 -8 -39 -20 -41 -15 -3 -18 4 -18 37 0 23 -5 41 -11 41 -6 0 -9 -17 -7 -42z"/>
<path d="M740 12300 c0 -33 4 -60 10 -60 6 0 10 9 10 20 0 13 5 18 15 14 35
-14 61 46 33 74 -7 7 -25 12 -40 12 -28 0 -28 -1 -28 -60z m55 14 c0 -19 -5
-29 -15 -29 -16 0 -25 28 -16 51 10 25 31 10 31 -22z"/>
<path d="M973 12353 c-19 -7 -16 -70 3 -77 23 -9 54 -7 54 3 0 5 -8 7 -18 4
-10 -2 -24 3 -31 11 -12 14 -9 16 23 16 37 0 47 15 24 38 -12 12 -33 14 -55 5z
m45 -21 c2 -7 -7 -12 -23 -12 -24 0 -26 2 -15 15 14 17 31 16 38 -3z"/>
<path d="M1220 12300 c0 -33 4 -60 10 -60 6 0 10 9 10 20 0 13 5 18 15 14 35
-14 61 46 33 74 -7 7 -25 12 -40 12 -28 0 -28 -1 -28 -60z m55 14 c0 -19 -5
-29 -15 -29 -16 0 -25 28 -16 51 10 25 31 10 31 -22z"/>
<path d="M1320 12300 c0 -33 4 -60 10 -60 6 0 10 9 10 20 0 13 5 18 15 14 35
-14 61 46 33 74 -7 7 -25 12 -40 12 -28 0 -28 -1 -28 -60z m55 14 c0 -19 -5
-29 -15 -29 -16 0 -25 28 -16 51 10 25 31 10 31 -22z"/>
<path d="M1470 12315 c0 -25 5 -45 10 -45 6 0 10 20 10 45 0 25 -4 45 -10 45
-5 0 -10 -20 -10 -45z"/>
<path d="M1610 12351 c0 -5 8 -7 19 -4 10 3 22 0 25 -6 4 -7 -1 -11 -12 -11
-25 0 -46 -25 -39 -45 4 -9 19 -14 42 -13 32 1 35 4 35 33 0 17 -5 36 -12 43
-14 14 -58 16 -58 3z m50 -46 c0 -16 -27 -32 -37 -22 -3 4 -3 13 0 22 8 20 37
20 37 0z"/>
<path d="M1773 12315 c0 -27 2 -38 4 -22 2 15 2 37 0 50 -2 12 -4 0 -4 -28z"/>
<path d="M1814 12346 c-3 -8 -4 -27 -2 -43 2 -22 9 -29 30 -31 35 -4 57 33 39
67 -13 24 -59 29 -67 7z m56 -31 c0 -26 -22 -39 -39 -22 -22 22 -2 61 25 50 8
-3 14 -15 14 -28z"/>
<path d="M1910 12316 c0 -55 17 -62 22 -8 4 52 31 50 39 -3 l7 -40 -2 45 c-1
43 -2 45 -33 48 -33 3 -33 3 -33 -42z"/>
<path d="M2009 12339 c-18 -34 3 -69 41 -69 16 0 30 5 30 11 0 6 -7 9 -15 5
-18 -6 -45 2 -45 15 0 5 16 9 35 9 38 0 40 2 25 31 -14 26 -56 25 -71 -2z m61
-10 c0 -5 -12 -9 -26 -9 -22 0 -24 2 -14 14 12 15 40 11 40 -5z"/>
<path d="M2110 12316 c0 -55 17 -62 22 -8 4 52 31 50 39 -3 l7 -40 -2 45 c-1
43 -2 45 -33 48 -33 3 -33 3 -33 -42z"/>
<path d="M490 11691 l0 -61 34 0 c39 0 62 21 51 47 -4 10 -8 29 -9 43 -1 21
-6 25 -38 28 l-38 3 0 -60z m65 29 c0 -8 -10 -16 -22 -18 -18 -3 -23 2 -23 18
0 16 5 21 23 18 12 -2 22 -10 22 -18z m0 -55 c0 -13 -8 -21 -22 -23 -19 -3
-23 1 -23 23 0 22 4 26 23 23 14 -2 22 -10 22 -23z"/>
<path d="M940 11690 c0 -66 17 -83 22 -22 4 52 31 50 39 -3 l7 -40 -2 45 c-1
40 -4 45 -23 44 -16 0 -23 5 -23 18 0 10 -4 18 -10 18 -6 0 -10 -27 -10 -60z"/>
<path d="M598 11695 c-8 -19 -9 -31 -1 -43 13 -21 55 -22 61 -2 4 13 3 13 -11
2 -9 -8 -21 -11 -27 -7 -20 12 -10 25 20 25 26 0 28 2 21 23 -12 33 -48 34
-63 2z m50 -3 c2 -7 -6 -12 -17 -12 -21 0 -27 11 -14 24 9 9 26 2 31 -12z"/>
<path d="M692 11670 c1 -40 2 -41 5 -10 2 19 11 40 20 47 13 10 13 12 -6 10
-18 -1 -21 -7 -19 -47z"/>
<path d="M754 11712 c-32 -22 -18 -85 18 -80 12 2 24 10 26 18 5 13 3 13 -11
2 -9 -8 -21 -11 -27 -7 -20 12 -10 25 20 25 31 0 39 17 18 38 -14 14 -28 15
-44 4z m34 -20 c2 -7 -6 -12 -17 -12 -21 0 -27 11 -14 24 9 9 26 2 31 -12z"/>
<path d="M833 11675 c0 -27 2 -38 4 -22 2 15 2 37 0 50 -2 12 -4 0 -4 -28z"/>
<path d="M870 11706 c-30 -37 14 -96 47 -63 11 10 13 17 5 17 -7 0 -12 -4 -12
-10 0 -16 -27 -11 -34 6 -13 33 13 71 29 44 3 -5 11 -10 17 -10 7 0 6 6 -2 15
-16 19 -34 19 -50 1z"/>
<path d="M1040 11706 c-15 -20 -9 -56 12 -70 14 -8 22 -7 35 8 17 18 17 18 -5
7 -23 -12 -42 -8 -42 10 0 5 14 9 30 9 31 0 39 17 18 38 -16 16 -33 15 -48 -2z
m40 -11 c11 -13 8 -15 -14 -15 -25 0 -33 10 -19 23 10 11 19 8 33 -8z"/>
<path d="M330 11670 c0 -13 7 -20 20 -20 13 0 20 7 20 20 0 13 -7 20 -20 20
-13 0 -20 -7 -20 -20z"/>
<path d="M637 11613 c90 -2 236 -2 326 0 89 1 16 3 -163 3 -179 0 -252 -2
-163 -3z"/>
<path d="M490 11501 l0 -61 34 0 c39 0 62 21 51 47 -4 10 -8 29 -9 43 -1 21
-6 25 -38 28 l-38 3 0 -60z m65 29 c0 -8 -10 -16 -22 -18 -18 -3 -23 2 -23 18
0 16 5 21 23 18 12 -2 22 -10 22 -18z m0 -55 c0 -13 -8 -21 -22 -23 -19 -3
-23 1 -23 23 0 22 4 26 23 23 14 -2 22 -10 22 -23z"/>
<path d="M603 11500 c0 -36 2 -50 4 -32 2 17 2 47 0 65 -2 17 -4 3 -4 -33z"/>
<path d="M643 11523 c-7 -2 -13 -20 -13 -38 0 -25 5 -35 20 -40 26 -8 50 11
50 39 0 36 -25 53 -57 39z m41 -26 c8 -12 7 -21 -6 -33 -20 -20 -38 -11 -38
20 0 39 23 46 44 13z"/>
<path d="M730 11520 c-6 -4 -10 -22 -8 -41 2 -28 7 -34 26 -33 12 0 22 -3 22
-8 0 -4 -66 -9 -147 -10 l-148 -2 141 -5 c78 -3 172 -3 210 0 l69 6 -55 1 -55
2 3 49 c4 46 2 49 -21 49 -14 0 -30 -4 -37 -8z m35 -36 c0 -19 -5 -29 -15 -29
-16 0 -25 28 -16 51 10 25 31 10 31 -22z"/>
<path d="M817 11524 c-15 -15 -6 -35 20 -45 19 -7 23 -13 15 -21 -8 -8 -16 -7
-28 3 -15 12 -17 12 -12 -1 7 -21 52 -19 56 2 2 12 -6 21 -24 28 -20 8 -24 14
-16 22 8 8 16 7 28 -3 15 -12 17 -12 12 1 -5 16 -39 25 -51 14z"/>
<path d="M330 11480 c0 -13 7 -20 20 -20 13 0 20 7 20 20 0 13 -7 20 -20 20
-13 0 -20 -7 -20 -20z"/>
<path d="M330 11290 c0 -13 7 -20 20 -20 13 0 20 7 20 20 0 13 -7 20 -20 20
-13 0 -20 -7 -20 -20z"/>
<path d="M500 10900 l0 -110 925 0 925 0 0 110 0 110 -925 0 -925 0 0 -110z
m1840 0 l0 -100 -915 0 -915 0 0 100 0 100 915 0 915 0 0 -100z"/>
<path d="M330 10910 c0 -13 7 -20 20 -20 13 0 20 7 20 20 0 13 -7 20 -20 20
-13 0 -20 -7 -20 -20z"/>
<path d="M518 10763 c17 -2 32 -7 32 -10 0 -3 -13 -22 -28 -42 -48 -61 -48
-61 5 -59 36 1 40 2 16 5 -18 2 -33 7 -33 11 0 4 14 25 30 46 17 22 30 43 30
48 0 4 -19 7 -42 6 -37 -1 -39 -2 -10 -5z"/>
<path d="M861 10752 c-12 -23 -3 -37 32 -48 31 -10 36 -24 13 -39 -10 -6 -21
-4 -35 9 -22 20 -30 9 -9 -12 25 -25 78 -8 78 26 0 7 -16 20 -35 28 -19 8 -35
19 -35 24 0 16 30 24 43 11 17 -17 31 -13 17 4 -17 21 -57 19 -69 -3z"/>
<path d="M1133 10710 c-1 -55 0 -59 7 -27 4 20 10 40 13 43 13 13 27 -9 27
-42 0 -19 5 -34 10 -34 12 0 13 60 1 79 -5 8 -18 12 -29 9 -16 -4 -22 0 -25
16 -2 11 -4 -8 -4 -44z"/>
<path d="M1500 10710 l0 -60 43 2 42 1 -37 4 c-32 4 -38 8 -38 28 0 20 6 24
38 28 l37 4 -37 1 c-30 2 -38 6 -38 21 0 15 8 21 38 24 l37 4 -42 1 -43 2 0
-60z"/>
<path d="M1901 10714 l-1 -61 31 1 c37 1 52 27 38 65 -7 18 -15 22 -34 19 -18
-4 -25 0 -28 16 -2 12 -5 -6 -6 -40z m57 -13 c5 -34 -16 -51 -33 -27 -10 14
-11 24 -4 38 13 24 33 18 37 -11z"/>
<path d="M2230 10751 c0 -14 -5 -18 -18 -14 -28 7 -47 -23 -36 -55 7 -21 16
-27 42 -29 l32 -1 0 59 c0 33 -4 59 -10 59 -5 0 -10 -9 -10 -19z m-5 -57 c0
-19 -5 -29 -15 -29 -16 0 -25 28 -16 51 10 25 31 10 31 -22z"/>
<path d="M2335 10760 c3 -5 8 -10 11 -10 2 0 4 5 4 10 0 6 -5 10 -11 10 -5 0
-7 -4 -4 -10z"/>
<path d="M2493 10710 c0 -36 2 -55 4 -42 5 28 19 28 33 1 16 -29 23 -17 9 14
-9 21 -9 30 1 42 7 8 8 15 2 15 -5 0 -16 -7 -23 -17 -13 -15 -15 -13 -20 18
-5 24 -6 16 -6 -31z"/>
<path d="M2082 10740 c0 -14 2 -19 5 -12 2 6 2 18 0 25 -3 6 -5 1 -5 -13z"/>
<path d="M2104 10749 c-3 -6 -1 -16 4 -21 8 -8 11 -5 9 11 -1 24 -3 25 -13 10z"/>
<path d="M594 10700 c1 -41 3 -45 29 -48 26 -3 27 -2 26 45 l-2 48 -6 -40 c-4
-26 -11 -40 -21 -40 -10 0 -17 14 -21 40 l-7 40 2 -45z"/>
<path d="M681 10691 l2 -46 6 39 c8 55 31 60 31 7 0 -51 18 -54 22 -4 4 52 28
56 28 4 0 -23 5 -41 11 -41 6 0 9 17 7 43 l-3 42 -52 1 -53 1 1 -46z"/>
<path d="M964 10700 c1 -43 2 -45 34 -48 32 -3 32 -3 32 42 0 55 -17 62 -22 9
-4 -53 -31 -51 -39 2 l-7 40 2 -45z"/>
<path d="M1050 10719 c-17 -31 2 -72 32 -67 12 2 24 10 26 18 5 13 3 13 -11 2
-21 -18 -37 -7 -37 23 0 30 16 41 37 23 14 -11 16 -11 11 2 -8 24 -45 24 -58
-1z"/>
<path d="M1220 10714 c-19 -48 28 -87 60 -49 14 17 0 21 -17 4 -6 -6 -16 -8
-22 -5 -21 13 -11 26 19 26 31 0 39 17 18 38 -20 20 -48 14 -58 -14z m48 -2
c2 -7 -6 -12 -17 -12 -21 0 -27 11 -14 24 9 9 26 2 31 -12z"/>
<path d="M1311 10690 l1 -45 8 38 c4 20 10 40 13 43 13 13 27 -9 27 -42 0 -19
5 -34 10 -34 12 0 13 60 2 78 -5 6 -20 11 -35 10 -25 -2 -27 -5 -26 -48z"/>
<path d="M1603 10695 c0 -27 2 -38 4 -22 2 15 2 37 0 50 -2 12 -4 0 -4 -28z"/>
<path d="M1641 10691 l2 -46 6 40 c4 26 11 40 21 40 10 0 17 -14 21 -40 l7
-40 -2 45 c-1 42 -3 45 -28 46 -27 1 -28 -1 -27 -45z"/>
<path d="M1732 10728 c-28 -28 -1 -88 34 -74 10 4 14 2 11 -6 -2 -7 -14 -13
-26 -12 -11 0 -21 -3 -21 -8 0 -5 12 -8 28 -6 25 3 27 6 30 58 3 52 1 56 -21
58 -13 1 -29 -4 -35 -10z m48 -32 c0 -6 -5 -18 -10 -26 -9 -13 -12 -13 -25 4
-19 25 -2 64 21 45 8 -6 14 -17 14 -23z"/>
<path d="M1827 10734 c-4 -4 -7 -12 -7 -18 0 -6 5 -5 12 2 16 16 28 15 28 -2
0 -8 -10 -16 -22 -18 -15 -2 -23 -10 -23 -23 0 -16 7 -20 35 -21 l36 -1 -6 41
c-4 31 -10 42 -25 44 -12 2 -24 0 -28 -4z m33 -53 c0 -14 -18 -23 -30 -16 -6
4 -8 11 -5 16 8 12 35 12 35 0z"/>
<path d="M2002 10728 c-20 -20 -15 -66 8 -73 20 -6 56 12 45 23 -2 3 -11 -1
-19 -7 -8 -7 -20 -10 -26 -6 -20 12 -10 25 20 25 18 0 30 5 30 13 0 16 -20 37
-35 37 -6 0 -16 -5 -23 -12z m29 -26 c-28 -4 -40 6 -21 18 9 6 20 4 29 -3 12
-10 11 -13 -8 -15z"/>
<path d="M2272 10690 c1 -40 2 -41 5 -10 2 19 11 40 20 47 13 10 13 12 -6 10
-18 -1 -21 -7 -19 -47z"/>
<path d="M2324 10700 c1 -43 2 -45 34 -48 32 -3 32 -3 32 42 0 55 -17 62 -22
9 -4 -53 -31 -51 -39 2 l-7 40 2 -45z"/>
<path d="M2410 10719 c-17 -31 2 -72 32 -67 12 2 24 10 26 18 5 13 3 13 -11 2
-21 -18 -37 -7 -37 23 0 30 16 41 37 23 14 -11 16 -11 11 2 -8 24 -45 24 -58
-1z"/>
<path d="M2570 10714 c-19 -48 28 -87 60 -49 14 17 0 21 -17 4 -6 -6 -16 -8
-22 -5 -21 13 -11 26 19 26 31 0 39 17 18 38 -20 20 -48 14 -58 -14z m48 -2
c2 -7 -6 -12 -17 -12 -21 0 -27 11 -14 24 9 9 26 2 31 -12z"/>
<path d="M2661 10690 l1 -45 8 38 c4 20 10 40 13 43 13 13 27 -9 27 -42 0 -19
5 -34 10 -34 12 0 13 60 2 78 -5 6 -20 11 -35 10 -25 -2 -27 -5 -26 -48z"/>
<path d="M1442 10650 c0 -14 2 -19 5 -12 2 6 2 18 0 25 -3 6 -5 1 -5 -13z"/>
<path d="M1470 10670 c-8 -26 -7 -41 2 -32 6 6 8 16 5 24 -3 7 -6 11 -7 8z"/>
<path d="M490 10520 c0 -33 4 -60 10 -60 6 0 10 14 10 30 0 27 3 30 29 30 26
0 30 -4 34 -32 2 -18 4 -4 4 32 0 36 -2 53 -4 38 -4 -23 -9 -28 -34 -28 -24 0
-29 4 -29 25 0 14 -4 25 -10 25 -6 0 -10 -27 -10 -60z"/>
<path d="M643 10520 c0 -36 2 -50 4 -32 2 17 2 47 0 65 -2 17 -4 3 -4 -33z"/>
<path d="M682 10563 c-4 -10 -5 -38 -1 -63 l6 -45 1 43 c1 26 7 42 15 42 8 0
7 4 -3 10 -13 9 -13 11 0 20 9 6 11 10 3 10 -7 0 -16 -8 -21 -17z"/>
<path d="M613 10505 c0 -27 2 -38 4 -22 2 15 2 37 0 50 -2 12 -4 0 -4 -28z"/>
<path d="M730 10536 c-15 -20 -9 -56 12 -70 14 -8 22 -7 35 8 17 18 17 18 -5
7 -23 -12 -42 -8 -42 10 0 5 14 9 30 9 31 0 39 17 18 38 -16 16 -33 15 -48 -2z
m40 -11 c11 -13 8 -15 -14 -15 -25 0 -33 10 -19 23 10 11 19 8 33 -8z"/>
<path d="M330 10500 c0 -13 7 -20 20 -20 13 0 20 7 20 20 0 13 -7 20 -20 20
-13 0 -20 -7 -20 -20z"/>
<path d="M563 10443 c48 -2 125 -2 170 0 45 1 6 3 -88 3 -93 0 -130 -2 -82 -3z"/>
<path d="M906 10374 c-34 -33 -10 -104 35 -104 25 0 59 35 59 60 0 25 -34 60
-59 60 -11 0 -27 -7 -35 -16z m55 -4 c36 -20 17 -90 -25 -90 -12 0 -36 33 -36
50 0 17 24 50 36 50 3 0 14 -5 25 -10z"/>
<path d="M1100 10330 c0 -33 4 -60 10 -60 6 0 10 27 10 60 0 33 -4 60 -10 60
-6 0 -10 -27 -10 -60z"/>
<path d="M1353 10330 c0 -36 2 -51 4 -35 10 63 43 74 43 15 0 -22 5 -40 11
-40 6 0 9 17 7 43 -3 39 -5 42 -30 40 -20 -1 -28 4 -31 20 -2 12 -4 -7 -4 -43z"/>
<path d="M1483 10330 c0 -36 2 -50 4 -32 2 17 2 47 0 65 -2 17 -4 3 -4 -33z"/>
<path d="M1513 10376 c-11 -19 -4 -106 8 -106 5 0 9 17 10 38 0 20 2 47 3 60
3 25 -9 29 -21 8z"/>
<path d="M1010 10314 c0 -54 18 -59 22 -6 4 52 31 50 39 -3 l7 -40 -2 45 c-1
43 -2 45 -33 47 -33 1 -33 1 -33 -43z"/>
<path d="M1143 10315 c0 -27 2 -38 4 -22 2 15 2 37 0 50 -2 12 -4 0 -4 -28z"/>
<path d="M1170 10314 c0 -54 18 -59 22 -6 4 52 31 50 39 -3 l7 -40 -2 45 c-1
43 -2 45 -33 47 -33 1 -33 1 -33 -43z"/>
<path d="M1272 10348 c-16 -16 -15 -53 3 -68 18 -15 47 -10 53 10 5 13 3 13
-12 1 -15 -12 -19 -12 -34 2 -15 16 -14 17 16 17 25 0 32 4 32 19 0 28 -37 40
-58 19z m46 -16 c2 -7 -7 -12 -23 -12 -24 0 -26 2 -15 15 14 17 31 16 38 -3z"/>
<path d="M1443 10315 c0 -27 2 -38 4 -22 2 15 2 37 0 50 -2 12 -4 0 -4 -28z"/>
<path d="M1558 10335 c-8 -19 -9 -31 -1 -43 13 -21 55 -22 61 -2 4 13 3 13
-11 2 -9 -8 -21 -11 -27 -7 -20 12 -10 25 20 25 26 0 28 2 21 23 -12 33 -48
34 -63 2z m50 -3 c2 -7 -6 -12 -17 -12 -21 0 -27 11 -14 24 9 9 26 2 31 -12z"/>
<path d="M730 10310 c0 -13 7 -20 20 -20 13 0 20 7 20 20 0 13 -7 20 -20 20
-13 0 -20 -7 -20 -20z m30 0 c0 -5 -4 -10 -10 -10 -5 0 -10 5 -10 10 0 6 5 10
10 10 6 0 10 -4 10 -10z"/>
<path d="M1067 10253 c105 -2 281 -2 390 0 109 1 23 2 -192 2 -214 0 -304 -1
-198 -2z"/>
<path d="M898 10193 c20 -4 22 -10 22 -59 0 -30 5 -54 10 -54 6 0 10 24 10 54
0 44 4 55 18 59 9 3 -5 5 -33 4 -27 0 -40 -2 -27 -4z"/>
<path d="M1383 10140 c0 -36 2 -55 4 -42 5 28 19 28 33 1 16 -29 23 -17 9 14
-9 21 -9 30 1 42 7 8 8 15 2 15 -5 0 -16 -7 -23 -17 -13 -15 -15 -13 -20 18
-5 24 -6 16 -6 -31z"/>
<path d="M1681 10145 c-1 -56 1 -61 21 -62 31 -3 48 15 48 48 0 28 -28 48 -49
34 -5 -3 -12 5 -14 17 -2 13 -5 -4 -6 -37z m57 -29 c-4 -25 -27 -28 -41 -4 -8
12 -7 21 2 32 18 21 43 2 39 -28z"/>
<path d="M1158 10180 c-5 -17 4 -100 11 -100 4 0 5 16 3 36 -3 20 0 39 6 43 6
4 5 10 -3 18 -8 8 -15 8 -17 3z"/>
<path d="M1988 10180 c-5 -16 3 -100 11 -100 3 0 5 23 4 51 -1 50 -7 71 -15
49z"/>
<path d="M997 10164 c-14 -14 -7 -26 8 -14 12 10 19 10 27 2 8 -8 4 -14 -16
-22 -38 -14 -31 -44 10 -47 30 -1 30 -1 25 40 -5 32 -11 43 -26 45 -12 2 -24
0 -28 -4z m41 -56 c-7 -19 -38 -22 -38 -4 0 10 9 16 21 16 12 0 19 -5 17 -12z"/>
<path d="M1083 10159 c-15 -15 1 -39 23 -39 8 0 14 -7 14 -15 0 -18 -21 -20
-39 -2 -11 10 -13 9 -9 -3 6 -20 35 -25 53 -10 21 18 18 29 -10 40 -14 5 -25
14 -25 20 0 14 13 13 29 -2 11 -11 13 -10 9 2 -6 19 -30 24 -45 9z"/>
<path d="M1210 10156 c-15 -20 -9 -56 12 -70 14 -8 22 -7 35 8 17 18 17 18 -5
7 -23 -12 -42 -8 -42 10 0 5 14 9 30 9 31 0 39 17 18 38 -16 16 -33 15 -48 -2z
m40 -11 c11 -13 8 -15 -14 -15 -25 0 -33 10 -19 23 10 11 19 8 33 -8z"/>
<path d="M1291 10121 c1 -25 3 -37 6 -26 2 11 6 30 9 43 8 39 32 26 37 -20 l4
-43 -1 45 c-1 42 -3 45 -28 46 -27 1 -28 -1 -27 -45z"/>
<path d="M1459 10149 c-8 -16 -8 -28 0 -45 18 -41 71 -25 71 21 0 44 -50 61
-71 24z m50 -8 c7 -13 6 -23 -3 -36 -16 -22 -36 -12 -36 19 0 39 22 49 39 17z"/>
<path d="M1551 10121 l2 -46 6 40 c4 26 11 40 21 40 10 0 17 -14 21 -40 l6
-40 2 37 c1 35 15 57 28 44 3 -3 10 -23 14 -43 l7 -38 -1 45 -2 45 -52 1 -53
1 1 -46z"/>
<path d="M1773 10125 c0 -27 2 -38 4 -22 2 15 2 37 0 50 -2 12 -4 0 -4 -28z"/>
<path d="M1811 10121 l2 -46 6 40 c4 26 11 40 21 40 10 0 17 -14 21 -40 l7
-40 -2 45 c-1 42 -3 45 -28 46 -27 1 -28 -1 -27 -45z"/>
<path d="M1906 10162 c-3 -6 3 -8 14 -5 14 4 20 0 20 -10 0 -9 -10 -17 -22
-19 -15 -2 -23 -10 -23 -23 0 -16 7 -20 35 -21 l36 -1 -6 41 c-4 32 -10 42
-27 44 -11 2 -24 -1 -27 -6z m32 -58 c-9 -9 -21 -13 -27 -9 -16 10 -3 25 22
25 20 0 20 -1 5 -16z"/>
<path d="M2033 10125 c0 -27 2 -38 4 -22 2 15 2 37 0 50 -2 12 -4 0 -4 -28z"/>
<path d="M2072 10158 c-30 -30 -2 -86 38 -73 15 5 20 15 20 40 0 41 -32 59
-58 33z m43 -34 c0 -32 -21 -39 -38 -12 -8 12 -7 21 3 32 19 24 35 14 35 -20z"/>
<path d="M2151 10121 c2 -34 3 -38 6 -16 10 63 43 74 43 15 0 -22 5 -40 11
-40 6 0 9 17 7 43 -3 40 -5 42 -35 43 -33 1 -33 1 -32 -45z"/>
<path d="M2250 10156 c-15 -20 -9 -56 12 -70 14 -8 22 -7 35 8 17 18 17 18 -5
7 -23 -12 -42 -8 -42 10 0 5 14 9 30 9 31 0 39 17 18 38 -16 16 -33 15 -48 -2z
m40 -11 c11 -13 8 -15 -14 -15 -25 0 -33 10 -19 23 10 11 19 8 33 -8z"/>
<path d="M2331 10121 c1 -25 3 -37 6 -26 2 11 6 30 9 43 8 39 32 26 37 -20 l4
-43 -1 45 c-1 42 -3 45 -28 46 -27 1 -28 -1 -27 -45z"/>
<path d="M730 10120 c0 -13 7 -20 20 -20 13 0 20 7 20 20 0 13 -7 20 -20 20
-13 0 -20 -7 -20 -20z m30 0 c0 -5 -4 -10 -10 -10 -5 0 -10 5 -10 10 0 6 5 10
10 10 6 0 10 -4 10 -10z"/>
<path d="M1263 10063 c213 -2 561 -2 775 0 213 1 38 2 -388 2 -426 0 -601 -1
-387 -2z"/>
<path d="M890 9950 c0 -33 4 -60 10 -60 6 0 10 13 10 29 0 25 5 30 28 34 l27
4 -27 2 c-21 1 -28 6 -28 20 0 15 8 21 33 24 28 3 26 4 -10 5 l-43 2 0 -60z"/>
<path d="M1220 9990 c0 -13 -5 -18 -15 -14 -21 8 -45 -14 -45 -41 0 -28 19
-45 48 -42 20 1 22 7 22 59 0 32 -2 58 -5 58 -3 0 -5 -9 -5 -20z m-5 -56 c0
-32 -21 -39 -38 -12 -8 12 -7 21 3 32 19 24 35 14 35 -20z"/>
<path d="M1310 9951 l0 -61 34 0 c39 0 62 21 51 47 -4 10 -8 29 -9 43 -1 21
-6 25 -38 28 l-38 3 0 -60z m65 29 c0 -9 -11 -16 -27 -18 -27 -3 -38 14 -21
32 12 12 48 2 48 -14z m0 -55 c0 -22 -31 -33 -47 -17 -17 17 -1 44 24 40 15
-2 23 -10 23 -23z"/>
<path d="M1543 9950 c0 -36 2 -50 4 -32 2 17 2 47 0 65 -2 17 -4 3 -4 -33z"/>
<path d="M1630 9990 c0 -13 -5 -18 -15 -14 -21 8 -45 -14 -45 -41 0 -28 19
-45 48 -42 20 1 22 7 22 59 0 32 -2 58 -5 58 -3 0 -5 -9 -5 -20z m-6 -68 c-13
-20 -25 -20 -38 1 -7 10 -5 21 4 32 12 15 15 15 29 0 12 -12 13 -19 5 -33z"/>
<path d="M1004 9972 c-32 -22 -18 -85 18 -80 12 2 24 10 26 18 5 13 3 13 -11
2 -9 -8 -21 -11 -27 -7 -20 12 -10 25 20 25 31 0 39 17 18 38 -14 14 -28 15
-44 4z m34 -20 c2 -7 -6 -12 -17 -12 -21 0 -27 11 -14 24 9 9 26 2 31 -12z"/>
<path d="M1078 9955 c-8 -19 -9 -31 -1 -43 13 -21 55 -22 61 -2 4 13 3 13 -11
2 -9 -8 -21 -11 -27 -7 -20 12 -10 25 20 25 26 0 28 2 21 23 -12 33 -48 34
-63 2z m50 -3 c2 -7 -6 -12 -17 -12 -21 0 -27 11 -14 24 9 9 26 2 31 -12z"/>
<path d="M1410 9948 c0 -45 11 -59 43 -56 25 2 27 5 26 48 -2 34 -3 38 -6 15
-10 -63 -43 -74 -43 -15 0 22 -4 40 -10 40 -5 0 -10 -15 -10 -32z"/>
<path d="M1500 9935 c0 -25 5 -45 10 -45 6 0 10 20 10 45 0 25 -4 45 -10 45
-5 0 -10 -20 -10 -45z"/>
<path d="M1672 9968 c-16 -16 -15 -53 3 -68 18 -15 47 -10 53 10 5 13 3 13
-12 1 -15 -12 -19 -12 -34 2 -15 16 -14 17 16 17 25 0 32 4 32 19 0 28 -37 40
-58 19z m46 -16 c2 -7 -7 -12 -23 -12 -24 0 -26 2 -15 15 14 17 31 16 38 -3z"/>
<path d="M1751 9930 c2 -34 3 -37 6 -15 3 17 11 37 18 45 12 14 12 16 -5 16
-17 0 -20 -7 -19 -46z"/>
<path d="M730 9930 c0 -13 7 -20 20 -20 13 0 20 7 20 20 0 13 -7 20 -20 20
-13 0 -20 -7 -20 -20z m30 0 c0 -5 -4 -10 -10 -10 -5 0 -10 5 -10 10 0 6 5 10
10 10 6 0 10 -4 10 -10z"/>
<path d="M1258 9933 c6 -2 18 -2 25 0 6 3 1 5 -13 5 -14 0 -19 -2 -12 -5z"/>
<path d="M1113 9873 c131 -2 343 -2 470 0 128 1 21 2 -238 2 -258 0 -363 -1
-232 -2z"/>
<path d="M890 9760 c0 -68 17 -82 22 -17 l3 42 25 -42 c14 -24 28 -43 33 -43
4 0 6 28 5 63 l-1 62 -6 -50 -6 -50 -28 48 c-15 26 -32 47 -37 47 -6 0 -10
-27 -10 -60z"/>
<path d="M1313 9760 c0 -36 2 -55 4 -42 5 28 19 28 33 1 16 -29 23 -17 9 14
-9 21 -9 30 1 42 7 8 8 15 2 15 -5 0 -16 -7 -23 -17 -13 -15 -15 -13 -20 18
-5 24 -6 16 -6 -31z"/>
<path d="M1508 9799 c-7 -20 6 -92 17 -96 8 -2 11 41 6 100 -1 11 -19 8 -23
-4z"/>
<path d="M1008 9765 c-8 -19 -9 -31 -1 -43 13 -21 55 -22 61 -2 4 13 3 13 -11
2 -9 -8 -21 -11 -27 -7 -20 12 -10 25 20 25 26 0 28 2 21 23 -12 33 -48 34
-63 2z m50 -3 c2 -7 -6 -12 -17 -12 -21 0 -27 11 -14 24 9 9 26 2 31 -12z"/>
<path d="M1090 9758 c0 -45 11 -59 43 -56 25 2 27 5 26 48 -2 34 -3 38 -6 15
-10 -63 -43 -74 -43 -15 0 22 -4 40 -10 40 -5 0 -10 -15 -10 -32z"/>
<path d="M1180 9745 c0 -25 5 -45 10 -45 6 0 10 20 10 45 0 25 -4 45 -10 45
-5 0 -10 -20 -10 -45z"/>
<path d="M1219 9769 c-16 -31 4 -73 31 -66 11 3 20 1 20 -4 0 -5 -88 -10 -197
-11 l-198 -2 190 -5 c105 -4 298 -4 430 -1 l240 6 -227 2 -228 2 0 48 c0 43
-2 48 -25 50 -16 1 -28 -5 -36 -19z m46 -25 c0 -19 -5 -29 -15 -29 -16 0 -25
28 -16 51 10 25 31 10 31 -22z"/>
<path d="M1404 9782 c-32 -22 -18 -85 18 -80 12 2 24 10 26 18 5 13 3 13 -11
2 -9 -8 -21 -11 -27 -7 -20 12 -10 25 20 25 31 0 39 17 18 38 -14 14 -28 15
-44 4z m34 -20 c2 -7 -6 -12 -17 -12 -21 0 -27 11 -14 24 9 9 26 2 31 -12z"/>
<path d="M1483 9745 c0 -27 2 -38 4 -22 2 15 2 37 0 50 -2 12 -4 0 -4 -28z"/>
<path d="M1558 9765 c-8 -19 -9 -31 -1 -43 13 -21 55 -22 61 -2 4 13 3 13 -11
2 -9 -8 -21 -11 -27 -7 -20 12 -10 25 20 25 26 0 28 2 21 23 -12 33 -48 34
-63 2z m50 -3 c2 -7 -6 -12 -17 -12 -21 0 -27 11 -14 24 9 9 26 2 31 -12z"/>
<path d="M1651 9741 l2 -46 6 40 c4 26 11 40 21 40 10 0 17 -14 21 -40 l7 -40
-2 45 c-1 42 -3 45 -28 46 -27 1 -28 -1 -27 -45z"/>
<path d="M730 9740 c0 -13 7 -20 20 -20 13 0 20 7 20 20 0 13 -7 20 -20 20
-13 0 -20 -7 -20 -20z m30 0 c0 -5 -4 -10 -10 -10 -5 0 -10 5 -10 10 0 6 5 10
10 10 6 0 10 -4 10 -10z"/>
<path d="M894 9606 c13 -53 36 -100 45 -90 12 13 42 106 36 112 -2 3 -9 -8
-15 -24 -26 -72 -26 -72 -40 -29 -15 49 -36 73 -26 31z"/>
<path d="M1142 9615 c-4 -9 -18 -17 -30 -18 -19 -1 -22 -7 -21 -47 l2 -45 6
40 c4 27 12 41 24 43 14 3 17 -4 19 -40 l1 -43 4 40 c3 22 10 43 16 47 9 6 8
8 -2 8 -11 0 -11 3 -1 15 8 10 9 15 2 15 -6 0 -15 -7 -20 -15z"/>
<path d="M1220 9619 c0 -5 5 -7 10 -4 6 3 10 8 10 11 0 2 -4 4 -10 4 -5 0 -10
-5 -10 -11z"/>
<path d="M1361 9575 c-1 -56 1 -61 21 -62 31 -3 48 15 48 48 0 28 -28 48 -49
34 -5 -3 -12 5 -14 17 -2 13 -5 -4 -6 -37z m57 -29 c-4 -25 -27 -28 -41 -4 -8
12 -7 21 2 32 18 21 43 2 39 -28z"/>
<path d="M1740 9610 c-24 -24 -25 -48 -4 -78 12 -18 24 -22 55 -20 35 3 39 6
39 31 0 23 -4 27 -27 26 -27 -1 -27 -1 -4 -8 23 -6 23 -7 7 -24 -20 -20 -21
-20 -47 -7 -36 20 -17 90 25 90 2 0 12 -7 20 -16 14 -13 16 -13 16 -1 0 31
-52 35 -80 7z"/>
<path d="M1990 9611 c0 -14 -5 -18 -19 -14 -27 7 -47 -31 -32 -63 8 -18 17
-23 41 -21 30 2 30 3 30 60 0 31 -4 57 -10 57 -5 0 -10 -9 -10 -19z m-5 -57
c0 -19 -5 -29 -15 -29 -16 0 -25 28 -16 51 10 25 31 10 31 -22z"/>
<path d="M2208 9610 c-5 -17 4 -100 11 -100 4 0 5 16 3 36 -3 20 0 39 6 43 6
4 5 10 -3 18 -8 8 -15 8 -17 3z"/>
<path d="M998 9575 c-8 -19 -9 -31 -1 -43 13 -21 55 -22 61 -2 4 13 3 13 -11
2 -9 -8 -21 -11 -27 -7 -20 12 -10 25 20 25 26 0 28 2 21 23 -12 33 -48 34
-63 2z m50 -3 c2 -7 -6 -12 -17 -12 -21 0 -27 11 -14 24 9 9 26 2 31 -12z"/>
<path d="M1180 9568 c0 -45 11 -59 43 -56 25 2 27 5 26 48 -2 34 -3 38 -6 15
-10 -63 -43 -74 -43 -15 0 22 -4 40 -10 40 -5 0 -10 -15 -10 -32z"/>
<path d="M1280 9590 c-6 -4 -10 -22 -8 -41 2 -28 7 -34 26 -33 12 0 22 -3 22
-8 0 -4 -100 -8 -222 -8 -122 0 -219 -2 -216 -5 7 -7 1439 -7 1446 0 3 3 -49
5 -116 5 l-122 0 0 48 c0 42 -3 48 -22 49 -29 3 -48 -14 -48 -42 0 -27 24 -49
45 -41 8 3 15 1 15 -4 0 -6 -139 -10 -372 -10 l-373 0 3 49 c4 46 2 49 -21 49
-14 0 -30 -4 -37 -8z m35 -36 c0 -19 -5 -29 -15 -29 -16 0 -25 28 -16 51 10
25 31 10 31 -22z m759 20 c8 -20 -2 -54 -14 -54 -17 0 -29 34 -19 52 12 22 25
23 33 2z"/>
<path d="M1457 9594 c-14 -14 -7 -26 8 -14 12 10 19 10 27 2 8 -8 4 -14 -16
-22 -38 -14 -31 -44 10 -47 30 -1 30 -1 25 40 -5 32 -11 43 -26 45 -12 2 -24
0 -28 -4z m41 -56 c-7 -19 -38 -22 -38 -4 0 10 9 16 21 16 12 0 19 -5 17 -12z"/>
<path d="M1541 9550 c2 -34 3 -37 6 -15 3 17 12 38 20 47 14 15 13 17 -6 15
-18 -1 -21 -7 -20 -47z"/>
<path d="M1600 9586 c-15 -20 -9 -56 12 -70 14 -8 22 -7 35 8 17 18 17 18 -5
7 -23 -12 -42 -8 -42 10 0 5 14 9 30 9 31 0 39 17 18 38 -16 16 -33 15 -48 -2z
m40 -11 c11 -13 8 -15 -14 -15 -25 0 -33 10 -19 23 10 11 19 8 33 -8z"/>
<path d="M1857 9594 c-14 -14 -7 -26 8 -14 12 10 19 10 27 2 8 -8 4 -14 -16
-22 -38 -14 -31 -44 10 -47 30 -1 30 -1 25 40 -5 32 -11 43 -26 45 -12 2 -24
0 -28 -4z m41 -56 c-7 -19 -38 -22 -38 -4 0 10 9 16 21 16 12 0 19 -5 17 -12z"/>
<path d="M2118 9575 c-8 -19 -9 -31 -1 -43 13 -21 55 -22 61 -2 4 13 3 13 -11
2 -9 -8 -21 -11 -27 -7 -20 12 -10 25 20 25 26 0 28 2 21 23 -12 33 -48 34
-63 2z m50 -3 c2 -7 -6 -12 -17 -12 -21 0 -27 11 -14 24 9 9 26 2 31 -12z"/>
<path d="M2257 9593 c-15 -14 -6 -34 20 -44 20 -7 23 -13 15 -21 -9 -9 -15 -9
-24 0 -18 18 -33 15 -18 -3 17 -20 54 -15 58 7 2 12 -6 21 -23 28 -15 6 -23
15 -20 21 4 6 13 8 21 5 8 -3 14 -1 14 4 0 11 -33 14 -43 3z"/>
<path d="M730 9550 c0 -13 7 -20 20 -20 13 0 20 7 20 20 0 13 -7 20 -20 20
-13 0 -20 -7 -20 -20z m30 0 c0 -5 -4 -10 -10 -10 -5 0 -10 5 -10 10 0 6 5 10
10 10 6 0 10 -4 10 -10z"/>
<path d="M903 9380 c0 -36 2 -50 4 -32 2 17 2 47 0 65 -2 17 -4 3 -4 -33z"/>
<path d="M1028 9423 c-2 -10 -1 -38 3 -63 l6 -45 2 40 c2 22 4 50 5 63 3 26
-10 30 -16 5z"/>
<path d="M2136 9418 c-9 -12 -16 -32 -16 -44 0 -24 29 -54 53 -54 18 0 47 26
47 43 0 6 -9 1 -20 -11 -24 -25 -31 -27 -48 -10 -23 23 -9 88 19 88 4 0 15 -7
24 -16 9 -9 18 -14 21 -11 9 8 -27 37 -46 37 -10 0 -26 -10 -34 -22z"/>
<path d="M2422 9423 c-4 -10 -5 -38 -1 -63 l6 -45 1 42 c1 23 8 44 15 46 9 4
8 6 -2 6 -11 1 -11 4 -1 16 8 10 9 15 2 15 -6 0 -15 -8 -20 -17z"/>
<path d="M2460 9380 c0 -33 4 -60 10 -60 6 0 10 27 10 60 0 33 -4 60 -10 60
-6 0 -10 -27 -10 -60z"/>
<path d="M1428 9419 c-7 -20 6 -92 17 -96 8 -2 11 41 6 100 -1 11 -19 8 -23
-4z"/>
<path d="M930 9364 c0 -54 18 -59 22 -6 4 52 31 50 39 -3 l7 -40 -2 45 c-1 43
-2 45 -33 47 -33 1 -33 1 -33 -43z"/>
<path d="M1069 9389 c-8 -16 -8 -28 0 -45 18 -41 71 -25 71 21 0 44 -50 61
-71 24z m50 -8 c7 -13 6 -23 -3 -36 -16 -22 -36 -12 -36 19 0 39 22 49 39 17z"/>
<path d="M1162 9360 c1 -40 2 -41 5 -10 2 19 11 40 20 47 13 10 13 12 -6 10
-18 -1 -21 -7 -19 -47z"/>
<path d="M1211 9361 l2 -46 6 40 c4 26 11 40 21 40 10 0 17 -14 21 -40 l6 -40
2 37 c1 35 15 57 28 44 3 -3 10 -23 14 -43 l7 -38 -1 45 -2 45 -52 1 -53 1 1
-46z"/>
<path d="M1356 9402 c-3 -6 3 -8 14 -5 14 4 20 0 20 -10 0 -9 -10 -17 -22 -19
-15 -2 -23 -10 -23 -23 0 -16 7 -20 35 -21 l36 -1 -6 41 c-4 32 -10 42 -27 44
-11 2 -24 -1 -27 -6z m32 -58 c-9 -9 -21 -13 -27 -9 -16 10 -3 25 22 25 20 0
20 -1 5 -16z"/>
<path d="M1483 9365 c0 -27 2 -38 4 -22 2 15 2 37 0 50 -2 12 -4 0 -4 -28z"/>
<path d="M1523 9403 c-7 -2 -13 -20 -13 -38 0 -25 5 -35 20 -40 26 -8 50 11
50 39 0 36 -25 53 -57 39z m41 -26 c8 -12 7 -21 -6 -33 -20 -20 -38 -11 -38
20 0 39 23 46 44 13z"/>
<path d="M1601 9361 c2 -34 3 -38 6 -16 10 63 43 74 43 15 0 -22 5 -40 11 -40
6 0 9 17 7 43 -3 40 -5 42 -35 43 -33 1 -33 1 -32 -45z"/>
<path d="M1704 9402 c-32 -22 -18 -85 18 -80 12 2 24 10 26 18 5 13 3 13 -11
2 -9 -8 -21 -11 -27 -7 -20 12 -10 25 20 25 31 0 39 17 18 38 -14 14 -28 15
-44 4z m34 -20 c2 -7 -6 -12 -17 -12 -21 0 -27 11 -14 24 9 9 26 2 31 -12z"/>
<path d="M1781 9361 c1 -25 3 -37 6 -26 2 11 6 30 9 43 8 39 32 26 37 -20 l4
-43 -1 45 c-1 42 -3 45 -28 46 -27 1 -28 -1 -27 -45z"/>
<path d="M1928 9403 c27 -5 27 -8 2 -40 -28 -35 -25 -43 13 -42 30 2 30 2 4 6
l-27 4 25 33 c32 42 32 46 -7 45 -24 -1 -27 -3 -10 -6z"/>
<path d="M1994 9370 c1 -43 2 -45 34 -48 32 -3 32 -3 32 42 0 55 -17 62 -22 9
-4 -53 -31 -51 -39 2 l-7 40 2 -45z"/>
<path d="M2253 9403 c-7 -2 -13 -20 -13 -38 0 -25 5 -35 20 -40 26 -8 50 11
50 39 0 36 -25 53 -57 39z m41 -26 c8 -12 7 -21 -6 -33 -20 -20 -38 -11 -38
20 0 39 23 46 44 13z"/>
<path d="M2331 9361 c1 -25 3 -37 6 -26 2 11 6 30 9 43 8 39 32 26 37 -20 l4
-43 -1 45 c-1 42 -3 45 -28 46 -27 1 -28 -1 -27 -45z"/>
<path d="M2504 9370 c1 -42 3 -45 29 -46 26 -1 27 1 26 45 l-2 46 -6 -40 c-4
-26 -11 -40 -21 -40 -10 0 -17 14 -21 40 l-7 40 2 -45z"/>
<path d="M2588 9385 c-8 -19 -9 -31 -1 -43 13 -21 55 -22 61 -2 4 13 3 13 -11
2 -9 -8 -21 -11 -27 -7 -20 12 -10 25 20 25 26 0 28 2 21 23 -12 33 -48 34
-63 2z m50 -3 c2 -7 -6 -12 -17 -12 -21 0 -27 11 -14 24 9 9 26 2 31 -12z"/>
<path d="M2681 9361 l2 -46 6 40 c4 26 11 40 21 40 10 0 17 -14 21 -40 l7 -40
-2 45 c-1 42 -3 45 -28 46 -27 1 -28 -1 -27 -45z"/>
<path d="M2770 9396 c-30 -37 14 -96 47 -63 11 10 13 17 5 17 -7 0 -12 -4 -12
-10 0 -16 -27 -11 -34 6 -13 33 13 71 29 44 3 -5 11 -10 17 -10 7 0 6 6 -2 15
-16 19 -34 19 -50 1z"/>
<path d="M2852 9398 c-16 -16 -15 -53 3 -68 18 -15 47 -10 53 10 5 13 3 13
-12 1 -15 -12 -19 -12 -34 2 -15 16 -14 17 16 17 25 0 32 4 32 19 0 28 -37 40
-58 19z m46 -16 c2 -7 -7 -12 -23 -12 -24 0 -26 2 -15 15 14 17 31 16 38 -3z"/>
<path d="M730 9360 c0 -13 7 -20 20 -20 13 0 20 7 20 20 0 13 -7 20 -20 20
-13 0 -20 -7 -20 -20z m30 0 c0 -5 -4 -10 -10 -10 -5 0 -10 5 -10 10 0 6 5 10
10 10 6 0 10 -4 10 -10z"/>
<path d="M1393 9303 c285 -2 749 -2 1030 0 282 1 49 2 -518 2 -566 0 -797 -1
-512 -2z"/>
<path d="M330 9170 c0 -13 7 -20 20 -20 13 0 20 7 20 20 0 13 -7 20 -20 20
-13 0 -20 -7 -20 -20z"/>
<path d="M330 8980 c0 -13 7 -20 20 -20 13 0 20 7 20 20 0 13 -7 20 -20 20
-13 0 -20 -7 -20 -20z"/>
<path d="M330 8790 c0 -13 7 -20 20 -20 13 0 20 7 20 20 0 13 -7 20 -20 20
-13 0 -20 -7 -20 -20z"/>
<path d="M504 8620 c-12 -33 -18 -60 -13 -60 4 0 11 9 14 20 9 28 51 27 60 -2
3 -13 8 -18 11 -12 6 14 -30 107 -42 111 -5 2 -18 -24 -30 -57z m45 -2 c1 -5
-6 -8 -14 -8 -16 0 -19 9 -8 36 6 16 7 16 14 -2 4 -10 8 -22 8 -26z"/>
<path d="M913 8620 c0 -36 2 -50 4 -32 2 17 2 47 0 65 -2 17 -4 3 -4 -33z"/>
<path d="M1000 8660 c0 -13 -5 -18 -15 -14 -21 8 -45 -14 -45 -41 0 -28 19
-45 48 -42 20 1 22 7 22 59 0 32 -2 58 -5 58 -3 0 -5 -9 -5 -20z m-6 -68 c-13
-20 -25 -20 -38 1 -7 10 -5 21 4 32 12 15 15 15 29 0 12 -12 13 -19 5 -33z"/>
<path d="M601 8601 l2 -46 6 40 c4 26 11 40 21 40 10 0 17 -14 21 -40 l7 -40
-2 45 c-1 42 -3 45 -28 46 -27 1 -28 -1 -27 -45z"/>
<path d="M692 8601 c1 -41 2 -42 5 -11 8 66 41 63 44 -5 2 -26 3 -25 8 9 8 55
31 60 31 7 0 -23 5 -41 10 -41 12 0 13 60 2 76 -4 6 -28 11 -54 11 l-48 -1 2
-45z"/>
<path d="M834 8642 c-32 -22 -18 -85 18 -80 12 2 24 10 26 18 5 13 3 13 -11 2
-9 -8 -21 -11 -27 -7 -20 12 -10 25 20 25 31 0 39 17 18 38 -14 14 -28 15 -44
4z m34 -20 c2 -7 -6 -12 -17 -12 -21 0 -27 11 -14 24 9 9 26 2 31 -12z"/>
<path d="M1040 8636 c-15 -20 -9 -56 12 -70 14 -8 22 -7 35 8 17 18 17 18 -5
7 -23 -12 -42 -8 -42 10 0 5 14 9 30 9 31 0 39 17 18 38 -16 16 -33 15 -48 -2z
m40 -11 c11 -13 8 -15 -14 -15 -25 0 -33 10 -19 23 10 11 19 8 33 -8z"/>
<path d="M1121 8601 c2 -34 3 -38 6 -16 10 63 43 74 43 15 0 -22 5 -40 11 -40
6 0 9 17 7 43 -3 40 -5 42 -35 43 -33 1 -33 1 -32 -45z"/>
<path d="M330 8600 c0 -13 7 -20 20 -20 13 0 20 7 20 20 0 13 -7 20 -20 20
-13 0 -20 -7 -20 -20z"/>
<path d="M663 8543 c104 -2 270 -2 370 0 100 1 16 2 -188 2 -203 0 -285 -1
-182 -2z"/>
<path d="M145 7928 c-2 -7 -16 -45 -30 -84 -30 -84 -30 -84 -9 -84 9 0 18 9
21 20 4 15 14 20 38 20 25 0 35 -5 40 -20 3 -11 15 -20 25 -20 17 0 16 6 -12
90 -24 72 -34 90 -49 90 -11 0 -22 -6 -24 -12z m40 -75 c5 -19 2 -23 -14 -23
-23 0 -24 3 -15 38 7 26 18 20 29 -15z"/>
<path d="M760 7850 c0 -73 3 -90 15 -90 12 0 15 17 15 90 0 73 -3 90 -15 90
-12 0 -15 -17 -15 -90z"/>
<path d="M910 7910 c0 -27 -2 -29 -29 -24 -22 5 -32 1 -45 -17 -20 -29 -21
-73 -1 -92 9 -9 32 -15 60 -15 l45 1 0 89 c0 72 -3 88 -15 88 -10 0 -15 -10
-15 -30z m-4 -74 c7 -30 -1 -46 -26 -46 -21 0 -33 25 -25 51 9 28 43 24 51 -5z"/>
<path d="M270 7824 c0 -49 3 -64 14 -64 11 0 16 14 18 48 3 39 6 47 23 47 17
0 20 -8 23 -47 2 -34 7 -48 18 -48 18 0 20 103 2 118 -7 5 -32 10 -55 9 l-43
0 0 -63z"/>
<path d="M410 7824 c0 -57 2 -64 20 -64 17 0 20 7 20 51 0 43 3 50 18 47 13
-2 18 -15 20 -51 2 -32 8 -47 17 -47 9 0 15 15 17 47 2 36 7 49 21 51 14 3 17
-4 17 -47 0 -44 3 -51 20 -51 16 0 20 7 20 38 0 20 -3 47 -6 60 -7 26 -48 40
-68 23 -9 -8 -16 -8 -20 -2 -3 5 -26 9 -51 9 l-45 0 0 -64z"/>
<path d="M637 7872 c-35 -38 -10 -112 37 -112 22 0 56 18 56 30 0 5 -16 8 -36
7 -22 -1 -39 3 -41 11 -3 8 9 12 41 12 52 0 60 16 26 50 -25 25 -62 26 -83 2z
m63 -22 c0 -5 -12 -10 -26 -10 -14 0 -23 4 -19 10 3 6 15 10 26 10 10 0 19 -4
19 -10z"/>
<path d="M985 7876 c-13 -9 -19 -26 -19 -51 0 -61 61 -88 100 -44 l19 21 -42
-7 c-36 -6 -43 -4 -43 9 0 12 10 16 40 16 32 0 40 4 40 18 0 43 -58 66 -95 38z
m60 -26 c4 -6 -5 -10 -19 -10 -14 0 -26 5 -26 10 0 6 9 10 19 10 11 0 23 -4
26 -10z"/>
<path d="M1110 7824 c0 -49 3 -64 14 -64 11 0 16 14 18 48 3 39 6 47 23 47 17
0 20 -8 23 -47 2 -34 7 -48 18 -48 18 0 20 103 2 118 -7 5 -32 10 -55 9 l-43
0 0 -63z"/>
<path d="M270 7411 l0 -61 34 0 c39 0 62 21 51 47 -4 10 -8 29 -9 43 -1 21 -6
25 -38 28 l-38 3 0 -60z m65 29 c0 -8 -10 -16 -22 -18 -18 -3 -23 2 -23 18 0
16 5 21 23 18 12 -2 22 -10 22 -18z m0 -55 c0 -13 -8 -21 -22 -23 -19 -3 -23
1 -23 23 0 22 4 26 23 23 14 -2 22 -10 22 -23z"/>
<path d="M560 7454 c-17 -20 -17 -68 0 -88 24 -30 80 -14 80 23 0 11 -6 9 -20
-7 -28 -30 -60 -14 -60 28 0 40 34 59 61 34 20 -18 27 -6 7 14 -17 17 -53 15
-68 -4z"/>
<path d="M842 7453 c-4 -10 -5 -38 -1 -63 6 -42 6 -43 7 -9 1 19 7 40 14 47 9
9 9 12 -1 12 -11 0 -11 3 -1 15 8 10 9 15 2 15 -6 0 -15 -8 -20 -17z"/>
<path d="M880 7410 c0 -33 4 -60 10 -60 6 0 10 27 10 60 0 33 -4 60 -10 60 -6
0 -10 -27 -10 -60z"/>
<path d="M378 7414 c-9 -18 -9 -30 -1 -42 13 -21 55 -22 61 -2 4 13 3 13 -11
2 -9 -8 -21 -11 -27 -7 -20 12 -10 25 20 25 33 0 35 3 20 31 -15 27 -48 24
-62 -7z m50 -2 c2 -7 -6 -12 -17 -12 -21 0 -27 11 -14 24 9 9 26 2 31 -12z"/>
<path d="M473 7395 c0 -27 2 -38 4 -22 2 15 2 37 0 50 -2 12 -4 0 -4 -28z"/>
<path d="M673 7433 c-7 -2 -13 -20 -13 -38 0 -25 5 -35 20 -40 26 -8 50 11 50
39 0 36 -25 53 -57 39z m41 -26 c8 -12 7 -21 -6 -33 -20 -20 -38 -11 -38 20 0
39 23 46 44 13z"/>
<path d="M751 7390 l1 -45 8 38 c4 20 10 40 13 43 13 13 27 -9 27 -42 0 -19 5
-34 10 -34 12 0 13 60 2 78 -5 6 -20 11 -35 10 -25 -2 -27 -5 -26 -48z"/>
<path d="M924 7400 c1 -41 3 -45 29 -48 26 -3 27 -2 26 45 l-2 48 -6 -40 c-4
-26 -11 -40 -21 -40 -10 0 -17 14 -21 40 l-7 40 2 -45z"/>
<path d="M1010 7414 c-19 -48 28 -87 60 -49 14 17 0 21 -17 4 -6 -6 -16 -8
-22 -5 -21 13 -11 26 19 26 31 0 39 17 18 38 -20 20 -48 14 -58 -14z m48 -2
c2 -7 -6 -12 -17 -12 -21 0 -27 11 -14 24 9 9 26 2 31 -12z"/>
<path d="M1101 7391 l2 -46 6 40 c4 26 11 40 21 40 10 0 17 -14 21 -40 l7 -40
-2 45 c-1 42 -3 45 -28 46 -27 1 -28 -1 -27 -45z"/>
<path d="M1192 7428 c-16 -16 -15 -53 3 -68 18 -15 47 -10 53 10 5 13 3 13
-11 1 -14 -11 -20 -11 -32 -1 -19 15 -19 21 -1 45 12 16 16 17 30 6 9 -7 16
-9 16 -3 0 9 -22 22 -39 22 -4 0 -12 -5 -19 -12z"/>
<path d="M1268 7414 c-9 -18 -9 -30 -1 -42 13 -21 55 -22 61 -2 4 13 3 13 -11
2 -9 -8 -21 -11 -27 -7 -20 12 -10 25 20 25 33 0 35 3 20 31 -15 27 -48 24
-62 -7z m50 -2 c2 -7 -6 -12 -17 -12 -21 0 -27 11 -14 24 9 9 26 2 31 -12z"/>
<path d="M102 6588 l3 -713 2 707 3 707 68 4 67 3 -72 2 -73 2 2 -712z"/>
<path d="M4107 7293 c1107 -2 2919 -2 4025 0 1107 1 202 2 -2012 2 -2214 0
-3119 -1 -2013 -2z"/>
<path d="M673 7220 c0 -36 2 -50 4 -32 2 17 2 47 0 65 -2 17 -4 3 -4 -33z"/>
<path d="M760 7260 c0 -13 -5 -18 -15 -14 -21 8 -45 -14 -45 -41 0 -28 19 -45
48 -42 20 1 22 7 22 59 0 32 -2 58 -5 58 -3 0 -5 -9 -5 -20z m-5 -56 c0 -32
-21 -39 -38 -12 -8 12 -7 21 3 32 19 24 35 14 35 -20z"/>
<path d="M10120 6590 l0 -690 -5002 -3 -5003 -2 5008 -3 5007 -2 0 695 c0 382
-2 695 -5 695 -3 0 -5 -310 -5 -690z"/>
<path d="M277 7243 c-14 -13 -7 -25 8 -13 8 6 19 9 25 5 17 -11 11 -23 -12
-27 -15 -2 -23 -10 -23 -23 0 -16 7 -20 36 -21 34 -1 35 0 31 30 -3 17 -9 37
-14 44 -11 13 -40 16 -51 5z m43 -52 c0 -14 -18 -23 -30 -16 -6 4 -8 11 -5 16
8 12 35 12 35 0z"/>
<path d="M361 7200 l1 -45 8 38 c4 20 10 40 13 43 13 13 27 -9 27 -42 0 -19 5
-34 10 -34 12 0 13 60 2 78 -5 6 -20 11 -35 10 -25 -2 -27 -5 -26 -48z"/>
<path d="M451 7201 l2 -46 6 40 c4 26 11 40 21 40 10 0 17 -14 21 -40 l6 -40
2 37 c1 35 15 57 28 44 3 -3 10 -23 14 -43 l7 -38 -1 45 -2 45 -52 1 -53 1 1
-46z"/>
<path d="M592 7238 c-20 -20 -15 -66 8 -73 20 -6 56 12 45 23 -2 3 -11 -1 -19
-7 -8 -7 -20 -10 -26 -6 -20 12 -10 25 20 25 18 0 30 5 30 13 0 16 -20 37 -35
37 -6 0 -16 -5 -23 -12z m29 -26 c-28 -4 -40 6 -21 18 9 6 20 4 29 -3 12 -10
11 -13 -8 -15z"/>
<path d="M802 7238 c-16 -16 -15 -53 3 -68 18 -15 47 -10 53 10 5 13 3 13 -12
1 -15 -12 -19 -12 -34 2 -15 16 -14 17 17 17 28 0 32 3 29 23 -3 25 -36 35
-56 15z m46 -16 c2 -7 -7 -12 -23 -12 -24 0 -26 2 -15 15 14 17 31 16 38 -3z"/>
<path d="M880 7206 c0 -55 17 -62 22 -8 4 52 31 50 39 -3 l7 -40 -2 45 c-1 43
-2 45 -33 48 -33 3 -33 3 -33 -42z"/>
<path d="M1350 6920 l0 -110 925 0 925 0 0 110 0 110 -925 0 -925 0 0 -110z
m1840 0 l0 -100 -915 0 -915 0 0 100 0 100 915 0 915 0 0 -100z"/>
<path d="M250 6951 l0 -61 34 0 c39 0 62 21 51 47 -4 10 -8 29 -9 43 -1 21 -6
25 -38 28 l-38 3 0 -60z m65 29 c0 -8 -10 -16 -22 -18 -18 -3 -23 2 -23 18 0
16 5 21 23 18 12 -2 22 -10 22 -18z m0 -55 c0 -13 -8 -21 -22 -23 -19 -3 -23
1 -23 23 0 22 4 26 23 23 14 -2 22 -10 22 -23z"/>
<path d="M628 6990 c-2 -6 -2 -31 0 -55 l4 -45 52 1 c28 1 41 4 29 6 -28 5
-28 11 -3 43 27 34 25 40 -12 39 -28 -1 -29 -2 -10 -7 l22 -7 -22 -32 c-13
-18 -29 -33 -35 -33 -15 0 -18 66 -4 72 5 2 3 8 -4 15 -8 8 -15 8 -17 3z"/>
<path d="M372 6968 c-20 -20 -15 -66 8 -73 20 -6 56 12 45 23 -2 3 -11 -1 -19
-7 -8 -7 -20 -10 -26 -6 -20 12 -10 25 20 25 18 0 30 5 30 13 0 16 -20 37 -35
37 -6 0 -16 -5 -23 -12z m29 -26 c-28 -4 -40 6 -21 18 9 6 20 4 29 -3 12 -10
11 -13 -8 -15z"/>
<path d="M451 6930 l1 -45 8 38 c4 20 10 40 13 43 13 13 27 -9 27 -42 0 -19 5
-34 10 -34 12 0 13 60 2 78 -5 6 -20 11 -35 10 -25 -2 -27 -5 -26 -48z"/>
<path d="M544 6940 c1 -41 3 -45 29 -48 26 -3 27 -2 26 45 l-2 48 -6 -40 c-4
-26 -11 -40 -21 -40 -10 0 -17 14 -21 40 l-7 40 2 -45z"/>
<path d="M762 6968 c-20 -20 -15 -66 8 -73 20 -6 56 12 45 23 -2 3 -11 -1 -19
-7 -8 -7 -20 -10 -26 -6 -20 12 -10 25 20 25 18 0 30 5 30 13 0 16 -20 37 -35
37 -6 0 -16 -5 -23 -12z m29 -26 c-28 -4 -40 6 -21 18 9 6 20 4 29 -3 12 -10
11 -13 -8 -15z"/>
<path d="M841 6930 c1 -43 1 -44 9 -13 4 18 13 39 19 47 10 12 9 15 -8 13 -18
-1 -21 -8 -20 -47z"/>
<path d="M890 6936 c0 -55 17 -62 22 -8 4 52 31 50 39 -3 l7 -40 -2 45 c-1 43
-2 45 -33 48 -33 3 -33 3 -33 -42z"/>
<path d="M987 6973 c-14 -13 -7 -25 8 -13 8 6 19 9 25 5 17 -11 11 -23 -12
-27 -15 -2 -23 -10 -23 -23 0 -16 7 -20 36 -21 34 -1 35 0 31 30 -3 17 -9 37
-14 44 -11 13 -40 16 -51 5z m43 -52 c0 -14 -18 -23 -30 -16 -6 4 -8 11 -5 16
8 12 35 12 35 0z"/>
<path d="M1071 6931 c2 -34 3 -38 6 -16 10 64 42 69 44 7 1 -20 3 -28 6 -17 2
11 6 30 9 43 7 35 28 21 35 -24 l7 -39 -2 45 -1 45 -52 1 -53 1 1 -46z"/>
<path d="M1212 6968 c-16 -16 -15 -53 3 -68 18 -15 47 -10 53 10 5 13 3 13
-12 1 -15 -12 -19 -12 -34 2 -15 16 -14 17 17 17 28 0 32 3 29 23 -3 25 -36
35 -56 15z m46 -16 c2 -7 -7 -12 -23 -12 -24 0 -26 2 -15 15 14 17 31 16 38
-3z"/>
<path d="M268 6873 c17 -2 47 -2 65 0 17 2 3 4 -33 4 -36 0 -50 -2 -32 -4z"/>
<path d="M970 6670 l0 -110 925 0 925 0 0 110 0 110 -925 0 -925 0 0 -110z
m1840 0 l0 -100 -915 0 -915 0 0 100 0 100 915 0 915 0 0 -100z"/>
<path d="M250 6700 c0 -33 4 -60 10 -60 6 0 10 11 10 24 0 19 6 25 26 28 63 7
51 68 -12 68 l-34 0 0 -60z m65 25 c0 -13 -8 -21 -22 -23 -19 -3 -23 1 -23 23
0 22 4 26 23 23 14 -2 22 -10 22 -23z"/>
<path d="M868 6738 c-2 -6 -16 -10 -31 -10 -25 0 -27 -3 -27 -44 0 -54 18 -59
22 -7 2 27 8 39 21 41 14 3 17 -4 17 -37 0 -33 4 -41 18 -40 10 0 12 3 5 6
-15 5 -18 70 -4 75 5 2 3 8 -4 15 -9 9 -15 9 -17 1z"/>
<path d="M367 6723 c-14 -13 -7 -25 8 -13 8 6 19 9 25 5 17 -11 11 -23 -12
-27 -15 -2 -23 -10 -23 -23 0 -16 7 -20 36 -21 34 -1 35 0 31 30 -3 17 -9 37
-14 44 -11 13 -40 16 -51 5z m43 -52 c0 -14 -18 -23 -30 -16 -6 4 -8 11 -5 16
8 12 35 12 35 0z"/>
<path d="M457 6723 c-15 -14 -6 -34 20 -44 20 -7 23 -13 15 -21 -9 -9 -15 -9
-24 0 -18 18 -33 15 -18 -3 17 -20 54 -15 58 7 2 12 -6 21 -23 28 -15 6 -23
15 -20 21 4 6 13 8 21 5 8 -3 14 -1 14 4 0 11 -33 14 -43 3z"/>
<path d="M537 6723 c-15 -14 -6 -34 20 -44 20 -7 23 -13 15 -21 -9 -9 -15 -9
-24 0 -18 18 -33 15 -18 -3 17 -20 54 -15 58 7 2 12 -6 21 -23 28 -15 6 -23
15 -20 21 4 6 13 8 21 5 8 -3 14 -1 14 4 0 11 -33 14 -43 3z"/>
<path d="M603 6714 c4 -11 9 -31 13 -46 8 -37 21 -35 30 5 l7 32 9 -32 c11
-40 24 -42 32 -5 4 15 9 35 12 45 3 9 1 17 -5 17 -6 0 -11 -11 -11 -25 0 -31
-17 -33 -22 -2 -4 27 -22 26 -26 -3 -4 -26 -22 -26 -22 -1 0 11 -5 23 -11 27
-7 4 -9 0 -6 -12z"/>
<path d="M732 6718 c-30 -30 -2 -86 38 -73 15 5 20 15 20 40 0 41 -32 59 -58
33z m43 -34 c0 -32 -21 -39 -38 -12 -8 12 -7 21 3 32 19 24 35 14 35 -20z"/>
<path d="M268 6623 c17 -2 47 -2 65 0 17 2 3 4 -33 4 -36 0 -50 -2 -32 -4z"/>
<path d="M500 6471 c0 -65 19 -87 21 -23 l1 37 12 -34 c18 -50 31 -48 47 6
l14 48 6 -50 6 -50 1 63 c1 34 -2 62 -7 62 -5 0 -17 -24 -27 -52 l-17 -53 -17
49 c-24 72 -40 71 -40 -3z"/>
<path d="M1060 6470 l0 -60 43 2 c36 1 38 2 10 5 -33 4 -33 5 -33 59 0 30 -4
54 -10 54 -6 0 -10 -27 -10 -60z"/>
<path d="M1770 6511 c0 -14 -5 -18 -18 -14 -28 7 -47 -23 -36 -55 7 -21 16
-27 42 -29 l32 -1 0 59 c0 33 -4 59 -10 59 -5 0 -10 -9 -10 -19z m-5 -57 c0
-19 -5 -29 -15 -29 -16 0 -25 28 -16 51 10 25 31 10 31 -22z"/>
<path d="M2296 6514 c-9 -8 -16 -31 -16 -50 0 -27 5 -37 26 -46 30 -14 57 -2
63 28 3 16 1 16 -15 -4 -22 -26 -49 -22 -59 9 -15 46 24 82 56 53 21 -19 27
-6 7 14 -17 17 -44 15 -62 -4z"/>
<path d="M3403 6470 c-1 -55 0 -59 7 -27 4 20 10 40 13 43 13 13 27 -9 27 -42
0 -19 5 -34 10 -34 12 0 13 60 1 79 -5 8 -18 12 -29 9 -16 -4 -22 0 -25 16 -2
11 -4 -8 -4 -44z"/>
<path d="M280 6450 l0 -70 70 0 70 0 0 70 0 70 -70 0 -70 0 0 -70z m130 0 l0
-60 -60 0 -60 0 0 60 0 60 60 0 60 0 0 -60z"/>
<path d="M2792 6504 c-7 -8 -8 -14 -2 -14 5 0 10 -18 10 -40 0 -22 3 -40 8
-40 7 0 8 98 0 105 -1 2 -9 -3 -16 -11z"/>
<path d="M642 6488 c-16 -16 -15 -53 3 -68 18 -15 47 -10 53 10 5 13 3 13 -12
1 -15 -12 -19 -12 -34 2 -15 16 -14 17 17 17 28 0 32 3 29 23 -3 25 -36 35
-56 15z m46 -16 c2 -7 -7 -12 -23 -12 -24 0 -26 2 -15 15 14 17 31 16 38 -3z"/>
<path d="M723 6455 c0 -27 2 -38 4 -22 2 15 2 37 0 50 -2 12 -4 0 -4 -28z"/>
<path d="M761 6450 l1 -45 8 38 c4 20 10 40 13 43 13 13 27 -9 27 -42 0 -19 5
-34 10 -34 12 0 13 60 2 78 -5 6 -20 11 -35 10 -25 -2 -27 -5 -26 -48z"/>
<path d="M848 6474 c-9 -18 -9 -30 -1 -42 13 -21 55 -22 61 -2 4 13 3 13 -11
2 -9 -8 -21 -11 -27 -7 -20 12 -10 25 20 25 33 0 35 3 20 31 -15 27 -48 24
-62 -7z m50 -2 c2 -7 -6 -12 -17 -12 -21 0 -27 11 -14 24 9 9 26 2 31 -12z"/>
<path d="M941 6451 l2 -46 6 40 c4 26 11 40 21 40 10 0 17 -14 21 -40 l7 -40
-2 45 c-1 42 -3 45 -28 46 -27 1 -28 -1 -27 -45z"/>
<path d="M1163 6493 c-7 -2 -13 -20 -13 -38 0 -25 5 -35 20 -40 26 -8 50 11
50 39 0 36 -25 53 -57 39z m41 -26 c8 -12 7 -21 -6 -33 -20 -20 -38 -11 -38
20 0 39 23 46 44 13z"/>
<path d="M1239 6479 c-16 -31 4 -73 32 -66 13 3 19 1 16 -6 -2 -7 -15 -11 -28
-9 -17 2 -21 0 -12 -9 6 -6 19 -9 29 -7 15 3 20 14 22 58 3 53 2 56 -22 58
-17 1 -29 -5 -37 -19z m46 -25 c0 -19 -5 -29 -15 -29 -16 0 -25 28 -16 51 10
25 31 10 31 -22z"/>
<path d="M1333 6455 c0 -27 2 -38 4 -22 2 15 2 37 0 50 -2 12 -4 0 -4 -28z"/>
<path d="M1360 6456 c0 -55 17 -62 22 -8 4 52 31 50 39 -3 l7 -40 -2 45 c-1
43 -2 45 -33 48 -33 3 -33 3 -33 -42z"/>
<path d="M1507 6494 c-14 -14 -7 -26 8 -14 12 10 19 10 27 2 8 -8 7 -13 -5
-17 -9 -3 -24 -7 -33 -10 -8 -3 -14 -13 -12 -22 2 -13 14 -18 39 -19 l35 -2
-5 42 c-5 31 -11 42 -26 44 -12 2 -24 0 -28 -4z m41 -56 c-7 -19 -38 -22 -38
-4 0 10 9 16 21 16 12 0 19 -5 17 -12z"/>
<path d="M1591 6451 l2 -46 6 40 c4 26 11 40 21 40 10 0 17 -14 21 -40 l7 -40
-2 45 c-1 42 -3 45 -28 46 -27 1 -28 -1 -27 -45z"/>
<path d="M1813 6455 c0 -27 2 -38 4 -22 2 15 2 37 0 50 -2 12 -4 0 -4 -28z"/>
<path d="M1852 6488 c-16 -16 -15 -53 3 -68 18 -15 47 -10 53 10 5 13 3 13
-12 1 -15 -12 -19 -12 -34 2 -15 16 -14 17 17 17 28 0 32 3 29 23 -3 25 -36
35 -56 15z m46 -16 c2 -7 -7 -12 -23 -12 -24 0 -26 2 -15 15 14 17 31 16 38
-3z"/>
<path d="M1937 6494 c-15 -15 -6 -35 20 -45 19 -7 23 -13 15 -21 -8 -8 -16 -7
-28 3 -15 12 -17 12 -12 -1 7 -21 52 -19 56 2 2 12 -6 21 -24 28 -20 8 -24 14
-16 22 8 8 16 7 28 -3 15 -12 17 -12 12 1 -5 16 -39 25 -51 14z"/>
<path d="M2022 6488 c-20 -20 -15 -66 8 -73 20 -6 56 12 45 23 -2 3 -11 -1
-19 -7 -8 -7 -20 -10 -26 -6 -20 12 -10 25 20 25 18 0 30 5 30 13 0 16 -20 37
-35 37 -6 0 -16 -5 -23 -12z m29 -26 c-28 -4 -40 6 -21 18 9 6 20 4 29 -3 12
-10 11 -13 -8 -15z"/>
<path d="M2101 6451 c2 -34 3 -38 6 -16 10 64 42 69 44 7 1 -20 3 -28 6 -17 2
11 6 30 9 43 7 35 28 21 35 -24 l7 -39 -2 45 -1 45 -52 1 -53 1 1 -46z"/>
<path d="M2402 6488 c-30 -30 -2 -86 38 -73 15 5 20 15 20 40 0 41 -32 59 -58
33z m43 -34 c0 -32 -21 -39 -38 -12 -8 12 -7 21 3 32 19 24 35 14 35 -20z"/>
<path d="M2480 6455 c0 -54 17 -60 22 -8 4 52 28 56 28 4 0 -50 18 -55 22 -6
4 47 21 45 29 -2 l6 -38 2 46 1 47 -55 1 -55 0 0 -44z"/>
<path d="M2610 6440 c0 -33 4 -60 10 -60 6 0 10 8 10 18 0 13 7 18 21 18 31
-1 46 26 31 58 -9 20 -19 26 -42 26 l-30 0 0 -60z m55 14 c0 -19 -5 -29 -15
-29 -16 0 -25 28 -16 51 10 25 31 10 31 -22z"/>
<path d="M2702 6458 c3 -41 5 -43 36 -44 32 -1 32 -1 31 45 -2 34 -3 38 -6 16
-10 -63 -43 -74 -43 -15 0 22 -5 40 -11 40 -6 0 -9 -17 -7 -42z"/>
<path d="M2840 6474 c-19 -48 28 -87 60 -49 14 17 0 21 -17 4 -6 -6 -16 -8
-22 -5 -21 13 -11 26 19 26 31 0 39 17 18 38 -20 20 -48 14 -58 -14z m48 -2
c2 -7 -6 -12 -17 -12 -21 0 -27 11 -14 24 9 9 26 2 31 -12z"/>
<path d="M2932 6450 c1 -40 2 -41 5 -10 2 19 11 40 20 47 13 10 13 12 -6 10
-18 -1 -21 -7 -19 -47z"/>
<path d="M3027 6494 c-15 -15 -6 -35 20 -45 19 -7 23 -13 15 -21 -8 -8 -16 -7
-28 3 -15 12 -17 12 -12 -1 6 -20 35 -25 53 -10 18 15 11 28 -23 41 -19 7 -22
13 -14 21 8 8 16 7 28 -3 15 -12 17 -12 12 1 -5 16 -39 25 -51 14z"/>
<path d="M3101 6436 c1 -34 4 -52 6 -40 3 16 10 20 28 16 19 -3 27 1 34 19 14
38 -1 64 -38 65 l-31 1 1 -61z m57 25 c5 -34 -16 -51 -33 -27 -10 14 -11 24
-4 38 13 24 33 18 37 -11z"/>
<path d="M3202 6488 c-16 -16 -15 -53 3 -68 18 -15 47 -10 53 10 5 13 3 13
-12 1 -15 -12 -19 -12 -34 2 -15 16 -14 17 17 17 28 0 32 3 29 23 -3 25 -36
35 -56 15z m46 -16 c2 -7 -7 -12 -23 -12 -24 0 -26 2 -15 15 14 17 31 16 38
-3z"/>
<path d="M3283 6455 c0 -27 2 -38 4 -22 2 15 2 37 0 50 -2 12 -4 0 -4 -28z"/>
<path d="M3320 6479 c-17 -31 2 -72 32 -67 12 2 24 10 26 18 5 13 3 13 -11 2
-21 -18 -37 -7 -37 23 0 30 16 41 37 23 14 -11 16 -11 11 2 -8 24 -45 24 -58
-1z"/>
<path d="M3488 6474 c-9 -18 -9 -30 -1 -42 13 -21 55 -22 61 -2 4 13 3 13 -11
2 -9 -8 -21 -11 -27 -7 -20 12 -10 25 20 25 33 0 35 3 20 31 -15 27 -48 24
-62 -7z m50 -2 c2 -7 -6 -12 -17 -12 -21 0 -27 11 -14 24 9 9 26 2 31 -12z"/>
<path d="M3582 6450 c1 -40 2 -41 5 -10 2 19 11 40 20 47 13 10 13 12 -6 10
-18 -1 -21 -7 -19 -47z"/>
<path d="M3631 6450 l1 -45 8 38 c4 20 10 40 13 43 13 13 27 -9 27 -42 0 -19
5 -34 10 -34 12 0 13 60 2 78 -5 6 -20 11 -35 10 -25 -2 -27 -5 -26 -48z"/>
<path d="M1073 6393 c15 -2 39 -2 55 0 15 2 2 4 -28 4 -30 0 -43 -2 -27 -4z"/>
<path d="M1177 6323 c-4 -3 -7 -69 -7 -145 l0 -138 -449 0 c-289 0 -452 -4
-456 -10 -4 -7 152 -10 459 -10 l466 0 0 155 c0 85 -1 155 -3 155 -2 0 -7 -3
-10 -7z"/>
<path d="M342 6180 c-11 -33 -17 -60 -13 -60 5 0 11 7 15 15 3 8 16 15 30 15
13 0 26 -7 30 -15 3 -8 10 -15 15 -15 6 0 0 27 -11 60 -12 33 -27 60 -33 60
-6 0 -21 -27 -33 -60z m48 -7 c0 -7 -7 -13 -15 -13 -16 0 -19 9 -9 35 5 13 8
14 15 3 5 -7 9 -19 9 -25z"/>
<path d="M800 6180 c0 -33 4 -60 10 -60 6 0 10 27 10 60 0 33 -4 60 -10 60 -6
0 -10 -27 -10 -60z"/>
<path d="M900 6222 c0 -13 -8 -18 -27 -17 -26 0 -28 -3 -28 -40 0 -39 1 -40
38 -42 l37 -1 0 59 c0 33 -4 59 -10 59 -5 0 -10 -8 -10 -18z m-2 -66 c-4 -28
-35 -33 -43 -6 -9 29 12 55 32 38 8 -6 13 -21 11 -32z"/>
<path d="M1260 6180 c0 -33 4 -60 10 -60 6 0 10 11 10 24 0 19 6 25 26 28 63
7 51 68 -12 68 l-34 0 0 -60z m65 25 c0 -13 -8 -21 -22 -23 -19 -3 -23 1 -23
23 0 22 4 26 23 23 14 -2 22 -10 22 -23z"/>
<path d="M2712 6228 c-7 -7 -12 -17 -12 -22 0 -6 7 -2 15 8 12 16 18 17 27 8
10 -10 10 -17 0 -32 -6 -11 -12 -25 -12 -32 0 -7 10 2 21 20 17 26 19 35 9 47
-15 18 -32 19 -48 3z"/>
<path d="M1878 6220 c-2 -7 -16 -13 -31 -13 -25 -2 -27 -5 -25 -47 1 -34 2
-38 5 -15 10 65 53 78 53 15 0 -22 3 -40 8 -40 4 0 6 23 5 51 -1 50 -7 71 -15
49z"/>
<path d="M440 6165 c0 -54 18 -60 22 -7 2 25 8 37 18 37 10 0 16 -12 18 -37 4
-42 22 -52 22 -12 0 42 -18 64 -50 64 -29 0 -30 -2 -30 -45z"/>
<path d="M540 6164 c0 -24 5 -44 10 -44 6 0 10 15 10 34 0 20 6 36 14 39 20 8
26 -2 26 -40 0 -18 5 -33 10 -33 6 0 10 15 10 34 0 33 14 55 27 42 3 -3 10
-23 14 -43 l7 -38 -1 45 -2 45 -62 1 -63 1 0 -43z"/>
<path d="M699 6189 c-18 -34 3 -69 41 -69 16 0 30 5 30 11 0 6 -7 9 -15 5 -18
-6 -45 2 -45 15 0 5 16 9 35 9 38 0 40 2 25 31 -14 26 -56 25 -71 -2z m61 -10
c0 -5 -12 -9 -26 -9 -22 0 -24 2 -14 14 12 15 40 11 40 -5z"/>
<path d="M952 6198 c-15 -15 -15 -51 0 -66 14 -14 54 -16 63 -3 3 6 -7 9 -21
8 -15 -1 -29 4 -31 11 -3 8 6 12 26 12 19 0 31 5 31 13 0 18 -21 37 -40 37 -9
0 -21 -5 -28 -12z m46 -16 c2 -7 -6 -12 -17 -12 -21 0 -27 11 -14 24 9 9 26 2
31 -12z"/>
<path d="M1040 6165 c0 -54 18 -60 22 -7 2 25 8 37 18 37 10 0 16 -12 18 -37
4 -42 22 -52 22 -12 0 42 -18 64 -50 64 -29 0 -30 -2 -30 -45z"/>
<path d="M1377 6204 c-14 -14 -7 -26 8 -14 12 10 19 10 27 2 8 -8 7 -13 -5
-17 -9 -3 -24 -7 -33 -10 -8 -3 -14 -13 -12 -22 2 -13 14 -18 39 -19 l35 -2
-5 42 c-5 31 -11 42 -26 44 -12 2 -24 0 -28 -4z m41 -56 c-7 -19 -38 -22 -38
-4 0 10 9 16 21 16 12 0 19 -5 17 -12z"/>
<path d="M1463 6199 c-15 -15 1 -39 23 -39 8 0 14 -7 14 -15 0 -18 -21 -20
-39 -2 -11 10 -13 9 -9 -3 6 -20 35 -25 53 -10 21 18 18 29 -10 40 -14 5 -25
14 -25 20 0 14 13 13 29 -2 11 -11 13 -10 9 2 -6 19 -30 24 -45 9z"/>
<path d="M1543 6199 c-15 -15 1 -39 23 -39 8 0 14 -7 14 -15 0 -18 -21 -20
-39 -2 -11 10 -13 9 -9 -3 6 -20 35 -25 53 -10 21 18 18 29 -10 40 -14 5 -25
14 -25 20 0 14 13 13 29 -2 11 -11 13 -10 9 2 -6 19 -30 24 -45 9z"/>
<path d="M1610 6203 c0 -21 22 -83 29 -83 5 0 12 15 16 33 l7 32 10 -34 c5
-19 13 -30 18 -25 12 13 30 84 20 84 -4 0 -11 -15 -15 -32 l-7 -33 -9 33 c-5
17 -13 32 -18 32 -5 0 -12 -15 -16 -32 l-7 -33 -9 33 c-9 29 -19 43 -19 25z"/>
<path d="M1743 6203 c-7 -2 -13 -20 -13 -38 0 -25 5 -35 20 -40 26 -8 50 11
50 39 0 36 -25 53 -57 39z m41 -26 c8 -12 7 -21 -6 -33 -20 -20 -38 -11 -38
20 0 39 23 46 44 13z"/>
<path d="M1967 6165 c8 -25 18 -45 22 -45 3 0 13 20 22 45 9 25 12 45 8 45 -5
0 -12 -13 -15 -30 -4 -16 -10 -30 -14 -30 -5 0 -11 14 -15 30 -4 17 -10 30
-15 30 -5 0 -2 -20 7 -45z"/>
<path d="M2050 6196 c-15 -20 -9 -56 12 -70 14 -8 22 -7 35 8 17 18 17 18 -5
7 -23 -12 -42 -8 -42 10 0 5 14 9 30 9 31 0 39 17 18 38 -16 16 -33 15 -48 -2z
m40 -11 c11 -13 8 -15 -14 -15 -25 0 -33 10 -19 23 10 11 19 8 33 -8z"/>
<path d="M2131 6160 c2 -34 3 -37 6 -15 3 17 11 37 18 45 12 14 12 16 -5 16
-17 0 -20 -7 -19 -46z"/>
<path d="M2192 6198 c-28 -28 -1 -88 33 -74 9 3 13 2 10 -4 -4 -6 -187 -11
-498 -12 l-492 -2 485 -6 c267 -3 616 -3 775 0 l290 6 -272 2 -273 2 0 48 c0
43 -2 48 -23 50 -13 1 -29 -4 -35 -10z m38 -19 c11 -20 -1 -49 -20 -49 -12 0
-21 31 -15 51 8 25 22 24 35 -2z"/>
<path d="M2282 6198 c-16 -16 -15 -53 3 -68 18 -15 47 -10 53 10 5 13 3 13
-12 1 -15 -12 -19 -12 -34 2 -15 16 -14 17 16 17 25 0 32 4 32 19 0 28 -37 40
-58 19z m46 -16 c2 -7 -7 -12 -23 -12 -24 0 -26 2 -15 15 14 17 31 16 38 -3z"/>
<path d="M2367 6204 c-15 -15 -6 -35 20 -45 19 -7 23 -13 15 -21 -8 -8 -16 -7
-28 3 -15 12 -17 12 -12 -1 7 -21 52 -19 56 2 2 12 -6 21 -24 28 -20 8 -24 14
-16 22 8 8 16 7 28 -3 15 -12 17 -12 12 1 -5 16 -39 25 -51 14z"/>
<path d="M2447 6204 c-15 -15 -6 -35 20 -45 19 -7 23 -13 15 -21 -8 -8 -16 -7
-28 3 -15 12 -17 12 -12 -1 7 -21 52 -19 56 2 2 12 -6 21 -24 28 -20 8 -24 14
-16 22 8 8 16 7 28 -3 15 -12 17 -12 12 1 -5 16 -39 25 -51 14z"/>
<path d="M2530 6196 c-15 -20 -9 -56 12 -70 14 -8 22 -7 35 8 17 18 17 18 -5
7 -23 -12 -42 -8 -42 10 0 5 14 9 30 9 31 0 39 17 18 38 -16 16 -33 15 -48 -2z
m40 -11 c11 -13 8 -15 -14 -15 -25 0 -33 10 -19 23 10 11 19 8 33 -8z"/>
<path d="M2611 6161 c2 -34 3 -38 6 -16 10 63 43 74 43 15 0 -22 5 -40 11 -40
6 0 9 17 7 43 -3 40 -5 42 -35 43 -33 1 -33 1 -32 -45z"/>
<path d="M530 5726 c7 -7 13 -7 20 0 6 6 3 10 -10 10 -13 0 -16 -4 -10 -10z"/>
<path d="M506 5694 c-34 -33 -10 -104 34 -104 19 0 55 29 46 37 -3 3 -12 -2
-21 -11 -9 -9 -20 -16 -25 -16 -15 0 -40 31 -40 50 0 19 25 50 40 50 5 0 16
-7 24 -16 14 -13 16 -13 16 -1 0 28 -50 36 -74 11z"/>
<path d="M710 5696 c7 -7 13 -7 20 0 6 6 3 10 -10 10 -13 0 -16 -4 -10 -10z"/>
<path d="M778 5690 c-5 -16 3 -100 11 -100 3 0 5 23 4 51 -1 50 -7 71 -15 49z"/>
<path d="M608 5655 c-8 -19 -9 -31 -1 -43 13 -21 55 -22 61 -2 4 13 3 13 -11
2 -9 -8 -21 -11 -27 -7 -20 12 -10 25 20 25 26 0 28 2 21 23 -12 33 -48 34
-63 2z m50 -3 c2 -7 -6 -12 -17 -12 -21 0 -27 11 -14 24 9 9 26 2 31 -12z"/>
<path d="M697 5674 c-15 -15 -6 -35 20 -45 19 -7 23 -13 15 -21 -8 -8 -16 -7
-28 3 -15 12 -17 12 -12 -1 7 -21 52 -19 56 2 2 12 -6 21 -24 28 -20 8 -24 14
-16 22 8 8 16 7 28 -3 15 -12 17 -12 12 1 -5 16 -39 25 -51 14z"/>
<path d="M823 5635 c0 -27 2 -38 4 -22 2 15 2 37 0 50 -2 12 -4 0 -4 -28z"/>
<path d="M850 5634 c0 -54 18 -59 22 -6 4 52 31 50 39 -3 l7 -40 -2 45 c-1 43
-2 45 -33 47 -33 1 -33 1 -33 -43z"/>
<path d="M956 5672 c-3 -6 3 -8 14 -5 14 4 20 0 20 -10 0 -9 -10 -17 -22 -19
-15 -2 -23 -10 -23 -23 0 -16 7 -20 35 -21 l36 -1 -6 41 c-4 32 -10 42 -27 44
-11 2 -24 -1 -27 -6z m32 -58 c-9 -9 -21 -13 -27 -9 -16 10 -3 25 22 25 20 0
20 -1 5 -16z"/>
<path d="M330 5630 c0 -13 7 -20 20 -20 13 0 20 7 20 20 0 13 -7 20 -20 20
-13 0 -20 -7 -20 -20z"/>
<path d="M618 5573 c79 -2 205 -2 280 0 75 1 11 3 -143 3 -154 0 -216 -2 -137
-3z"/>
<path d="M490 5460 l0 -61 37 3 c30 2 41 9 51 31 21 43 -2 81 -51 85 l-37 3 0
-61z m68 38 c7 -7 12 -24 12 -38 0 -30 -17 -50 -42 -50 -15 0 -18 9 -18 50 0
41 3 50 18 50 10 0 23 -5 30 -12z"/>
<path d="M862 5460 c-1 -62 0 -64 12 -35 l13 30 13 -27 c7 -16 17 -28 22 -28
5 0 1 14 -7 31 -14 25 -14 33 -3 47 11 15 10 15 -8 0 -28 -24 -32 -23 -37 15
-2 17 -4 3 -5 -33z"/>
<path d="M617 5484 c-14 -14 -7 -26 8 -14 12 10 19 10 27 2 8 -8 7 -13 -5 -17
-9 -3 -24 -7 -33 -10 -8 -3 -14 -13 -12 -22 2 -13 14 -18 39 -19 l35 -2 -5 42
c-5 31 -11 42 -26 44 -12 2 -24 0 -28 -4z m41 -56 c-7 -19 -38 -22 -38 -4 0
10 9 16 21 16 12 0 19 -5 17 -12z"/>
<path d="M690 5444 c0 -54 18 -59 22 -6 4 52 31 50 39 -3 l7 -40 -2 45 c-1 43
-2 45 -33 47 -33 1 -33 1 -33 -43z"/>
<path d="M787 5484 c-15 -15 -6 -35 20 -45 19 -7 23 -13 15 -21 -8 -8 -16 -7
-28 3 -15 12 -17 12 -12 -1 7 -21 52 -19 56 2 2 12 -6 21 -24 28 -20 8 -24 14
-16 22 8 8 16 7 28 -3 15 -12 17 -12 12 1 -5 16 -39 25 -51 14z"/>
<path d="M330 5440 c0 -13 7 -20 20 -20 13 0 20 7 20 20 0 13 -7 20 -20 20
-13 0 -20 -7 -20 -20z"/>
<path d="M592 5383 c65 -2 171 -2 236 0 64 1 11 3 -118 3 -129 0 -182 -2 -118
-3z"/>
<path d="M490 5270 l0 -61 37 3 c30 2 41 9 51 31 21 43 -2 81 -51 85 l-37 3 0
-61z m68 38 c7 -7 12 -24 12 -38 0 -30 -17 -50 -42 -50 -15 0 -18 9 -18 50 0
41 3 50 18 50 10 0 23 -5 30 -12z"/>
<path d="M992 5270 c0 -36 2 -56 5 -45 2 11 6 30 9 43 7 35 28 21 35 -24 l7
-39 -2 45 c-1 38 -4 45 -21 45 -11 0 -23 9 -27 20 -3 11 -6 -9 -6 -45z"/>
<path d="M788 5310 c-5 -16 3 -100 11 -100 3 0 5 23 4 51 -1 50 -7 71 -15 49z"/>
<path d="M608 5275 c-8 -19 -9 -31 -1 -43 13 -21 55 -22 61 -2 4 13 3 13 -11
2 -9 -8 -21 -11 -27 -7 -20 12 -10 25 20 25 26 0 28 2 21 23 -12 33 -48 34
-63 2z m50 -3 c2 -7 -6 -12 -17 -12 -21 0 -27 11 -14 24 9 9 26 2 31 -12z"/>
<path d="M690 5268 c0 -45 11 -59 43 -56 25 2 27 5 26 48 -2 34 -3 38 -6 15
-10 -63 -43 -74 -43 -15 0 22 -4 40 -10 40 -5 0 -10 -15 -10 -32z"/>
<path d="M837 5293 c-15 -14 -6 -34 20 -44 20 -7 23 -13 15 -21 -9 -9 -15 -9
-24 0 -18 18 -33 15 -18 -3 17 -20 54 -15 58 7 2 12 -6 21 -23 28 -15 6 -23
15 -20 21 4 6 13 8 21 5 8 -3 14 -1 14 4 0 11 -33 14 -43 3z"/>
<path d="M910 5279 c-17 -31 2 -72 32 -67 12 2 24 10 26 18 5 13 3 13 -11 2
-21 -18 -37 -7 -37 23 0 30 16 41 37 23 14 -11 16 -11 11 2 -8 24 -45 24 -58
-1z"/>
<path d="M330 5250 c0 -13 7 -20 20 -20 13 0 20 7 20 20 0 13 -7 20 -20 20
-13 0 -20 -7 -20 -20z"/>
<path d="M627 5193 c84 -2 222 -2 306 0 83 1 15 3 -153 3 -168 0 -236 -2 -153
-3z"/>
<path d="M490 5080 l0 -60 48 2 c43 1 44 2 10 5 -32 4 -38 8 -38 28 0 19 6 24
33 28 l32 4 -32 1 c-25 2 -33 7 -33 21 0 15 8 21 33 24 28 3 26 4 -10 5 l-43
2 0 -60z"/>
<path d="M768 5120 c-5 -17 4 -100 11 -100 4 0 5 16 3 36 -3 20 0 39 6 43 6 4
5 10 -3 18 -8 8 -15 8 -17 3z"/>
<path d="M598 5085 c-8 -19 -9 -31 -1 -43 13 -21 55 -22 61 -2 4 13 3 13 -11
2 -9 -8 -21 -11 -27 -7 -20 12 -10 25 20 25 26 0 28 2 21 23 -12 33 -48 34
-63 2z m50 -3 c2 -7 -6 -12 -17 -12 -21 0 -27 11 -14 24 9 9 26 2 31 -12z"/>
<path d="M693 5099 c-15 -15 1 -39 23 -39 8 0 14 -7 14 -15 0 -18 -21 -20 -39
-2 -11 10 -13 9 -9 -3 6 -20 35 -25 53 -10 21 18 18 29 -10 40 -14 5 -25 14
-25 20 0 14 13 13 29 -2 11 -11 13 -10 9 2 -6 19 -30 24 -45 9z"/>
<path d="M813 5065 c0 -27 2 -38 4 -22 2 15 2 37 0 50 -2 12 -4 0 -4 -28z"/>
<path d="M330 5060 c0 -13 7 -20 20 -20 13 0 20 7 20 20 0 13 -7 20 -20 20
-13 0 -20 -7 -20 -20z"/>
<path d="M573 5003 c54 -2 139 -2 190 0 51 1 7 3 -98 3 -104 0 -146 -2 -92 -3z"/>
<path d="M490 4890 l0 -60 48 2 c43 1 44 2 10 5 -32 4 -38 8 -38 28 0 19 6 24
33 28 l32 4 -32 1 c-25 2 -33 7 -33 21 0 15 8 21 33 24 28 3 26 4 -10 5 l-43
2 0 -60z"/>
<path d="M770 4890 c0 -33 4 -60 10 -60 6 0 10 27 10 60 0 33 -4 60 -10 60 -6
0 -10 -27 -10 -60z"/>
<path d="M932 4890 c1 -54 2 -58 7 -25 4 26 11 40 21 40 10 0 17 -14 21 -40
l7 -40 -2 45 c-1 38 -4 45 -21 45 -11 0 -23 9 -27 20 -3 11 -6 -9 -6 -45z"/>
<path d="M1070 4920 c-7 -17 -10 -46 -7 -65 l6 -35 -160 0 -159 0 0 48 c0 42
-3 48 -22 49 -29 3 -48 -14 -48 -42 0 -27 24 -49 45 -41 8 3 15 1 15 -4 0 -6
-53 -10 -132 -10 -72 0 -129 -2 -126 -5 7 -8 889 -8 896 0 3 3 -1 5 -9 5 -11
0 -13 12 -11 47 2 31 -2 55 -12 68 -13 18 -14 16 -4 -21 6 -22 8 -52 4 -67
l-6 -27 -130 0 -129 0 -6 33 c-4 18 -1 45 5 61 14 39 6 44 -10 6z m-336 -26
c8 -20 -2 -54 -14 -54 -17 0 -29 34 -19 52 12 22 25 23 33 2z"/>
<path d="M1110 4906 c0 -47 19 -76 49 -76 29 0 41 22 39 75 l-2 50 -3 -47 c-4
-50 -21 -72 -47 -62 -12 4 -16 19 -16 55 0 27 -4 49 -10 49 -5 0 -10 -20 -10
-44z"/>
<path d="M1232 4890 c0 -46 2 -58 8 -39 4 14 4 43 0 65 -7 35 -8 32 -8 -26z"/>
<path d="M1275 4920 c-16 -16 -24 -30 -19 -30 5 0 18 -13 27 -30 10 -16 23
-30 28 -30 6 0 0 14 -12 31 -21 30 -21 32 -5 60 22 37 17 37 -19 -1z"/>
<path d="M601 4871 l2 -46 6 40 c4 26 11 40 21 40 10 0 17 -14 21 -40 l7 -40
-2 45 c-1 42 -3 45 -28 46 -27 1 -28 -1 -27 -45z"/>
<path d="M813 4875 c0 -27 2 -38 4 -22 2 15 2 37 0 50 -2 12 -4 0 -4 -28z"/>
<path d="M853 4909 c-15 -15 1 -39 23 -39 8 0 14 -7 14 -15 0 -18 -21 -20 -39
-2 -11 10 -13 9 -9 -3 6 -20 35 -25 53 -10 21 18 18 29 -10 40 -14 5 -25 14
-25 20 0 14 13 13 29 -2 11 -11 13 -10 9 2 -6 19 -30 24 -45 9z"/>
<path d="M330 4870 c0 -13 7 -20 20 -20 13 0 20 7 20 20 0 13 -7 20 -20 20
-13 0 -20 -7 -20 -20z"/>
<path d="M490 4700 l0 -60 48 2 c43 1 44 2 10 5 -32 4 -38 8 -38 28 0 19 6 24
33 28 l32 4 -32 1 c-25 2 -33 7 -33 21 0 15 8 21 33 24 28 3 26 4 -10 5 l-43
2 0 -60z"/>
<path d="M770 4700 c0 -33 4 -60 10 -60 6 0 10 27 10 60 0 33 -4 60 -10 60 -6
0 -10 -27 -10 -60z"/>
<path d="M932 4700 c1 -54 2 -58 7 -25 4 26 11 40 21 40 10 0 17 -14 21 -40
l7 -40 -2 45 c-1 38 -4 45 -21 45 -11 0 -23 9 -27 20 -3 11 -6 -9 -6 -45z"/>
<path d="M1070 4730 c-7 -17 -10 -46 -7 -65 l6 -35 -160 0 -159 0 0 48 c0 42
-3 48 -22 49 -29 3 -48 -14 -48 -42 0 -27 24 -49 45 -41 8 3 15 1 15 -4 0 -6
-53 -10 -132 -10 -72 0 -129 -2 -126 -5 7 -8 889 -8 896 0 3 3 -1 5 -9 5 -11
0 -13 12 -11 47 2 31 -2 55 -12 68 -13 18 -14 16 -4 -21 6 -22 8 -52 4 -67
l-6 -27 -130 0 -129 0 -6 33 c-4 18 -1 45 5 61 14 39 6 44 -10 6z m-336 -26
c8 -20 -2 -54 -14 -54 -17 0 -29 34 -19 52 12 22 25 23 33 2z"/>
<path d="M1110 4716 c0 -47 19 -76 49 -76 29 0 41 22 39 75 l-2 50 -3 -47 c-4
-50 -21 -72 -47 -62 -12 4 -16 19 -16 55 0 27 -4 49 -10 49 -5 0 -10 -20 -10
-44z"/>
<path d="M1243 4753 c-26 -10 -13 -43 22 -57 37 -16 45 -30 20 -40 -18 -6 -45
2 -45 15 0 5 -4 9 -10 9 -16 0 1 -29 21 -35 60 -19 82 37 24 61 -19 8 -35 19
-35 24 0 20 31 22 50 5 21 -19 28 -7 8 13 -12 12 -33 14 -55 5z"/>
<path d="M601 4681 l2 -46 6 40 c4 26 11 40 21 40 10 0 17 -14 21 -40 l7 -40
-2 45 c-1 42 -3 45 -28 46 -27 1 -28 -1 -27 -45z"/>
<path d="M813 4685 c0 -27 2 -38 4 -22 2 15 2 37 0 50 -2 12 -4 0 -4 -28z"/>
<path d="M853 4719 c-15 -15 1 -39 23 -39 8 0 14 -7 14 -15 0 -18 -21 -20 -39
-2 -11 10 -13 9 -9 -3 6 -20 35 -25 53 -10 21 18 18 29 -10 40 -14 5 -25 14
-25 20 0 14 13 13 29 -2 11 -11 13 -10 9 2 -6 19 -30 24 -45 9z"/>
<path d="M330 4680 c0 -13 7 -20 20 -20 13 0 20 7 20 20 0 13 -7 20 -20 20
-13 0 -20 -7 -20 -20z"/>
<path d="M490 4510 l0 -60 48 2 c43 1 44 2 10 5 -32 4 -38 8 -38 28 0 19 6 24
33 28 l32 4 -32 1 c-25 2 -33 7 -33 21 0 15 8 21 33 24 28 3 26 4 -10 5 l-43
2 0 -60z"/>
<path d="M1033 4510 c0 -36 2 -50 4 -32 2 17 2 47 0 65 -2 17 -4 3 -4 -33z"/>
<path d="M603 4529 c-15 -15 1 -39 23 -39 8 0 14 -7 14 -15 0 -18 -21 -20 -39
-2 -11 10 -13 9 -9 -3 6 -20 35 -25 53 -10 21 18 18 29 -10 40 -14 5 -25 14
-25 20 0 14 13 13 29 -2 11 -11 13 -10 9 2 -6 19 -30 24 -45 9z"/>
<path d="M670 4490 l0 -50 -97 -2 -98 -2 105 -5 c58 -3 193 -4 300 -1 l195 6
-192 2 c-107 1 -193 6 -193 11 0 5 9 7 20 4 14 -4 23 2 31 20 16 36 -3 67 -41
67 -29 0 -30 -1 -30 -50z m55 4 c0 -19 -5 -29 -15 -29 -16 0 -25 28 -16 51 10
25 31 10 31 -22z"/>
<path d="M777 4534 c-14 -14 -7 -26 8 -14 12 10 19 10 27 2 8 -8 7 -13 -5 -17
-9 -3 -24 -7 -33 -10 -8 -3 -14 -13 -12 -22 2 -13 14 -18 39 -19 l35 -2 -5 42
c-5 31 -11 42 -26 44 -12 2 -24 0 -28 -4z m41 -56 c-7 -19 -38 -22 -38 -4 0
10 9 16 21 16 12 0 19 -5 17 -12z"/>
<path d="M850 4494 c0 -54 18 -59 22 -6 4 52 31 50 39 -3 l7 -40 -2 45 c-1 43
-2 45 -33 47 -33 1 -33 1 -33 -43z"/>
<path d="M952 4528 c-30 -30 -2 -86 38 -73 15 5 20 15 20 40 0 41 -32 59 -58
33z m43 -34 c0 -32 -21 -39 -38 -12 -8 12 -7 21 3 32 19 24 35 14 35 -20z"/>
<path d="M330 4490 c0 -13 7 -20 20 -20 13 0 20 7 20 20 0 13 -7 20 -20 20
-13 0 -20 -7 -20 -20z"/>
<path d="M490 4320 c0 -33 4 -60 10 -60 6 0 10 13 10 29 0 25 5 30 28 34 l27
4 -27 2 c-21 1 -28 6 -28 20 0 15 8 21 33 24 28 3 26 4 -10 5 l-43 2 0 -60z"/>
<path d="M591 4300 c2 -34 3 -37 6 -15 3 17 12 38 20 47 14 15 13 17 -6 15
-18 -1 -21 -7 -20 -47z"/>
<path d="M647 4343 c-14 -13 -7 -25 8 -13 8 6 19 9 25 5 17 -11 11 -23 -12
-27 -15 -2 -23 -10 -23 -23 0 -16 7 -20 33 -20 29 -1 32 2 32 30 0 17 -5 36
-12 43 -13 13 -41 16 -51 5z m43 -52 c0 -14 -18 -23 -30 -16 -6 4 -8 11 -5 16
8 12 35 12 35 0z"/>
<path d="M731 4301 c1 -25 3 -37 6 -26 2 11 6 30 9 43 8 39 32 26 37 -20 l4
-43 -1 45 c-1 42 -3 45 -28 46 -27 1 -28 -1 -27 -45z"/>
<path d="M819 4326 c-10 -20 -9 -30 5 -50 l16 -26 -182 -3 -183 -2 188 -3
c147 -2 187 -5 181 -14 -6 -10 -5 -10 7 -1 10 8 60 14 135 16 l119 3 -130 2
c-94 2 -125 5 -112 13 9 5 17 15 17 21 0 7 -5 6 -15 -2 -19 -16 -35 -4 -35 25
0 30 16 41 37 23 14 -11 16 -11 11 2 -8 27 -47 24 -59 -4z"/>
<path d="M907 4344 c-14 -14 -7 -26 8 -14 12 10 19 10 27 2 8 -8 4 -14 -16
-22 -38 -14 -31 -44 10 -47 30 -1 30 -1 25 40 -5 32 -11 43 -26 45 -12 2 -24
0 -28 -4z m41 -56 c-7 -19 -38 -22 -38 -4 0 10 9 16 21 16 12 0 19 -5 17 -12z"/>
<path d="M993 4305 c0 -27 2 -38 4 -22 2 15 2 37 0 50 -2 12 -4 0 -4 -28z"/>
<path d="M1027 4344 c-15 -15 -6 -35 20 -45 19 -7 23 -13 15 -21 -8 -8 -16 -7
-28 3 -15 12 -17 12 -12 -1 7 -21 52 -19 56 2 2 12 -6 21 -24 28 -20 8 -24 14
-16 22 8 8 16 7 28 -3 15 -12 17 -12 12 1 -5 16 -39 25 -51 14z"/>
<path d="M330 4300 c0 -13 7 -20 20 -20 13 0 20 7 20 20 0 13 -7 20 -20 20
-13 0 -20 -7 -20 -20z"/>
<path d="M495 4210 c-3 -5 -2 -10 4 -10 5 0 13 5 16 10 3 6 2 10 -4 10 -5 0
-13 -4 -16 -10z"/>
<path d="M503 4130 c0 -36 2 -50 4 -32 2 17 2 47 0 65 -2 17 -4 3 -4 -33z"/>
<path d="M610 4130 c0 -33 4 -60 10 -60 6 0 10 27 10 60 0 33 -4 60 -10 60 -6
0 -10 -27 -10 -60z"/>
<path d="M913 4130 c0 -36 2 -55 4 -42 5 28 19 28 33 1 16 -29 23 -17 9 14 -9
21 -9 30 1 42 7 8 8 15 2 15 -5 0 -16 -7 -23 -17 -13 -15 -15 -13 -20 18 -5
24 -6 16 -6 -31z"/>
<path d="M537 4154 c-15 -15 -6 -35 20 -45 19 -7 23 -13 15 -21 -8 -8 -16 -7
-28 3 -15 12 -17 12 -12 -1 7 -21 52 -19 56 2 2 12 -6 21 -24 28 -20 8 -24 14
-16 22 8 8 16 7 28 -3 15 -12 17 -12 12 1 -5 16 -39 25 -51 14z"/>
<path d="M664 4152 c-32 -22 -18 -85 18 -80 12 2 24 10 26 18 5 13 3 13 -11 2
-9 -8 -21 -11 -27 -7 -20 12 -10 25 20 25 31 0 39 17 18 38 -14 14 -28 15 -44
4z m34 -20 c2 -7 -6 -12 -17 -12 -21 0 -27 11 -14 24 9 9 26 2 31 -12z"/>
<path d="M741 4111 c1 -25 3 -37 6 -26 2 11 6 30 9 43 8 39 32 26 37 -20 l4
-43 -1 45 c-1 42 -3 45 -28 46 -27 1 -28 -1 -27 -45z"/>
<path d="M837 4153 c-15 -14 -6 -34 20 -44 20 -7 23 -13 15 -21 -9 -9 -15 -9
-24 0 -18 18 -33 15 -18 -3 17 -20 54 -15 58 7 2 12 -6 21 -23 28 -15 6 -23
15 -20 21 4 6 13 8 21 5 8 -3 14 -1 14 4 0 11 -33 14 -43 3z"/>
<path d="M997 4154 c-14 -14 -7 -26 8 -14 12 10 19 10 27 2 8 -8 4 -14 -16
-22 -38 -14 -31 -44 10 -47 30 -1 30 -1 25 40 -5 32 -11 43 -26 45 -12 2 -24
0 -28 -4z m41 -56 c-7 -19 -38 -22 -38 -4 0 10 9 16 21 16 12 0 19 -5 17 -12z"/>
<path d="M330 4110 c0 -13 7 -20 20 -20 13 0 20 7 20 20 0 13 -7 20 -20 20
-13 0 -20 -7 -20 -20z"/>
<path d="M627 4053 c84 -2 222 -2 306 0 83 1 15 3 -153 3 -168 0 -236 -2 -153
-3z"/>
<path d="M503 3940 c0 -36 2 -50 4 -32 2 17 2 47 0 65 -2 17 -4 3 -4 -33z"/>
<path d="M673 3940 c0 -36 2 -50 4 -32 2 17 2 47 0 65 -2 17 -4 3 -4 -33z"/>
<path d="M538 3980 c-5 -16 3 -100 11 -100 3 0 5 23 4 51 -1 50 -7 71 -15 49z"/>
<path d="M587 3964 c-14 -14 -7 -26 8 -14 12 10 19 10 27 2 8 -8 4 -14 -16
-22 -38 -14 -31 -44 10 -47 30 -1 30 -1 25 40 -5 32 -11 43 -26 45 -12 2 -24
0 -28 -4z m41 -56 c-7 -19 -38 -22 -38 -4 0 10 9 16 21 16 12 0 19 -5 17 -12z"/>
<path d="M700 3925 c0 -25 5 -45 10 -45 6 0 10 20 10 45 0 25 -4 45 -10 45 -5
0 -10 -20 -10 -45z"/>
<path d="M747 3964 c-14 -14 -7 -26 8 -14 12 10 19 10 27 2 8 -8 4 -14 -16
-22 -38 -14 -31 -44 10 -47 30 -1 30 -1 25 40 -5 32 -11 43 -26 45 -12 2 -24
0 -28 -4z m41 -56 c-7 -19 -38 -22 -38 -4 0 10 9 16 21 16 12 0 19 -5 17 -12z"/>
<path d="M831 3921 c1 -25 3 -37 6 -26 2 11 6 30 9 43 8 39 32 26 37 -20 l4
-43 -1 45 c-1 42 -3 45 -28 46 -27 1 -28 -1 -27 -45z"/>
<path d="M922 3958 c-16 -16 -15 -53 3 -68 33 -28 71 12 54 58 -9 24 -38 29
-57 10z m46 -27 c5 -34 -16 -51 -33 -27 -10 14 -11 24 -4 38 13 24 33 18 37
-11z"/>
<path d="M330 3920 c0 -13 7 -20 20 -20 13 0 20 7 20 20 0 13 -7 20 -20 20
-13 0 -20 -7 -20 -20z"/>
<path d="M613 3863 c76 -2 198 -2 270 0 73 1 11 3 -138 3 -148 0 -208 -2 -132
-3z"/>
<path d="M490 3751 c0 -65 19 -87 21 -23 l1 37 12 -34 c18 -50 31 -48 47 6
l14 48 6 -50 6 -50 1 63 c1 34 -2 62 -7 62 -5 0 -17 -24 -27 -52 l-17 -53 -17
49 c-24 72 -40 71 -40 -3z"/>
<path d="M636 3772 c-3 -6 3 -8 14 -5 14 4 20 0 20 -10 0 -9 -10 -17 -22 -19
-15 -2 -23 -10 -23 -23 0 -16 7 -20 35 -21 l36 -1 -6 41 c-4 32 -10 42 -27 44
-11 2 -24 -1 -27 -6z m32 -58 c-9 -9 -21 -13 -27 -9 -16 10 -3 25 22 25 20 0
20 -1 5 -16z"/>
<path d="M720 3770 c-6 -4 -10 -22 -8 -41 2 -28 7 -34 26 -33 12 0 22 -3 22
-8 0 -4 -64 -8 -142 -8 -78 0 -139 -3 -136 -6 8 -7 528 -7 536 0 3 3 -38 6
-91 6 l-96 0 14 41 c19 54 18 74 -2 29 l-16 -35 -13 35 c-14 33 -14 34 -9 5 2
-16 7 -40 11 -52 5 -19 2 -23 -17 -23 -22 0 -24 3 -21 49 4 46 2 49 -21 49
-14 0 -30 -4 -37 -8z m35 -36 c0 -19 -5 -29 -15 -29 -16 0 -25 28 -16 51 10
25 31 10 31 -22z"/>
<path d="M887 3773 c-14 -13 -7 -25 8 -13 8 6 19 9 25 5 17 -11 11 -23 -12
-27 -15 -2 -23 -10 -23 -23 0 -16 7 -20 33 -20 29 -1 32 2 32 30 0 17 -5 36
-12 43 -13 13 -41 16 -51 5z m43 -52 c0 -14 -18 -23 -30 -16 -6 4 -8 11 -5 16
8 12 35 12 35 0z"/>
<path d="M971 3730 c2 -34 3 -37 6 -15 3 17 12 38 20 47 14 15 13 17 -6 15
-18 -1 -21 -7 -20 -47z"/>
<path d="M330 3730 c0 -13 7 -20 20 -20 13 0 20 7 20 20 0 13 -7 20 -20 20
-13 0 -20 -7 -20 -20z"/>
<path d="M490 3560 c0 -68 17 -82 22 -17 l3 42 25 -42 c14 -24 28 -43 33 -43
4 0 6 28 5 63 l-1 62 -6 -50 -6 -50 -28 48 c-15 26 -32 47 -37 47 -6 0 -10
-27 -10 -60z"/>
<path d="M750 3600 c0 -13 -5 -18 -15 -14 -21 8 -45 -14 -45 -41 0 -28 19 -45
48 -42 20 1 22 7 22 59 0 32 -2 58 -5 58 -3 0 -5 -9 -5 -20z m-6 -68 c-13 -20
-25 -20 -38 1 -7 10 -5 21 4 32 12 15 15 15 29 0 12 -12 13 -19 5 -33z"/>
<path d="M933 3560 c0 -36 2 -50 4 -32 2 17 2 47 0 65 -2 17 -4 3 -4 -33z"/>
<path d="M1190 3601 c0 -14 -5 -18 -19 -14 -27 7 -47 -31 -32 -63 8 -18 17
-23 41 -21 30 2 30 3 30 60 0 31 -4 57 -10 57 -5 0 -10 -9 -10 -19z m-5 -57
c0 -19 -5 -29 -15 -29 -16 0 -25 28 -16 51 10 25 31 10 31 -22z"/>
<path d="M608 3565 c-8 -19 -9 -31 -1 -43 13 -21 55 -22 61 -2 4 13 3 13 -11
2 -9 -8 -21 -11 -27 -7 -20 12 -10 25 20 25 26 0 28 2 21 23 -12 33 -48 34
-63 2z m50 -3 c2 -7 -6 -12 -17 -12 -21 0 -27 11 -14 24 9 9 26 2 31 -12z"/>
<path d="M792 3578 c-16 -16 -15 -53 3 -68 18 -15 47 -10 53 10 5 13 3 13 -12
1 -15 -12 -19 -12 -34 2 -15 16 -14 17 16 17 25 0 32 4 32 19 0 28 -37 40 -58
19z m46 -16 c2 -7 -7 -12 -23 -12 -24 0 -26 2 -15 15 14 17 31 16 38 -3z"/>
<path d="M871 3540 c2 -34 3 -37 6 -15 3 17 11 37 18 45 12 14 12 16 -5 16
-17 0 -20 -7 -19 -46z"/>
<path d="M967 3583 c-14 -13 -7 -25 8 -13 8 6 19 9 25 5 17 -11 11 -23 -12
-27 -15 -2 -23 -10 -23 -23 0 -16 7 -20 33 -20 29 -1 32 2 32 30 0 17 -5 36
-12 43 -13 13 -41 16 -51 5z m43 -52 c0 -14 -18 -23 -30 -16 -6 4 -8 11 -5 16
8 12 35 12 35 0z"/>
<path d="M1051 3541 c1 -25 3 -37 6 -26 2 11 6 30 9 43 8 39 32 26 37 -20 l4
-43 -1 45 c-1 42 -3 45 -28 46 -27 1 -28 -1 -27 -45z"/>
<path d="M1237 3583 c-15 -14 -6 -34 20 -44 20 -7 23 -13 15 -21 -9 -9 -15 -9
-24 0 -18 18 -33 15 -18 -3 17 -20 54 -15 58 7 2 12 -6 21 -23 28 -15 6 -23
15 -20 21 4 6 13 8 21 5 8 -3 14 -1 14 4 0 11 -33 14 -43 3z"/>
<path d="M330 3540 c0 -13 7 -20 20 -20 13 0 20 7 20 20 0 13 -7 20 -20 20
-13 0 -20 -7 -20 -20z"/>
<path d="M688 3483 c117 -2 306 -2 420 0 114 1 18 2 -213 2 -231 0 -324 -1
-207 -2z"/>
<path d="M490 3370 c0 -68 17 -82 22 -17 l3 42 25 -42 c14 -24 28 -43 33 -43
4 0 6 28 5 63 l-1 62 -6 -50 -6 -50 -28 48 c-15 26 -32 47 -37 47 -6 0 -10
-27 -10 -60z"/>
<path d="M833 3370 c0 -36 2 -55 4 -42 5 28 19 28 33 1 16 -29 23 -17 9 14 -9
21 -9 30 1 42 7 8 8 15 2 15 -5 0 -16 -7 -23 -17 -13 -15 -15 -13 -20 18 -5
24 -6 16 -6 -31z"/>
<path d="M612 3388 c-16 -16 -15 -53 3 -68 33 -28 71 12 54 58 -9 24 -38 29
-57 10z m46 -27 c5 -34 -16 -51 -33 -27 -10 14 -11 24 -4 38 13 24 33 18 37
-11z"/>
<path d="M690 3354 c0 -24 5 -44 10 -44 6 0 10 15 10 33 0 18 4 37 10 43 6 6
3 10 -10 11 -17 2 -20 -4 -20 -43z"/>
<path d="M757 3393 c-15 -14 -6 -34 20 -44 20 -7 23 -13 15 -21 -9 -9 -15 -9
-24 0 -18 18 -33 15 -18 -3 17 -20 54 -15 58 7 2 12 -6 21 -23 28 -15 6 -23
15 -20 21 4 6 13 8 21 5 8 -3 14 -1 14 4 0 11 -33 14 -43 3z"/>
<path d="M330 3350 c0 -13 7 -20 20 -20 13 0 20 7 20 20 0 13 -7 20 -20 20
-13 0 -20 -7 -20 -20z"/>
<path d="M582 3293 c59 -2 158 -2 220 0 62 1 14 3 -107 3 -121 0 -172 -2 -113
-3z"/>
<path d="M490 3180 c0 -33 4 -60 10 -60 6 0 10 11 10 24 0 19 6 25 26 28 63 7
51 68 -12 68 l-34 0 0 -60z m65 25 c0 -13 -8 -21 -22 -23 -19 -3 -23 1 -23 23
0 22 4 26 23 23 14 -2 22 -10 22 -23z"/>
<path d="M693 3180 c0 -36 2 -50 4 -32 2 17 2 47 0 65 -2 17 -4 3 -4 -33z"/>
<path d="M803 3180 c0 -36 1 -56 4 -45 8 33 19 37 33 10 7 -14 17 -25 22 -25
5 0 1 13 -8 29 -15 25 -15 32 -5 45 10 11 10 16 2 16 -6 0 -14 -7 -17 -15 -10
-25 -23 -17 -27 18 -2 17 -4 3 -4 -33z"/>
<path d="M602 3198 c-16 -16 -15 -53 3 -68 33 -28 71 12 54 58 -9 24 -38 29
-57 10z m46 -27 c5 -34 -16 -51 -33 -27 -10 14 -11 24 -4 38 13 24 33 18 37
-11z"/>
<path d="M727 3204 c-15 -15 -6 -35 20 -45 19 -7 23 -13 15 -21 -8 -8 -16 -7
-28 3 -15 12 -17 12 -12 -1 7 -21 52 -19 56 2 2 12 -6 21 -24 28 -20 8 -24 14
-16 22 8 8 16 7 28 -3 15 -12 17 -12 12 1 -5 16 -39 25 -51 14z"/>
<path d="M883 3165 c0 -27 2 -38 4 -22 2 15 2 37 0 50 -2 12 -4 0 -4 -28z"/>
<path d="M330 3160 c0 -13 7 -20 20 -20 13 0 20 7 20 20 0 13 -7 20 -20 20
-13 0 -20 -7 -20 -20z"/>
<path d="M588 3103 c61 -2 163 -2 225 0 61 1 11 3 -113 3 -124 0 -174 -2 -112
-3z"/>
<path d="M490 2990 c0 -33 4 -60 10 -60 6 0 10 11 10 24 0 19 6 25 26 28 63 7
51 68 -12 68 l-34 0 0 -60z m65 25 c0 -13 -8 -21 -22 -23 -19 -3 -23 1 -23 23
0 22 4 26 23 23 14 -2 22 -10 22 -23z"/>
<path d="M1070 3042 c0 -5 7 -9 15 -9 8 0 12 4 9 9 -3 4 -9 8 -15 8 -5 0 -9
-4 -9 -8z"/>
<path d="M738 3029 c-2 -5 -13 -11 -26 -12 -19 -1 -22 -6 -21 -47 l2 -45 6 40
c8 55 38 62 43 9 2 -23 9 -39 18 -42 12 -4 13 -2 3 9 -15 15 -17 66 -4 71 5 2
3 8 -4 15 -9 8 -15 9 -17 2z"/>
<path d="M602 3008 c-16 -16 -15 -53 3 -68 33 -28 71 12 54 58 -9 24 -38 29
-57 10z m46 -27 c5 -34 -16 -51 -33 -27 -10 14 -11 24 -4 38 13 24 33 18 37
-11z"/>
<path d="M780 2988 c0 -45 11 -59 43 -56 25 2 27 5 26 48 -2 34 -3 38 -6 15
-10 -63 -43 -74 -43 -15 0 22 -4 40 -10 40 -5 0 -10 -15 -10 -32z"/>
<path d="M880 3010 c-6 -4 -10 -22 -8 -41 2 -28 7 -34 26 -33 12 0 22 -3 22
-8 0 -4 -100 -9 -222 -10 l-223 -2 210 -6 c116 -3 284 -2 375 1 l165 5 -145 2
-145 2 3 49 c4 46 2 49 -21 49 -14 0 -30 -4 -37 -8z m35 -36 c0 -19 -5 -29
-15 -29 -16 0 -25 28 -16 51 10 25 31 10 31 -22z"/>
<path d="M964 2980 c1 -43 2 -45 34 -48 32 -3 32 -3 32 42 0 55 -17 62 -22 9
-4 -53 -31 -51 -39 2 l-7 40 2 -45z"/>
<path d="M1064 3012 c-32 -22 -18 -85 18 -80 12 2 24 10 26 18 5 13 3 13 -11
2 -9 -8 -21 -11 -27 -7 -20 12 -10 25 20 25 31 0 39 17 18 38 -14 14 -28 15
-44 4z m34 -20 c2 -7 -6 -12 -17 -12 -21 0 -27 11 -14 24 9 9 26 2 31 -12z"/>
<path d="M1147 3013 c-15 -14 -6 -34 20 -44 20 -7 23 -13 15 -21 -9 -9 -15 -9
-24 0 -18 18 -33 15 -18 -3 17 -20 54 -15 58 7 2 12 -6 21 -23 28 -15 6 -23
15 -20 21 4 6 13 8 21 5 8 -3 14 -1 14 4 0 11 -33 14 -43 3z"/>
<path d="M330 2970 c0 -13 7 -20 20 -20 13 0 20 7 20 20 0 13 -7 20 -20 20
-13 0 -20 -7 -20 -20z"/>
<path d="M501 2798 c1 -35 4 -50 6 -35 4 24 9 28 31 25 19 -2 28 -10 30 -25 2
-13 7 -23 12 -23 5 0 7 7 4 15 -4 8 -7 34 -8 57 -1 42 -2 43 -38 46 l-38 3 1
-63z m64 27 c0 -14 -8 -21 -27 -23 -24 -3 -28 0 -28 23 0 23 4 26 28 23 19 -2
27 -9 27 -23z"/>
<path d="M846 2852 c-2 -4 4 -8 14 -8 10 0 16 4 14 8 -3 4 -9 8 -14 8 -5 0
-11 -4 -14 -8z"/>
<path d="M1020 2848 c0 -4 9 -8 20 -8 11 0 20 4 20 8 0 4 -9 8 -20 8 -11 0
-20 -4 -20 -8z"/>
<path d="M612 2818 c-16 -16 -15 -53 3 -68 33 -28 71 12 54 58 -9 24 -38 29
-57 10z m46 -27 c5 -34 -16 -51 -33 -27 -10 14 -11 24 -4 38 13 24 33 18 37
-11z"/>
<path d="M690 2785 c0 -54 17 -60 22 -8 4 52 28 56 28 4 0 -50 18 -55 22 -6 4
47 21 45 29 -2 l6 -38 2 46 1 47 -55 1 -55 0 0 -44z"/>
<path d="M837 2824 c-14 -14 -7 -26 8 -14 12 10 19 10 27 2 8 -8 4 -14 -16
-22 -38 -14 -31 -44 10 -47 30 -1 30 -1 25 40 -5 32 -11 43 -26 45 -12 2 -24
0 -28 -4z m41 -56 c-7 -19 -38 -22 -38 -4 0 10 9 16 21 16 12 0 19 -5 17 -12z"/>
<path d="M921 2781 l2 -46 6 40 c4 26 11 40 21 40 10 0 17 -14 21 -40 l7 -40
-2 45 c-1 42 -3 45 -28 46 -27 1 -28 -1 -27 -45z"/>
<path d="M1017 2824 c-14 -14 -7 -26 8 -14 12 10 19 10 27 2 8 -8 7 -13 -5
-17 -9 -3 -24 -7 -33 -10 -8 -3 -14 -13 -12 -22 2 -13 14 -18 39 -19 l35 -2
-5 42 c-5 31 -11 42 -26 44 -12 2 -24 0 -28 -4z m41 -56 c-7 -19 -38 -22 -38
-4 0 10 9 16 21 16 12 0 19 -5 17 -12z"/>
<path d="M330 2780 c0 -13 7 -20 20 -20 13 0 20 7 20 20 0 13 -7 20 -20 20
-13 0 -20 -7 -20 -20z"/>
<path d="M633 2723 c87 -2 227 -2 310 0 84 1 13 3 -158 3 -170 0 -239 -2 -152
-3z"/>
<path d="M501 2656 c-19 -22 -7 -43 28 -51 17 -4 31 -13 31 -21 0 -23 -29 -28
-50 -9 -21 19 -28 7 -8 -13 25 -25 78 -8 78 26 0 7 -16 20 -35 28 -19 8 -35
19 -35 24 0 18 29 23 47 9 14 -12 16 -12 11 1 -6 21 -52 24 -67 6z"/>
<path d="M603 2610 c0 -36 2 -50 4 -32 2 17 2 47 0 65 -2 17 -4 3 -4 -33z"/>
<path d="M1000 2656 c7 -7 13 -7 20 0 6 6 3 10 -10 10 -13 0 -16 -4 -10 -10z"/>
<path d="M643 2633 c-7 -2 -13 -20 -13 -38 0 -25 5 -35 20 -40 26 -8 50 11 50
39 0 36 -25 53 -57 39z m41 -26 c8 -12 7 -21 -6 -33 -20 -20 -38 -11 -38 20 0
39 23 46 44 13z"/>
<path d="M727 2595 c8 -25 18 -45 22 -45 3 0 13 20 22 45 9 25 12 45 8 45 -5
0 -12 -13 -15 -30 -4 -16 -10 -30 -14 -30 -5 0 -11 14 -15 30 -4 17 -10 30
-15 30 -5 0 -2 -20 7 -45z"/>
<path d="M810 2626 c-15 -20 -9 -56 12 -70 14 -8 22 -7 35 8 17 18 17 18 -5 7
-23 -12 -42 -8 -42 10 0 5 14 9 30 9 31 0 39 17 18 38 -16 16 -33 15 -48 -2z
m40 -11 c11 -13 8 -15 -14 -15 -25 0 -33 10 -19 23 10 11 19 8 33 -8z"/>
<path d="M891 2591 c2 -34 3 -38 6 -16 10 63 43 74 43 15 0 -22 5 -40 11 -40
6 0 9 17 7 43 -3 40 -5 42 -35 43 -33 1 -33 1 -32 -45z"/>
<path d="M980 2619 c-17 -31 2 -72 32 -67 12 2 24 10 26 18 5 13 3 13 -11 2
-21 -18 -37 -7 -37 23 0 30 16 41 37 23 14 -11 16 -11 11 2 -8 24 -45 24 -58
-1z"/>
<path d="M1063 2595 c0 -27 2 -38 4 -22 2 15 2 37 0 50 -2 12 -4 0 -4 -28z"/>
<path d="M1090 2594 c0 -54 18 -59 22 -6 4 52 31 50 39 -3 l7 -40 -2 45 c-1
43 -2 45 -33 47 -33 1 -33 1 -33 -43z"/>
<path d="M1196 2632 c-3 -6 3 -8 14 -5 14 4 20 0 20 -10 0 -9 -10 -17 -22 -19
-15 -2 -23 -10 -23 -23 0 -16 7 -20 35 -21 l36 -1 -6 41 c-4 32 -10 42 -27 44
-11 2 -24 -1 -27 -6z m32 -58 c-9 -9 -21 -13 -27 -9 -16 10 -3 25 22 25 20 0
20 -1 5 -16z"/>
<path d="M330 2590 c0 -13 7 -20 20 -20 13 0 20 7 20 20 0 13 -7 20 -20 20
-13 0 -20 -7 -20 -20z"/>
<path d="M672 2533 c108 -2 288 -2 400 0 112 1 23 2 -197 2 -220 0 -311 -1
-203 -2z"/>
<path d="M501 2466 c-19 -22 -7 -43 28 -51 17 -4 31 -13 31 -21 0 -23 -29 -28
-50 -9 -21 19 -28 7 -8 -13 25 -25 78 -8 78 26 0 7 -16 20 -35 28 -19 8 -35
19 -35 24 0 18 29 23 47 9 14 -12 16 -12 11 1 -6 21 -52 24 -67 6z"/>
<path d="M604 2410 c1 -42 3 -45 29 -46 26 -1 27 1 26 45 l-2 46 -6 -40 c-4
-26 -11 -40 -21 -40 -10 0 -17 14 -21 40 l-7 40 2 -45z"/>
<path d="M692 2438 c-16 -16 -15 -53 3 -68 33 -28 71 12 54 58 -9 24 -38 29
-57 10z m46 -27 c5 -34 -16 -51 -33 -27 -10 14 -11 24 -4 38 13 24 33 18 37
-11z"/>
<path d="M770 2405 c0 -54 17 -60 22 -8 4 52 28 56 28 4 0 -50 18 -55 22 -6 4
47 21 45 29 -2 l6 -38 2 46 1 47 -55 1 -55 0 0 -44z"/>
<path d="M913 2405 c0 -27 2 -38 4 -22 2 15 2 37 0 50 -2 12 -4 0 -4 -28z"/>
<path d="M330 2400 c0 -13 7 -20 20 -20 13 0 20 7 20 20 0 13 -7 20 -20 20
-13 0 -20 -7 -20 -20z"/>
<path d="M592 2343 c65 -2 171 -2 236 0 64 1 11 3 -118 3 -129 0 -182 -2 -118
-3z"/>
<path d="M501 2276 c-19 -22 -7 -43 28 -51 17 -4 31 -13 31 -21 0 -23 -29 -28
-50 -9 -21 19 -28 7 -8 -13 25 -25 78 -8 78 26 0 7 -16 20 -35 28 -19 8 -35
19 -35 24 0 18 29 23 47 9 14 -12 16 -12 11 1 -6 21 -52 24 -67 6z"/>
<path d="M932 2230 c-1 -62 0 -64 12 -35 l13 30 13 -27 c7 -16 17 -28 22 -28
5 0 1 14 -7 31 -14 25 -14 33 -3 47 11 15 10 15 -8 0 -28 -24 -32 -23 -37 15
-2 17 -4 3 -5 -33z"/>
<path d="M593 2244 c4 -11 9 -31 13 -46 11 -48 25 -35 49 42 11 35 -7 16 -22
-23 l-11 -32 -7 33 c-4 18 -12 35 -17 38 -6 4 -8 -1 -5 -12z"/>
<path d="M678 2235 c-8 -19 -9 -31 -1 -43 13 -21 55 -22 61 -2 4 13 3 13 -11
2 -9 -8 -21 -11 -27 -7 -20 12 -10 25 20 25 26 0 28 2 21 23 -12 33 -48 34
-63 2z m50 -3 c2 -7 -6 -12 -17 -12 -21 0 -27 11 -14 24 9 9 26 2 31 -12z"/>
<path d="M771 2211 l2 -46 6 40 c4 26 11 40 21 40 10 0 17 -14 21 -40 l7 -40
-2 45 c-1 42 -3 45 -28 46 -27 1 -28 -1 -27 -45z"/>
<path d="M857 2254 c-15 -15 -6 -35 20 -45 19 -7 23 -13 15 -21 -8 -8 -16 -7
-28 3 -15 12 -17 12 -12 -1 7 -21 52 -19 56 2 2 12 -6 21 -24 28 -20 8 -24 14
-16 22 8 8 16 7 28 -3 15 -12 17 -12 12 1 -5 16 -39 25 -51 14z"/>
<path d="M1026 2252 c-3 -6 3 -8 14 -5 14 4 20 0 20 -10 0 -9 -10 -17 -22 -19
-15 -2 -23 -10 -23 -23 0 -16 7 -20 35 -21 l36 -1 -6 41 c-4 32 -10 42 -27 44
-11 2 -24 -1 -27 -6z m32 -58 c-9 -9 -21 -13 -27 -9 -16 10 -3 25 22 25 20 0
20 -1 5 -16z"/>
<path d="M330 2210 c0 -13 7 -20 20 -20 13 0 20 7 20 20 0 13 -7 20 -20 20
-13 0 -20 -7 -20 -20z"/>
<path d="M632 2153 c87 -2 229 -2 316 0 86 1 15 3 -158 3 -173 0 -244 -2 -158
-3z"/>
<path d="M501 2038 c1 -35 4 -51 6 -36 3 20 11 28 30 30 58 7 51 68 -8 68
l-29 0 1 -62z m54 27 c0 -13 -8 -21 -22 -23 -19 -3 -23 1 -23 23 0 22 4 26 23
23 14 -2 22 -10 22 -23z"/>
<path d="M1010 2088 c0 -4 6 -8 14 -8 8 0 17 4 20 8 2 4 -4 8 -15 8 -10 0 -19
-4 -19 -8z"/>
<path d="M590 2066 c0 -2 7 -23 15 -46 8 -23 15 -44 15 -46 0 -2 -33 -5 -72
-6 l-73 -1 61 -6 c33 -3 173 -4 310 -1 l249 6 -232 2 c-128 1 -233 6 -233 11
0 5 7 25 16 46 8 20 13 39 10 42 -3 3 -11 -10 -19 -28 l-13 -34 -12 33 c-9 26
-22 43 -22 28z"/>
<path d="M680 2056 c-15 -20 -9 -56 12 -70 14 -8 21 -6 35 9 17 18 17 18 1 6
-15 -11 -21 -11 -33 -1 -8 7 -15 18 -15 25 0 7 7 18 15 25 12 10 18 10 30 0 9
-7 15 -8 15 -2 0 9 -22 22 -40 22 -4 0 -13 -7 -20 -14z"/>
<path d="M760 2056 c-15 -20 -9 -56 12 -70 14 -8 21 -6 35 9 17 18 17 18 1 6
-15 -11 -21 -11 -33 -1 -8 7 -15 18 -15 25 0 7 7 18 15 25 12 10 18 10 30 0 9
-7 15 -8 15 -2 0 9 -22 22 -40 22 -4 0 -13 -7 -20 -14z"/>
<path d="M833 2025 c0 -27 2 -40 4 -27 5 27 19 28 35 2 7 -11 17 -20 22 -20 4
0 1 10 -7 23 -11 17 -12 28 -5 41 5 10 8 20 5 23 -3 2 -10 -5 -17 -16 -14 -27
-28 -27 -33 2 -2 12 -4 0 -4 -28z"/>
<path d="M911 2025 l0 -50 22 30 22 29 6 -29 c5 -24 7 -20 8 20 l0 50 -22 -30
-22 -29 -6 29 c-5 24 -7 20 -8 -20z"/>
<path d="M1001 2025 l0 -50 22 30 22 29 6 -29 c5 -24 7 -20 8 20 l0 50 -22
-30 -22 -29 -6 29 c-5 24 -7 20 -8 -20z"/>
<path d="M330 2020 c0 -13 7 -20 20 -20 13 0 20 7 20 20 0 13 -7 20 -20 20
-13 0 -20 -7 -20 -20z"/>
<path d="M330 1830 c0 -13 7 -20 20 -20 13 0 20 7 20 20 0 13 -7 20 -20 20
-13 0 -20 -7 -20 -20z"/>
<path d="M503 1773 c15 -2 37 -2 50 0 12 2 0 4 -28 4 -27 0 -38 -2 -22 -4z"/>
<path d="M330 1640 c0 -13 7 -20 20 -20 13 0 20 7 20 20 0 13 -7 20 -20 20
-13 0 -20 -7 -20 -20z"/>
<path d="M507 1583 c18 -2 50 -2 70 0 21 2 7 4 -32 4 -38 0 -55 -2 -38 -4z"/>
<path d="M330 1450 c0 -13 7 -20 20 -20 13 0 20 7 20 20 0 13 -7 20 -20 20
-13 0 -20 -7 -20 -20z"/>
<path d="M507 1393 c18 -2 50 -2 70 0 21 2 7 4 -32 4 -38 0 -55 -2 -38 -4z"/>
<path d="M490 1120 c0 -33 4 -60 10 -60 6 0 10 11 10 24 0 19 6 25 26 28 63 7
51 68 -12 68 l-34 0 0 -60z m65 25 c0 -13 -8 -21 -22 -23 -19 -3 -23 1 -23 23
0 22 4 26 23 23 14 -2 22 -10 22 -23z"/>
<path d="M1090 1161 c0 -14 -6 -17 -25 -13 -19 3 -27 -1 -34 -19 -14 -38 1
-64 38 -65 l31 -1 0 59 c0 32 -2 58 -5 58 -3 0 -5 -8 -5 -19z m-11 -40 c7 -13
6 -23 -3 -36 -16 -22 -36 -12 -36 19 0 39 22 49 39 17z"/>
<path d="M1160 1120 l0 -60 30 0 c23 0 33 6 42 26 15 32 0 59 -31 58 -14 0
-21 5 -21 18 0 10 -4 18 -10 18 -6 0 -10 -27 -10 -60z m55 -16 c0 -19 -5 -29
-15 -29 -16 0 -25 28 -16 51 10 25 31 10 31 -22z"/>
<path d="M1384 1120 c-12 -33 -18 -60 -13 -60 4 0 11 9 14 20 9 28 51 27 60
-2 3 -13 8 -18 11 -12 6 14 -30 107 -42 111 -5 2 -18 -24 -30 -57z m45 -2 c1
-5 -6 -8 -14 -8 -16 0 -19 9 -8 36 6 16 7 16 14 -2 4 -10 8 -22 8 -26z"/>
<path d="M1523 1120 c0 -36 2 -50 4 -32 2 17 2 47 0 65 -2 17 -4 3 -4 -33z"/>
<path d="M2076 1158 c-9 -12 -16 -32 -16 -44 0 -24 29 -54 53 -54 18 0 47 26
47 43 0 6 -9 1 -20 -11 -24 -25 -31 -27 -48 -10 -23 23 -9 88 19 88 4 0 15 -7
24 -16 9 -9 18 -14 21 -11 9 8 -27 37 -46 37 -10 0 -26 -10 -34 -22z"/>
<path d="M2362 1163 c-4 -10 -5 -38 -1 -63 l6 -45 1 43 c1 26 7 42 15 42 8 0
7 4 -3 10 -13 9 -13 11 0 20 9 6 11 10 3 10 -7 0 -16 -8 -21 -17z"/>
<path d="M2403 1120 c0 -36 2 -50 4 -32 2 17 2 47 0 65 -2 17 -4 3 -4 -33z"/>
<path d="M2933 1173 c27 -4 35 -20 18 -38 -12 -14 -31 -75 -23 -75 4 0 16 24
27 53 11 28 21 55 23 60 2 4 -14 6 -35 6 -30 -2 -32 -3 -10 -6z"/>
<path d="M3137 1173 c-4 -3 -7 -13 -7 -22 0 -12 3 -11 13 4 8 10 19 15 25 11
15 -9 15 -36 0 -36 -6 0 -4 -8 6 -19 15 -17 15 -19 0 -32 -14 -11 -18 -11 -30
6 -13 17 -14 17 -14 2 0 -22 28 -33 49 -20 18 11 23 80 8 101 -10 13 -39 16
-50 5z"/>
<path d="M3271 1161 c-24 -44 -3 -107 34 -100 23 5 36 49 26 87 -9 34 -45 42
-60 13z m44 -42 c0 -32 -4 -44 -15 -44 -16 0 -26 54 -16 82 12 30 31 6 31 -38z"/>
<path d="M1478 1160 c-5 -17 4 -100 11 -100 4 0 5 16 3 36 -3 20 0 39 6 43 6
4 5 10 -3 18 -8 8 -15 8 -17 3z"/>
<path d="M3060 1155 c-9 -10 -9 -15 -1 -15 6 0 11 -17 11 -40 0 -22 5 -40 10
-40 6 0 10 25 10 55 0 56 -8 67 -30 40z"/>
<path d="M602 1138 c-7 -7 -12 -21 -12 -33 0 -46 53 -62 71 -21 21 45 -26 87
-59 54z m46 -27 c5 -34 -16 -51 -33 -27 -10 14 -11 24 -4 38 13 24 33 18 37
-11z"/>
<path d="M680 1143 c0 -21 22 -83 29 -83 5 0 12 15 16 33 l8 32 6 -30 c3 -16
11 -29 16 -28 12 2 37 83 25 83 -5 0 -12 -15 -16 -32 l-7 -33 -9 33 c-5 17
-12 32 -17 32 -5 0 -12 -15 -16 -32 l-7 -33 -9 33 c-9 29 -19 43 -19 25z"/>
<path d="M812 1138 c-20 -20 -15 -66 8 -73 20 -6 56 12 45 23 -2 3 -11 -1 -19
-7 -8 -7 -20 -10 -26 -6 -20 12 -10 25 20 25 18 0 30 5 30 13 0 16 -20 37 -35
37 -6 0 -16 -5 -23 -12z m29 -26 c-28 -4 -40 6 -21 18 9 6 20 4 29 -3 12 -10
11 -13 -8 -15z"/>
<path d="M891 1100 c1 -43 1 -44 9 -13 4 18 13 39 19 47 10 12 9 15 -8 13 -18
-1 -21 -8 -20 -47z"/>
<path d="M952 1138 c-16 -16 -15 -53 3 -68 18 -15 47 -10 53 10 5 13 3 13 -12
1 -15 -12 -19 -12 -34 2 -15 16 -14 17 17 17 28 0 32 3 29 23 -3 25 -36 35
-56 15z m46 -16 c2 -7 -7 -12 -23 -12 -24 0 -26 2 -15 15 14 17 31 16 38 -3z"/>
<path d="M1255 1130 c3 -14 8 -38 12 -54 4 -19 1 -31 -8 -37 -11 -7 -11 -9 3
-9 11 0 22 19 36 60 12 33 17 60 13 60 -5 0 -13 -15 -18 -32 l-10 -33 -16 35
c-12 25 -16 28 -12 10z"/>
<path d="M1567 1144 c-14 -14 -7 -26 8 -14 12 10 19 10 27 2 8 -8 7 -13 -5
-17 -9 -3 -24 -7 -33 -10 -8 -3 -14 -13 -12 -22 2 -13 14 -18 39 -19 l35 -2
-5 42 c-5 31 -11 42 -26 44 -12 2 -24 0 -28 -4z m41 -56 c-7 -19 -38 -22 -38
-4 0 10 9 16 21 16 12 0 19 -5 17 -12z"/>
<path d="M1653 1139 c-15 -15 1 -39 23 -39 8 0 14 -7 14 -15 0 -18 -21 -20
-39 -2 -11 10 -13 9 -9 -3 6 -20 35 -25 53 -10 21 18 18 29 -10 40 -14 5 -25
14 -25 20 0 14 13 13 29 -2 11 -11 13 -10 9 2 -6 19 -30 24 -45 9z"/>
<path d="M1733 1139 c-15 -15 1 -39 23 -39 8 0 14 -7 14 -15 0 -18 -21 -20
-39 -2 -11 10 -13 9 -9 -3 6 -20 35 -25 53 -10 21 18 18 29 -10 40 -14 5 -25
14 -25 20 0 14 13 13 29 -2 11 -11 13 -10 9 2 -6 19 -30 24 -45 9z"/>
<path d="M1813 1105 c0 -27 2 -38 4 -22 2 15 2 37 0 50 -2 12 -4 0 -4 -28z"/>
<path d="M1847 1143 c-14 -13 -7 -25 8 -13 8 6 19 9 25 5 17 -11 11 -23 -12
-27 -15 -2 -23 -10 -23 -23 0 -16 7 -20 33 -20 29 -1 32 2 32 30 0 17 -5 36
-12 43 -13 13 -41 16 -51 5z m43 -52 c0 -14 -18 -23 -30 -16 -6 4 -8 11 -5 16
8 12 35 12 35 0z"/>
<path d="M1931 1101 c1 -25 3 -37 6 -26 2 11 6 30 9 43 8 39 32 26 37 -20 l4
-43 -1 45 c-1 42 -3 45 -28 46 -27 1 -28 -1 -27 -45z"/>
<path d="M2179 1129 c-8 -16 -8 -28 0 -45 18 -41 71 -25 71 21 0 44 -50 61
-71 24z m50 -8 c7 -13 6 -23 -3 -36 -16 -22 -36 -12 -36 19 0 39 22 49 39 17z"/>
<path d="M2271 1101 c1 -25 3 -37 6 -26 2 11 6 30 9 43 8 39 32 26 37 -20 l4
-43 -1 45 c-1 42 -3 45 -28 46 -27 1 -28 -1 -27 -45z"/>
<path d="M2444 1110 c1 -42 3 -45 29 -46 26 -1 27 1 26 45 l-2 46 -6 -40 c-4
-26 -11 -40 -21 -40 -10 0 -17 14 -21 40 l-7 40 2 -45z"/>
<path d="M2528 1125 c-8 -19 -9 -31 -1 -43 13 -21 55 -22 61 -2 4 13 3 13 -11
2 -9 -8 -21 -11 -27 -7 -20 12 -10 25 20 25 26 0 28 2 21 23 -12 33 -48 34
-63 2z m50 -3 c2 -7 -6 -12 -17 -12 -21 0 -27 11 -14 24 9 9 26 2 31 -12z"/>
<path d="M2610 1104 c0 -54 18 -59 22 -6 4 52 31 50 39 -3 l7 -40 -2 45 c-1
43 -2 45 -33 47 -33 1 -33 1 -33 -43z"/>
<path d="M2710 1136 c-30 -37 14 -96 47 -63 11 10 13 17 5 17 -7 0 -12 -4 -12
-10 0 -16 -27 -11 -34 6 -13 33 13 71 29 44 3 -5 11 -10 17 -10 7 0 6 6 -2 15
-16 19 -34 19 -50 1z"/>
<path d="M2792 1138 c-16 -16 -15 -53 3 -68 18 -15 47 -10 53 10 5 13 3 13
-12 1 -15 -12 -19 -12 -34 2 -15 16 -14 17 16 17 25 0 32 4 32 19 0 28 -37 40
-58 19z m46 -16 c2 -7 -7 -12 -23 -12 -24 0 -26 2 -15 15 14 17 31 16 38 -3z"/>
<path d="M330 1100 c0 -13 7 -20 20 -20 13 0 20 7 20 20 0 13 -7 20 -20 20
-13 0 -20 -7 -20 -20z"/>
<path d="M3000 1070 c0 -5 5 -10 10 -10 6 0 10 5 10 10 0 6 -4 10 -10 10 -5 0
-10 -4 -10 -10z"/>
<path d="M3225 1070 c-3 -5 -1 -10 4 -10 6 0 11 5 11 10 0 6 -2 10 -4 10 -3 0
-8 -4 -11 -10z"/>
<path d="M1732 1043 c207 -2 549 -2 760 0 211 1 41 2 -377 2 -418 0 -590 -1
-383 -2z"/>
<path d="M503 930 c-12 -33 -18 -60 -13 -60 5 0 12 9 15 20 9 28 51 27 58 -2
4 -12 9 -19 12 -16 10 9 -27 118 -39 118 -6 0 -21 -27 -33 -60z m46 -2 c1 -5
-6 -8 -14 -8 -16 0 -19 9 -8 36 6 16 7 16 14 -2 4 -10 8 -22 8 -26z"/>
<path d="M820 970 c0 -13 -5 -18 -15 -14 -21 8 -45 -14 -45 -41 0 -28 19 -45
48 -42 20 1 22 7 22 59 0 32 -2 58 -5 58 -3 0 -5 -9 -5 -20z m-5 -56 c0 -32
-21 -39 -38 -12 -8 12 -7 21 3 32 19 24 35 14 35 -20z"/>
<path d="M1070 930 c0 -33 4 -60 10 -60 6 0 10 9 10 20 0 26 7 25 31 -2 22
-27 25 -12 4 16 -13 17 -13 22 2 38 20 23 6 24 -19 1 -17 -15 -18 -14 -18 15
0 18 -4 32 -10 32 -6 0 -10 -27 -10 -60z"/>
<path d="M1260 971 c0 -14 -6 -17 -25 -13 -19 3 -27 -1 -34 -19 -14 -38 1 -64
38 -65 l31 -1 0 59 c0 32 -2 58 -5 58 -3 0 -5 -8 -5 -19z m-11 -40 c7 -13 6
-23 -3 -36 -16 -22 -36 -12 -36 19 0 39 22 49 39 17z"/>
<path d="M1512 930 c0 -49 2 -58 7 -34 16 65 41 74 41 14 0 -22 5 -40 11 -40
6 0 9 17 7 43 -3 37 -6 42 -28 42 -16 0 -27 7 -32 20 -3 11 -6 -9 -6 -45z"/>
<path d="M1675 978 c-15 -42 -35 -101 -35 -104 0 -14 19 0 23 16 3 12 14 20
25 20 12 0 23 -9 27 -20 3 -11 10 -20 15 -20 5 0 0 27 -12 60 -19 58 -34 74
-43 48z m25 -44 c0 -8 -7 -14 -15 -14 -17 0 -18 2 -9 24 7 18 24 12 24 -10z"/>
<path d="M1803 930 c0 -36 2 -50 4 -32 2 17 2 47 0 65 -2 17 -4 3 -4 -33z"/>
<path d="M2356 974 c-9 -8 -16 -31 -16 -50 0 -27 5 -37 26 -46 30 -14 57 -2
63 28 3 16 1 16 -15 -4 -22 -26 -49 -22 -59 9 -15 46 24 82 56 53 21 -19 27
-6 7 14 -17 17 -44 15 -62 -4z"/>
<path d="M2633 976 c-11 -19 -4 -106 8 -106 5 0 9 17 10 38 0 20 2 47 3 60 3
25 -9 29 -21 8z"/>
<path d="M2683 930 c0 -36 2 -50 4 -32 2 17 2 47 0 65 -2 17 -4 3 -4 -33z"/>
<path d="M3213 983 c27 -4 35 -20 18 -38 -12 -14 -31 -75 -23 -75 4 0 16 24
27 53 11 28 21 55 23 60 2 4 -14 6 -35 6 -30 -2 -32 -3 -10 -6z"/>
<path d="M3422 978 c-19 -19 -14 -33 6 -15 10 10 22 17 25 17 13 0 7 -40 -5
-40 -7 0 -5 -5 5 -11 22 -13 22 -38 1 -46 -11 -4 -22 1 -31 13 -14 19 -15 19
-11 -1 2 -15 11 -20 33 -20 29 0 30 2 32 50 2 60 -24 84 -55 53z"/>
<path d="M3551 971 c-24 -44 -3 -107 34 -100 23 5 36 49 26 87 -9 34 -45 42
-60 13z m44 -42 c0 -32 -4 -44 -15 -44 -16 0 -26 54 -16 82 12 30 31 6 31 -38z"/>
<path d="M1748 969 c-7 -20 6 -92 17 -96 8 -2 11 41 6 100 -1 11 -19 8 -23 -4z"/>
<path d="M3340 965 c-9 -10 -9 -15 -1 -15 6 0 11 -17 11 -40 0 -22 5 -40 10
-40 6 0 10 25 10 55 0 56 -8 67 -30 40z"/>
<path d="M604 920 c1 -42 3 -45 29 -46 26 -1 27 1 26 45 l-2 46 -6 -40 c-4
-26 -11 -40 -21 -40 -10 0 -17 14 -21 40 l-7 40 2 -45z"/>
<path d="M690 945 c-12 -14 -11 -18 1 -26 8 -5 20 -9 27 -9 6 0 12 -7 12 -15
0 -18 -27 -20 -33 -2 -2 6 -8 9 -12 5 -11 -10 4 -28 24 -28 18 0 41 18 41 32
0 5 -11 13 -25 18 -14 5 -25 14 -25 20 0 14 13 13 29 -2 11 -11 13 -10 9 2 -7
21 -32 24 -48 5z"/>
<path d="M850 914 c0 -24 5 -44 10 -44 6 0 10 15 10 33 0 18 4 37 10 43 6 6 3
10 -10 11 -17 2 -20 -4 -20 -43z"/>
<path d="M914 920 c1 -41 3 -45 29 -48 26 -3 27 -2 26 45 l-2 48 -6 -40 c-4
-26 -11 -40 -21 -40 -10 0 -17 14 -21 40 l-7 40 2 -45z"/>
<path d="M1002 948 c-16 -16 -15 -53 3 -68 18 -15 47 -10 53 10 5 13 3 13 -11
1 -14 -11 -20 -11 -32 -1 -19 15 -19 21 -1 45 12 16 16 17 30 6 9 -7 16 -9 16
-3 0 9 -22 22 -39 22 -4 0 -12 -5 -19 -12z"/>
<path d="M1294 920 c1 -41 3 -45 29 -48 26 -3 27 -2 26 45 l-2 48 -6 -40 c-4
-26 -11 -40 -21 -40 -10 0 -17 14 -21 40 l-7 40 2 -45z"/>
<path d="M1381 910 c2 -34 3 -37 6 -15 3 17 12 38 20 47 14 15 13 17 -6 15
-18 -1 -21 -7 -20 -47z"/>
<path d="M1434 947 c-3 -9 -4 -28 -2 -44 2 -22 8 -28 27 -28 13 0 27 7 29 15
4 13 3 13 -11 2 -21 -18 -37 -7 -37 23 0 30 16 41 37 23 14 -11 16 -11 11 2
-6 20 -47 25 -54 7z"/>
<path d="M1837 953 c-14 -13 -7 -25 8 -13 8 6 19 9 25 5 17 -11 11 -23 -12
-27 -15 -2 -23 -10 -23 -23 0 -16 7 -20 36 -21 34 -1 35 0 31 30 -3 17 -9 37
-14 44 -11 13 -40 16 -51 5z m43 -52 c0 -14 -18 -23 -30 -16 -6 4 -8 11 -5 16
8 12 35 12 35 0z"/>
<path d="M1927 954 c-15 -15 -6 -35 20 -45 19 -7 23 -13 15 -21 -8 -8 -16 -7
-28 3 -15 12 -17 12 -12 -1 7 -21 52 -19 56 2 2 12 -6 21 -24 28 -20 8 -24 14
-16 22 8 8 16 7 28 -3 15 -12 17 -12 12 1 -5 16 -39 25 -51 14z"/>
<path d="M2007 954 c-15 -15 -6 -35 20 -45 19 -7 23 -13 15 -21 -8 -8 -16 -7
-28 3 -15 12 -17 12 -12 -1 7 -21 52 -19 56 2 2 12 -6 21 -24 28 -20 8 -24 14
-16 22 8 8 16 7 28 -3 15 -12 17 -12 12 1 -5 16 -39 25 -51 14z"/>
<path d="M2083 915 c0 -27 2 -38 4 -22 2 15 2 37 0 50 -2 12 -4 0 -4 -28z"/>
<path d="M2127 954 c-14 -14 -7 -26 8 -14 12 10 19 10 27 2 8 -8 7 -13 -5 -17
-9 -3 -24 -7 -33 -10 -8 -3 -14 -13 -12 -22 2 -13 14 -18 39 -19 l35 -2 -5 42
c-5 31 -11 42 -26 44 -12 2 -24 0 -28 -4z m41 -56 c-7 -19 -38 -22 -38 -4 0
10 9 16 21 16 12 0 19 -5 17 -12z"/>
<path d="M2211 911 l2 -46 6 40 c4 26 11 40 21 40 10 0 17 -14 21 -40 l7 -40
-2 45 c-1 42 -3 45 -28 46 -27 1 -28 -1 -27 -45z"/>
<path d="M2462 948 c-30 -30 -2 -86 38 -73 15 5 20 15 20 40 0 41 -32 59 -58
33z m43 -34 c0 -32 -21 -39 -38 -12 -8 12 -7 21 3 32 19 24 35 14 35 -20z"/>
<path d="M2540 916 c0 -55 17 -62 22 -8 4 52 31 50 39 -3 l7 -40 -2 45 c-1 43
-2 45 -33 48 -33 3 -33 3 -33 -42z"/>
<path d="M2714 920 c1 -43 2 -45 34 -48 32 -3 32 -3 32 42 0 55 -17 62 -22 9
-4 -53 -31 -51 -39 2 l-7 40 2 -45z"/>
<path d="M2812 948 c-20 -20 -15 -66 8 -73 20 -6 56 12 45 23 -2 3 -11 -1 -19
-7 -8 -7 -20 -10 -26 -6 -20 12 -10 25 20 25 18 0 30 5 30 13 0 16 -20 37 -35
37 -6 0 -16 -5 -23 -12z m29 -26 c-28 -4 -40 6 -21 18 9 6 20 4 29 -3 12 -10
11 -13 -8 -15z"/>
<path d="M2891 910 l1 -45 8 38 c4 20 10 40 13 43 13 13 27 -9 27 -42 0 -19 5
-34 10 -34 12 0 13 60 2 78 -5 6 -20 11 -35 10 -25 -2 -27 -5 -26 -48z"/>
<path d="M2980 939 c-17 -31 2 -72 32 -67 12 2 24 10 26 18 5 13 3 13 -11 2
-21 -18 -37 -7 -37 23 0 30 16 41 37 23 14 -11 16 -11 11 2 -8 24 -45 24 -58
-1z"/>
<path d="M3060 934 c-19 -48 28 -87 60 -49 14 17 0 21 -17 4 -6 -6 -16 -8 -22
-5 -21 13 -11 26 19 26 31 0 39 17 18 38 -20 20 -48 14 -58 -14z m48 -2 c2 -7
-6 -12 -17 -12 -21 0 -27 11 -14 24 9 9 26 2 31 -12z"/>
<path d="M330 910 c0 -13 7 -20 20 -20 13 0 20 7 20 20 0 13 -7 20 -20 20 -13
0 -20 -7 -20 -20z"/>
<path d="M3285 880 c-3 -5 -1 -10 4 -10 6 0 11 5 11 10 0 6 -2 10 -4 10 -3 0
-8 -4 -11 -10z"/>
<path d="M490 740 c0 -33 4 -60 10 -60 6 0 10 13 10 29 0 25 5 30 28 34 l27 4
-27 2 c-21 1 -28 6 -28 20 0 15 8 21 33 24 28 3 26 4 -10 5 l-43 2 0 -60z"/>
<path d="M682 740 c1 -54 2 -58 7 -25 4 26 11 40 21 40 10 0 17 -14 21 -40 l7
-40 -2 45 c-1 38 -4 45 -21 45 -11 0 -23 9 -27 20 -3 11 -6 -9 -6 -45z"/>
<path d="M773 740 c0 -36 2 -50 4 -32 2 17 2 47 0 65 -2 17 -4 3 -4 -33z"/>
<path d="M963 785 c-3 -9 -3 -18 -1 -21 3 -3 8 4 11 16 6 23 -1 27 -10 5z"/>
<path d="M1015 788 c-25 -69 -35 -102 -31 -105 2 -3 9 5 16 16 14 27 50 27 57
1 3 -11 9 -20 14 -20 4 0 -1 27 -13 60 -19 58 -34 74 -43 48z m28 -38 c4 -15
0 -20 -14 -20 -21 0 -22 1 -13 24 8 22 21 20 27 -4z"/>
<path d="M604 762 c-32 -22 -18 -85 18 -80 12 2 24 10 26 18 5 13 3 13 -11 2
-9 -8 -21 -11 -27 -7 -20 12 -10 25 20 25 31 0 39 17 18 38 -14 14 -28 15 -44
4z m34 -20 c2 -7 -6 -12 -17 -12 -21 0 -27 11 -14 24 9 9 26 2 31 -12z"/>
<path d="M810 756 c-15 -20 -9 -56 12 -70 14 -8 22 -7 35 8 17 18 17 18 -5 7
-23 -12 -42 -8 -42 10 0 5 14 9 30 9 31 0 39 17 18 38 -16 16 -33 15 -48 -2z
m40 -11 c11 -13 8 -15 -14 -15 -25 0 -33 10 -19 23 10 11 19 8 33 -8z"/>
<path d="M891 720 c2 -34 3 -37 6 -15 3 17 12 38 20 47 14 15 13 17 -6 15 -18
-1 -21 -7 -20 -47z"/>
<path d="M1090 724 c0 -54 18 -59 22 -6 4 52 31 50 39 -3 l7 -40 -2 45 c-1 43
-2 45 -33 47 -33 1 -33 1 -33 -43z"/>
<path d="M1180 724 c0 -24 5 -44 10 -44 6 0 10 15 10 33 0 18 4 37 10 43 6 6
3 10 -10 11 -17 2 -20 -4 -20 -43z"/>
<path d="M1238 745 c-8 -19 -9 -31 -1 -43 13 -21 55 -22 61 -2 4 13 3 13 -11
2 -9 -8 -21 -11 -27 -7 -20 12 -10 25 20 25 26 0 28 2 21 23 -12 33 -48 34
-63 2z m50 -3 c2 -7 -6 -12 -17 -12 -21 0 -27 11 -14 24 9 9 26 2 31 -12z"/>
<path d="M1332 758 c-28 -28 -1 -88 33 -74 8 3 15 1 15 -4 0 -6 -167 -10 -452
-10 -248 0 -449 -2 -446 -5 7 -7 1369 -8 1376 -1 3 3 -42 6 -99 6 l-104 0 3
49 c4 54 7 52 -61 42 -5 0 -7 -18 -5 -38 3 -32 7 -38 26 -37 12 0 22 -3 22 -8
0 -4 -56 -8 -125 -8 l-125 0 0 48 c0 43 -2 48 -23 50 -13 1 -29 -4 -35 -10z
m42 -14 c8 -20 -2 -54 -14 -54 -17 0 -29 34 -19 52 12 22 25 23 33 2z m261
-20 c0 -19 -5 -29 -15 -29 -16 0 -25 28 -16 51 10 25 31 10 31 -22z"/>
<path d="M1410 738 c0 -45 11 -59 43 -56 25 2 27 5 26 48 -2 34 -3 38 -6 15
-10 -63 -43 -74 -43 -15 0 22 -4 40 -10 40 -5 0 -10 -15 -10 -32z"/>
<path d="M1500 724 c0 -54 18 -59 22 -6 4 52 31 50 39 -3 l7 -40 -2 45 c-1 43
-2 45 -33 47 -33 1 -33 1 -33 -43z"/>
<path d="M1690 756 c-15 -20 -9 -56 12 -70 14 -8 22 -7 35 8 17 18 17 18 -5 7
-23 -12 -42 -8 -42 10 0 5 14 9 30 9 31 0 39 17 18 38 -16 16 -33 15 -48 -2z
m40 -11 c11 -13 8 -15 -14 -15 -25 0 -33 10 -19 23 10 11 19 8 33 -8z"/>
<path d="M1771 721 c1 -25 3 -37 6 -26 2 11 6 30 9 43 8 39 32 26 37 -20 l4
-43 -1 45 c-1 42 -3 45 -28 46 -27 1 -28 -1 -27 -45z"/>
<path d="M330 720 c0 -13 7 -20 20 -20 13 0 20 7 20 20 0 13 -7 20 -20 20 -13
0 -20 -7 -20 -20z"/>
<path d="M504 550 c-12 -33 -18 -60 -13 -60 4 0 11 9 14 20 9 28 51 27 60 -2
3 -13 8 -18 11 -12 6 14 -30 107 -42 111 -5 2 -18 -24 -30 -57z m45 -2 c1 -5
-6 -8 -14 -8 -16 0 -19 9 -8 36 6 16 7 16 14 -2 4 -10 8 -22 8 -26z"/>
<path d="M643 550 c0 -36 2 -50 4 -32 2 17 2 47 0 65 -2 17 -4 3 -4 -33z"/>
<path d="M1190 550 c0 -68 17 -82 22 -17 l3 42 25 -42 c14 -24 28 -43 33 -43
4 0 6 28 5 63 l-1 62 -6 -50 -6 -50 -28 48 c-15 26 -32 47 -37 47 -6 0 -10
-27 -10 -60z"/>
<path d="M598 590 c-5 -17 4 -100 11 -100 4 0 5 16 3 36 -3 20 0 39 6 43 6 4
5 10 -3 18 -8 8 -15 8 -17 3z"/>
<path d="M687 574 c-14 -14 -7 -26 8 -14 12 10 19 10 27 2 8 -8 7 -13 -5 -17
-9 -3 -24 -7 -33 -10 -8 -3 -14 -13 -12 -22 2 -13 14 -18 39 -19 l35 -2 -5 42
c-5 31 -11 42 -26 44 -12 2 -24 0 -28 -4z m41 -56 c-7 -19 -38 -22 -38 -4 0
10 9 16 21 16 12 0 19 -5 17 -12z"/>
<path d="M773 569 c-15 -15 1 -39 23 -39 8 0 14 -7 14 -15 0 -18 -21 -20 -39
-2 -11 10 -13 9 -9 -3 6 -20 35 -25 53 -10 21 18 18 29 -10 40 -14 5 -25 14
-25 20 0 14 13 13 29 -2 11 -11 13 -10 9 2 -6 19 -30 24 -45 9z"/>
<path d="M853 569 c-15 -15 1 -39 23 -39 8 0 14 -7 14 -15 0 -18 -21 -20 -39
-2 -11 10 -13 9 -9 -3 6 -20 35 -25 53 -10 21 18 18 29 -10 40 -14 5 -25 14
-25 20 0 14 13 13 29 -2 11 -11 13 -10 9 2 -6 19 -30 24 -45 9z"/>
<path d="M933 535 c0 -27 2 -38 4 -22 2 15 2 37 0 50 -2 12 -4 0 -4 -28z"/>
<path d="M967 573 c-14 -13 -7 -25 8 -13 8 6 19 9 25 5 17 -11 11 -23 -12 -27
-15 -2 -23 -10 -23 -23 0 -16 7 -20 33 -20 29 -1 32 2 32 30 0 17 -5 36 -12
43 -13 13 -41 16 -51 5z m43 -52 c0 -14 -18 -23 -30 -16 -6 4 -8 11 -5 16 8
12 35 12 35 0z"/>
<path d="M1051 531 c1 -25 3 -37 6 -26 2 11 6 30 9 43 8 39 32 26 37 -20 l4
-43 -1 45 c-1 42 -3 45 -28 46 -27 1 -28 -1 -27 -45z"/>
<path d="M1308 555 c-8 -19 -9 -31 -1 -43 13 -21 55 -22 61 -2 4 13 3 13 -11
2 -9 -8 -21 -11 -27 -7 -20 12 -10 25 20 25 26 0 28 2 21 23 -12 33 -48 34
-63 2z m50 -3 c2 -7 -6 -12 -17 -12 -21 0 -27 11 -14 24 9 9 26 2 31 -12z"/>
<path d="M1390 573 c0 -21 22 -83 29 -83 5 0 12 15 16 33 l7 32 10 -34 c5 -19
13 -30 18 -25 12 13 30 84 20 84 -4 0 -11 -15 -15 -32 l-7 -33 -9 33 c-5 17
-13 32 -18 32 -5 0 -12 -15 -16 -32 l-7 -33 -9 33 c-9 29 -19 43 -19 25z"/>
<path d="M1517 574 c-15 -15 -6 -35 20 -45 19 -7 23 -13 15 -21 -8 -8 -16 -7
-28 3 -15 12 -17 12 -12 -1 7 -21 52 -19 56 2 2 12 -6 21 -24 28 -20 8 -24 14
-16 22 8 8 16 7 28 -3 15 -12 17 -12 12 1 -5 16 -39 25 -51 14z"/>
<path d="M330 530 c0 -13 7 -20 20 -20 13 0 20 7 20 20 0 13 -7 20 -20 20 -13
0 -20 -7 -20 -20z"/>
<path d="M1148 533 c7 -3 16 -2 19 1 4 3 -2 6 -13 5 -11 0 -14 -3 -6 -6z"/>
<path d="M758 473 c156 -2 408 -2 560 0 152 1 25 2 -283 2 -308 0 -433 -1
-277 -2z"/>
<path d="M104 200 c-12 -33 -18 -60 -13 -60 4 0 11 9 14 20 9 28 51 27 60 -2
3 -13 8 -18 11 -12 6 14 -30 107 -42 111 -5 2 -18 -24 -30 -57z m45 -2 c1 -5
-6 -8 -14 -8 -16 0 -19 9 -8 36 6 16 7 16 14 -2 4 -10 8 -22 8 -26z"/>
<path d="M243 200 c0 -36 2 -50 4 -32 2 17 2 47 0 65 -2 17 -4 3 -4 -33z"/>
<path d="M198 240 c-5 -17 4 -100 11 -100 4 0 5 16 3 36 -3 20 0 39 6 43 6 4
5 10 -3 18 -8 8 -15 8 -17 3z"/>
<path d="M287 224 c-14 -14 -7 -26 8 -14 12 10 19 10 27 2 8 -8 7 -13 -5 -17
-9 -3 -24 -7 -33 -10 -8 -3 -14 -13 -12 -22 2 -13 14 -18 39 -19 l35 -2 -5 42
c-5 31 -11 42 -26 44 -12 2 -24 0 -28 -4z m41 -56 c-7 -19 -38 -22 -38 -4 0
10 9 16 21 16 12 0 19 -5 17 -12z"/>
<path d="M373 219 c-15 -15 1 -39 23 -39 8 0 14 -7 14 -15 0 -18 -21 -20 -39
-2 -11 10 -13 9 -9 -3 6 -20 35 -25 53 -10 21 18 18 29 -10 40 -14 5 -25 14
-25 20 0 14 13 13 29 -2 11 -11 13 -10 9 2 -6 19 -30 24 -45 9z"/>
<path d="M453 219 c-15 -15 1 -39 23 -39 8 0 14 -7 14 -15 0 -18 -21 -20 -39
-2 -11 10 -13 9 -9 -3 6 -20 35 -25 53 -10 21 18 18 29 -10 40 -14 5 -25 14
-25 20 0 14 13 13 29 -2 11 -11 13 -10 9 2 -6 19 -30 24 -45 9z"/>
<path d="M533 185 c0 -27 2 -38 4 -22 2 15 2 37 0 50 -2 12 -4 0 -4 -28z"/>
<path d="M567 223 c-14 -13 -7 -25 8 -13 8 6 19 9 25 5 17 -11 11 -23 -12 -27
-15 -2 -23 -10 -23 -23 0 -16 7 -20 33 -20 29 -1 32 2 32 30 0 17 -5 36 -12
43 -13 13 -41 16 -51 5z m43 -52 c0 -14 -18 -23 -30 -16 -6 4 -8 11 -5 16 8
12 35 12 35 0z"/>
<path d="M651 181 c1 -25 3 -37 6 -26 2 11 6 30 9 43 8 39 32 26 37 -20 l4
-43 -1 45 c-1 42 -3 45 -28 46 -27 1 -28 -1 -27 -45z"/>
<path d="M243 123 c92 -2 242 -2 335 0 92 1 16 3 -168 3 -184 0 -260 -2 -167
-3z"/>
</g>
</svg>
