<?xml version="1.0" standalone="no"?>
<!DOCTYPE svg PUBLIC "-//W3C//DTD SVG 20010904//EN"
 "http://www.w3.org/TR/2001/REC-SVG-20010904/DTD/svg10.dtd">
<svg version="1.0" xmlns="http://www.w3.org/2000/svg"
 width="723.000000pt" height="419.000000pt" viewBox="0 0 723.000000 419.000000"
 preserveAspectRatio="xMidYMid meet">

<g transform="translate(0.000000,419.000000) scale(0.100000,-0.100000)"
fill="#000000" stroke="none">
<path d="M421 3902 c-19 -9 -43 -29 -54 -43 -42 -57 -28 -158 27 -194 56 -37
162 -28 201 15 28 31 11 34 -31 5 -72 -49 -179 -18 -198 57 -18 73 29 145 100
155 101 13 161 -90 93 -158 -33 -33 -42 -11 -25 59 12 53 12 62 0 62 -8 0 -14
-5 -14 -10 0 -7 -7 -7 -21 0 -47 26 -99 -21 -99 -88 0 -48 49 -78 79 -49 11
10 14 10 18 0 9 -25 51 -13 82 22 89 101 -34 231 -158 167z m77 -74 c18 -18
14 -52 -9 -82 -25 -31 -44 -33 -59 -5 -28 51 30 125 68 87z"/>
<path d="M640 3910 c0 -5 16 -10 35 -10 l35 0 0 -100 c0 -130 18 -132 22 -2
l3 97 33 3 c64 6 30 22 -48 22 -47 0 -80 -4 -80 -10z"/>
<path d="M1340 3810 c0 -67 4 -110 10 -110 6 0 10 23 10 50 0 48 1 50 28 50
29 0 53 -21 85 -72 10 -16 24 -28 32 -28 14 0 14 4 0 31 -9 16 -25 39 -35 49
-19 19 -19 19 1 25 42 14 44 93 4 109 -9 3 -43 6 -76 6 l-59 0 0 -110z m134
68 c19 -31 -4 -53 -63 -56 l-51 -3 0 41 0 41 51 -3 c36 -2 55 -8 63 -20z"/>
<path d="M2217 3852 c-26 -38 -47 -74 -47 -80 0 -7 18 -12 45 -12 43 0 45 -1
45 -30 0 -16 5 -30 10 -30 6 0 10 14 10 30 0 20 5 30 15 30 8 0 15 5 15 10 0
6 -7 10 -15 10 -12 0 -15 14 -15 70 0 39 -4 70 -8 70 -5 0 -30 -31 -55 -68z
m43 -27 c0 -45 0 -45 -35 -45 l-35 0 32 45 c18 25 33 45 35 45 2 0 3 -20 3
-45z"/>
<path d="M2371 3901 c-40 -40 -40 -151 0 -183 45 -38 109 -7 109 52 0 32 -30
70 -56 70 -8 0 -24 -5 -35 -10 -16 -9 -19 -7 -19 13 0 25 28 57 48 57 7 0 17
-9 24 -20 16 -25 40 -27 31 -2 -15 43 -69 56 -102 23z m75 -106 c15 -23 15
-27 0 -50 -19 -29 -38 -32 -60 -9 -21 21 -20 61 2 73 27 16 40 13 58 -14z"/>
<path d="M2600 3810 c0 -67 4 -110 10 -110 6 0 10 19 10 43 0 59 9 85 32 92
33 11 48 -12 48 -76 0 -33 4 -59 10 -59 6 0 10 30 10 69 0 81 -12 97 -65 87
-35 -7 -35 -7 -35 29 0 19 -4 35 -10 35 -6 0 -10 -43 -10 -110z"/>
<path d="M3170 3905 c0 -8 5 -15 10 -15 6 0 10 7 10 15 0 8 -4 15 -10 15 -5 0
-10 -7 -10 -15z"/>
<path d="M3550 3905 c0 -8 7 -15 15 -15 8 0 15 7 15 15 0 8 -7 15 -15 15 -8 0
-15 -7 -15 -15z"/>
<path d="M3970 3880 c0 -37 -2 -40 -19 -30 -48 25 -91 -7 -91 -70 0 -56 26
-80 85 -78 l45 2 0 108 c0 65 -4 108 -10 108 -5 0 -10 -18 -10 -40z m-16 -56
c31 -31 11 -104 -29 -104 -17 0 -45 38 -45 60 0 22 28 60 45 60 7 0 21 -7 29
-16z"/>
<path d="M5330 3810 c0 -91 3 -110 15 -110 12 0 15 19 15 110 0 91 -3 110 -15
110 -12 0 -15 -19 -15 -110z"/>
<path d="M5400 3810 c0 -67 4 -110 10 -110 6 0 10 43 10 110 0 67 -4 110 -10
110 -6 0 -10 -43 -10 -110z"/>
<path d="M5640 3810 c0 -67 4 -110 10 -110 6 0 10 5 10 12 0 9 3 9 12 0 33
-33 98 12 98 68 0 56 -65 101 -98 68 -9 -9 -12 -3 -12 30 0 23 -4 42 -10 42
-6 0 -10 -43 -10 -110z m89 16 c7 -8 11 -31 9 -52 -6 -71 -70 -73 -76 -2 -5
54 39 88 67 54z"/>
<path d="M3620 3881 c0 -11 -6 -22 -12 -25 -10 -5 -10 -7 0 -12 7 -4 12 -27
12 -63 0 -61 11 -81 45 -81 19 1 19 1 3 14 -22 16 -26 121 -5 130 10 5 10 7 0
12 -7 3 -13 14 -13 25 0 10 -7 19 -15 19 -8 0 -15 -9 -15 -19z"/>
<path d="M4690 3881 c0 -11 -6 -22 -12 -24 -10 -4 -10 -7 -1 -14 7 -5 13 -38
15 -73 3 -59 5 -65 26 -68 25 -4 30 13 7 22 -11 4 -15 21 -15 61 0 42 3 55 15
55 8 0 15 5 15 10 0 6 -7 10 -15 10 -8 0 -15 9 -15 20 0 11 -4 20 -10 20 -5 0
-10 -9 -10 -19z"/>
<path d="M6240 3881 c0 -11 -6 -22 -12 -24 -10 -4 -10 -7 -1 -14 6 -5 13 -35
15 -67 2 -42 8 -62 20 -70 24 -14 34 -1 14 19 -22 22 -23 115 -1 115 8 0 15 5
15 10 0 6 -7 10 -15 10 -8 0 -15 9 -15 20 0 11 -4 20 -10 20 -5 0 -10 -9 -10
-19z"/>
<path d="M815 3835 c-31 -30 -32 -73 -4 -109 43 -55 119 -21 119 54 0 74 -66
105 -115 55z m77 -12 c22 -20 23 -61 1 -85 -33 -36 -76 -13 -76 42 0 54 38 76
75 43z"/>
<path d="M970 3778 c0 -93 18 -105 22 -15 3 53 6 63 26 72 32 14 27 23 -13 22
l-35 -1 0 -78z"/>
<path d="M1070 3778 c0 -93 18 -105 22 -15 3 53 6 63 26 72 32 14 27 23 -13
22 l-35 -1 0 -78z"/>
<path d="M1180 3840 c-44 -44 -14 -140 44 -140 39 0 76 36 76 76 0 68 -76 108
-120 64z m78 -12 c7 -7 12 -28 12 -48 0 -57 -34 -77 -72 -43 -22 20 -23 61 -1
85 19 21 44 23 61 6z"/>
<path d="M1565 3835 c-31 -30 -32 -73 -4 -109 43 -55 119 -21 119 54 0 74 -66
105 -115 55z m77 -12 c22 -20 23 -61 1 -85 -33 -36 -76 -13 -76 42 0 54 38 76
75 43z"/>
<path d="M1725 3844 c-25 -26 -14 -47 38 -72 40 -19 46 -26 37 -38 -16 -19
-39 -18 -62 3 -20 18 -34 12 -25 -11 15 -39 109 -29 115 12 4 26 -13 52 -34
52 -7 0 -25 5 -39 10 -23 9 -25 13 -15 25 16 19 49 19 56 0 8 -19 24 -19 24 0
0 33 -67 46 -95 19z"/>
<path d="M1875 3844 c-25 -26 -14 -47 38 -72 40 -19 46 -26 37 -38 -16 -19
-39 -18 -62 3 -20 18 -34 12 -25 -11 15 -39 109 -29 115 12 4 26 -13 52 -34
52 -7 0 -25 5 -39 10 -23 9 -25 13 -15 25 16 19 49 19 56 0 8 -19 24 -19 24 0
0 33 -67 46 -95 19z"/>
<path d="M2030 3840 c-44 -44 -14 -140 44 -140 39 0 76 36 76 76 0 68 -76 108
-120 64z m78 -12 c7 -7 12 -28 12 -48 0 -57 -34 -77 -72 -43 -22 20 -23 61 -1
85 19 21 44 23 61 6z"/>
<path d="M2778 3838 c-16 -16 -18 -23 -8 -26 7 -3 17 3 22 12 13 22 55 20 68
-4 9 -17 7 -20 -17 -25 -63 -13 -78 -21 -81 -43 -7 -45 41 -67 89 -42 13 7 19
7 19 0 0 -5 6 -10 13 -10 19 0 10 131 -11 148 -25 19 -70 14 -94 -10z m72
-103 c-16 -19 -44 -19 -59 -1 -14 17 2 32 39 38 28 3 38 -15 20 -37z"/>
<path d="M2948 3849 c-10 -5 -18 -21 -18 -35 0 -14 7 -27 18 -31 74 -26 84
-33 72 -48 -16 -19 -44 -19 -64 0 -18 19 -26 19 -26 0 0 -33 76 -47 105 -19
28 28 15 57 -35 75 -25 9 -45 23 -45 30 0 20 40 23 58 5 19 -20 27 -20 27 -1
0 29 -58 44 -92 24z"/>
<path d="M3170 3780 c0 -47 4 -80 10 -80 6 0 10 33 10 80 0 47 -4 80 -10 80
-6 0 -10 -33 -10 -80z"/>
<path d="M3230 3780 c0 -63 3 -80 15 -80 10 0 15 16 17 61 3 65 19 88 52 76
12 -5 16 -20 16 -72 0 -51 3 -65 15 -65 22 0 21 122 -1 144 -18 19 -55 21 -72
4 -9 -9 -12 -9 -12 0 0 7 -7 12 -15 12 -12 0 -15 -16 -15 -80z"/>
<path d="M3390 3854 c0 -22 56 -154 66 -154 6 0 23 33 38 73 29 79 30 87 17
87 -5 0 -19 -27 -31 -60 -13 -34 -24 -59 -26 -57 -2 2 -12 28 -22 57 -10 30
-24 56 -30 58 -7 2 -12 0 -12 -4z"/>
<path d="M3550 3780 c0 -64 3 -80 15 -80 12 0 15 16 15 80 0 64 -3 80 -15 80
-12 0 -15 -16 -15 -80z"/>
<path d="M3719 3841 c-18 -14 -24 -29 -24 -61 0 -70 64 -103 116 -61 31 25 18
38 -16 15 -21 -13 -31 -15 -50 -6 -14 7 -25 18 -25 27 0 12 12 15 55 15 52 0
55 1 55 25 0 32 -33 65 -64 65 -13 0 -34 -9 -47 -19z m75 -17 c26 -25 19 -34
-29 -34 -25 0 -45 4 -45 9 0 14 30 41 45 41 7 0 21 -7 29 -16z"/>
<path d="M4131 3784 c35 -90 35 -98 7 -118 -12 -9 -18 -19 -14 -23 16 -16 43
18 72 93 45 112 49 127 33 122 -7 -2 -21 -28 -31 -58 -10 -29 -20 -55 -22 -57
-2 -2 -13 24 -25 57 -12 33 -28 60 -36 60 -10 0 -6 -20 16 -76z"/>
<path d="M4282 3840 c-29 -27 -30 -92 -2 -120 47 -47 120 -11 120 60 0 46 -29
80 -70 80 -14 0 -36 -9 -48 -20z m84 -26 c20 -29 11 -69 -18 -88 -23 -14 -50
2 -62 37 -11 31 15 77 44 77 11 0 27 -12 36 -26z"/>
<path d="M4430 3802 c0 -36 6 -66 16 -80 17 -24 53 -29 73 -9 11 10 14 10 18
0 13 -35 23 -5 23 67 0 64 -3 80 -15 80 -12 0 -15 -13 -15 -59 0 -64 -15 -87
-50 -76 -17 6 -20 15 -20 71 0 50 -3 64 -15 64 -12 0 -15 -13 -15 -58z"/>
<path d="M4782 3840 c-29 -27 -30 -92 -2 -120 47 -47 120 -11 120 60 0 46 -29
80 -70 80 -14 0 -36 -9 -48 -20z m84 -26 c20 -29 11 -69 -18 -88 -23 -14 -50
2 -62 37 -11 31 15 77 44 77 11 0 27 -12 36 -26z"/>
<path d="M5031 3834 c-40 -51 -12 -134 45 -134 26 0 64 27 64 46 0 20 -13 17
-28 -7 -32 -50 -97 13 -70 68 16 34 43 41 69 17 25 -23 37 -10 14 16 -26 29
-69 26 -94 -6z"/>
<path d="M5182 3840 c-29 -27 -30 -92 -2 -120 47 -47 120 -11 120 60 0 46 -29
80 -70 80 -14 0 -36 -9 -48 -20z m84 -26 c20 -29 11 -69 -18 -88 -23 -14 -50
2 -62 37 -11 31 15 77 44 77 11 0 27 -12 36 -26z"/>
<path d="M5488 3849 c-10 -5 -18 -17 -18 -24 0 -19 8 -19 26 0 20 19 48 19 65
-1 16 -19 -2 -34 -43 -34 -55 0 -79 -61 -32 -82 19 -9 33 -9 55 -1 16 6 29 7
29 2 0 -5 6 -9 13 -9 19 0 10 131 -11 148 -19 14 -60 15 -84 1z m76 -102 c-8
-23 -50 -32 -69 -17 -20 17 -3 38 33 42 33 4 45 -4 36 -25z"/>
<path d="M5819 3841 c-18 -14 -24 -29 -24 -61 0 -32 6 -47 24 -61 52 -42 116
-9 116 61 0 47 -29 80 -70 80 -13 0 -33 -9 -46 -19z m75 -17 c31 -31 11 -104
-29 -104 -23 0 -45 30 -45 60 0 30 22 60 45 60 7 0 21 -7 29 -16z"/>
<path d="M5970 3780 c0 -47 4 -80 10 -80 6 0 10 20 10 44 0 61 15 96 40 96 11
0 20 5 20 10 0 14 -33 13 -48 -2 -9 -9 -12 -9 -12 0 0 7 -4 12 -10 12 -6 0
-10 -33 -10 -80z"/>
<path d="M6088 3849 c-18 -10 -25 -39 -9 -39 5 0 14 7 21 15 16 19 44 19 61
-1 10 -13 10 -17 -2 -25 -8 -5 -23 -9 -34 -9 -30 0 -65 -28 -65 -51 0 -29 44
-46 81 -32 16 6 29 7 29 2 0 -5 6 -9 13 -9 16 0 11 127 -5 148 -12 14 -66 15
-90 1z m77 -98 c-7 -24 -51 -39 -67 -23 -18 18 -1 40 34 44 41 4 41 4 33 -21z"/>
<path d="M6335 3835 c-16 -15 -25 -36 -25 -55 0 -37 39 -80 72 -80 26 0 68 25
68 41 0 5 -7 9 -15 9 -8 0 -15 -4 -15 -9 0 -16 -38 -23 -60 -11 -11 6 -20 17
-20 25 0 11 13 15 55 15 51 0 55 2 55 23 0 31 -35 67 -66 67 -14 0 -36 -11
-49 -25z m83 -22 c14 -23 14 -23 -32 -23 -49 0 -63 19 -28 39 24 15 42 10 60
-16z"/>
<path d="M6585 3835 c-31 -30 -32 -73 -4 -109 43 -55 119 -21 119 54 0 74 -66
105 -115 55z m77 -12 c22 -20 23 -61 1 -85 -33 -36 -76 -13 -76 42 0 54 38 76
75 43z"/>
<path d="M6740 3780 c0 -47 4 -80 10 -80 6 0 10 27 10 60 0 55 2 61 26 72 22
11 28 10 40 -7 8 -10 14 -42 14 -72 0 -29 5 -53 10 -53 17 0 12 126 -6 144
-18 19 -55 21 -72 4 -9 -9 -12 -9 -12 0 0 7 -4 12 -10 12 -6 0 -10 -33 -10
-80z"/>
<path d="M3500 3450 c0 -67 4 -110 10 -110 6 0 10 24 10 54 0 36 5 60 16 70
37 38 64 10 64 -66 0 -32 4 -58 10 -58 6 0 10 30 10 70 0 65 -2 71 -25 82 -19
8 -31 8 -50 0 -24 -11 -25 -11 -25 28 0 22 -4 40 -10 40 -6 0 -10 -43 -10
-110z"/>
<path d="M3420 3521 c0 -11 -6 -22 -12 -24 -10 -4 -10 -7 -1 -14 7 -5 13 -38
15 -73 3 -59 5 -65 26 -68 25 -4 30 13 7 22 -11 4 -15 21 -15 61 0 42 3 55 15
55 8 0 15 5 15 10 0 6 -7 10 -15 10 -8 0 -15 9 -15 20 0 11 -4 20 -10 20 -5 0
-10 -9 -10 -19z"/>
<path d="M3680 3480 c-13 -13 -20 -33 -20 -60 0 -73 73 -107 122 -58 27 27 7
39 -22 13 -23 -21 -48 -17 -68 13 l-14 22 61 0 c55 0 61 2 61 20 0 29 -44 70
-75 70 -14 0 -34 -9 -45 -20z m84 -22 c14 -24 5 -30 -43 -26 -41 3 -41 3 -25
26 18 26 51 26 68 0z"/>
<path d="M720 3190 c0 -5 16 -10 35 -10 l35 0 0 -100 c0 -82 3 -100 15 -100
12 0 15 18 15 100 l0 100 35 0 c19 0 35 5 35 10 0 6 -35 10 -85 10 -50 0 -85
-4 -85 -10z"/>
<path d="M1420 3090 c0 -67 4 -110 10 -110 6 0 10 23 10 50 0 49 1 50 29 50
33 0 49 -13 81 -65 12 -19 28 -35 36 -35 20 0 18 6 -15 54 l-29 42 24 21 c29
26 31 56 4 83 -16 16 -33 20 -85 20 l-65 0 0 -110z m134 68 c19 -31 -4 -53
-63 -56 l-51 -3 0 41 0 41 51 -3 c36 -2 55 -8 63 -20z"/>
<path d="M2298 3130 c-27 -37 -48 -73 -48 -79 0 -6 19 -11 45 -11 43 0 45 -1
45 -30 0 -20 5 -30 15 -30 10 0 15 10 15 29 0 16 6 32 13 35 10 5 10 7 0 12
-9 4 -13 29 -13 75 0 49 -4 69 -12 69 -7 0 -34 -32 -60 -70z m42 -25 c0 -43
-1 -45 -30 -45 -16 0 -30 2 -30 5 0 7 52 85 56 85 2 0 4 -20 4 -45z"/>
<path d="M2452 3177 c-42 -45 -37 -163 8 -187 50 -27 100 6 100 65 0 47 -38
74 -81 58 -27 -10 -29 -9 -29 11 0 24 28 56 48 56 7 0 17 -9 24 -20 13 -21 38
-27 38 -10 0 19 -40 50 -63 50 -13 0 -33 -10 -45 -23z m72 -93 c9 -8 16 -23
16 -31 0 -20 -29 -53 -46 -53 -19 0 -44 29 -44 50 0 22 25 50 45 50 7 0 21 -7
29 -16z"/>
<path d="M2620 3128 c-12 -40 -24 -82 -26 -93 -3 -11 -8 -28 -10 -37 -3 -10
-1 -18 4 -18 5 0 22 44 37 98 15 53 30 103 32 110 3 6 0 12 -6 12 -5 0 -20
-33 -31 -72z"/>
<path d="M2680 3090 c0 -90 3 -110 15 -110 11 0 15 19 17 88 l3 87 29 -87 c16
-51 34 -88 41 -88 8 0 26 38 43 88 l30 87 1 -87 c1 -71 4 -88 16 -88 12 0 15
19 15 110 0 102 -1 110 -19 110 -15 0 -25 -17 -46 -82 -15 -46 -31 -86 -34
-91 -4 -4 -20 33 -36 83 -25 79 -32 90 -52 90 -23 0 -23 -2 -23 -110z"/>
<path d="M3100 3185 c0 -8 5 -15 10 -15 6 0 10 7 10 15 0 8 -4 15 -10 15 -5 0
-10 -7 -10 -15z"/>
<path d="M3330 3090 l0 -110 70 0 c40 0 70 4 70 10 0 6 -25 10 -55 10 l-55 0
0 100 c0 82 -3 100 -15 100 -12 0 -15 -19 -15 -110z"/>
<path d="M3500 3185 c0 -8 5 -15 10 -15 6 0 10 7 10 15 0 8 -4 15 -10 15 -5 0
-10 -7 -10 -15z"/>
<path d="M3755 3176 c-42 -42 -20 -74 69 -100 52 -15 63 -50 20 -66 -33 -13
-64 -5 -86 23 -19 25 -33 18 -24 -11 13 -41 97 -56 136 -24 23 19 31 65 13 83
-5 5 -34 17 -63 27 -63 20 -77 45 -36 63 31 14 76 -1 76 -26 0 -8 7 -15 15
-15 22 0 18 18 -10 45 -32 33 -78 33 -110 1z"/>
<path d="M4180 3185 c0 -8 7 -15 15 -15 8 0 15 7 15 15 0 8 -7 15 -15 15 -8 0
-15 -7 -15 -15z"/>
<path d="M4500 3090 c0 -91 3 -110 15 -110 11 0 15 11 15 43 0 39 13 67 31 67
4 0 24 -25 44 -55 21 -30 44 -55 52 -55 19 0 17 5 -29 71 l-42 59 44 45 c35
36 40 45 25 45 -11 0 -43 -23 -72 -52 l-53 -52 0 52 c0 40 -4 52 -15 52 -12 0
-15 -19 -15 -110z"/>
<path d="M5950 3185 c0 -8 5 -15 10 -15 6 0 10 7 10 15 0 8 -4 15 -10 15 -5 0
-10 -7 -10 -15z"/>
<path d="M4420 3161 c0 -11 -6 -22 -12 -24 -10 -4 -10 -7 -1 -14 6 -5 13 -35
15 -67 2 -42 8 -62 20 -70 24 -14 34 -1 14 19 -22 22 -23 115 -1 115 8 0 15 5
15 10 0 6 -7 10 -15 10 -8 0 -15 9 -15 20 0 11 -4 20 -10 20 -5 0 -10 -9 -10
-19z"/>
<path d="M6020 3161 c0 -11 -6 -22 -12 -24 -10 -4 -10 -7 -1 -14 6 -5 13 -35
15 -67 2 -42 8 -62 20 -70 24 -14 34 -1 14 19 -22 22 -23 115 -1 115 8 0 15 5
15 10 0 6 -7 10 -15 10 -8 0 -15 9 -15 20 0 11 -4 20 -10 20 -5 0 -10 -9 -10
-19z"/>
<path d="M895 3115 c-16 -15 -25 -36 -25 -55 0 -37 39 -80 72 -80 46 0 68 26
68 80 0 39 -4 52 -22 64 -32 23 -65 20 -93 -9z m79 -11 c30 -29 11 -104 -25
-104 -31 0 -49 22 -49 60 0 54 40 78 74 44z"/>
<path d="M1050 3060 c0 -47 4 -80 10 -80 6 0 10 23 10 51 0 60 13 89 40 89 11
0 20 5 20 10 0 14 -33 13 -48 -2 -9 -9 -12 -9 -12 0 0 7 -4 12 -10 12 -6 0
-10 -33 -10 -80z"/>
<path d="M1150 3060 c0 -47 4 -80 10 -80 6 0 10 23 10 51 0 60 13 89 40 89 11
0 20 5 20 10 0 14 -33 13 -48 -2 -9 -9 -12 -9 -12 0 0 7 -4 12 -10 12 -6 0
-10 -33 -10 -80z"/>
<path d="M1262 3120 c-29 -27 -30 -92 -2 -120 47 -47 120 -11 120 60 0 46 -29
80 -70 80 -14 0 -36 -9 -48 -20z m84 -26 c20 -29 11 -69 -18 -88 -23 -14 -50
2 -62 37 -11 31 15 77 44 77 11 0 27 -12 36 -26z"/>
<path d="M1645 3115 c-16 -15 -25 -36 -25 -55 0 -37 39 -80 72 -80 46 0 68 26
68 80 0 39 -4 52 -22 64 -32 23 -65 20 -93 -9z m79 -11 c30 -29 11 -104 -25
-104 -31 0 -49 22 -49 60 0 54 40 78 74 44z"/>
<path d="M1804 3119 c-25 -27 -10 -50 44 -67 47 -16 55 -38 17 -48 -18 -4 -32
-1 -45 11 -23 20 -34 16 -24 -9 15 -39 106 -30 112 12 5 31 -12 49 -54 57 -26
4 -34 11 -32 23 4 22 46 28 54 8 6 -17 34 -22 34 -8 0 17 -37 42 -62 42 -14 0
-33 -9 -44 -21z"/>
<path d="M1954 3119 c-25 -27 -10 -50 44 -67 47 -16 55 -38 17 -48 -18 -4 -32
-1 -45 11 -23 20 -34 16 -24 -9 15 -39 106 -30 112 12 5 31 -12 49 -54 57 -26
4 -34 11 -32 23 4 22 46 28 54 8 6 -17 34 -22 34 -8 0 17 -37 42 -62 42 -14 0
-33 -9 -44 -21z"/>
<path d="M2112 3120 c-29 -27 -30 -92 -2 -120 47 -47 120 -11 120 60 0 46 -29
80 -70 80 -14 0 -36 -9 -48 -20z m84 -26 c20 -29 11 -69 -18 -88 -23 -14 -50
2 -62 37 -11 31 15 77 44 77 11 0 27 -12 36 -26z"/>
<path d="M2949 3121 c-18 -14 -24 -29 -24 -61 0 -70 64 -103 116 -61 31 25 18
38 -16 15 -21 -13 -31 -15 -50 -6 -14 7 -25 18 -25 27 0 12 12 15 55 15 52 0
55 1 55 25 0 32 -33 65 -64 65 -13 0 -34 -9 -47 -19z m75 -17 c26 -25 19 -34
-29 -34 -25 0 -45 4 -45 9 0 14 30 41 45 41 7 0 21 -7 29 -16z"/>
<path d="M3100 3060 c0 -47 4 -80 10 -80 6 0 10 33 10 80 0 47 -4 80 -10 80
-6 0 -10 -33 -10 -80z"/>
<path d="M3160 3060 c0 -63 3 -80 15 -80 10 0 15 16 17 61 3 65 19 88 52 76
12 -5 16 -20 16 -72 0 -51 3 -65 15 -65 22 0 21 122 -1 144 -18 19 -55 21 -72
4 -9 -9 -12 -9 -12 0 0 7 -7 12 -15 12 -12 0 -15 -16 -15 -80z"/>
<path d="M3500 3060 c0 -47 4 -80 10 -80 6 0 10 33 10 80 0 47 -4 80 -10 80
-6 0 -10 -33 -10 -80z"/>
<path d="M3578 3118 c-16 -16 -18 -23 -8 -26 7 -3 17 3 22 12 13 22 55 20 68
-4 9 -17 7 -20 -17 -25 -63 -13 -78 -21 -81 -43 -7 -45 41 -67 89 -42 13 7 19
7 19 0 0 -5 6 -10 13 -10 19 0 10 131 -11 148 -25 19 -70 14 -94 -10z m72
-103 c-16 -19 -44 -19 -59 -1 -14 17 2 32 39 38 28 3 38 -15 20 -37z"/>
<path d="M3950 3122 c-17 -14 -23 -29 -23 -62 0 -49 27 -80 69 -80 24 0 64 31
64 50 0 17 -21 11 -39 -11 -35 -43 -83 4 -67 65 8 32 42 43 65 22 22 -20 31
-20 31 -1 0 34 -65 45 -100 17z"/>
<path d="M4080 3058 c0 -62 3 -78 15 -78 11 0 15 16 17 68 3 61 5 67 26 70 38
6 24 21 -18 19 l-40 -1 0 -78z"/>
<path d="M4180 3060 c0 -64 3 -80 15 -80 12 0 15 16 15 80 0 64 -3 80 -15 80
-12 0 -15 -16 -15 -80z"/>
<path d="M4250 3030 c0 -67 4 -110 10 -110 6 0 10 16 10 35 0 35 1 36 34 30
47 -9 76 20 76 75 0 63 -43 95 -91 70 -13 -7 -19 -7 -19 0 0 5 -4 10 -10 10
-6 0 -10 -43 -10 -110z m100 57 c13 -24 13 -30 0 -54 -19 -33 -42 -40 -64 -18
-20 21 -20 54 0 83 20 29 44 25 64 -11z"/>
<path d="M4700 3076 c0 -86 27 -114 81 -86 13 7 19 7 19 0 0 -5 5 -10 10 -10
6 0 10 33 10 80 0 47 -4 80 -10 80 -5 0 -10 -24 -10 -54 0 -36 -5 -60 -16 -70
-37 -38 -64 -7 -64 73 0 28 -4 51 -10 51 -6 0 -10 -28 -10 -64z"/>
<path d="M4870 3058 c0 -93 18 -105 22 -15 3 53 6 63 26 72 32 14 27 23 -13
22 l-35 -1 0 -78z"/>
<path d="M4975 3124 c-25 -26 -14 -47 38 -72 40 -19 46 -26 37 -38 -16 -19
-39 -18 -62 3 -20 18 -34 12 -25 -11 15 -39 109 -29 115 12 4 26 -13 52 -34
52 -7 0 -25 5 -39 10 -23 9 -25 13 -15 25 16 19 49 19 56 0 8 -19 24 -19 24 0
0 33 -67 46 -95 19z"/>
<path d="M5200 3060 c0 -47 4 -80 10 -80 6 0 10 20 10 44 0 61 15 96 40 96 11
0 20 5 20 10 0 14 -33 13 -48 -2 -9 -9 -12 -9 -12 0 0 7 -4 12 -10 12 -6 0
-10 -33 -10 -80z"/>
<path d="M5315 3115 c-16 -15 -25 -36 -25 -55 0 -37 39 -80 72 -80 26 0 68 25
68 41 0 5 -7 9 -15 9 -8 0 -15 -4 -15 -9 0 -16 -38 -23 -60 -11 -11 6 -20 17
-20 25 0 11 13 15 55 15 51 0 55 2 55 23 0 31 -35 67 -66 67 -14 0 -36 -11
-49 -25z m83 -22 c14 -23 14 -23 -32 -23 -49 0 -63 19 -28 39 24 15 42 10 60
-16z"/>
<path d="M5470 3030 c0 -67 4 -110 10 -110 6 0 10 15 10 34 0 34 1 35 33 29
28 -4 37 -1 55 22 28 35 28 75 1 109 -22 27 -57 34 -77 14 -9 -9 -12 -9 -12 0
0 7 -4 12 -10 12 -6 0 -10 -43 -10 -110z m89 76 c7 -8 11 -31 9 -52 -6 -71
-70 -73 -76 -2 -5 54 39 88 67 54z"/>
<path d="M5649 3121 c-18 -14 -24 -29 -24 -61 0 -32 6 -47 24 -61 52 -42 116
-9 116 61 0 47 -29 80 -70 80 -13 0 -33 -9 -46 -19z m75 -17 c31 -31 11 -104
-29 -104 -23 0 -45 30 -45 60 0 30 22 60 45 60 7 0 21 -7 29 -16z"/>
<path d="M5804 3119 c-25 -27 -10 -50 45 -68 30 -9 41 -18 39 -30 -4 -23 -46
-26 -69 -5 -25 23 -37 10 -14 -16 23 -26 69 -26 95 0 33 33 23 53 -35 73 -22
8 -40 20 -40 28 0 20 39 23 55 4 14 -17 30 -20 30 -6 0 19 -32 41 -59 41 -15
0 -36 -9 -47 -21z"/>
<path d="M5950 3060 c0 -47 4 -80 10 -80 6 0 10 33 10 80 0 47 -4 80 -10 80
-6 0 -10 -33 -10 -80z"/>
<path d="M6115 3115 c-31 -30 -32 -73 -4 -109 43 -55 119 -21 119 54 0 74 -66
105 -115 55z m77 -12 c22 -20 23 -61 1 -85 -33 -36 -76 -13 -76 42 0 54 38 76
75 43z"/>
<path d="M6270 3060 c0 -47 4 -80 10 -80 6 0 10 24 10 53 0 57 13 82 47 90 19
4 24 -4 47 -67 32 -86 32 -91 4 -110 -12 -9 -18 -19 -14 -23 16 -16 43 18 72
93 45 112 49 127 33 122 -7 -2 -21 -28 -31 -58 -10 -29 -20 -55 -22 -57 -2 -2
-13 24 -25 57 -21 57 -24 60 -55 60 -17 0 -37 -5 -44 -12 -9 -9 -12 -9 -12 0
0 7 -4 12 -10 12 -6 0 -10 -33 -10 -80z"/>
<path d="M254 2236 c14 -19 27 -49 27 -68 l2 -33 4 30 c3 17 16 45 30 63 14
18 22 36 18 40 -3 4 -11 0 -15 -8 -28 -46 -29 -46 -51 -17 -11 15 -25 27 -31
27 -6 0 1 -15 16 -34z"/>
<path d="M2330 2205 c0 -37 4 -65 10 -65 6 0 10 18 10 39 0 24 5 41 14 44 20
8 26 -2 26 -45 0 -21 5 -38 10 -38 12 0 13 70 1 89 -5 8 -18 12 -30 8 -16 -4
-21 -1 -21 14 0 10 -4 19 -10 19 -6 0 -10 -28 -10 -65z"/>
<path d="M2430 2260 c0 -5 5 -10 10 -10 6 0 10 5 10 10 0 6 -4 10 -10 10 -5 0
-10 -4 -10 -10z"/>
<path d="M2830 2260 c0 -5 5 -10 10 -10 6 0 10 5 10 10 0 6 -4 10 -10 10 -5 0
-10 -4 -10 -10z"/>
<path d="M3060 2260 c0 -5 5 -10 10 -10 6 0 10 5 10 10 0 6 -4 10 -10 10 -5 0
-10 -4 -10 -10z"/>
<path d="M3390 2264 c0 -3 9 -17 20 -31 11 -14 20 -41 20 -59 0 -19 5 -34 10
-34 6 0 10 14 10 32 0 18 11 45 26 65 14 18 20 33 15 33 -6 0 -18 -11 -27 -25
-9 -14 -20 -25 -23 -25 -4 0 -14 11 -21 25 -12 23 -30 34 -30 19z"/>
<path d="M4173 2205 c0 -38 2 -53 4 -32 2 20 2 52 0 70 -2 17 -4 1 -4 -38z"/>
<path d="M4443 2205 c0 -38 2 -53 4 -33 4 39 28 67 43 52 5 -5 11 -27 13 -49
3 -33 4 -31 3 10 -1 46 -3 50 -26 50 -16 0 -27 7 -32 20 -3 11 -6 -11 -5 -50z"/>
<path d="M4790 2250 c0 -13 -5 -18 -15 -14 -22 9 -45 -14 -45 -46 0 -33 17
-50 48 -47 20 1 22 6 22 64 0 35 -2 63 -5 63 -3 0 -5 -9 -5 -20z m0 -60 c0
-30 -21 -45 -39 -27 -23 23 -4 71 25 60 8 -3 14 -18 14 -33z"/>
<path d="M6370 2233 c0 -24 3 -33 9 -25 7 12 4 62 -5 62 -2 0 -4 -17 -4 -37z"/>
<path d="M2288 2249 c-8 -25 8 -103 22 -107 12 -4 13 -2 3 9 -15 15 -17 61 -4
75 6 5 4 14 -4 21 -9 8 -15 9 -17 2z"/>
<path d="M2868 2249 c-7 -20 7 -102 17 -106 8 -2 11 47 6 110 -1 11 -19 8 -23
-4z"/>
<path d="M3018 2249 c-8 -25 8 -103 22 -107 12 -4 13 -2 3 9 -15 15 -17 61 -4
75 6 5 4 14 -4 21 -9 8 -15 9 -17 2z"/>
<path d="M5268 2250 c-2 -6 -1 -32 0 -60 3 -38 8 -50 20 -50 12 0 13 3 4 12
-14 14 -16 75 -3 80 5 2 3 8 -4 15 -8 7 -15 8 -17 3z"/>
<path d="M351 2226 c-31 -37 9 -103 47 -80 36 23 23 94 -18 94 -10 0 -23 -6
-29 -14z m47 -8 c28 -28 -3 -83 -33 -58 -8 7 -15 20 -15 29 0 17 18 41 30 41
3 0 11 -5 18 -12z"/>
<path d="M444 2195 c1 -49 1 -50 34 -51 l32 -1 -2 51 c-1 42 -2 45 -5 14 -4
-39 -28 -67 -43 -52 -5 5 -11 27 -13 49 -3 33 -4 31 -3 -10z"/>
<path d="M591 2226 c-17 -20 -10 -67 12 -80 19 -12 48 0 55 25 3 9 -3 7 -17
-6 -22 -19 -23 -19 -37 0 -17 23 -17 27 0 51 12 15 17 17 27 7 18 -18 34 -16
19 2 -16 19 -44 19 -59 1z"/>
<path d="M683 2233 c-7 -2 -13 -9 -13 -14 0 -6 8 -5 20 1 20 11 40 6 40 -10 0
-4 -14 -13 -31 -19 -45 -15 -36 -46 14 -48 35 -1 37 1 37 29 0 55 -25 78 -67
61z m47 -57 c0 -18 -30 -30 -43 -17 -9 9 11 23 41 30 1 1 2 -5 2 -13z"/>
<path d="M772 2185 c1 -42 2 -44 5 -13 4 39 28 67 43 52 5 -5 11 -27 13 -49 3
-33 4 -31 3 10 -1 49 -1 50 -33 50 l-33 1 2 -51z"/>
<path d="M940 2236 c0 -2 9 -6 20 -9 11 -3 18 -1 14 4 -5 9 -34 13 -34 5z"/>
<path d="M1131 2237 c2 -1 13 -9 24 -17 19 -14 19 -14 6 3 -7 9 -18 17 -24 17
-6 0 -8 -1 -6 -3z"/>
<path d="M1221 2237 c2 -1 13 -9 24 -17 19 -14 19 -14 6 3 -7 9 -18 17 -24 17
-6 0 -8 -1 -6 -3z"/>
<path d="M1388 2233 c7 -3 16 -2 19 1 4 3 -2 6 -13 5 -11 0 -14 -3 -6 -6z"/>
<path d="M1526 2226 c10 -8 21 -12 24 -10 5 6 -21 24 -34 24 -6 0 -1 -6 10
-14z"/>
<path d="M1580 2190 c0 -29 2 -51 4 -49 8 8 10 88 3 95 -4 4 -7 -17 -7 -46z"/>
<path d="M1910 2236 c0 -2 7 -7 16 -10 8 -3 12 -2 9 4 -6 10 -25 14 -25 6z"/>
<path d="M2013 2190 c0 -30 2 -43 4 -27 2 15 2 39 0 55 -2 15 -4 2 -4 -28z"/>
<path d="M2080 2236 c0 -2 7 -7 16 -10 8 -3 12 -2 9 4 -6 10 -25 14 -25 6z"/>
<path d="M2430 2190 c0 -27 5 -50 10 -50 6 0 10 23 10 50 0 28 -4 50 -10 50
-5 0 -10 -22 -10 -50z"/>
<path d="M2477 2233 c-15 -14 -5 -33 25 -49 27 -14 29 -17 14 -26 -11 -6 -22
-6 -32 2 -9 8 -14 9 -14 2 0 -17 19 -24 46 -18 36 9 31 41 -8 55 -24 9 -29 14
-20 23 9 9 15 9 24 0 17 -17 33 -15 18 3 -13 16 -42 20 -53 8z"/>
<path d="M2613 2190 c0 -30 2 -43 4 -27 2 15 2 39 0 55 -2 15 -4 2 -4 -28z"/>
<path d="M2652 2186 c1 -49 2 -49 5 -9 7 69 47 64 56 -7 3 -23 4 -18 3 15 -1
49 -1 50 -33 51 l-33 1 2 -51z"/>
<path d="M2742 2230 c0 -23 24 -85 32 -85 5 0 16 21 26 48 10 26 14 47 10 47
-5 0 -14 -17 -21 -37 l-12 -38 -18 40 c-10 22 -18 33 -17 25z"/>
<path d="M2830 2190 c0 -27 5 -50 10 -50 6 0 10 23 10 50 0 28 -4 50 -10 50
-5 0 -10 -22 -10 -50z"/>
<path d="M2927 2234 c-13 -13 -7 -27 7 -15 14 12 46 5 46 -10 0 -5 -13 -12
-29 -15 -55 -11 -44 -54 12 -51 27 2 28 4 25 47 -3 40 -6 45 -28 48 -14 2 -29
0 -33 -4z m41 -70 c-9 -9 -21 -13 -27 -10 -20 13 -11 26 16 26 25 0 26 -1 11
-16z"/>
<path d="M3060 2190 c0 -27 5 -50 10 -50 6 0 10 23 10 50 0 28 -4 50 -10 50
-5 0 -10 -22 -10 -50z"/>
<path d="M3111 2226 c-31 -37 9 -103 47 -80 36 23 23 94 -18 94 -10 0 -23 -6
-29 -14z m47 -8 c28 -28 -3 -83 -33 -58 -8 7 -15 20 -15 29 0 17 18 41 30 41
3 0 11 -5 18 -12z"/>
<path d="M3202 2185 c1 -42 2 -44 5 -13 4 39 28 67 43 52 5 -5 11 -27 13 -49
3 -33 4 -31 3 10 -1 49 -1 50 -33 50 l-33 1 2 -51z"/>
<path d="M3501 2226 c-31 -37 9 -103 47 -80 36 23 23 94 -18 94 -10 0 -23 -6
-29 -14z m53 -19 c12 -18 0 -47 -22 -55 -19 -6 -34 35 -22 59 13 23 28 21 44
-4z"/>
<path d="M3590 2201 c0 -44 13 -59 53 -59 26 0 27 3 27 49 0 60 -18 65 -22 7
-2 -30 -8 -43 -18 -43 -10 0 -16 13 -18 43 -4 53 -22 56 -22 3z"/>
<path d="M3753 2232 c-12 -8 -18 -31 -15 -64 4 -34 72 -30 72 5 0 5 -8 3 -17
-5 -25 -21 -43 -12 -43 22 0 32 16 42 44 28 14 -8 17 -7 14 4 -5 15 -38 22
-55 10z"/>
<path d="M3837 2234 c-14 -14 -7 -26 9 -14 12 11 18 10 31 -3 15 -14 13 -16
-18 -24 -24 -7 -34 -15 -34 -29 0 -15 7 -19 38 -19 l38 -1 -3 46 c-3 40 -6 45
-28 48 -14 2 -29 0 -33 -4z m41 -70 c-9 -9 -21 -13 -27 -10 -20 13 -11 26 16
26 25 0 26 -1 11 -16z"/>
<path d="M3920 2189 c0 -60 18 -65 22 -6 2 29 8 42 18 42 10 0 16 -13 18 -42
4 -54 22 -57 22 -4 0 44 -13 59 -52 59 -27 0 -28 -3 -28 -49z"/>
<path d="M4077 2234 c-14 -14 -7 -26 8 -14 16 13 45 7 45 -10 0 -6 -13 -13
-29 -16 -56 -12 -44 -54 15 -52 29 1 30 1 24 47 -4 40 -8 46 -30 49 -14 2 -29
0 -33 -4z m53 -63 c0 -12 -29 -23 -41 -15 -18 10 -9 24 16 24 14 0 25 -4 25
-9z"/>
<path d="M4211 2231 c-20 -13 -6 -39 24 -47 14 -3 25 -10 25 -14 0 -16 -20
-21 -41 -9 -17 9 -20 8 -17 -3 3 -7 18 -13 34 -13 22 0 30 5 32 21 2 17 -5 24
-29 33 -26 9 -30 14 -21 23 10 10 17 10 33 -1 18 -10 20 -10 17 1 -6 16 -38
21 -57 9z"/>
<path d="M4301 2226 c-31 -37 9 -103 47 -80 36 23 23 94 -18 94 -10 0 -23 -6
-29 -14z m47 -8 c28 -28 -3 -83 -33 -58 -8 7 -15 20 -15 29 0 17 18 41 30 41
3 0 11 -5 18 -12z"/>
<path d="M4546 2224 c-19 -19 -20 -44 -3 -68 15 -20 58 -19 65 2 3 11 0 12
-14 4 -23 -12 -44 -5 -44 14 0 9 11 14 35 14 29 0 33 3 28 18 -13 34 -42 41
-67 16z m38 0 c25 -9 19 -24 -9 -24 -24 0 -32 10 -18 23 8 8 8 8 27 1z"/>
<path d="M4640 2225 c-15 -18 1 -20 18 -3 9 9 15 9 24 0 14 -14 3 -28 -27 -34
-12 -2 -20 -11 -20 -23 0 -16 7 -20 38 -20 36 -1 37 0 37 35 0 55 -40 81 -70
45z m50 -54 c0 -12 -29 -23 -41 -15 -5 3 -7 10 -4 15 8 12 45 12 45 0z"/>
<path d="M4878 2215 c-21 -47 19 -93 59 -67 6 4 14 19 18 33 13 52 -55 82 -77
34z m46 9 c21 -8 21 -60 0 -68 -23 -9 -34 2 -34 33 0 38 7 45 34 35z"/>
<path d="M4972 2230 c0 -23 24 -85 32 -85 5 0 16 21 26 48 10 26 14 47 10 47
-5 0 -14 -17 -21 -37 l-12 -38 -18 40 c-10 22 -18 33 -17 25z"/>
<path d="M5072 2228 c-7 -7 -12 -24 -12 -38 0 -46 43 -67 70 -35 15 18 -1 20
-18 3 -8 -8 -15 -8 -27 2 -24 20 -18 30 20 30 22 0 35 5 35 13 0 18 -21 37
-40 37 -9 0 -21 -5 -28 -12z m46 -16 c2 -7 -7 -12 -23 -12 -24 0 -26 2 -15 15
14 17 31 16 38 -3z"/>
<path d="M5161 2185 l2 -50 7 43 c3 24 13 48 21 52 10 7 8 9 -9 7 -20 -1 -22
-6 -21 -52z"/>
<path d="M5321 2226 c-31 -37 9 -103 47 -80 36 23 23 94 -18 94 -10 0 -23 -6
-29 -14z m53 -19 c12 -18 0 -47 -22 -55 -19 -6 -34 35 -22 59 13 23 28 21 44
-4z"/>
<path d="M5555 2230 c3 -5 12 -7 20 -3 21 7 19 13 -6 13 -11 0 -18 -4 -14 -10z"/>
<path d="M5605 2230 c3 -5 12 -7 20 -3 21 7 19 13 -6 13 -11 0 -18 -4 -14 -10z"/>
<path d="M6048 2194 c-2 -25 0 -48 4 -50 5 -3 8 18 8 45 0 64 -7 66 -12 5z"/>
<path d="M6128 2233 c7 -3 16 -2 19 1 4 3 -2 6 -13 5 -11 0 -14 -3 -6 -6z"/>
<path d="M6272 2205 c-2 -39 11 -65 32 -65 5 0 2 6 -7 13 -9 6 -18 30 -20 52
l-4 40 -1 -40z"/>
<path d="M6333 2190 c0 -30 2 -43 4 -27 2 15 2 39 0 55 -2 15 -4 2 -4 -28z"/>
<path d="M6541 2237 c2 -1 13 -9 24 -17 19 -14 19 -14 6 3 -7 9 -18 17 -24 17
-6 0 -8 -1 -6 -3z"/>
<path d="M6631 2237 c2 -1 13 -9 24 -17 19 -14 19 -14 6 3 -7 9 -18 17 -24 17
-6 0 -8 -1 -6 -3z"/>
<path d="M6742 2226 c7 -8 15 -12 17 -11 5 6 -10 25 -20 25 -5 0 -4 -6 3 -14z"/>
<path d="M6793 2229 c11 -7 18 -24 19 -52 l1 -42 4 38 c4 38 -9 67 -31 67 -6
0 -3 -5 7 -11z"/>
<path d="M1107 2223 c-9 -9 -9 -61 1 -66 4 -3 7 12 7 34 0 21 0 39 -1 39 0 0
-4 -3 -7 -7z"/>
<path d="M1197 2223 c-19 -18 -5 -33 31 -31 l37 1 -33 4 c-24 3 -32 8 -28 19
6 15 3 18 -7 7z"/>
<path d="M1290 2215 c0 -8 2 -15 4 -15 2 0 6 7 10 15 3 8 1 15 -4 15 -6 0 -10
-7 -10 -15z"/>
<path d="M1346 2217 c3 -10 9 -15 12 -12 3 3 0 11 -7 18 -10 9 -11 8 -5 -6z"/>
<path d="M1485 2219 c-4 -6 -5 -12 -2 -15 2 -3 7 2 10 11 7 17 1 20 -8 4z"/>
<path d="M1787 2223 c-10 -10 -8 -61 2 -67 5 -4 7 3 4 13 -4 17 1 20 34 24
l38 4 -39 1 c-29 2 -37 5 -32 17 6 16 3 19 -7 8z"/>
<path d="M1885 2219 c-4 -6 -5 -12 -2 -15 2 -3 7 2 10 11 7 17 1 20 -8 4z"/>
<path d="M2050 2219 c0 -5 5 -7 10 -4 6 3 10 8 10 11 0 2 -4 4 -10 4 -5 0 -10
-5 -10 -11z"/>
<path d="M2147 2223 c-10 -10 -8 -61 2 -67 5 -4 7 3 4 13 -4 17 1 20 34 24
l38 4 -39 1 c-29 2 -37 5 -32 17 6 16 3 19 -7 8z"/>
<path d="M5660 2215 c0 -8 2 -15 4 -15 2 0 6 7 10 15 3 8 1 15 -4 15 -6 0 -10
-7 -10 -15z"/>
<path d="M5716 2217 c3 -10 9 -15 12 -12 3 3 0 11 -7 18 -10 9 -11 8 -5 -6z"/>
<path d="M6426 2217 c3 -10 9 -15 12 -12 3 3 0 11 -7 18 -10 9 -11 8 -5 -6z"/>
<path d="M6517 2223 c-9 -9 -9 -61 1 -66 4 -3 7 12 7 34 0 21 0 39 -1 39 0 0
-4 -3 -7 -7z"/>
<path d="M6701 2183 c1 -53 6 -49 11 10 2 20 0 37 -4 37 -4 0 -8 -21 -7 -47z"/>
<path d="M5751 2212 c-1 -7 13 -18 29 -23 36 -13 38 -26 8 -39 -16 -6 -18 -9
-7 -9 9 -1 23 6 30 15 11 14 10 18 -6 30 -10 8 -24 14 -31 14 -7 0 -15 6 -17
13 -4 9 -6 9 -6 -1z"/>
<path d="M1682 2190 c0 -14 2 -19 5 -12 2 6 2 18 0 25 -3 6 -5 1 -5 -13z"/>
<path d="M975 2175 c2 -37 15 -43 15 -7 0 18 -4 32 -8 32 -4 0 -7 -11 -7 -25z"/>
<path d="M1190 2171 c0 -6 4 -13 10 -16 6 -3 7 1 4 9 -7 18 -14 21 -14 7z"/>
<path d="M1290 2143 c0 -24 2 -43 4 -43 8 0 12 60 4 72 -4 8 -8 -4 -8 -29z"/>
<path d="M1346 2163 c-6 -14 -5 -15 5 -6 7 7 10 15 7 18 -3 3 -9 -2 -12 -12z"/>
<path d="M1480 2171 c0 -6 4 -13 10 -16 6 -3 7 1 4 9 -7 18 -14 21 -14 7z"/>
<path d="M1880 2171 c0 -6 4 -13 10 -16 6 -3 7 1 4 9 -7 18 -14 21 -14 7z"/>
<path d="M1936 2163 c-6 -14 -5 -15 5 -6 7 7 10 15 7 18 -3 3 -9 -2 -12 -12z"/>
<path d="M5660 2143 c0 -24 2 -43 4 -43 8 0 12 60 4 72 -4 8 -8 -4 -8 -29z"/>
<path d="M5716 2163 c-6 -14 -5 -15 5 -6 7 7 10 15 7 18 -3 3 -9 -2 -12 -12z"/>
<path d="M6370 2165 c0 -8 4 -15 10 -15 5 0 7 7 4 15 -4 8 -8 15 -10 15 -2 0
-4 -7 -4 -15z"/>
<path d="M6426 2163 c-6 -14 -5 -15 5 -6 7 7 10 15 7 18 -3 3 -9 -2 -12 -12z"/>
<path d="M1146 2155 c-11 -8 -15 -15 -9 -15 6 0 16 7 23 15 16 19 11 19 -14 0z"/>
<path d="M1526 2154 c-11 -8 -16 -14 -10 -14 13 0 39 18 34 24 -3 2 -14 -2
-24 -10z"/>
<path d="M1726 2154 c-11 -8 -16 -14 -10 -14 13 0 39 18 34 24 -3 2 -14 -2
-24 -10z"/>
<path d="M6556 2155 c-11 -8 -15 -15 -9 -15 6 0 16 7 23 15 16 19 11 19 -14 0z"/>
<path d="M6646 2155 c-11 -8 -15 -15 -9 -15 6 0 16 7 23 15 16 19 11 19 -14 0z"/>
<path d="M927 2149 c7 -7 15 -10 18 -7 3 3 -2 9 -12 12 -14 6 -15 5 -6 -5z"/>
<path d="M3300 2150 c0 -5 5 -10 10 -10 6 0 10 5 10 10 0 6 -4 10 -10 10 -5 0
-10 -4 -10 -10z"/>
<path d="M307 2013 c19 -4 23 -12 26 -66 l3 -62 2 62 c2 55 4 62 25 66 12 2 0
4 -28 4 -27 0 -40 -2 -28 -4z"/>
<path d="M713 2013 c9 -2 25 -2 35 0 9 3 1 5 -18 5 -19 0 -27 -2 -17 -5z"/>
<path d="M1432 1953 l2 -68 3 58 c2 32 8 55 13 52 6 -3 7 1 4 9 -14 36 -24 12
-22 -51z"/>
<path d="M1537 1963 c6 -84 11 -88 12 -10 1 37 -3 67 -7 67 -5 0 -7 -26 -5
-57z"/>
<path d="M1812 1958 l-2 -68 38 2 c36 1 36 1 5 5 -32 4 -32 5 -36 66 l-3 62
-2 -67z"/>
<path d="M2063 2013 c-7 -2 -13 -10 -13 -16 0 -8 4 -7 12 1 16 16 33 15 52 -4
9 -8 16 -11 16 -5 0 20 -41 35 -67 24z"/>
<path d="M2537 1984 c-21 -20 -37 -37 -35 -39 4 -5 28 15 57 48 34 37 23 33
-22 -9z"/>
<path d="M3183 1955 c0 -38 2 -53 4 -33 4 39 28 67 43 52 5 -5 11 -27 13 -49
3 -33 4 -31 3 10 -1 46 -3 50 -26 50 -16 0 -27 7 -32 20 -3 11 -6 -11 -5 -50z"/>
<path d="M3462 1955 c0 -38 2 -63 5 -55 2 8 7 22 9 30 4 10 11 6 29 -15 28
-34 33 -27 9 11 -16 23 -15 26 1 44 10 11 13 20 8 20 -6 0 -16 -7 -23 -15 -19
-23 -28 -18 -33 18 -2 17 -4 1 -5 -38z"/>
<path d="M3943 1955 c0 -38 2 -53 4 -33 8 71 47 70 56 -2 3 -23 4 -18 3 15 -1
46 -3 50 -26 50 -16 0 -27 7 -32 20 -3 11 -6 -11 -5 -50z"/>
<path d="M5410 2010 c0 -5 5 -10 10 -10 6 0 10 5 10 10 0 6 -4 10 -10 10 -5 0
-10 -4 -10 -10z"/>
<path d="M5461 2008 c-1 -10 -6 -18 -13 -18 -9 0 -9 -3 0 -12 7 -7 12 -29 12
-50 0 -30 4 -38 18 -37 10 0 12 3 5 6 -8 2 -13 22 -13 44 0 24 5 39 13 39 8 0
9 3 1 8 -6 4 -14 14 -17 22 -4 12 -6 11 -6 -2z"/>
<path d="M5628 2013 c7 -3 16 -2 19 1 4 3 -2 6 -13 5 -11 0 -14 -3 -6 -6z"/>
<path d="M5733 2014 c3 -3 22 -6 42 -6 20 0 39 3 42 6 4 3 -15 6 -42 6 -27 0
-46 -3 -42 -6z"/>
<path d="M6153 2013 c9 -2 25 -2 35 0 9 3 1 5 -18 5 -19 0 -27 -2 -17 -5z"/>
<path d="M6663 2000 c-11 -16 -10 -18 2 -14 8 4 15 12 15 20 0 19 -3 18 -17
-6z"/>
<path d="M774 1987 c1 -18 -6 -23 -39 -28 -24 -4 -30 -7 -15 -7 15 -1 37 -15
53 -34 l29 -33 -21 31 c-18 28 -19 33 -6 44 16 14 20 36 7 44 -5 3 -8 -5 -8
-17z"/>
<path d="M1220 1995 c-11 -13 -10 -14 4 -9 9 3 16 10 16 15 0 13 -6 11 -20 -6z"/>
<path d="M2898 1999 c-8 -25 8 -103 22 -107 12 -4 13 -2 3 9 -15 15 -17 61 -4
75 6 5 4 14 -4 21 -9 8 -15 9 -17 2z"/>
<path d="M3788 1999 c-7 -20 7 -102 17 -106 8 -2 11 47 6 110 -1 11 -19 8 -23
-4z"/>
<path d="M3888 1999 c-8 -25 8 -103 22 -107 12 -4 13 -2 3 9 -15 15 -17 61 -4
75 6 5 4 14 -4 21 -9 8 -15 9 -17 2z"/>
<path d="M4658 1999 c-8 -25 8 -103 22 -107 12 -4 13 -2 3 9 -15 15 -17 61 -4
75 6 5 4 14 -4 21 -9 8 -15 9 -17 2z"/>
<path d="M5670 2006 c0 -2 8 -10 18 -17 15 -13 16 -12 3 4 -13 16 -21 21 -21
13z"/>
<path d="M389 1973 c-13 -17 -13 -17 6 -3 11 8 22 16 24 17 2 2 0 3 -6 3 -6 0
-17 -8 -24 -17z"/>
<path d="M493 1983 c-8 -3 -12 -22 -11 -51 l1 -47 4 40 c2 22 11 46 20 53 17
12 9 15 -14 5z"/>
<path d="M829 1973 c-13 -17 -13 -17 6 -3 11 8 22 16 24 17 2 2 0 3 -6 3 -6 0
-17 -8 -24 -17z"/>
<path d="M1099 1973 c-13 -17 -13 -17 6 -3 11 8 22 16 24 17 2 2 0 3 -6 3 -6
0 -17 -8 -24 -17z"/>
<path d="M2169 1973 c-13 -17 -13 -17 6 -3 11 8 22 16 24 17 2 2 0 3 -6 3 -6
0 -17 -8 -24 -17z"/>
<path d="M2263 1983 c-8 -3 -12 -22 -11 -51 l1 -47 4 40 c2 22 11 46 20 53 17
12 9 15 -14 5z"/>
<path d="M2448 1983 c7 -3 16 -2 19 1 4 3 -2 6 -13 5 -11 0 -14 -3 -6 -6z"/>
<path d="M2951 1976 c-31 -37 9 -103 47 -80 36 23 23 94 -18 94 -10 0 -23 -6
-29 -14z m53 -19 c12 -18 0 -47 -22 -55 -19 -6 -34 35 -22 59 13 23 28 21 44
-4z"/>
<path d="M3104 1983 c-12 -8 -17 -32 -15 -65 2 -32 71 -34 71 -1 0 12 -3 12
-16 -2 -19 -18 -44 -4 -44 25 0 29 27 45 47 29 14 -12 16 -12 11 1 -5 17 -37
24 -54 13z"/>
<path d="M3282 1978 c-17 -17 -15 -63 3 -78 16 -14 65 -6 65 11 0 6 -8 5 -22
-2 -18 -10 -24 -8 -35 7 -13 18 -11 19 21 22 20 2 36 9 36 16 0 17 -21 36 -40
36 -9 0 -21 -5 -28 -12z m42 -4 c25 -9 19 -24 -9 -24 -24 0 -32 10 -18 23 8 8
8 8 27 1z"/>
<path d="M3382 1978 c-17 -17 -15 -63 3 -78 20 -17 49 -9 53 15 4 20 4 20 -11
0 -13 -16 -17 -17 -31 -6 -20 17 -21 45 -1 61 12 10 18 10 32 -1 14 -12 16
-12 11 1 -6 19 -40 24 -56 8z"/>
<path d="M3598 1965 c-21 -47 19 -93 59 -67 6 4 14 19 18 33 13 52 -55 82 -77
34z m46 9 c21 -8 21 -60 0 -68 -23 -9 -34 2 -34 33 0 38 7 45 34 35z"/>
<path d="M3690 1951 c0 -44 13 -59 53 -59 26 0 27 3 27 49 0 60 -18 65 -22 7
-2 -30 -8 -43 -18 -43 -10 0 -16 13 -18 43 -4 53 -22 56 -22 3z"/>
<path d="M4042 1978 c-7 -7 -12 -24 -12 -38 0 -46 43 -67 70 -35 15 18 -1 20
-19 3 -10 -11 -15 -9 -27 7 -14 19 -13 20 20 23 20 2 36 9 36 16 0 17 -21 36
-40 36 -9 0 -21 -5 -28 -12z m46 -16 c2 -7 -6 -12 -17 -12 -21 0 -27 11 -14
24 9 9 26 2 31 -12z"/>
<path d="M4182 1935 c1 -43 2 -45 5 -13 3 24 12 43 26 53 22 15 22 15 -6 13
-26 -2 -27 -5 -25 -53z"/>
<path d="M4246 1974 c-21 -20 -20 -48 0 -69 19 -19 55 -16 62 5 4 12 3 13 -10
2 -18 -15 -48 -6 -48 14 0 9 12 14 35 14 38 0 40 2 25 31 -13 23 -43 25 -64 3z
m52 -12 c2 -7 -7 -12 -22 -12 -27 0 -35 15 -13 23 17 7 30 3 35 -11z"/>
<path d="M4330 1919 c0 -39 4 -69 10 -69 6 0 10 11 10 25 0 18 4 23 15 19 22
-9 45 14 45 46 0 33 -16 48 -52 48 -28 0 -28 -1 -28 -69z m70 22 c0 -23 -19
-41 -36 -34 -17 6 -18 60 -1 66 16 6 37 -12 37 -32z"/>
<path d="M4441 1976 c-31 -37 9 -103 47 -80 36 23 23 94 -18 94 -10 0 -23 -6
-29 -14z m47 -8 c28 -28 -3 -83 -33 -58 -8 7 -15 20 -15 29 0 17 18 41 30 41
3 0 11 -5 18 -12z"/>
<path d="M4537 1984 c-16 -16 -6 -42 18 -48 26 -7 32 -20 15 -31 -6 -4 -18 -1
-27 7 -14 11 -16 11 -11 -2 6 -21 42 -24 57 -6 16 19 7 34 -27 47 -19 7 -22
13 -14 21 8 8 16 7 28 -3 15 -12 17 -12 12 1 -5 16 -39 25 -51 14z"/>
<path d="M4623 1940 c0 -30 2 -43 4 -27 2 15 2 39 0 55 -2 15 -4 2 -4 -28z"/>
<path d="M4711 1976 c-31 -37 9 -103 47 -80 36 23 23 94 -18 94 -10 0 -23 -6
-29 -14z m53 -19 c12 -18 0 -47 -22 -55 -19 -6 -34 35 -22 59 13 23 28 21 44
-4z"/>
<path d="M4800 1938 c0 -26 5 -48 10 -48 6 0 10 18 10 40 0 27 5 43 15 47 21
7 22 6 37 -51 10 -39 10 -50 1 -53 -16 -6 -17 -23 -3 -23 12 0 47 76 55 118 4
20 0 16 -14 -13 l-19 -40 -11 28 c-6 16 -11 33 -11 38 0 5 -16 9 -35 7 -35 -2
-35 -2 -35 -50z"/>
<path d="M4998 1965 c-21 -47 19 -93 59 -67 6 4 14 19 18 33 13 52 -55 82 -77
34z m46 9 c21 -8 21 -60 0 -68 -23 -9 -34 2 -34 33 0 38 7 45 34 35z"/>
<path d="M5090 1939 c0 -27 5 -49 10 -49 6 0 10 18 10 40 0 26 6 42 17 48 13
8 11 10 -10 10 -26 0 -27 -3 -27 -49z"/>
<path d="M5208 1940 c9 -27 19 -50 23 -50 9 0 42 90 35 97 -5 6 -26 -40 -26
-58 0 -21 -19 3 -25 31 -4 17 -10 30 -15 30 -4 0 -1 -22 8 -50z"/>
<path d="M5293 1940 c0 -30 2 -43 4 -27 2 15 2 39 0 55 -2 15 -4 2 -4 -28z"/>
<path d="M5330 1974 c-12 -14 -12 -18 5 -30 10 -8 25 -14 32 -14 7 0 13 -4 13
-9 0 -16 -21 -24 -33 -12 -17 17 -31 13 -17 -4 16 -20 44 -19 61 1 11 14 10
18 -6 30 -10 8 -25 14 -32 14 -7 0 -13 4 -13 9 0 18 21 23 37 9 14 -11 16 -11
11 2 -7 21 -42 24 -58 4z"/>
<path d="M5410 1940 c0 -27 5 -50 10 -50 6 0 10 23 10 50 0 28 -4 50 -10 50
-5 0 -10 -22 -10 -50z"/>
<path d="M5829 1973 c-13 -17 -13 -17 6 -3 11 8 22 16 24 17 2 2 0 3 -6 3 -6
0 -17 -8 -24 -17z"/>
<path d="M6076 1976 c10 -8 21 -12 24 -10 5 6 -21 24 -34 24 -6 0 -1 -6 10
-14z"/>
<path d="M6217 1976 c-3 -8 -23 -16 -44 -19 l-38 -4 36 -1 c34 -2 70 20 57 34
-3 3 -8 -2 -11 -10z"/>
<path d="M6539 1973 c-13 -17 -13 -17 6 -3 11 8 22 16 24 17 2 2 0 3 -6 3 -6
0 -17 -8 -24 -17z"/>
<path d="M6723 1955 c0 -22 2 -30 4 -17 2 12 2 30 0 40 -3 9 -5 -1 -4 -23z"/>
<path d="M876 1967 c3 -10 9 -15 12 -12 3 3 0 11 -7 18 -10 9 -11 8 -5 -6z"/>
<path d="M1280 1954 c0 -16 5 -36 10 -44 6 -10 7 -2 3 25 -7 49 -13 58 -13 19z"/>
<path d="M5876 1967 c3 -10 9 -15 12 -12 3 3 0 11 -7 18 -10 9 -11 8 -5 -6z"/>
<path d="M6035 1969 c-4 -6 -5 -12 -2 -15 2 -3 7 2 10 11 7 17 1 20 -8 4z"/>
<path d="M6586 1967 c3 -10 9 -15 12 -12 3 3 0 11 -7 18 -10 9 -11 8 -5 -6z"/>
<path d="M6766 1966 c10 -8 21 -12 24 -10 5 6 -21 24 -34 24 -6 0 -1 -6 10
-14z"/>
<path d="M911 1962 c-1 -7 13 -18 29 -23 36 -13 38 -26 8 -39 -16 -6 -18 -9
-7 -9 9 -1 23 6 30 15 11 14 10 18 -6 30 -10 8 -24 14 -31 14 -7 0 -15 6 -17
13 -4 9 -6 9 -6 -1z"/>
<path d="M1000 1962 c0 -7 14 -18 31 -24 20 -7 28 -15 25 -25 -3 -8 -1 -11 4
-8 17 11 11 25 -17 38 -16 6 -31 16 -35 22 -5 6 -8 5 -8 -3z"/>
<path d="M2760 1962 c0 -7 14 -18 31 -24 20 -7 28 -15 25 -25 -3 -8 -1 -11 4
-8 17 11 11 25 -17 38 -16 6 -31 16 -35 22 -5 6 -8 5 -8 -3z"/>
<path d="M5595 1959 c-4 -6 -5 -12 -2 -15 2 -3 7 2 10 11 7 17 1 20 -8 4z"/>
<path d="M5647 1949 c4 -13 8 -18 11 -10 2 7 -1 18 -6 23 -8 8 -9 4 -5 -13z"/>
<path d="M6350 1962 c0 -7 14 -18 31 -24 20 -7 28 -15 25 -25 -3 -8 -1 -11 4
-8 17 11 11 25 -17 38 -16 6 -31 16 -35 22 -5 6 -8 5 -8 -3z"/>
<path d="M592 1940 c0 -14 2 -19 5 -12 2 6 2 18 0 25 -3 6 -5 1 -5 -13z"/>
<path d="M662 1940 c0 -14 2 -19 5 -12 2 6 2 18 0 25 -3 6 -5 1 -5 -13z"/>
<path d="M1570 1938 c0 -19 26 -48 43 -48 6 0 1 7 -11 16 -32 22 -27 34 13 34
19 0 35 3 35 8 0 4 -18 7 -40 7 -31 0 -40 -4 -40 -17z"/>
<path d="M2088 1953 c7 -3 16 -2 19 1 4 3 -2 6 -13 5 -11 0 -14 -3 -6 -6z"/>
<path d="M2412 1940 c0 -14 2 -19 5 -12 2 6 2 18 0 25 -3 6 -5 1 -5 -13z"/>
<path d="M6252 1940 c0 -14 2 -19 5 -12 2 6 2 18 0 25 -3 6 -5 1 -5 -13z"/>
<path d="M6319 1932 c-3 -20 -2 -29 4 -23 5 5 7 19 5 32 -3 20 -5 19 -9 -9z"/>
<path d="M6447 1949 c7 -7 15 -10 18 -7 3 3 -2 9 -12 12 -14 6 -15 5 -6 -5z"/>
<path d="M1180 1938 c0 -5 18 -8 40 -8 22 0 40 2 40 4 0 2 -18 6 -40 8 -22 2
-40 0 -40 -4z"/>
<path d="M2560 1920 c12 -16 24 -30 26 -30 3 0 -4 14 -16 30 -12 17 -24 30
-26 30 -3 0 4 -13 16 -30z"/>
<path d="M5552 1930 c0 -14 2 -19 5 -12 2 6 2 18 0 25 -3 6 -5 1 -5 -13z"/>
<path d="M6620 1939 c0 -10 58 -17 71 -8 6 3 -7 8 -30 11 -22 2 -41 1 -41 -3z"/>
<path d="M1958 1933 c7 -3 16 -2 19 1 4 3 -2 6 -13 5 -11 0 -14 -3 -6 -6z"/>
<path d="M6200 1934 c0 -5 7 -18 15 -28 8 -11 15 -16 15 -10 0 5 -7 18 -15 28
-8 11 -15 16 -15 10z"/>
<path d="M876 1913 c-6 -14 -5 -15 5 -6 7 7 10 15 7 18 -3 3 -9 -2 -12 -12z"/>
<path d="M2040 1921 c0 -10 19 -25 25 -20 1 2 -3 10 -11 17 -8 7 -14 8 -14 3z"/>
<path d="M2611 1914 c0 -11 3 -14 6 -6 3 7 2 16 -1 19 -3 4 -6 -2 -5 -13z"/>
<path d="M5876 1913 c-6 -14 -5 -15 5 -6 7 7 10 15 7 18 -3 3 -9 -2 -12 -12z"/>
<path d="M6030 1921 c0 -6 4 -13 10 -16 6 -3 7 1 4 9 -7 18 -14 21 -14 7z"/>
<path d="M6586 1913 c-6 -14 -5 -15 5 -6 7 7 10 15 7 18 -3 3 -9 -2 -12 -12z"/>
<path d="M392 1904 c10 -10 20 -16 22 -13 3 3 -5 11 -17 18 -21 13 -21 12 -5
-5z"/>
<path d="M832 1904 c10 -10 20 -16 22 -13 3 3 -5 11 -17 18 -21 13 -21 12 -5
-5z"/>
<path d="M1102 1904 c10 -10 20 -16 22 -13 3 3 -5 11 -17 18 -21 13 -21 12 -5
-5z"/>
<path d="M1952 1904 c10 -10 20 -16 22 -13 3 3 -5 11 -17 18 -21 13 -21 12 -5
-5z"/>
<path d="M1996 1911 c-3 -5 1 -11 9 -14 9 -4 12 -1 8 9 -6 16 -10 17 -17 5z"/>
<path d="M2172 1904 c10 -10 20 -16 22 -13 3 3 -5 11 -17 18 -21 13 -21 12 -5
-5z"/>
<path d="M5640 1913 c0 -19 21 -27 33 -13 9 10 9 11 -2 5 -8 -4 -17 -2 -22 6
-6 9 -9 10 -9 2z"/>
<path d="M5832 1904 c10 -10 20 -16 22 -13 3 3 -5 11 -17 18 -21 13 -21 12 -5
-5z"/>
<path d="M6076 1904 c-11 -8 -16 -14 -10 -14 13 0 39 18 34 24 -3 2 -14 -2
-24 -10z"/>
<path d="M6542 1904 c10 -10 20 -16 22 -13 3 3 -5 11 -17 18 -21 13 -21 12 -5
-5z"/>
<path d="M6766 1905 c-11 -8 -15 -15 -9 -15 6 0 16 7 23 15 16 19 11 19 -14 0z"/>
<path d="M5628 1853 c7 -3 16 -2 19 1 4 3 -2 6 -13 5 -11 0 -14 -3 -6 -6z"/>
<path d="M244 1759 c-8 -14 -7 -72 2 -101 3 -10 13 -18 22 -18 13 0 14 2 4 8
-8 6 -12 27 -11 60 2 55 -4 72 -17 51z"/>
<path d="M430 1705 c0 -37 4 -65 10 -65 6 0 10 28 10 65 0 37 -4 65 -10 65 -6
0 -10 -28 -10 -65z"/>
<path d="M1021 1708 l-1 -66 31 2 c46 3 63 43 35 81 -8 12 -20 16 -34 13 -16
-4 -22 -1 -25 16 -2 11 -5 -9 -6 -46z m57 -13 c4 -31 -15 -50 -35 -33 -16 13
-17 40 -1 56 18 18 33 9 36 -23z"/>
<path d="M1801 1710 c-1 -63 0 -66 24 -68 49 -4 70 79 24 93 -10 4 -23 4 -28
0 -5 -3 -12 5 -14 17 -2 13 -5 -6 -6 -42z m59 -14 c0 -27 -18 -46 -36 -39 -17
6 -18 45 -3 60 17 17 39 4 39 -21z"/>
<path d="M2230 1705 c0 -37 4 -65 10 -65 6 0 10 18 10 39 0 24 5 41 14 44 20
8 26 -2 26 -45 0 -21 5 -38 10 -38 12 0 13 70 1 89 -5 8 -18 12 -30 8 -16 -4
-21 -1 -21 14 0 10 -4 19 -10 19 -6 0 -10 -28 -10 -65z"/>
<path d="M1158 1750 c-2 -6 -1 -32 0 -60 3 -38 8 -50 20 -50 12 0 13 3 4 12
-14 14 -16 75 -3 80 5 2 3 8 -4 15 -8 7 -15 8 -17 3z"/>
<path d="M2088 1749 c-8 -25 8 -103 22 -107 12 -4 13 -2 3 9 -15 15 -17 61 -4
75 6 5 4 14 -4 21 -9 8 -15 9 -17 2z"/>
<path d="M2188 1750 c-2 -6 -1 -32 0 -60 3 -38 8 -50 20 -50 12 0 13 3 4 12
-14 14 -16 75 -3 80 5 2 3 8 -4 15 -8 7 -15 8 -17 3z"/>
<path d="M301 1731 c-8 -5 -14 -24 -14 -41 0 -49 52 -68 77 -28 25 40 -24 94
-63 69z m47 -35 c4 -34 -8 -49 -31 -40 -20 7 -23 60 -4 67 22 9 32 1 35 -27z"/>
<path d="M482 1728 c-17 -17 -15 -63 3 -78 16 -14 65 -6 65 11 0 6 -8 5 -22
-2 -18 -10 -24 -8 -35 7 -13 18 -11 19 21 22 20 2 36 9 36 16 0 17 -21 36 -40
36 -9 0 -21 -5 -28 -12z m42 -4 c25 -9 19 -24 -9 -24 -24 0 -32 10 -18 23 8 8
8 8 27 1z"/>
<path d="M583 1733 c-7 -2 -13 -9 -13 -14 0 -6 8 -5 20 1 20 11 40 6 40 -10 0
-4 -14 -13 -31 -19 -45 -15 -36 -46 14 -48 35 -1 37 1 37 29 0 55 -25 78 -67
61z m47 -57 c0 -18 -30 -30 -43 -17 -9 9 11 23 41 30 1 1 2 -5 2 -13z"/>
<path d="M671 1685 l2 -50 7 43 c3 24 13 48 21 52 10 7 8 9 -9 7 -20 -1 -22
-6 -21 -52z"/>
<path d="M732 1686 c1 -49 2 -49 5 -9 7 69 47 64 56 -7 3 -23 4 -18 3 15 -1
49 -1 50 -33 51 l-33 1 2 -51z"/>
<path d="M880 1725 c-15 -18 1 -20 18 -3 9 9 15 9 24 0 14 -14 3 -28 -27 -34
-12 -2 -20 -11 -20 -23 0 -16 7 -20 38 -20 36 -1 37 0 37 35 0 55 -40 81 -70
45z m50 -54 c0 -12 -29 -23 -41 -15 -5 3 -7 10 -4 15 8 12 45 12 45 0z"/>
<path d="M1123 1690 c0 -30 2 -43 4 -27 2 15 2 39 0 55 -2 15 -4 2 -4 -28z"/>
<path d="M1250 1688 c0 -59 18 -64 22 -5 4 60 31 58 39 -3 l6 -45 1 41 c1 26
7 44 16 47 20 8 26 -2 26 -45 0 -21 5 -38 10 -38 15 0 12 77 -2 87 -7 4 -37 8
-65 8 l-53 1 0 -48z"/>
<path d="M1406 1724 c-9 -8 -16 -24 -16 -34 0 -22 25 -50 45 -50 18 0 45 28
45 46 0 47 -43 69 -74 38z m54 -34 c0 -16 -6 -30 -12 -33 -24 -8 -38 5 -38 33
0 16 6 30 13 33 23 8 37 -5 37 -33z"/>
<path d="M1490 1689 c0 -27 5 -49 10 -49 6 0 10 18 10 40 0 26 6 42 17 48 13
8 11 10 -10 10 -26 0 -27 -3 -27 -49z"/>
<path d="M1562 1728 c-7 -7 -12 -24 -12 -38 0 -46 43 -67 70 -35 15 18 -1 20
-19 3 -10 -11 -15 -9 -27 7 -14 19 -13 20 20 23 20 2 36 9 36 16 0 17 -21 36
-40 36 -9 0 -21 -5 -28 -12z m46 -16 c2 -7 -6 -12 -17 -12 -21 0 -27 11 -14
24 9 9 26 2 31 -12z"/>
<path d="M1707 1734 c-14 -14 -7 -26 8 -14 16 13 45 7 45 -10 0 -6 -13 -13
-29 -16 -56 -12 -44 -54 15 -52 29 1 30 1 24 47 -4 40 -8 46 -30 49 -14 2 -29
0 -33 -4z m53 -63 c0 -12 -29 -23 -41 -15 -18 10 -9 24 16 24 14 0 25 -4 25
-9z"/>
<path d="M1901 1726 c-31 -37 9 -103 47 -80 36 23 23 94 -18 94 -10 0 -23 -6
-29 -14z m47 -8 c28 -28 -3 -83 -33 -58 -8 7 -15 20 -15 29 0 17 18 41 30 41
3 0 11 -5 18 -12z"/>
<path d="M1991 1704 c-1 -46 13 -64 47 -61 20 1 22 6 20 52 -1 49 -2 49 -5 8
-4 -41 -25 -63 -40 -40 -4 6 -10 27 -14 47 l-7 35 -1 -41z"/>
<path d="M2342 1728 c-7 -7 -12 -24 -12 -38 0 -46 43 -67 70 -35 15 18 -1 20
-18 3 -8 -8 -15 -8 -27 2 -24 20 -18 30 20 30 22 0 35 5 35 13 0 18 -21 37
-40 37 -9 0 -21 -5 -28 -12z m46 -16 c2 -7 -7 -12 -23 -12 -24 0 -26 2 -15 15
14 17 31 16 38 -3z"/>
<path d="M2432 1686 c1 -41 2 -44 5 -16 9 69 43 77 43 9 0 -53 18 -50 22 4 4
60 31 58 39 -3 l7 -45 -2 50 -1 50 -57 1 -58 1 2 -51z"/>
<path d="M2580 1650 c0 -5 5 -10 10 -10 6 0 10 5 10 10 0 6 -4 10 -10 10 -5 0
-10 -4 -10 -10z"/>
<path d="M235 1320 c3 -5 15 -10 25 -10 16 0 20 -9 23 -57 l3 -58 2 58 c2 50
5 57 22 57 11 0 20 5 20 10 0 6 -23 10 -51 10 -31 0 -48 -4 -44 -10z"/>
<path d="M353 1265 c0 -38 2 -53 4 -33 4 39 28 67 43 52 5 -5 11 -27 13 -49 3
-33 4 -31 3 10 -1 46 -3 50 -26 50 -16 0 -27 7 -32 20 -3 11 -6 -11 -5 -50z"/>
<path d="M440 1320 c0 -5 5 -10 10 -10 6 0 10 5 10 10 0 6 -4 10 -10 10 -5 0
-10 -4 -10 -10z"/>
<path d="M840 1320 c0 -5 5 -10 10 -10 6 0 10 5 10 10 0 6 -4 10 -10 10 -5 0
-10 -4 -10 -10z"/>
<path d="M891 1318 c-1 -10 -6 -18 -13 -18 -9 0 -9 -3 0 -12 7 -7 12 -29 12
-50 0 -30 4 -38 18 -37 10 0 12 3 5 6 -8 2 -13 22 -13 44 0 24 5 39 13 39 8 0
9 3 1 8 -6 4 -14 14 -17 22 -4 12 -6 11 -6 -2z"/>
<path d="M1480 1320 c0 -5 5 -10 10 -10 6 0 10 5 10 10 0 6 -4 10 -10 10 -5 0
-10 -4 -10 -10z"/>
<path d="M1520 1265 c0 -37 4 -65 10 -65 6 0 10 28 10 65 0 37 -4 65 -10 65
-6 0 -10 -28 -10 -65z"/>
<path d="M1560 1265 c0 -37 4 -65 10 -65 6 0 10 28 10 65 0 37 -4 65 -10 65
-6 0 -10 -28 -10 -65z"/>
<path d="M1930 1320 c0 -5 5 -10 10 -10 6 0 10 5 10 10 0 6 -4 10 -10 10 -5 0
-10 -4 -10 -10z"/>
<path d="M2360 1320 c0 -5 11 -10 25 -10 29 0 30 -5 10 -40 -8 -14 -14 -36
-14 -50 0 -18 5 -12 19 24 11 27 24 54 30 60 19 19 10 26 -30 26 -22 0 -40 -4
-40 -10z"/>
<path d="M2570 1310 c0 -17 -5 -19 -25 -14 -20 5 -27 1 -36 -20 -19 -40 2 -77
41 -74 30 2 30 2 30 65 0 35 -2 63 -5 63 -3 0 -5 -9 -5 -20z m-6 -43 c8 -12 8
-22 0 -34 -16 -25 -38 -22 -42 5 -7 50 18 67 42 29z"/>
<path d="M1028 1309 c-8 -25 8 -103 22 -107 12 -4 13 -2 3 9 -15 15 -17 61 -4
75 6 5 4 14 -4 21 -9 8 -15 9 -17 2z"/>
<path d="M440 1250 c0 -27 5 -50 10 -50 6 0 10 23 10 50 0 28 -4 50 -10 50 -5
0 -10 -22 -10 -50z"/>
<path d="M483 1284 c-7 -18 20 -44 44 -44 7 0 13 -5 13 -10 0 -18 -29 -23 -47
-9 -14 12 -16 12 -11 -1 3 -9 17 -15 34 -15 22 0 30 5 32 21 2 17 -5 24 -29
33 -25 9 -30 14 -21 23 9 9 15 9 24 0 17 -17 33 -15 18 3 -17 20 -49 19 -57
-1z"/>
<path d="M623 1250 c0 -30 2 -43 4 -27 2 15 2 39 0 55 -2 15 -4 2 -4 -28z"/>
<path d="M662 1246 c1 -42 2 -45 5 -14 4 39 28 67 43 52 5 -5 11 -27 13 -49 3
-33 4 -31 3 10 -1 49 -1 50 -33 51 l-33 1 2 -51z"/>
<path d="M750 1297 c0 -14 33 -97 39 -97 4 0 13 17 20 38 7 20 15 43 17 50 3
6 1 12 -4 12 -6 0 -13 -13 -17 -30 -9 -41 -22 -46 -30 -10 -4 16 -11 32 -16
35 -5 4 -9 4 -9 2z"/>
<path d="M840 1250 c0 -27 5 -50 10 -50 6 0 10 23 10 50 0 28 -4 50 -10 50 -5
0 -10 -22 -10 -50z"/>
<path d="M943 1293 c-7 -2 -13 -9 -13 -14 0 -6 8 -5 20 1 20 11 40 6 40 -10 0
-4 -14 -13 -31 -19 -45 -15 -36 -46 14 -48 35 -1 37 1 37 29 0 55 -25 78 -67
61z m47 -57 c0 -18 -30 -30 -43 -17 -9 9 11 23 41 30 1 1 2 -5 2 -13z"/>
<path d="M1083 1250 c0 -30 2 -43 4 -27 2 15 2 39 0 55 -2 15 -4 2 -4 -28z"/>
<path d="M1118 1275 c-21 -47 19 -93 59 -67 6 4 14 19 18 33 13 52 -55 82 -77
34z m46 9 c21 -8 21 -60 0 -68 -23 -9 -34 2 -34 33 0 38 7 45 34 35z"/>
<path d="M1210 1249 c0 -60 18 -65 22 -6 2 29 8 42 18 42 10 0 16 -13 18 -42
4 -54 22 -57 22 -4 0 44 -13 59 -52 59 -27 0 -28 -3 -28 -49z"/>
<path d="M1356 1275 c20 -82 35 -92 49 -33 l7 33 10 -37 c6 -21 14 -38 18 -38
9 0 33 90 26 98 -3 3 -9 -9 -12 -27 -8 -36 -24 -52 -24 -22 0 25 -10 51 -20
51 -4 0 -11 -17 -15 -37 l-8 -38 -11 32 c-15 43 -29 55 -20 18z"/>
<path d="M1480 1250 c0 -27 5 -50 10 -50 6 0 10 23 10 50 0 28 -4 50 -10 50
-5 0 -10 -22 -10 -50z"/>
<path d="M1662 1288 c-7 -7 -12 -24 -12 -38 0 -46 43 -67 70 -35 15 18 -1 20
-18 3 -8 -8 -15 -8 -27 2 -24 20 -18 30 20 30 22 0 35 5 35 13 0 18 -21 37
-40 37 -9 0 -21 -5 -28 -12z m46 -16 c2 -7 -7 -12 -23 -12 -24 0 -26 2 -15 15
14 17 31 16 38 -3z"/>
<path d="M1755 1276 c15 -23 15 -27 0 -50 -19 -29 -10 -36 11 -8 13 16 15 16
28 0 21 -28 30 -21 11 8 -15 23 -15 27 0 50 8 13 11 24 6 24 -6 0 -15 -8 -21
-17 -10 -17 -10 -17 -20 0 -6 9 -15 17 -21 17 -5 0 -2 -11 6 -24z"/>
<path d="M1841 1226 c1 -39 4 -59 6 -45 3 20 9 26 23 22 24 -6 51 34 43 65 -6
24 -6 24 -45 27 l-28 2 1 -71z m59 24 c0 -29 -14 -41 -37 -32 -16 5 -17 44 -2
59 18 18 39 3 39 -27z"/>
<path d="M1930 1250 c0 -27 5 -50 10 -50 6 0 10 23 10 50 0 28 -4 50 -10 50
-5 0 -10 -22 -10 -50z"/>
<path d="M1970 1248 c0 -26 5 -48 10 -48 6 0 10 18 10 40 0 27 6 42 18 49 14
9 13 10 -10 9 -26 -2 -28 -5 -28 -50z"/>
<path d="M2036 1277 c-20 -30 -10 -66 20 -73 23 -6 61 13 49 24 -2 3 -11 -1
-20 -8 -12 -10 -18 -10 -30 0 -24 20 -17 30 20 30 38 0 40 2 25 31 -14 26 -46
24 -64 -4z m52 -5 c2 -7 -7 -12 -22 -12 -27 0 -35 15 -13 23 17 7 30 3 35 -11z"/>
<path d="M2183 1250 c0 -30 2 -43 4 -27 2 15 2 39 0 55 -2 15 -4 2 -4 -28z"/>
<path d="M2210 1248 c0 -26 5 -48 10 -48 6 0 10 18 10 39 0 24 5 41 14 44 20
8 26 -2 26 -45 0 -21 5 -38 10 -38 12 0 13 69 2 87 -4 6 -22 11 -40 11 -32 -1
-32 -2 -32 -50z"/>
<path d="M2610 1286 c-15 -19 0 -22 18 -4 9 9 15 9 24 0 14 -14 3 -28 -27 -34
-12 -2 -20 -11 -20 -23 0 -16 7 -20 38 -20 l38 -1 -3 46 c-3 40 -6 45 -29 48
-14 2 -31 -4 -39 -12z m50 -55 c0 -6 -5 -13 -10 -16 -15 -9 -43 3 -35 15 8 13
45 13 45 1z"/>
<path d="M2712 1248 c19 -50 19 -53 2 -65 -10 -7 -14 -16 -11 -20 12 -11 33
19 51 71 21 65 19 82 -3 31 l-18 -40 -12 38 c-7 20 -16 37 -21 37 -4 0 1 -23
12 -52z"/>
<path d="M2792 1288 c-14 -17 -4 -33 26 -42 12 -4 22 -11 22 -16 0 -15 -21
-23 -33 -11 -17 17 -31 13 -17 -4 7 -8 20 -15 30 -15 10 0 23 7 30 15 16 19
-3 45 -31 45 -21 0 -25 15 -9 25 6 4 18 1 27 -7 14 -11 16 -11 11 2 -6 20 -42
25 -56 8z"/>
<path d="M2880 1210 c0 -5 5 -10 10 -10 6 0 10 5 10 10 0 6 -4 10 -10 10 -5 0
-10 -4 -10 -10z"/>
<path d="M2846 444 c4 -10 14 -27 22 -36 14 -17 62 -18 734 -18 705 0 718 0
738 20 11 11 20 27 20 37 0 15 -1 15 -18 0 -17 -16 -83 -17 -742 -17 -666 0
-725 1 -742 17 -18 16 -18 16 -12 -3z"/>
</g>
</svg>
