<?xml version="1.0" encoding="UTF-8" standalone="no"?><!DOCTYPE svg PUBLIC "-//W3C//DTD SVG 1.1//EN" "http://www.w3.org/Graphics/SVG/1.1/DTD/svg11.dtd"><svg width="100%" height="100%" viewBox="0 0 938 625" version="1.1" xmlns="http://www.w3.org/2000/svg" xmlns:xlink="http://www.w3.org/1999/xlink" xml:space="preserve" xmlns:serif="http://www.serif.com/" style="fill-rule:evenodd;clip-rule:evenodd;stroke-linejoin:round;stroke-miterlimit:2;"><rect id="LineArt_nutzen" x="0" y="0" width="937.5" height="625" style="fill:none;"/><g><path d="M429.882,369.658c0.232,0.411 0.764,0.562 1.344,0.745c1.752,0.551 4.098,0.791 6.55,1.384c8.397,2.03 12.418,2.507 19.307,9.22c1.185,1.154 2.109,3.254 2.276,5.712c0.23,3.375 -0.915,7.377 -4.176,9.957c-0.629,0.497 -3.635,2.006 -5.904,3.853c-0.592,0.481 -1.13,0.982 -1.503,1.502c-0.145,0.202 -0.313,0.371 -0.304,0.573c0.194,4.184 2.968,11.202 3.686,15.328c1.076,6.181 0.356,11.257 -1.608,15.447c-2.918,6.223 -8.643,10.535 -15.757,13.481c-16.506,6.836 -40.69,6.246 -50.153,8.207c-6.411,1.329 -12.629,6.069 -15.647,8.298c-6.909,5.101 -10.673,15.097 -12.689,22.557c-3.672,13.593 -2.437,26.001 3.361,36.423c5.843,10.501 16.275,18.955 30.771,24.662c58.684,23.102 127.218,2.651 180.316,-24.713c27.475,-14.159 58.587,-33.578 85.3,-58.366c40.398,-37.485 77.342,-67.193 90.788,-83.684c13.478,-16.532 21.935,-44.736 21.935,-63.884c0,-30.688 -9.616,-64.078 -3.534,-94.541c4.976,-24.92 22.689,-49.385 44.359,-62.688c2.927,-1.797 5.894,-5.273 9.019,-8.043c2.454,-2.175 5.016,-3.933 7.637,-4.582c1.138,-0.281 2.187,0.049 3.015,1.101c0.373,0.475 0.717,1.211 0.951,2.068c0.366,1.341 0.518,3.042 0.569,3.532c0.655,6.268 -1.507,11.473 -4.004,17.093c-3.784,8.517 -9.072,15.477 -14.241,22.602c-4.189,5.776 -8.303,11.665 -11.352,18.698c0.959,-1.618 1.926,-3.105 2.889,-4.404c14.739,-19.906 40.464,-27.088 63.138,-36.292c3.988,-1.618 7.539,-4.073 11.142,-6.41c3.913,-2.539 7.884,-4.943 12.401,-6.26c0.601,-0.176 5.745,-1.089 8.026,-0.953c1.681,0.1 2.585,0.987 2.87,1.558c1.739,3.479 0.877,8.116 -1.444,12.736c-3.039,6.051 -8.4,12.143 -11.145,14.988c-7.832,8.118 -16.53,14.216 -25.526,19.744c7.5,-3.085 15.252,-5.369 23.135,-6.539c7.78,-1.154 15.315,-1.649 23.169,-1.649c1.251,-0 4.539,0.213 6.606,1.138c1.503,0.673 2.466,1.737 2.768,2.958c0.598,2.416 -0.23,4.847 -2.056,7.059c-3.296,3.994 -10.07,7.335 -12.988,8.598c-18.059,7.811 -37.109,14.503 -51.374,28.769c-5.455,5.455 -9.987,11.716 -14.38,18.047c15.183,-13.132 34.135,-22.135 53.359,-25.821c5.772,-1.107 11.426,-2.852 17.162,-4.128c0.492,-0.109 3.751,-0.963 5.268,-0.963c1.403,-0.001 2.235,0.68 2.577,1.189c0.314,0.468 0.707,1.623 -0.087,2.994c-0.681,1.175 -2.817,3.517 -3.063,3.814c-4.084,4.905 -9.101,8.326 -14.239,12.014c-18.581,13.337 -38.784,25.563 -50.63,45.777c-8.818,15.046 -11.644,24.51 -13.803,41.723c-1.959,15.615 -0.749,31.135 -8.465,45.335c-11.665,21.466 -41.632,54.497 -59.374,77.984c-15.758,20.859 -34.559,47.885 -46.958,62.814c-0.809,0.973 -2.255,1.107 -3.228,0.299c-0.972,-0.808 -1.106,-2.254 -0.298,-3.227c12.366,-14.89 31.112,-41.846 46.827,-62.649c17.618,-23.323 47.42,-56.092 59.004,-77.409c7.434,-13.681 6.057,-28.673 7.944,-43.718c2.25,-17.935 5.209,-27.792 14.397,-43.47c12.175,-20.774 32.815,-33.476 51.911,-47.182c4.674,-3.355 9.274,-6.432 13.04,-10.812c-5.721,1.282 -11.364,3.012 -17.121,4.116c-25.27,4.845 -50.067,19.245 -65.706,40.314c-1.401,1.888 -3.143,0.948 -3.326,0.83c-0.354,-0.228 -1.438,-1.039 -0.946,-2.658c0.163,-0.539 2.057,-3.994 2.736,-5.355c1.49,-2.986 3.304,-5.836 5.208,-8.574c5.888,-8.467 11.62,-17.196 18.95,-24.525c14.68,-14.68 34.211,-21.696 52.795,-29.735c2.189,-0.947 6.893,-3.174 10.005,-5.997c0.884,-0.801 1.636,-1.642 2.092,-2.53c0.261,-0.509 0.421,-1.028 0.364,-1.557c-0.18,-0.092 -0.535,-0.265 -0.789,-0.343c-1.488,-0.456 -3.39,-0.536 -4.182,-0.536c-7.626,-0 -14.942,0.48 -22.497,1.6c-22.413,3.324 -43.678,16.081 -60.959,30.299c-6.258,5.15 -11.168,11.253 -16.687,17.107c-1.152,1.222 -3.555,3.801 -5.799,5.249c-1.325,0.855 -2.648,1.324 -3.752,1.324c-1.03,0 -1.641,-0.415 -2.029,-0.822c-0.415,-0.435 -0.671,-0.982 -0.702,-1.659c-0.021,-0.448 0.086,-1.073 0.454,-1.763c0.497,-0.931 1.828,-2.382 2.311,-3.238c1.41,-2.497 3.217,-4.751 4.803,-7.133c4.805,-7.216 12.605,-13.286 19.464,-18.436c20.339,-15.272 43.193,-23.066 61.316,-41.849c2.543,-2.635 7.533,-8.259 10.349,-13.863c1.376,-2.739 2.343,-5.438 1.795,-7.656c-0.225,0.003 -0.473,0.011 -0.694,0.027c-2.06,0.151 -4.783,0.631 -5.175,0.745c-4.084,1.191 -7.652,3.41 -11.189,5.705c-3.846,2.495 -7.656,5.084 -11.913,6.812c-21.909,8.894 -46.936,15.537 -61.179,34.772c-4.189,5.657 -8.453,14.988 -11.684,22.919c-0.499,2.192 -1.323,4.299 -2.237,6.388c-0.563,1.288 -1.161,2.569 -1.715,3.865c-0.694,1.897 -1.179,3.275 -1.402,3.893c-2.018,5.576 -5.328,1.851 -4.476,-1.136c0.431,-1.512 1.001,-2.982 1.619,-4.435c0.937,-2.545 2.242,-5.997 3.793,-9.808c0.127,-0.6 0.222,-1.208 0.278,-1.827c1.321,-14.671 6.764,-24.929 13.1,-34.21c6.058,-8.875 12.97,-16.809 17.557,-27.133c2.161,-4.865 4.2,-9.33 3.634,-14.756c-0.027,-0.263 -0.224,-1.333 -0.384,-2.178c-1.977,0.938 -3.862,2.656 -5.733,4.436c-2.777,2.641 -5.481,5.477 -8.118,7.096c-20.635,12.668 -37.524,35.95 -42.262,59.68c-6.025,30.175 3.623,63.245 3.623,93.643c-0,20.019 -8.876,49.496 -22.967,66.78c-13.514,16.576 -50.617,46.47 -91.222,84.148c-27.035,25.086 -58.513,44.751 -86.319,59.08c-54.198,27.931 -124.195,48.484 -184.094,24.903c-15.631,-6.153 -26.797,-15.374 -33.097,-26.698c-6.345,-11.404 -7.799,-24.972 -3.78,-39.846c2.25,-8.327 6.679,-19.356 14.391,-25.05c3.352,-2.474 10.318,-7.622 17.439,-9.098c9.304,-1.928 33.1,-1.232 49.329,-7.953c5.98,-2.477 10.909,-5.962 13.361,-11.193c1.616,-3.446 2.128,-7.63 1.243,-12.715c-0.744,-4.276 -3.548,-11.566 -3.749,-15.901c-0.072,-1.545 0.752,-3.23 2.253,-4.733c2.342,-2.344 6.432,-4.401 7.192,-5.003c1.971,-1.559 2.586,-4.01 2.447,-6.05c-0.078,-1.154 -0.346,-2.2 -0.902,-2.742c-6.109,-5.953 -9.738,-6.247 -17.185,-8.047c-3.183,-0.77 -6.184,-1.051 -8.126,-1.956c-2.04,-0.95 -3.273,-2.408 -3.392,-4.858c-0.055,-1.118 0.475,-2.244 1.535,-3.14c1.327,-1.122 3.637,-1.895 4.012,-2.001c3.035,-0.86 6.128,-1.505 9.222,-2.118c2.862,-0.567 6.587,-1.04 9.776,-2.241c2.555,-0.963 4.805,-2.37 5.393,-5.1c0.655,-3.038 0.476,-4.926 -0.5,-6.102c-0.955,-1.152 -2.513,-1.51 -4.064,-1.788c-1.694,-0.305 -3.43,-0.438 -4.856,-0.727c-1.327,-0.269 -2.44,-0.693 -3.239,-1.295c-1.611,-1.216 -4.178,-2.869 -6.036,-4.981c-1.515,-1.721 -2.571,-3.732 -2.68,-5.998c-0.134,-2.792 1.22,-4.772 3.27,-6.22c2.216,-1.566 5.403,-2.383 7.251,-3.274c2.101,-1.014 4.654,-2.217 6.883,-3.912c1.975,-1.503 3.709,-3.403 4.45,-6.002c0.652,-2.287 0.523,-5.076 -0.7,-8.534c-0.589,-1.665 -1.781,-2.892 -3.362,-4.012c-1.905,-1.35 -4.336,-2.518 -7.123,-3.843c-13.968,-6.636 -36.495,-16.607 -50.44,-64.414c-0.354,-1.215 0.344,-2.488 1.558,-2.842c1.214,-0.354 2.488,0.344 2.842,1.558c13.306,45.617 34.679,55.226 48.006,61.558c6.533,3.104 11.176,5.763 12.839,10.466c1.622,4.583 1.651,8.289 0.787,11.32c-1.963,6.887 -8.813,10.405 -13.749,12.785c-1.445,0.697 -3.776,1.312 -5.714,2.35c-1.171,0.627 -2.288,1.371 -2.22,2.796c0.077,1.594 1.148,2.879 2.326,4c1.54,1.465 3.363,2.628 4.572,3.54c0.466,0.351 1.204,0.444 2.029,0.577c1.266,0.205 2.706,0.339 4.118,0.593c2.644,0.475 5.15,1.408 6.779,3.372c1.61,1.94 2.533,4.984 1.454,9.994c-0.764,3.543 -3.065,5.893 -6.103,7.471c-3.824,1.986 -8.908,2.658 -12.656,3.401c-2.973,0.589 -5.947,1.205 -8.864,2.032c-0.159,0.045 -0.884,0.278 -1.589,0.642c-0.148,0.076 -0.346,0.207 -0.506,0.319Zm386.105,-132.573c-2.746,2.468 -5.304,5.114 -7.376,7.966c2.445,-2.689 4.846,-5.38 7.376,-7.966Z" style="fill:#0a1f40;"/><path d="M61.109,369.816c-2.307,-0.334 -37.788,-8.502 -39.574,-40.833c-2.632,-47.642 28.302,-50.394 26.171,-51.846c-6.709,-4.57 -17.916,-21.489 -14.644,-37.407c4.606,-22.407 27.994,-24.033 27.903,-24.34c-2.896,-9.807 -23.882,-53.26 8.047,-79.026c27.587,-22.261 53.437,3.487 53.605,3.486c0.056,-0 -4.878,-54.544 59.178,-71.666c46.035,-12.305 65.822,25.164 67.228,23.236c2.327,-3.193 12.44,-21.881 41.111,-22.95c46.478,-1.732 52.24,27.2 53.077,26.765c17.178,-8.926 69.45,5.987 44.437,50.926c-1.391,2.499 14.909,-3.826 27.618,7.847c15.337,14.087 19.267,61.755 -16.757,60.246c-14.053,-0.589 -33.882,-32.314 -33.955,-32.262c-0.143,0.103 7.886,24.601 -0.852,32.847c-5.514,5.203 -14.885,8.198 -23.566,2.004c-0.153,-0.109 -1.795,12.043 -11.322,31.243c-12.638,25.472 -39.123,24.021 -39.45,24.703c-2.108,4.39 -4.495,36.178 -5.929,37.954c-0.239,0.295 -0.393,-0.649 -0.585,-0.976c-2.014,-3.421 -21.253,-25.991 -43.235,-13.522c-21.931,12.44 -10.604,69.111 5.993,78.059c15.234,8.213 22.461,-1.134 25.191,-1.345c2.04,-0.157 12.864,16.833 -24.35,34.623c-2.54,1.214 14.817,17.47 -1.239,42.554c-18.118,28.305 -44.814,10.371 -44.82,10.377c-20.468,19.991 -47.437,4.801 -43.161,-8.869c1.144,-3.658 -31.623,18.14 -56.185,-1.394c-24.253,-19.289 -4.929,-45.947 -5.315,-45.901c-5.012,0.596 -16.406,6.86 -31.184,-5.477c-10.618,-8.863 -4.961,-28.635 -3.436,-29.056Zm219.443,-69.703c0.75,-6.025 1.581,-13.72 2.428,-19.577c0.682,-4.717 1.495,-8.396 2.158,-9.777c0.205,-0.425 1.357,-2.461 4.576,-2.801c4.185,-0.443 24.648,-1.291 34.901,-21.955c8.282,-16.692 10.403,-27.867 10.851,-29.858c1.202,-5.347 7.035,-3.373 7.393,-3.118c6.496,4.635 13.499,2.296 17.626,-1.598c2.307,-2.177 2.638,-6.009 2.611,-9.886c-0.051,-7.424 -2.26,-15.286 -2.888,-17.6c-1,-3.682 1.5,-5.678 1.614,-5.76c0.42,-0.301 3.729,-2.414 6.384,0.87c0.06,0.073 0.359,0.495 0.841,1.22c1.966,2.96 8.766,13.107 16.539,20.854c4.414,4.399 8.957,8.269 13.119,8.443c5.974,0.251 10.648,-1.025 14.161,-3.488c5.28,-3.702 7.828,-9.932 8.627,-16.656c1.422,-11.959 -2.599,-25.721 -9.398,-31.965c-7.886,-7.243 -17.441,-6.216 -21.69,-6.006c-2.461,0.122 -4.127,-0.261 -4.822,-0.621c-1.6,-0.83 -2.348,-2.081 -2.616,-3.474c-0.178,-0.923 -0.177,-2.109 0.586,-3.479c6.579,-11.821 7.393,-21.222 4.436,-28.45c-3.403,-8.317 -11.56,-13.479 -20.028,-16.058c-8.469,-2.578 -17.389,-2.68 -22.589,0.022c-0.915,0.476 -1.883,0.636 -2.91,0.476c-0.548,-0.085 -2.689,-0.58 -3.96,-3.401c-0.868,-1.926 -3.228,-8.065 -10.031,-13.524c-7.097,-5.697 -18.849,-10.511 -38.162,-9.792c-26.18,0.976 -35.373,18.112 -37.498,21.027c-1.022,1.401 -4.3,3.75 -8.051,0.072c-4.337,-4.253 -23.063,-31.882 -61.754,-21.54c-54.024,14.44 -55.932,57.073 -55.761,65.497c0.017,0.861 0.054,1.371 0.057,1.464c0.153,4.477 -4.433,4.862 -4.663,4.863c-0.068,0.001 -1.835,-0.055 -3.897,-1.851c-4.04,-3.518 -24.784,-20.429 -46.786,-2.674c-14.493,11.695 -16.834,27.458 -15.365,41.357c1.578,14.935 7.457,27.91 8.87,32.694c0.432,1.464 0.413,3.233 -1.377,4.832c-0.166,0.148 -1.064,0.92 -2.91,1.257c-3.224,0.59 -19.971,3.253 -23.521,20.522c-1.426,6.939 0.403,14.081 3.22,20.001c2.798,5.878 6.568,10.61 9.471,12.588c1.496,1.019 1.967,2.293 2.113,3.394c0.154,1.16 0.083,3.495 -2.737,5.083c-1.57,0.883 -8.1,2.705 -13.893,9.315c-5.811,6.628 -10.697,18.016 -9.612,37.669c1.509,27.307 29.977,35.224 35.131,36.365l0.125,0.025c0.664,0.058 1.245,0.24 1.666,0.428c1.521,0.683 2.028,1.697 2.248,2.119c0.649,1.247 0.649,2.417 0.345,3.468c-0.125,0.43 -0.426,1.396 -1.247,2.186c-0.436,1.486 -1.541,5.628 -1.558,9.312c-0.021,4.448 0.842,9.49 4.624,12.647c13.059,10.901 23.197,4.947 27.626,4.42c1.171,-0.139 2.107,0.148 2.862,0.574c0.931,0.526 1.701,1.325 2.125,2.546c0.074,0.213 0.775,1.968 -0.574,4.274c-1.148,1.96 -7.82,12.402 -5.705,23.883c0.97,5.262 3.897,10.693 10.079,15.61c11.895,9.461 25.972,7.87 36.212,5.144c7.865,-2.094 13.802,-4.835 15.743,-5.119c2.599,-0.382 4.08,0.782 4.828,1.644c0.912,1.05 1.653,2.571 0.958,4.793c-1.121,3.583 1.582,7.029 5.43,9.391c7.408,4.548 19.653,4.813 29.982,-5.274c0.004,-0.004 2.862,-2.31 6.422,-0.213c2.688,1.583 13.217,7.227 24.085,2.911c4.711,-1.871 9.411,-5.642 13.64,-12.249c11.394,-17.8 3.715,-30.592 1.383,-35.547c-0.99,-2.103 -1.21,-3.733 -1.107,-4.635c0.226,-1.967 1.223,-3.278 2.889,-4.074c10.356,-4.951 16.754,-9.759 20.512,-14.166c3.075,-3.606 4.195,-6.751 4.201,-9.242c0,-0.253 -0.022,-0.511 -0.061,-0.764c-4.537,2.303 -14.159,5.469 -25.695,-0.751c-4.665,-2.515 -9.172,-8.089 -12.672,-15.554c-4.741,-10.108 -7.854,-23.727 -7.929,-36.329c-0.09,-15.154 4.483,-28.686 14.519,-34.379c12.749,-7.232 24.705,-4.412 33.763,0.821c3.731,2.155 6.942,4.728 9.487,7.124Zm-220.248,74.31c0.135,0.027 0.273,0.049 0.412,0.063c0.139,0.015 0.279,0.022 0.421,0.022l-0.833,-0.085Zm0.805,-4.607c0.1,0.016 0.138,0.016 0.108,0.003c-0.033,-0.015 -0.07,-0.017 -0.108,-0.003Z" style="fill:#0a1f40;"/></g></svg>