<?xml version="1.0" encoding="UTF-8" standalone="no"?>
<!DOCTYPE svg PUBLIC "-//W3C//DTD SVG 1.1//EN" "http://www.w3.org/Graphics/SVG/1.1/DTD/svg11.dtd">
<svg width="100%" height="100%" viewBox="0 0 300 200" version="1.1" xmlns="http://www.w3.org/2000/svg" xmlns:xlink="http://www.w3.org/1999/xlink" xml:space="preserve" xmlns:serif="http://www.serif.com/" style="fill-rule:evenodd;clip-rule:evenodd;stroke-linecap:round;stroke-linejoin:round;stroke-miterlimit:1.5;">
    <g transform="matrix(1,0,0,1,-761.622,-286.587)">
        <g id="LineArt_teilen" transform="matrix(0.890228,0,0,0.815546,-23148,-14224.4)">
            <rect x="26857.9" y="17793" width="336.992" height="245.234" style="fill:none;"/>
            <g id="Line-Art_teilen" serif:id="Line Art_teilen" transform="matrix(0.339179,-0.0888936,0.199005,0.904746,14286.3,5747.9)">
                <g transform="matrix(3.34396,0.328553,-0.80288,1.36841,-45251.1,-17887.5)">
                    <path d="M26422.5,18609.8C26422.3,18595.8 26427.7,18581.9 26437.6,18571.9C26440.3,18569.2 26444.2,18564.6 26448.6,18564.4C26449.8,18564.3 26450.7,18565.3 26451,18566.3C26452,18568.8 26450.9,18572.6 26450.1,18574.8C26449.7,18575.9 26449.2,18577 26448.6,18577.9C26447.8,18579.3 26446.7,18580.4 26445.8,18581.7C26445.3,18582.4 26444.3,18584.3 26445.1,18584.2C26454.5,18583.1 26461.2,18575.9 26467.7,18569.8C26469.7,18567.8 26471.8,18565.9 26473.9,18563.9C26474.5,18563.3 26475.3,18562.7 26475.9,18562C26476.2,18561.8 26476.4,18561.5 26476.7,18561.2C26476.8,18561.1 26477.1,18560.9 26477,18561C26475.5,18568.4 26471.5,18573.5 26467,18579.5C26465.6,18581.3 26464.1,18583 26462.6,18584.8C26462.2,18585.3 26461.7,18585.9 26461.2,18586.4C26460.9,18586.7 26460.1,18587.5 26460.4,18587.3C26469.6,18582.5 26473,18571.2 26479,18563.5C26480.8,18561.1 26482.9,18559 26484.9,18556.9C26485.1,18556.6 26485.5,18555.9 26485.6,18556.2C26485.8,18556.7 26485.4,18557.3 26485.2,18557.8C26482.9,18563.2 26482.8,18563 26479.8,18568.1C26479.2,18569.2 26478.5,18570.2 26477.9,18571.3C26477.8,18571.4 26477.7,18571.5 26477.8,18571.5C26479.1,18571.3 26480.5,18570.4 26481.6,18569.7C26482.9,18569 26484.1,18568.2 26485.4,18567.5C26485.7,18567.3 26486.6,18566.6 26486.5,18567C26485,18573.6 26481.2,18578.6 26477.3,18584.1C26466.6,18599.4 26450.6,18610.6 26441.1,18627C26396.5,18704 26237.2,18614.1 26287.6,18530.3C26299.3,18510.8 26325,18506.4 26334.2,18508.6C26336.5,18509.1 26345,18502.9 26344.9,18503.1C26343.8,18508.9 26339.1,18508.3 26342,18507.9C26344.6,18507.5 26346,18506.9 26352.1,18505.3C26354,18504.8 26349.6,18511.3 26344.9,18512.9C26344.9,18512.9 26340.5,18515.6 26334.6,18517.2C26329.7,18518.5 26322.9,18517.7 26320,18521.3C26312.4,18530.7 26334.6,18535.5 26328,18538.4C26316.3,18543.6 26330.1,18557.4 26330.1,18557.4" style="fill:none;stroke:rgb(10,31,64);stroke-width:1.4px;"/>
                </g>
                <g transform="matrix(1.05683,0.00499439,-0.0122047,0.432476,8046.08,8443.18)">
                    <path d="M18974.2,17687.1C18957.6,17699.5 18918.3,17695 18907.4,17660.8C18900.4,17639 18920.8,17582.7 18985.7,17618.1" style="fill:none;stroke:rgb(10,31,64);stroke-width:4.47px;"/>
                </g>
                <g transform="matrix(1.05691,0,0,0.432504,7808.98,8552.03)">
                    <path d="M19104.4,17461.2C19115.3,17466.7 19130.4,17477.1 19147.5,17497.1C19158.9,17510.4 19216.3,17550.6 19216.3,17551.1C19215.6,17568.9 19177.6,17576.8 19165.6,17587.4C19160.8,17591.7 19200.6,17624.6 19180.3,17635.7C19176.7,17637.7 19171.4,17639.6 19167.5,17640.9C19155,17645.4 19141.7,17646.4 19128.5,17645.9C19122.4,17645.7 19116.4,17645 19110.3,17644.5C19110,17644.5 19109.2,17644.1 19109.3,17644.5C19115.4,17659.9 19183.3,17682.7 19183.3,17682.7C19182.6,17707.8 19170.2,17723.4 19151,17735.8" style="fill:none;stroke:rgb(10,31,64);stroke-width:4.57px;"/>
                </g>
            </g>
            <g transform="matrix(1.12331,0,0,1.22617,25999.8,17436)">
                <path d="M963.954,351.574C963.947,351.599 963.924,351.69 963.9,351.749C963.834,351.912 963.731,352.101 963.608,352.306C963.192,352.997 962.562,353.843 962.167,354.493C961.922,354.897 961.768,355.248 961.738,355.476C961.706,355.73 961.779,355.919 961.897,356.053C962.073,356.252 962.307,356.343 962.598,356.317C962.83,356.295 963.129,356.174 963.455,355.97C964.029,355.61 964.743,354.981 965.343,354.573C965.509,354.46 965.663,354.365 965.8,354.309C965.824,354.299 965.857,354.289 965.881,354.283C965.959,354.351 966.182,354.554 966.348,354.747C967.031,355.536 967.944,356.837 968.497,357.415C968.7,357.626 968.881,357.757 969.005,357.808C969.197,357.886 969.36,357.865 969.486,357.809C969.615,357.752 969.733,357.647 969.799,357.463C969.838,357.352 969.859,357.158 969.828,356.9C969.765,356.366 969.499,355.387 969.341,354.492C969.269,354.086 969.214,353.701 969.23,353.403C969.553,353.368 970.442,353.273 971.019,353.219C971.549,353.169 972.015,353.079 972.261,352.944C972.523,352.8 972.643,352.596 972.668,352.387C972.687,352.232 972.652,352.051 972.521,351.865C972.392,351.682 972.117,351.455 971.753,351.228C970.997,350.757 969.546,350.007 969.229,349.844C969.218,349.722 969.223,349.542 969.227,349.33C969.244,348.474 969.356,347.2 969.367,346.548C969.371,346.288 969.352,346.1 969.327,346.015C969.287,345.881 969.219,345.801 969.165,345.753C969.058,345.656 968.924,345.602 968.758,345.61C968.622,345.618 968.356,345.729 968.07,346.009C967.445,346.619 966.337,348.129 965.84,348.821L965.84,348.821C964.939,348.348 963.243,347.445 962.374,347.232C962.097,347.164 961.873,347.163 961.725,347.201C961.573,347.241 961.46,347.317 961.378,347.412C961.282,347.525 961.219,347.677 961.244,347.88C961.259,348.009 961.339,348.212 961.5,348.45C961.852,348.97 962.653,349.834 963.272,350.59C963.602,350.993 963.891,351.345 963.954,351.574ZM968.34,347.198C968.306,347.804 968.248,348.566 968.231,349.164C968.215,349.676 968.24,350.088 968.298,350.264C968.328,350.358 968.431,350.525 968.66,350.68C969.047,350.942 970.008,351.39 970.794,351.826C971.006,351.943 971.203,352.059 971.369,352.17C971.097,352.213 970.772,352.238 970.446,352.262C969.708,352.314 968.971,352.376 968.676,352.513C968.43,352.628 968.319,352.804 968.282,352.966C968.155,353.521 968.307,354.495 968.505,355.411C968.539,355.573 968.575,355.745 968.608,355.915C968.156,355.36 967.604,354.685 967.22,354.228C966.799,353.727 966.405,353.387 966.18,353.314C965.943,353.237 965.61,353.277 965.235,353.47C964.69,353.751 963.962,354.377 963.32,354.85C963.201,354.937 963.085,355.019 962.975,355.09C963.075,354.919 963.196,354.732 963.327,354.536C963.822,353.793 964.445,352.932 964.741,352.318C964.928,351.931 964.983,351.599 964.937,351.386C964.862,351.037 964.43,350.413 963.887,349.765C963.501,349.303 963.066,348.816 962.726,348.404C963.775,348.825 965.235,349.641 965.77,349.911C965.992,350.023 966.262,349.955 966.404,349.751C966.404,349.751 967.396,348.336 968.205,347.356C968.248,347.303 968.294,347.25 968.34,347.198Z" style="fill:rgb(10,31,64);"/>
            </g>
            <g transform="matrix(1.12331,0,0,1.22617,26018,17426.6)">
                <path d="M1000.92,349.846C1000.89,349.893 1000.7,350.212 1000.52,350.452C1000.11,351.003 999.582,351.674 999.386,352.092C999.179,352.535 999.296,352.868 999.469,353.025C999.65,353.187 999.877,353.271 1000.14,353.278C1000.4,353.285 1000.72,353.21 1001.05,353.096C1001.37,352.985 1001.71,352.836 1002.01,352.749C1002.11,352.723 1002.19,352.702 1002.27,352.695C1002.3,352.692 1002.35,352.695 1002.36,352.697C1002.38,352.718 1002.4,352.754 1002.42,352.792C1002.48,352.894 1002.54,353.02 1002.6,353.158C1002.81,353.654 1003.04,354.284 1003.3,354.7C1003.62,355.205 1004.03,355.422 1004.44,355.332C1004.82,355.246 1005.11,354.873 1005.21,354.274C1005.29,353.774 1005.26,353.088 1005.3,352.532C1005.3,352.379 1005.32,352.238 1005.34,352.119C1005.35,352.074 1005.35,352.034 1005.37,352.004C1005.4,351.991 1005.56,351.934 1005.67,351.914C1006.09,351.84 1006.63,351.828 1007.11,351.767C1007.5,351.715 1007.86,351.624 1008.11,351.478C1008.37,351.327 1008.53,351.12 1008.6,350.858C1008.64,350.708 1008.63,350.552 1008.56,350.394C1008.49,350.231 1008.31,350.039 1008.06,349.864C1007.75,349.659 1007.32,349.447 1006.97,349.254C1006.86,349.191 1006.73,349.102 1006.67,349.059C1006.48,348.054 1006.62,347.126 1006.6,346.603C1006.58,346.145 1006.41,345.873 1006.21,345.758C1006.08,345.679 1005.9,345.636 1005.68,345.686C1005.48,345.732 1005.15,345.903 1004.69,346.275C1004.19,346.672 1003.5,347.317 1003.17,347.64L1003.17,347.639C1003.16,347.636 1003.15,347.633 1003.15,347.63C1002.94,347.533 1002.69,347.373 1002.43,347.194C1001.68,346.685 1000.85,346.031 1000.56,345.901C1000.18,345.731 999.945,345.926 999.856,346.044C999.77,346.158 999.712,346.309 999.707,346.499C999.7,346.71 999.774,347.014 999.911,347.362C1000.12,347.902 1000.49,348.592 1000.73,349.179C1000.84,349.45 1000.94,349.684 1000.92,349.846ZM1005.59,346.854C1005.59,346.955 1005.59,347.066 1005.59,347.167C1005.56,347.762 1005.53,348.545 1005.71,349.368C1005.74,349.504 1005.84,349.68 1006.04,349.841C1006.25,350.008 1006.63,350.205 1007,350.403C1007.14,350.479 1007.32,350.591 1007.45,350.68L1007.44,350.682C1007.2,350.758 1006.89,350.789 1006.58,350.816C1006.05,350.862 1005.5,350.898 1005.14,351.016C1004.89,351.101 1004.7,351.23 1004.58,351.384C1004.47,351.536 1004.38,351.774 1004.33,352.075C1004.27,352.546 1004.3,353.222 1004.26,353.787C1004.25,353.945 1004.23,354.093 1004.2,354.22C1004.14,354.128 1004.06,354.006 1004,353.899C1003.77,353.419 1003.56,352.812 1003.35,352.417C1003.22,352.162 1003.08,351.977 1002.94,351.879C1002.73,351.723 1002.44,351.663 1002.11,351.707C1001.79,351.749 1001.41,351.89 1001.04,352.033C1000.84,352.108 1000.65,352.184 1000.47,352.232C1000.51,352.152 1000.56,352.07 1000.62,351.998C1000.95,351.526 1001.39,350.983 1001.64,350.604C1001.79,350.365 1001.88,350.161 1001.9,350.038C1001.94,349.834 1001.91,349.559 1001.81,349.243C1001.65,348.726 1001.31,348.054 1001.04,347.458C1001.44,347.737 1001.89,348.048 1002.23,348.262C1002.67,348.537 1003.07,348.695 1003.31,348.696C1003.44,348.696 1003.56,348.645 1003.66,348.554C1003.66,348.554 1004.66,347.579 1005.31,347.056C1005.41,346.981 1005.5,346.912 1005.59,346.854Z" style="fill:rgb(10,31,64);"/>
            </g>
            <g transform="matrix(1.12331,0,0,1.22617,26003.8,17460.3)">
                <path d="M981.636,338.855C981.629,338.893 981.573,339.169 981.512,339.376C981.361,339.882 981.156,340.495 981.116,340.867C981.075,341.247 981.214,341.498 981.36,341.611C981.515,341.731 981.71,341.784 981.947,341.74C982.109,341.71 982.314,341.618 982.536,341.478C982.891,341.252 983.331,340.882 983.731,340.672C983.808,340.632 983.882,340.599 983.952,340.579C983.976,340.572 984.015,340.567 984.029,340.566C984.126,340.618 984.244,340.783 984.397,340.967C984.74,341.38 985.146,341.919 985.503,342.26C985.709,342.458 985.911,342.597 986.083,342.661C986.307,342.746 986.512,342.734 986.69,342.652C986.845,342.581 986.975,342.454 987.061,342.261C987.126,342.115 987.166,341.911 987.176,341.67C987.192,341.273 987.13,340.742 987.113,340.308C987.108,340.175 987.12,340.001 987.126,339.925C987.187,339.889 987.327,339.809 987.438,339.76C987.871,339.574 988.437,339.387 988.813,339.17C989.311,338.882 989.514,338.489 989.426,338.113C989.367,337.862 989.196,337.621 988.926,337.416C988.65,337.207 988.257,337.024 987.864,336.865C987.526,336.727 987.071,336.524 986.924,336.458C986.676,335.45 986.596,334.397 986.396,333.83C986.236,333.381 985.97,333.151 985.687,333.097C985.5,333.061 985.272,333.087 985.01,333.254C984.795,333.392 984.519,333.659 984.181,334.102C983.937,334.421 983.579,334.802 983.294,335.206L983.294,335.206C982.983,335.141 982.668,335.056 982.078,335.055C981.575,335.054 981.242,335.108 981.036,335.19C980.762,335.299 980.62,335.466 980.546,335.65C980.457,335.874 980.48,336.184 980.661,336.563C980.903,337.066 981.465,337.822 981.636,338.855ZM985.453,334.193C985.485,334.287 985.524,334.407 985.546,334.509C985.68,335.127 985.771,336.003 985.988,336.834C986.022,336.966 986.114,337.12 986.299,337.253C986.474,337.379 986.79,337.515 987.149,337.657C987.464,337.781 987.817,337.915 988.104,338.074C988.197,338.126 988.283,338.18 988.353,338.238L988.374,338.254C988.291,338.307 988.17,338.381 988.072,338.425C987.629,338.626 987.074,338.804 986.73,338.992C986.475,339.132 986.307,339.299 986.231,339.451C986.164,339.584 986.119,339.783 986.111,340.028C986.099,340.402 986.161,340.926 986.176,341.372C986.177,341.414 986.177,341.46 986.175,341.506C986.103,341.441 986.029,341.37 985.969,341.302C985.606,340.896 985.223,340.373 984.924,340.048C984.738,339.847 984.566,339.711 984.437,339.652C984.187,339.536 983.884,339.537 983.556,339.657C983.241,339.772 982.884,340.009 982.545,340.252C982.45,340.32 982.336,340.396 982.225,340.468C982.288,340.247 982.365,340.008 982.433,339.785C982.574,339.321 982.657,338.903 982.627,338.716C982.475,337.766 982.047,337.014 981.737,336.457C981.671,336.339 981.604,336.199 981.557,336.095C981.685,336.076 981.876,336.055 982.076,336.055C982.791,336.056 983.065,336.199 983.473,336.251C983.673,336.276 983.869,336.178 983.969,336.003C984.243,335.526 984.695,335.077 984.976,334.708C985.139,334.495 985.33,334.306 985.453,334.193Z" style="fill:rgb(10,31,64);"/>
            </g>
            <g transform="matrix(1.12331,0,0,1.22617,25965.4,17457.8)">
                <ellipse cx="988.44" cy="357.941" rx="3.247" ry="3.088" style="fill:rgb(10,31,64);"/>
            </g>
            <g transform="matrix(1.12331,0,0,1.22617,26019.8,17444.8)">
                <ellipse cx="988.44" cy="357.941" rx="3.247" ry="3.088" style="fill:rgb(10,31,64);"/>
            </g>
            <g transform="matrix(1.12331,0,0,1.22617,26006.7,17409.6)">
                <ellipse cx="988.44" cy="357.941" rx="3.247" ry="3.088" style="fill:rgb(10,31,64);"/>
            </g>
        </g>
    </g>
</svg>
