<svg width="975" height="532" xmlns="http://www.w3.org/2000/svg" xmlns:xlink="http://www.w3.org/1999/xlink" overflow="hidden"><defs><clipPath id="clip0"><rect x="-42" y="133" width="975" height="532"/></clipPath></defs><g clip-path="url(#clip0)" transform="translate(42 -133)"><path d="M490.352 558.91 523.759 558.672" stroke="#4774AB" stroke-width="2.66667" stroke-linejoin="round" stroke-miterlimit="10" fill="none" fill-rule="evenodd"/><path d="M-39.5001 414.3C-39.5001 410.544-36.4557 407.5-32.7001 407.5L89.7001 407.5C93.4557 407.5 96.5001 410.544 96.5001 414.3L96.5001 468.7C96.5001 472.456 93.4557 475.5 89.7001 475.5L-32.7001 475.5C-36.4557 475.5-39.5001 472.456-39.5001 468.7L-39.5001 414.3Z" stroke="#4BACC6" stroke-width="3" stroke-linejoin="round" stroke-miterlimit="10" fill="#FFFFFF" fill-rule="evenodd"/><text font-family="Work Sans,Work Sans_MSFontService,sans-serif" font-weight="700" font-size="27" transform="translate(-6.26656 449)">Start</text><path d="M96.0344 441.325 125.971 285.809" stroke="#4BACC6" stroke-width="3" stroke-linejoin="round" stroke-miterlimit="10" fill="none" fill-rule="evenodd"/><path d="M126.5 259.3C126.5 255.544 129.542 252.5 133.295 252.5L289.705 252.5C293.458 252.5 296.5 255.544 296.5 259.3L296.5 313.7C296.5 317.456 293.458 320.5 289.705 320.5L133.295 320.5C129.542 320.5 126.5 317.456 126.5 313.7L126.5 259.3Z" stroke="#4BACC6" stroke-width="3" stroke-linejoin="round" stroke-miterlimit="10" fill="#FFFFFF" fill-rule="evenodd"/><text font-family="Work Sans,Work Sans_MSFontService,sans-serif" font-weight="400" font-size="13" transform="translate(131.364 282)">Ich möchte das Material <tspan font-weight="700" font-size="15" x="19.5" y="16">nicht verändern</tspan></text><path d="M295.59 285.809 321.534 207.838" stroke="#4BACC6" stroke-width="3" stroke-linejoin="round" stroke-miterlimit="10" fill="none" fill-rule="evenodd"/><path d="M322.5 181.3C322.5 177.544 325.524 174.5 329.255 174.5L484.745 174.5C488.476 174.5 491.5 177.544 491.5 181.3L491.5 235.7C491.5 239.456 488.476 242.5 484.745 242.5L329.255 242.5C325.524 242.5 322.5 239.456 322.5 235.7L322.5 181.3Z" stroke="#4BACC6" stroke-width="3" stroke-linejoin="round" stroke-miterlimit="10" fill="#FFFFFF" fill-rule="evenodd"/><text font-family="Work Sans,Work Sans_MSFontService,sans-serif" font-weight="400" font-size="13" transform="translate(330.426 205)">Ich möchte <tspan font-weight="700" font-size="16" x="78.8333" y="0">nur Teile </tspan><tspan font-size="13" x="7.33334" y="15">des Materials nutzen</tspan></text><path d="M491.153 207.838 525.21 168.852" stroke="#4BACC6" stroke-width="3" stroke-linejoin="round" stroke-miterlimit="10" fill="none" fill-rule="evenodd"/><path d="M525.5 142.3C525.5 138.544 528.542 135.5 532.295 135.5L688.705 135.5C692.458 135.5 695.5 138.544 695.5 142.3L695.5 196.7C695.5 200.456 692.458 203.5 688.705 203.5L532.295 203.5C528.542 203.5 525.5 200.456 525.5 196.7L525.5 142.3Z" stroke="#4BACC6" stroke-width="3" stroke-linejoin="round" stroke-miterlimit="10" fill="#FFFFFF" fill-rule="evenodd"/><text font-family="Work Sans,Work Sans_MSFontService,sans-serif" font-weight="400" font-size="13" transform="translate(530.603 157)">Ich möchte das Material <tspan font-weight="700" font-size="16" x="28.58" y="17">kommerziell</tspan><tspan font-size="13" x="43.5" y="32">verwenden</tspan></text><path d="M695.5 169.5 798.5 169.5" stroke="#4774AB" stroke-width="2.66667" stroke-linejoin="round" stroke-miterlimit="10" fill="none" fill-rule="evenodd"/><path d="M741.5 142.3C741.5 138.544 745.306 135.5 750 135.5L903 135.5C907.695 135.5 911.5 138.544 911.5 142.3L911.5 196.7C911.5 200.456 907.695 203.5 903 203.5L750 203.5C745.306 203.5 741.5 200.456 741.5 196.7L741.5 142.3Z" stroke="#C0504D" stroke-width="2.66667" stroke-linejoin="round" stroke-miterlimit="10" fill="#FFFFFF" fill-rule="evenodd"/><text font-family="Work Sans,Work Sans_MSFontService,sans-serif" font-weight="700" font-size="15" transform="translate(778.564 165)">CC 0, CC BY, <tspan font-size="15" x="10.1667" y="16">CC BY SA,   </tspan></text><path d="M491.153 207.838 525.21 246.823" stroke="#4BACC6" stroke-width="3" stroke-linejoin="round" stroke-miterlimit="10" fill="none" fill-rule="evenodd"/><path d="M525.5 220.3C525.5 216.544 528.542 213.5 532.295 213.5L688.705 213.5C692.458 213.5 695.5 216.544 695.5 220.3L695.5 274.7C695.5 278.456 692.458 281.5 688.705 281.5L532.295 281.5C528.542 281.5 525.5 278.456 525.5 274.7L525.5 220.3Z" stroke="#4BACC6" stroke-width="3" stroke-linejoin="round" stroke-miterlimit="10" fill="#FFFFFF" fill-rule="evenodd"/><text font-family="Work Sans,Work Sans_MSFontService,sans-serif" font-weight="400" font-size="13" transform="translate(530.603 235)">Ich möchte das Material <tspan font-weight="700" font-size="16" x="4.66663" y="17">nicht kommerziell </tspan><tspan font-size="13" x="43.5" y="32">verwenden</tspan></text><path d="M695.5 247.5 798.5 247.5" stroke="#4774AB" stroke-width="2.66667" stroke-linejoin="round" stroke-miterlimit="10" fill="none" fill-rule="evenodd"/><path d="M741.5 220.3C741.5 216.544 745.306 213.5 750 213.5L903 213.5C907.695 213.5 911.5 216.544 911.5 220.3L911.5 274.7C911.5 278.456 907.695 281.5 903 281.5L750 281.5C745.306 281.5 741.5 278.456 741.5 274.7L741.5 220.3Z" stroke="#C0504D" stroke-width="2.66667" stroke-linejoin="round" stroke-miterlimit="10" fill="#FFFFFF" fill-rule="evenodd"/><text font-family="Work Sans,Work Sans_MSFontService,sans-serif" font-weight="700" font-size="15" transform="translate(778.567 235)">CC 0, CC BY, <tspan font-size="15" x="-30.7534" y="16">CC BY SA, CC BY NC,  </tspan><tspan font-size="15" x="-1.16669" y="32">CC BY NC SA   </tspan></text><path d="M295.59 285.809 321.534 363.78" stroke="#4BACC6" stroke-width="3" stroke-linejoin="round" stroke-miterlimit="10" fill="none" fill-rule="evenodd"/><path d="M322.5 337.3C322.5 333.544 325.524 330.5 329.255 330.5L484.745 330.5C488.476 330.5 491.5 333.544 491.5 337.3L491.5 391.7C491.5 395.456 488.476 398.5 484.745 398.5L329.255 398.5C325.524 398.5 322.5 395.456 322.5 391.7L322.5 337.3Z" stroke="#4BACC6" stroke-width="3" stroke-linejoin="round" stroke-miterlimit="10" fill="#FFFFFF" fill-rule="evenodd"/><text font-family="Work Sans,Work Sans_MSFontService,sans-serif" font-weight="400" font-size="13" transform="translate(326.926 359)">Ich möchte das Material <tspan font-weight="700" font-size="16" x="9.5" y="17">vollständig</tspan><tspan font-size="13" x="103.833" y="17">nutzen</tspan></text><path d="M491.153 363.78 525.21 324.794" stroke="#4BACC6" stroke-width="3" stroke-linejoin="round" stroke-miterlimit="10" fill="none" fill-rule="evenodd"/><path d="M525.5 298.3C525.5 294.544 528.542 291.5 532.295 291.5L688.705 291.5C692.458 291.5 695.5 294.544 695.5 298.3L695.5 352.7C695.5 356.456 692.458 359.5 688.705 359.5L532.295 359.5C528.542 359.5 525.5 356.456 525.5 352.7L525.5 298.3Z" stroke="#4BACC6" stroke-width="3" stroke-linejoin="round" stroke-miterlimit="10" fill="#FFFFFF" fill-rule="evenodd"/><text font-family="Work Sans,Work Sans_MSFontService,sans-serif" font-weight="400" font-size="13" transform="translate(530.603 313)">Ich möchte das Material <tspan font-weight="700" font-size="16" x="28.58" y="17">kommerziell</tspan><tspan font-size="13" x="43.5" y="32">verwenden</tspan></text><path d="M695.5 325.5 798.5 325.5" stroke="#4774AB" stroke-width="2.66667" stroke-linejoin="round" stroke-miterlimit="10" fill="none" fill-rule="evenodd"/><path d="M741.5 298.3C741.5 294.544 745.306 291.5 750 291.5L903 291.5C907.695 291.5 911.5 294.544 911.5 298.3L911.5 352.7C911.5 356.456 907.695 359.5 903 359.5L750 359.5C745.306 359.5 741.5 356.456 741.5 352.7L741.5 298.3Z" stroke="#C0504D" stroke-width="2.66667" stroke-linejoin="round" stroke-miterlimit="10" fill="#FFFFFF" fill-rule="evenodd"/><text font-family="Work Sans,Work Sans_MSFontService,sans-serif" font-weight="700" font-size="15" transform="translate(778.564 321)">CC 0, CC BY, <tspan font-size="15" x="-28.8334" y="16">CC BY SA, CC BY ND    </tspan></text><path d="M491.153 363.78 525.21 402.765" stroke="#4BACC6" stroke-width="3" stroke-linejoin="round" stroke-miterlimit="10" fill="none" fill-rule="evenodd"/><path d="M525.5 376.3C525.5 372.544 528.542 369.5 532.295 369.5L688.705 369.5C692.458 369.5 695.5 372.544 695.5 376.3L695.5 430.7C695.5 434.456 692.458 437.5 688.705 437.5L532.295 437.5C528.542 437.5 525.5 434.456 525.5 430.7L525.5 376.3Z" stroke="#4BACC6" stroke-width="3" stroke-linejoin="round" stroke-miterlimit="10" fill="#FFFFFF" fill-rule="evenodd"/><text font-family="Work Sans,Work Sans_MSFontService,sans-serif" font-weight="400" font-size="13" transform="translate(530.603 391)">Ich möchte das Material <tspan font-weight="700" font-size="16" x="4.66663" y="17">nicht kommerziell </tspan><tspan font-size="13" x="43.5" y="32">verwenden</tspan></text><path d="M695.5 403.5 798.5 403.5" stroke="#4774AB" stroke-width="2.66667" stroke-linejoin="round" stroke-miterlimit="10" fill="none" fill-rule="evenodd"/><path d="M741.5 376.3C741.5 372.544 745.306 369.5 750 369.5L903 369.5C907.695 369.5 911.5 372.544 911.5 376.3L911.5 430.7C911.5 434.456 907.695 437.5 903 437.5L750 437.5C745.306 437.5 741.5 434.456 741.5 430.7L741.5 376.3Z" stroke="#C0504D" stroke-width="2.66667" stroke-linejoin="round" stroke-miterlimit="10" fill="#FFFFFF" fill-rule="evenodd"/><text font-family="Work Sans,Work Sans_MSFontService,sans-serif" font-weight="700" font-size="15" transform="translate(755.98 383)">CC0, CC BY, CC BY <tspan font-size="15" x="-10.8334" y="16">SA, CC BY NC,  CC BY </tspan><tspan font-size="15" x="3.33331" y="32">ND, CC BY NC SA, </tspan><tspan font-size="15" x="20.2533" y="48">CC BY NC ND     </tspan></text><path d="M96.0344 441.325 122.603 591.5" stroke="#4BACC6" stroke-width="3" stroke-linejoin="round" stroke-miterlimit="10" fill="none" fill-rule="evenodd"/><path d="M123.5 565.2C123.5 561.5 126.524 558.5 130.255 558.5L285.745 558.5C289.476 558.5 292.5 561.5 292.5 565.2L292.5 618.8C292.5 622.5 289.476 625.5 285.745 625.5L130.255 625.5C126.524 625.5 123.5 622.5 123.5 618.8L123.5 565.2Z" stroke="#4BACC6" stroke-width="3" stroke-linejoin="round" stroke-miterlimit="10" fill="#FFFFFF" fill-rule="evenodd"/><text font-family="Work Sans,Work Sans_MSFontService,sans-serif" font-weight="400" font-size="13" transform="translate(127.996 587)">Ich möchte das Material <tspan font-weight="700" font-size="16" x="38" y="17">verändern</tspan></text><path d="M292.222 591.5 322.334 555.382" stroke="#4BACC6" stroke-width="3" stroke-linejoin="round" stroke-miterlimit="10" fill="none" fill-rule="evenodd"/><path d="M322.5 528.3C322.5 524.544 325.542 521.5 329.295 521.5L485.705 521.5C489.458 521.5 492.5 524.544 492.5 528.3L492.5 582.7C492.5 586.456 489.458 589.5 485.705 589.5L329.295 589.5C325.542 589.5 322.5 586.456 322.5 582.7L322.5 528.3Z" stroke="#4BACC6" stroke-width="3" stroke-linejoin="round" stroke-miterlimit="10" fill="#FFFFFF" fill-rule="evenodd"/><text font-family="Work Sans,Work Sans_MSFontService,sans-serif" font-weight="400" font-size="13" transform="translate(327.727 543)">Ich möchte das Material <tspan font-weight="700" font-size="16" x="28.58" y="17">kommerziell</tspan><tspan font-size="13" x="43.5" y="32">verwenden</tspan></text><path d="M525.5 526.3C525.5 522.544 528.594 519.5 532.41 519.5L688.59 519.5C692.406 519.5 695.5 522.544 695.5 526.3L695.5 580.7C695.5 584.456 692.406 587.5 688.59 587.5L532.41 587.5C528.594 587.5 525.5 584.456 525.5 580.7L525.5 526.3Z" stroke="#C0504D" stroke-width="2.66667" stroke-linejoin="round" stroke-miterlimit="10" fill="#FFFFFF" fill-rule="evenodd"/><text font-family="Work Sans,Work Sans_MSFontService,sans-serif" font-weight="700" font-size="15" transform="translate(562.71 549)">CC 0, CC BY, <tspan font-size="15" x="12.3334" y="16">CC BY SA </tspan></text><path d="M292.222 591.5 322.334 628.495" stroke="#4BACC6" stroke-width="3" stroke-linejoin="round" stroke-miterlimit="10" fill="none" fill-rule="evenodd"/><path d="M322.5 602.2C322.5 598.5 325.542 595.5 329.295 595.5L485.705 595.5C489.458 595.5 492.5 598.5 492.5 602.2L492.5 655.8C492.5 659.5 489.458 662.5 485.705 662.5L329.295 662.5C325.542 662.5 322.5 659.5 322.5 655.8L322.5 602.2Z" stroke="#4BACC6" stroke-width="3" stroke-linejoin="round" stroke-miterlimit="10" fill="#FFFFFF" fill-rule="evenodd"/><text font-family="Work Sans,Work Sans_MSFontService,sans-serif" font-weight="400" font-size="13" transform="translate(327.727 616)">Ich möchte das Material <tspan font-weight="700" font-size="16" x="4.66666" y="17">nicht kommerziell </tspan><tspan font-size="13" x="43.5" y="32">verwenden</tspan></text><path d="M491.953 628.495 525.36 628.257" stroke="#4774AB" stroke-width="2.66667" stroke-linejoin="round" stroke-miterlimit="10" fill="none" fill-rule="evenodd"/><path d="M525.5 601.3C525.5 597.544 528.594 594.5 532.41 594.5L688.59 594.5C692.406 594.5 695.5 597.544 695.5 601.3L695.5 655.7C695.5 659.456 692.406 662.5 688.59 662.5L532.41 662.5C528.594 662.5 525.5 659.456 525.5 655.7L525.5 601.3Z" stroke="#C0504D" stroke-width="2.66667" stroke-linejoin="round" stroke-miterlimit="10" fill="#FFFFFF" fill-rule="evenodd"/><text font-family="Work Sans,Work Sans_MSFontService,sans-serif" font-weight="700" font-size="15" transform="translate(562.713 616)">CC 0, CC BY, <tspan font-size="15" x="-30.7533" y="16">CC BY SA, CC BY NC, </tspan><tspan font-size="15" x="-1.16663" y="32">CC BY NC SA    </tspan></text></g></svg>